<?xml version="1.0" encoding="utf-8"?>
<!-- Generator: Adobe Illustrator 24.1.1, SVG Export Plug-In . SVG Version: 6.00 Build 0)  -->
<svg version="1.1" id="Layer_1" xmlns="http://www.w3.org/2000/svg" xmlns:xlink="http://www.w3.org/1999/xlink" x="0px" y="0px"
	 viewBox="0 0 27 27" style="enable-background:new 0 0 27 27;" xml:space="preserve">
<style type="text/css">
	.st0{fill-rule:evenodd;clip-rule:evenodd;fill:#FFFFFF;}
</style>
<desc>Created with Sketch.</desc>
<g id="Atoms_x2F_Icon_x2F_app-tips">
	<path id="app-tips" class="st0" d="M14,2c6.6,0,12,5.4,12,12c0,0.3-0.4,0.4-0.8,0.4H14.4v7.9c0,2.1-1.5,3.8-3.6,3.8
		c-2.1,0-3.8-1.7-3.8-3.8c0-0.3,0.3-0.6,0.6-0.6c0.3,0,0.6,0.3,0.6,0.6c0,1.5,1.2,2.7,2.7,2.7c0.7,0,1.3-0.3,1.8-0.8
		s0.7-1.2,0.7-1.9v-7.9H2.4C2.1,14.4,2,14.3,2,14C2,7.4,7.4,2,14,2z M14,3.1C8.3,3.1,3.5,7.5,3.1,13.3h21.8
		C24.5,7.5,19.7,3.1,14,3.1z"/>
</g>
</svg>
