<?xml version="1.0" encoding="utf-8"?>
<!-- Generator: Adobe Illustrator 23.0.3, SVG Export Plug-In . SVG Version: 6.00 Build 0)  -->
<svg version="1.1" id="Layer_1" xmlns="http://www.w3.org/2000/svg" xmlns:xlink="http://www.w3.org/1999/xlink" x="0px" y="0px"
	 viewBox="0 0 27 27" style="enable-background:new 0 0 27 27;" xml:space="preserve">
<style type="text/css">
	.st0{fill-rule:evenodd;clip-rule:evenodd;fill:#FFFFFF;}
</style>
<title>Atoms/Icon/calender</title>
<desc>Created with Sketch.</desc>
<g>
	<g id="Calendar-icon">
		<path class="st0" d="M7.8,10.9H4.7V14h3.1V10.9z M8.8,9.9v5.2H3.6V9.9H8.8z M14.8,10.9h-3.1V14h3.1V10.9z M15.9,9.9L15.9,9.9
			l0,5.2h-5.2V9.9H15.9z M21.9,10.9h-3.1V14h3.1V10.9z M23,9.9v5.2h-5.2V9.9H23z M7.8,18.1H4.7v3.1h3.1V18.1z M8.8,17v5.2H3.6V17
			H8.8z M14.8,18.1h-3.1v3.1h3.1V18.1z M15.9,17L15.9,17l0,5.2h-5.2V17H15.9z M21.9,18.1h-3.1v3.1h3.1V18.1z M23,17v5.2h-5.2V17H23z
			 M18.5,7.1c-0.3,0-0.5-0.2-0.5-0.6v-4c0-0.3,0.2-0.6,0.5-0.6C18.8,2,19,2.2,19,2.6v4C19,6.8,18.8,7.1,18.5,7.1z M8.1,7.1
			c-0.3,0-0.5-0.2-0.5-0.6v-4C7.6,2.2,7.8,2,8.1,2c0.3,0,0.5,0.2,0.5,0.6v4C8.7,6.8,8.4,7.1,8.1,7.1z M9.8,3.6h7.1v1.1H9.8V3.6z
			 M23.5,3.6c1.1,0,2.1,0.9,2.1,2.1v17.4c0,1.2-1,2.1-2.1,2.1H3.1c-1.2,0-2.1-1-2.1-2.1V5.7c0-1.2,1-2.1,2.1-2.1h3.4v1.1H3.1
			c-0.6,0-1,0.5-1,1.1v17.3c0,0.6,0.5,1.1,1,1.1h20.4c0.6,0,1-0.5,1-1.1V5.7c0-0.6-0.5-1.1-1-1.1h-3.4V3.6H23.5z"/>
	</g>
</g>
</svg>
