<?xml version="1.0" encoding="utf-8"?>
<!-- Generator: Adobe Illustrator 24.1.1, SVG Export Plug-In . SVG Version: 6.00 Build 0)  -->
<svg version="1.1" id="Layer_1" xmlns="http://www.w3.org/2000/svg" xmlns:xlink="http://www.w3.org/1999/xlink" x="0px" y="0px"
	 viewBox="0 0 27 27" style="enable-background:new 0 0 27 27;" xml:space="preserve">
<style type="text/css">
	.st0{fill-rule:evenodd;clip-rule:evenodd;}
</style>
<desc>Created with Sketch.</desc>
<g id="Atoms_x2F_Icon_x2F_house2">
	<g id="Combined-Shape">
		<path id="path-1_1_" class="st0" d="M22.1,12.3l-8.6-8.1l-8.6,8.1c0,0.1,0,0.1,0,0.2v12.3c0,0.2,0.2,0.4,0.5,0.4h4.5h7.3h4.5
			c0.2,0,0.5-0.2,0.5-0.4V12.5C22.1,12.5,22.1,12.4,22.1,12.3z M23,13.1v11.6c0,0.7-0.6,1.2-1.4,1.2H5.4C4.6,26,4,25.5,4,24.8V13.1
			l-0.5,0.4c0,0-0.1,0-0.1,0.1C3.2,13.9,2.9,14,2.5,14H2.4c-0.6,0-1.1-0.3-1.3-0.8c-0.2-0.5-0.1-1,0.3-1.4L12.5,1.4
			c0.5-0.5,1.4-0.5,2,0l11.1,10.4c0.4,0.4,0.5,0.9,0.3,1.4c-0.2,0.5-0.7,0.8-1.3,0.8h-0.2c-0.3,0-0.6-0.1-0.9-0.3c0,0-0.1,0-0.1-0.1
			L23,13.1z"/>
	</g>
</g>
</svg>
