<?xml version="1.0" encoding="utf-8"?>
<!-- Generator: Adobe Illustrator 23.0.3, SVG Export Plug-In . SVG Version: 6.00 Build 0)  -->
<svg version="1.1" id="Layer_1" xmlns="http://www.w3.org/2000/svg" xmlns:xlink="http://www.w3.org/1999/xlink" x="0px" y="0px"
	 viewBox="0 0 27 27" style="enable-background:new 0 0 27 27;" xml:space="preserve">
<style type="text/css">
	.st0{fill-rule:evenodd;clip-rule:evenodd;fill:#FFFFFF;}
</style>
<title>Atoms/Icon/payment</title>
<desc>Created with Sketch.</desc>
<g>
	<g id="Combined-Shape">
		<path class="st0" d="M24.2,4H2.8C1.8,4,1,4.8,1,5.8v14.8c0,1,0.8,1.8,1.8,1.8h21.5c1,0,1.8-0.8,1.8-1.8V5.8C26,4.8,25.2,4,24.2,4z
			 M25.2,20.6c0,0.5-0.4,0.9-0.9,0.9H2.8c-0.5,0-0.9-0.4-0.9-0.9V5.8c0-0.5,0.4-0.9,0.9-0.9h21.5c0.5,0,0.9,0.4,0.9,0.9V20.6z
			 M7.7,16.1H3.9c-0.2,0-0.4,0.2-0.4,0.4s0.2,0.4,0.4,0.4h3.7c0.2,0,0.4-0.2,0.4-0.4S7.9,16.1,7.7,16.1z M13.1,16.1H9.3
			c-0.2,0-0.4,0.2-0.4,0.4s0.2,0.4,0.4,0.4h3.8c0.2,0,0.4-0.2,0.4-0.4S13.3,16.1,13.1,16.1z M4.3,18.2H3.9c-0.2,0-0.4,0.2-0.4,0.4
			c0,0.2,0.2,0.4,0.4,0.4h0.4c0.2,0,0.4-0.2,0.4-0.4C4.8,18.4,4.6,18.2,4.3,18.2z M6.8,18.2H6c-0.2,0-0.4,0.2-0.4,0.4
			C5.6,18.8,5.8,19,6,19h0.8c0.2,0,0.4-0.2,0.4-0.4C7.3,18.4,7.1,18.2,6.8,18.2z M8.9,18.2H8.5c-0.2,0-0.4,0.2-0.4,0.4
			c0,0.2,0.2,0.4,0.4,0.4h0.4c0.2,0,0.4-0.2,0.4-0.4C9.3,18.4,9.1,18.2,8.9,18.2z M11.4,18.2h-0.8c-0.2,0-0.4,0.2-0.4,0.4
			c0,0.2,0.2,0.4,0.4,0.4h0.8c0.2,0,0.4-0.2,0.4-0.4C11.8,18.4,11.6,18.2,11.4,18.2z M12.8,18.3c-0.1,0.1-0.1,0.2-0.1,0.3
			s0,0.2,0.1,0.3C12.9,19,13,19,13.1,19c0.1,0,0.2,0,0.3-0.1c0.1-0.1,0.1-0.2,0.1-0.3s0-0.2-0.1-0.3C13.2,18.1,12.9,18.1,12.8,18.3z
			 M21,14.4c-0.5,0-1,0.1-1.5,0.4c-0.4-0.2-0.9-0.4-1.5-0.4c-1.6,0-2.9,1.3-2.9,2.9s1.3,2.9,2.9,2.9c0.5,0,1-0.1,1.5-0.4
			c0.4,0.2,0.9,0.4,1.5,0.4c1.6,0,2.9-1.3,2.9-2.9S22.6,14.4,21,14.4z M20.2,17.3c0,0.6-0.2,1.1-0.6,1.5c-0.4-0.4-0.6-0.9-0.6-1.5
			s0.2-1.1,0.6-1.5C19.9,16.2,20.2,16.8,20.2,17.3z M16,17.3c0-1.1,0.9-2.1,2.1-2.1c0.3,0,0.5,0.1,0.7,0.1c-0.5,0.5-0.7,1.2-0.7,1.9
			c0,0.7,0.3,1.4,0.7,1.9c-0.2,0.1-0.5,0.1-0.7,0.1C16.9,19.4,16,18.5,16,17.3z M21,19.4c-0.3,0-0.5-0.1-0.7-0.1
			c0.5-0.5,0.7-1.2,0.7-1.9c0-0.7-0.3-1.4-0.7-1.9c0.2-0.1,0.5-0.1,0.7-0.1c1.1,0,2.1,0.9,2.1,2.1C23.1,18.5,22.1,19.4,21,19.4z
			 M4.4,13.2h2.5h0.6h2.5c0.5,0,0.9-0.4,0.9-0.9V8.9V8.3c0-0.5-0.4-0.9-0.9-0.9H6.9H4.4c-0.5,0-0.9,0.4-0.9,0.9v4
			C3.5,12.7,3.9,13.2,4.4,13.2z M6,10.7H4.3V9.8H6V10.7z M4.3,12.2v-0.7H6v0.7c0,0,0,0.1,0,0.1H4.4C4.4,12.3,4.3,12.3,4.3,12.2z
			 M10.2,10.7H8.5V9.9c0-0.1,0-0.1,0.1-0.1h1.5c0,0,0.1,0,0.1,0V10.7L10.2,10.7z M10.1,12.3H8.5c0,0,0-0.1,0-0.1v-0.7h1.7v0.7
			C10.2,12.3,10.1,12.3,10.1,12.3z M10.1,8.2c0.1,0,0.1,0,0.1,0.1v0.6c0,0.1,0,0.1-0.1,0.1H8.6C8.1,9,7.7,9.4,7.7,9.9v2.3
			c0,0.1,0,0.1-0.1,0.1H6.9c-0.1,0-0.1,0-0.1-0.1v-4c0-0.1,0-0.1,0.1-0.1H10.1z M4.4,8.2H6c0,0,0,0.1,0,0.1V9H4.3V8.3
			C4.3,8.2,4.4,8.2,4.4,8.2z"/>
	</g>
</g>
</svg>
