<?xml version="1.0" encoding="UTF-8"?>
<svg width="27px" height="27px" viewBox="0 0 27 27" version="1.1" xmlns="http://www.w3.org/2000/svg" xmlns:xlink="http://www.w3.org/1999/xlink">
    <!-- Generator: Sketch 55.1 (78136) - https://sketchapp.com -->
    <title>Atoms/Icon/take-picture</title>
    <desc>Created with Sketch.</desc>
    <g id="Atoms/Icon/take-picture" stroke="none" stroke-width="1" fill="none" fill-rule="evenodd">
        <path d="M14,10.122449 C16.6468,10.122449 18.8,12.3195918 18.8,15.0204082 C18.8,17.7212245 16.6468,19.9183673 14,19.9183673 C11.3532,19.9183673 9.2,17.7212245 9.2,15.0204082 C9.2,12.3195918 11.3532,10.122449 14,10.122449 Z M24.0804,8.08163265 C25.1392,8.08163265 26,8.96 26,10.0404082 L26,22.0273469 C26,23.115102 25.1328,24 24.0668,24 L3.9332,24 C2.8672,24 2,23.115102 2,22.0273469 L2,10.0404082 C2,8.96 2.8608,8.08163265 3.9196,8.08163265 L4.4,8.08163265 L4.4,6.04081633 L6.8,6.04081633 L6.8,8.08163265 L7.3292,8.08163265 L8.9292,4 L19.0708,4 L20.6708,8.08163265 L24.0804,8.08163265 Z M6,8.08163265 L6,6.85714286 L5.2,6.85714286 L5.2,8.08163265 L6,8.08163265 Z M14,22.3673469 C17.97,22.3673469 21.2,19.0714286 21.2,15.0204082 C21.2,10.9693878 17.97,7.67346939 14,7.67346939 C10.03,7.67346939 6.8,10.9693878 6.8,15.0204082 C6.8,19.0714286 10.03,22.3673469 14,22.3673469 Z M22.8,12.9795918 C23.6824,12.9795918 24.4,12.2473469 24.4,11.3469388 C24.4,10.4465306 23.6824,9.71428571 22.8,9.71428571 C21.9176,9.71428571 21.2,10.4465306 21.2,11.3469388 C21.2,12.2473469 21.9176,12.9795918 22.8,12.9795918 Z" id="Combined-Shape" fill="#627790"></path>
    </g>
</svg>