<?xml version="1.0" encoding="UTF-8"?>
<svg width="27px" height="27px" viewBox="0 0 27 27" version="1.1" xmlns="http://www.w3.org/2000/svg" xmlns:xlink="http://www.w3.org/1999/xlink">
    <!-- Generator: Sketch 55.1 (78136) - https://sketchapp.com -->
    <title>Atoms/Icon/wallet</title>
    <desc>Created with Sketch.</desc>
    <g id="Atoms/Icon/wallet" stroke="none" stroke-width="1" fill="none" fill-rule="evenodd">
        <path d="M25.2059677,15.6432617 C25.6435806,15.6432617 25.9995645,16.0024902 25.9995645,16.4440918 L25.9995645,20.2460938 C25.9995645,20.6876465 25.6435806,21.046875 25.2059677,21.046875 L24.8352258,21.046875 L24.8352258,24.4166992 C24.8352258,25.2897461 24.1313871,26 23.2662258,26 L3.56943548,26 C2.70422581,26 2.0003871,25.2897461 2.0003871,24.4166992 L2.0003871,12.2733887 C2.0003871,11.6357422 2.37606452,11.0853516 2.91562903,10.834668 L2.91562903,10.5216797 C2.91562903,9.85610352 3.45224194,9.31464844 4.11175806,9.31464844 L5.01587097,9.31464844 L5.54677419,3.89130859 C5.60875806,3.25820313 6.16970968,2.7940918 6.797,2.85654297 L12.2683226,3.40195313 C12.4623548,3.42128906 12.6040806,3.5956543 12.5849194,3.79145508 C12.5657581,3.98725586 12.3929677,4.12983398 12.1989355,4.1109375 L6.7276129,3.56552734 C6.48732258,3.54125977 6.2731129,3.71918945 6.24940323,3.96137695 L5.59075806,10.6900879 L6.04090323,10.6900879 L6.46419355,6.36567383 C6.49554839,6.0453125 6.69945161,5.77617188 6.99640323,5.66318359 C7.39090323,5.51308594 7.73280645,5.2328125 7.95906452,4.87392578 C8.12745161,4.60693359 8.42716129,4.46079102 8.74143548,4.4918457 L11.4489355,4.76176758 C11.6429677,4.78110352 11.7846935,4.95546875 11.7655323,5.15126953 C11.746371,5.34707031 11.5736774,5.48974609 11.3795484,5.47075195 L8.67204839,5.20083008 C8.62472581,5.19599609 8.579,5.21796875 8.55475806,5.25639648 C8.24701613,5.74448242 7.78201613,6.12573242 7.24545161,6.32988281 C7.2023871,6.34624023 7.17151613,6.38779297 7.16682258,6.43574219 L6.75035484,10.6901367 L8.47656452,10.6901367 L14.6798387,1.50444336 C14.8518065,1.24975586 15.1117903,1.07792969 15.4118387,1.02055664 C15.7120323,0.963085938 16.0161935,1.02714844 16.2685323,1.20073242 L23.4555161,6.14311523 C23.9764516,6.50141602 24.1114516,7.22060547 23.7564355,7.74628906 L22.6972903,9.31464844 L22.9741129,9.31464844 C23.6336774,9.31464844 24.1702419,9.85610352 24.1702419,10.5216797 L24.1702419,10.9805176 C24.5720968,11.2675293 24.8352258,11.7398926 24.8352258,12.2733887 L24.8352258,15.6432617 L25.2059677,15.6432617 Z M22.9741129,10.0271484 L22.216129,10.0271484 L21.7684032,10.6901855 L23.2662258,10.6901855 C23.3333387,10.6901855 23.3992903,10.6949219 23.4642258,10.7032227 L23.4642258,10.5217285 C23.4642258,10.2489746 23.2444032,10.0270996 22.9741129,10.0271484 Z M15.2632419,1.90561523 L9.33093548,10.6900879 L9.87306452,10.6900879 L14.3101129,4.11977539 C14.4870645,3.8578125 14.8011452,3.71669922 15.1108226,3.76054688 C15.5284032,3.81953125 15.9616129,3.73881836 16.3305645,3.53325195 C16.6051129,3.38027344 16.9377258,3.39672852 17.1986774,3.57617188 L20.9243871,6.13828125 C21.1852903,6.31767578 21.322129,6.62402344 21.2814839,6.9378418 C21.2268065,7.35966797 21.3108065,7.79604492 21.518,8.16665039 C21.6739032,8.44560547 21.6590968,8.78408203 21.4794839,9.05004883 L20.3719516,10.6900879 L20.9140806,10.6900879 L23.1730806,7.34501953 C23.3088548,7.14394531 23.2571774,6.86884766 23.0579194,6.73178711 L15.8709355,1.7894043 C15.7974839,1.73891602 15.7125161,1.71264648 15.6255645,1.71264648 C15.5982258,1.71264648 15.5706935,1.7152832 15.5432581,1.72050781 C15.4284839,1.74248047 15.3290484,1.80820313 15.2632419,1.90561523 Z M15.4187097,7.95498047 C16.9561129,7.95498047 18.218,9.16459961 18.3209194,10.6900879 L19.5176774,10.6900879 L20.896129,8.64882813 C20.9229355,8.6090332 20.9256935,8.55717773 20.9030968,8.51669922 C20.6213387,8.01269531 20.5070484,7.41923828 20.5814194,6.84555664 C20.5872258,6.80043945 20.5657903,6.75395508 20.5267903,6.72709961 L16.8010323,4.16494141 C16.7619355,4.13808594 16.7112258,4.13491211 16.6717419,4.15698242 C16.169871,4.43662109 15.5807581,4.54628906 15.0127903,4.46611328 C15.0074194,4.46538086 15.0020484,4.46499023 14.9966774,4.46499023 C14.956371,4.46499023 14.917129,4.48588867 14.8934677,4.52099609 C14.8934677,4.52099609 14.8934677,4.52099609 14.8934194,4.52099609 L10.7273387,10.6900879 L12.5166452,10.6900879 C12.6194677,9.16459961 13.8814032,7.95498047 15.4187097,7.95498047 Z M17.6129677,10.6901367 C17.5118871,9.55786133 16.5666452,8.66743164 15.4187097,8.66748047 C14.2708226,8.66748047 13.325629,9.55786133 13.2245,10.6901367 L17.6129677,10.6901367 Z M3.62164516,10.5216797 L3.62164516,10.6900879 L4.88125806,10.6900879 L4.94614516,10.0270508 L4.11175806,10.0270508 C3.84146774,10.0270508 3.62164516,10.2489258 3.62164516,10.5216797 Z M2.70640323,12.2733887 L2.70640323,13.2618652 L24.1292097,13.2618652 L24.1292097,12.2733887 C24.1292097,11.7932129 23.7421129,11.4025391 23.2662258,11.4025391 L3.56943548,11.4025391 C3.09354839,11.4025391 2.70640323,11.7932129 2.70640323,12.2733887 Z M24.1292097,24.4166992 L24.1292097,23.4282227 L6.87040323,23.4282227 C6.67545161,23.4282227 6.51741935,23.26875 6.51741935,23.0720215 C6.51741935,22.875293 6.67540323,22.7158203 6.87040323,22.7158203 L24.1292097,22.7158203 L24.1292097,21.046875 L20.7727419,21.046875 L20.7726935,21.046875 C19.2964032,21.046875 18.0953387,19.8348633 18.0953387,18.3450684 C18.0953387,18.0660645 18.1374839,17.796875 18.215629,17.5435059 C18.2157258,17.5431641 18.2158226,17.5428711 18.2159194,17.5425293 C18.2525484,17.4239746 18.2975484,17.309082 18.3493226,17.1980957 C18.3529032,17.1903809 18.3560968,17.1824219 18.3597742,17.1747559 C18.3612742,17.1717285 18.3629194,17.1687988 18.364371,17.1657715 C18.799129,16.265332 19.7151935,15.6432617 20.7727419,15.6432617 L20.7727903,15.6432617 L24.1292097,15.6432617 L24.1292097,13.9743164 L2.70640323,13.9743164 L2.70640323,22.7158203 L4.61004839,22.7158203 C4.805,22.7158203 4.96303226,22.875293 4.96303226,23.0720215 C4.96303226,23.26875 4.80504839,23.4282227 4.61004839,23.4282227 L2.70640323,23.4282227 L2.70640323,24.4166992 C2.70640323,24.896875 3.09354839,25.2875488 3.56943548,25.2875488 L23.2662258,25.2875488 C23.7421129,25.2875488 24.1292097,24.896875 24.1292097,24.4166992 Z M25.2935968,20.2460449 L25.2935968,16.4440918 C25.2935968,16.3953613 25.2542581,16.3557129 25.2059677,16.3557129 L20.7728387,16.3557129 C20.0255,16.3557129 19.3739194,16.7775391 19.0397097,17.3976074 C19.0245161,17.4257813 19.01,17.4543945 18.9961129,17.4833496 C18.9684355,17.5413574 18.9434194,17.6008789 18.9212581,17.6617676 C18.8437903,17.8749512 18.8014516,18.105127 18.8014516,18.3450684 C18.8014516,18.5850098 18.8437419,18.8151855 18.9212581,19.0283691 C18.943371,19.0893066 18.9683871,19.1488281 18.9961129,19.2067871 C19.01,19.2357422 19.0245161,19.2643555 19.0397097,19.2925293 C19.3739194,19.9125977 20.0255,20.3344238 20.7728387,20.3344238 L25.2059677,20.3344238 C25.2543065,20.3344238 25.2935968,20.2947754 25.2935968,20.2460449 Z M20.8555323,16.8997559 C21.6453065,16.8997559 22.2877903,17.5481445 22.2877903,18.3450684 C22.2877903,19.1419922 21.6453065,19.790332 20.8555323,19.790332 C20.0657581,19.790332 19.4232742,19.1419922 19.4232742,18.3450684 C19.4232742,17.5481445 20.0657581,16.8997559 20.8555323,16.8997559 Z M20.8555323,19.0778809 C21.2559839,19.0778809 21.5817742,18.7491699 21.5817742,18.3450684 C21.5817742,17.9409668 21.2559839,17.612207 20.8555323,17.612207 C20.4550806,17.612207 20.1292903,17.9410156 20.1292903,18.3450684 C20.1292903,18.7491211 20.4550806,19.0778809 20.8555323,19.0778809 Z" id="Combined-Shape" fill="#A1BCCF"></path>
    </g>
</svg>