<?xml version="1.0" encoding="utf-8" ?>
<svg xmlns="http://www.w3.org/2000/svg" xmlns:xlink="http://www.w3.org/1999/xlink" width="451" height="289">
	<rect fill="rgb(255,255,255)" stroke="none" width="451" height="257"/>
	<path fill="none" stroke="rgb(66,191,184)" stroke-width="1" stroke-miterlimit="4" transform="translate(301.5 46.5601)" d="M0 0.5L21 0.5"/>
	<path fill="none" stroke="rgb(66,191,184)" stroke-width="1" stroke-miterlimit="4" transform="translate(53.835 102.106)" d="M10.915 5.69361C10.915 8.69361 5.46502 16.1436 5.46502 16.1436C5.46502 16.1436 0.00501975 8.70362 0.00501975 5.69361C-0.0808281 3.68902 0.939705 1.79883 2.66284 0.770929C4.38598 -0.256976 6.53406 -0.256976 8.2572 0.770929C9.98033 1.79883 11.0009 3.68902 10.915 5.69361L10.915 5.69361Z"/>
	<path fill="none" stroke="rgb(66,191,184)" stroke-width="1" stroke-miterlimit="4" transform="translate(57.4899 106)" d="M3.60005 1.80003C3.60004 2.52897 3.16039 3.18594 2.48655 3.46394C1.81271 3.74195 1.03772 3.58611 0.523719 3.06924C0.00971847 2.55237 -0.141804 1.77652 0.139956 1.10424C0.421715 0.431957 1.08112 -0.00402169 1.81005 2.79722e-05C2.28653 2.05368e-05 2.74334 0.189981 3.07932 0.527837C3.4153 0.865693 3.60271 1.32356 3.60005 1.80003L3.60005 1.80003Z"/>
	<path fill="none" stroke="rgb(66,191,184)" stroke-width="1" stroke-miterlimit="4" transform="translate(354.45 95.8799)" d="M10.92 5.46C10.92 8.46 5.46001 15.92 5.46001 15.92C5.46001 15.92 0 8.47 0 5.46C5.68435e-14 2.44453 2.44453 0 5.46001 0C8.47548 0 10.92 2.44453 10.92 5.46L10.92 5.46Z"/>
	<path fill="none" stroke="rgb(66,191,184)" stroke-width="1" stroke-miterlimit="4" transform="translate(358.12 99.54)" d="M3.57996 1.8C3.57444 2.78727 2.77061 3.58366 1.78334 3.57999C0.796062 3.57632 -0.00182511 2.77397 3.13562e-06 1.78669C0.00183138 0.799403 0.802685 1.54067e-05 1.78997 0C2.26644 -7.43546e-06 2.72325 0.189953 3.05923 0.52781C3.39521 0.865666 3.58262 1.32353 3.57996 1.8Z"/>
	<path fill="none" stroke="rgb(66,191,184)" stroke-width="1" stroke-miterlimit="4" transform="translate(413.885 90.9165)" d="M10.915 5.69361C10.915 8.69361 5.46502 16.1536 5.46502 16.1536C5.46502 16.1536 0.00501976 8.70361 0.00501976 5.69361C-0.0808281 3.68901 0.939706 1.79883 2.66284 0.770928C4.38598 -0.256976 6.53407 -0.256976 8.2572 0.770928C9.98034 1.79883 11.0009 3.68901 10.915 5.69361L10.915 5.69361Z"/>
	<path fill="none" stroke="rgb(66,191,184)" stroke-width="1" stroke-miterlimit="4" transform="translate(417.57 94.8101)" d="M3.60004 1.80003C3.60003 2.52897 3.16038 3.18594 2.48654 3.46394C1.8127 3.74195 1.03772 3.58611 0.523717 3.06924C0.00971844 2.55237 -0.141803 1.77652 0.139955 1.10424C0.421714 0.431957 1.08112 -0.00402169 1.81005 2.79722e-05C2.28652 2.05368e-05 2.74333 0.189981 3.07931 0.527837C3.41529 0.865693 3.6027 1.32356 3.60004 1.80003L3.60004 1.80003Z"/>
	<path fill="none" stroke="rgb(66,191,184)" stroke-width="1" stroke-miterlimit="4" transform="translate(74.275 75.7703)" d="M12.655 2.17985C15.5444 5.07519 15.5413 9.7642 12.6479 12.6556C9.7545 15.547 5.0655 15.547 2.17212 12.6556C-0.721258 9.7642 -0.724444 5.07519 2.165 2.17985C3.55377 0.784473 5.44131 0 7.41 0C9.37869 0 11.2662 0.784473 12.655 2.17985L12.655 2.17985Z"/>
	<path fill="none" stroke="rgb(66,191,184)" stroke-width="1" stroke-miterlimit="4" transform="translate(76.45 77.95)" d="M5.24 10.48C8.13397 10.48 10.48 8.13397 10.48 5.24C10.48 2.34603 8.13397 0 5.24 0C2.34603 0 0 2.34603 0 5.24C0 8.13397 2.34603 10.48 5.24 10.48Z"/>
	<path fill="none" stroke="rgb(66,191,184)" stroke-width="1" stroke-miterlimit="4" transform="translate(85.01 86.51)" d="M1.92 1.92C1.35953 2.4843 0.711081 2.95375 0 3.31L9.58 12.88C10.0158 13.3209 10.61 13.5691 11.23 13.5691C11.85 13.5691 12.4442 13.3209 12.88 12.88L12.88 12.88C13.3209 12.4442 13.5691 11.85 13.5691 11.23C13.5691 10.61 13.3209 10.0158 12.88 9.58L3.31 0C2.95375 0.711081 2.4843 1.35953 1.92 1.92L1.92 1.92Z"/>
	<path fill="none" stroke="rgb(66,191,184)" stroke-width="1" stroke-miterlimit="4" transform="translate(113.5 76.6799)" d="M2.84217e-14 3.65005L2.84217e-14 11.1701C2.84217e-14 13.1859 1.63416 14.8201 3.65 14.8201L18.73 14.8201L22.31 17.8201L22.31 3.65005C22.31 1.63422 20.6758 5.48723e-05 18.66 5.48723e-05L3.67 5.48723e-05C2.6985 -0.0052685 1.76496 0.376933 1.07612 1.06202C0.387282 1.7471 -1.45847e-05 2.67854 0 3.65005L2.84217e-14 3.65005Z"/>
	<path fill="none" stroke="rgb(66,191,184)" stroke-width="1" stroke-miterlimit="4" transform="translate(117.42 85.6599)" d="M0 0.5L14.52 0.5"/>
	<path fill="none" stroke="rgb(66,191,184)" stroke-width="1" stroke-miterlimit="4" transform="translate(117.42 81.6599)" d="M0 0.5L14.52 0.5"/>
	<path fill="none" stroke="rgb(66,191,184)" stroke-width="1" stroke-miterlimit="4" transform="translate(165.64 70.8301)" d="M0 0L10.5 0L10.5 33L0 33L0 0Z"/>
	<path fill="none" stroke="rgb(66,191,184)" stroke-width="1" stroke-miterlimit="4" transform="translate(167.7 73.54)" d="M0 0.5L6.37 0.5"/>
	<path fill="none" stroke="rgb(66,191,184)" stroke-width="1" stroke-miterlimit="4" transform="translate(167.7 76.54)" d="M0 0.5L6.37 0.5"/>
	<path fill="none" stroke="rgb(66,191,184)" stroke-width="1" stroke-miterlimit="4" transform="translate(167.7 79.54)" d="M0 0.5L6.37 0.5"/>
	<path fill="none" stroke="rgb(66,191,184)" stroke-width="1" stroke-miterlimit="4" transform="translate(167.7 82.54)" d="M0 0.5L6.37 0.5"/>
	<path fill="none" stroke="rgb(66,191,184)" stroke-width="1" stroke-miterlimit="4" transform="translate(167.7 85.54)" d="M0 0.5L6.37 0.5"/>
	<path fill="none" stroke="rgb(66,191,184)" stroke-width="1" stroke-miterlimit="4" transform="translate(167.7 88.54)" d="M0 0.5L6.37 0.5"/>
	<path fill="none" stroke="rgb(66,191,184)" stroke-width="1" stroke-miterlimit="4" transform="translate(167.7 91.54)" d="M0 0.5L6.37 0.5"/>
	<path fill="none" stroke="rgb(66,191,184)" stroke-width="1" stroke-miterlimit="4" transform="translate(167.7 94.54)" d="M0 0.5L6.37 0.5"/>
	<path fill="none" stroke="rgb(66,191,184)" stroke-width="1" stroke-miterlimit="4" transform="translate(167.7 97.54)" d="M0 0.5L6.37 0.5"/>
	<path fill="none" stroke="rgb(66,191,184)" stroke-width="1" stroke-miterlimit="4" transform="translate(176.14 86.1599)" d="M0 0L14.41 0L14.41 17.67L0 17.67L0 0Z"/>
	<path fill="none" stroke="rgb(66,191,184)" stroke-width="1" stroke-miterlimit="4" transform="translate(179.03 88.73)" d="M0 0L2.62 0L2.62 2.63L0 2.63L0 0Z"/>
	<path fill="none" stroke="rgb(66,191,184)" stroke-width="1" stroke-miterlimit="4" transform="translate(185.03 88.73)" d="M0 0L2.62 0L2.62 2.63L0 2.63L0 0Z"/>
	<path fill="none" stroke="rgb(66,191,184)" stroke-width="1" stroke-miterlimit="4" transform="translate(179.03 93.73)" d="M0 0L2.62 0L2.62 2.62L0 2.62L0 0Z"/>
	<path fill="none" stroke="rgb(66,191,184)" stroke-width="1" stroke-miterlimit="4" transform="translate(185.03 93.73)" d="M0 0L2.62 0L2.62 2.62L0 2.62L0 0Z"/>
	<path fill="none" stroke="rgb(66,191,184)" stroke-width="1" stroke-miterlimit="4" transform="translate(179.03 98.73)" d="M0 0L2.62 0L2.62 2.62L0 2.62L0 0Z"/>
	<path fill="none" stroke="rgb(66,191,184)" stroke-width="1" stroke-miterlimit="4" transform="translate(185.03 98.73)" d="M0 0L2.62 0L2.62 2.62L0 2.62L0 0Z"/>
	<path fill="none" stroke="rgb(66,191,184)" stroke-width="1" stroke-miterlimit="4" transform="translate(179.17 74.04)" d="M0.5 12.12L0.5 0"/>
	<path fill="none" stroke="rgb(66,191,184)" stroke-width="1" stroke-miterlimit="4" transform="translate(182.84 80.04)" d="M0.5 6.12L0.5 0"/>
	<path fill="none" stroke="rgb(66,191,184)" stroke-width="1" stroke-miterlimit="4" transform="translate(146.42 103.33)" d="M19.22 0.5L0 0.5"/>
	<path fill="none" stroke="rgb(66,191,184)" stroke-width="1" stroke-miterlimit="4" transform="translate(190.54 103.33)" d="M0 0.5L5.5 0.5"/>
	<path fill="none" stroke="rgb(66,191,184)" stroke-width="1" stroke-miterlimit="4" transform="translate(202.3 89)" d="M1.87043 0L3.37043 0C4.40872 1.42109e-14 5.25043 0.841705 5.25043 1.88L5.25043 7.13C5.25043 7.6277 5.05204 8.10486 4.69919 8.45584C4.34633 8.80682 3.86811 9.00267 3.37043 9L1.87043 9C0.839927 8.99454 0.0058936 8.1605 0.000426647 7.13L0.000426647 1.92C-0.0103009 1.41623 0.18165 0.929237 0.533219 0.568267C0.884789 0.207297 1.36655 0.00256604 1.87043 0L1.87043 0Z"/>
	<path fill="none" stroke="rgb(66,191,184)" stroke-width="1" stroke-miterlimit="4" transform="translate(204.42 95)" d="M0.5 0L0.5 8.83"/>
	<path fill="none" stroke="rgb(66,191,184)" stroke-width="1" stroke-miterlimit="4" transform="translate(210.16 93.73)" d="M6.3201 3.16001C6.32009 4.43902 5.5491 5.5919 4.36706 6.08042C3.18501 6.56893 1.82506 6.29674 0.922097 5.39091C0.0191338 4.48508 -0.248749 3.12427 0.243512 1.94379C0.735773 0.763306 1.89109 -0.00403156 3.1701 1.59345e-05C4.91141 0.00552644 6.32011 1.41869 6.3201 3.16001Z"/>
	<path fill="none" stroke="rgb(66,191,184)" stroke-width="1" stroke-miterlimit="4" transform="translate(212.82 96.8899)" d="M0.5 0L0.5 6.94"/>
	<path fill="none" stroke="rgb(66,191,184)" stroke-width="1" stroke-miterlimit="4" transform="translate(147.68 88.73)" d="M1.87 0L3.37 0C3.86596 -1.42109e-14 4.3416 0.197017 4.69229 0.54771C5.04299 0.898403 5.24001 1.37404 5.24001 1.87L5.24001 7.12C5.24001 8.15277 4.40278 8.99 3.37 8.99L1.87 8.99C0.839501 8.98453 0.00546696 8.1505 0 7.12L0 1.87C0.00546696 0.8395 0.839501 0.00546695 1.87 0Z"/>
	<path fill="none" stroke="rgb(66,191,184)" stroke-width="1" stroke-miterlimit="4" transform="translate(149.8 94.6799)" d="M0.5 0L0.5 8.84"/>
	<path fill="none" stroke="rgb(66,191,184)" stroke-width="1" stroke-miterlimit="4" transform="translate(155.55 93.4199)" d="M6.32001 3.16002C6.32001 4.90524 4.90522 6.32001 3.16 6.32001C1.41478 6.32001 0 4.90524 0 3.16002C0 1.4148 1.41478 1.59466e-05 3.16 1.59466e-05C3.9989 -0.00265148 4.80421 0.329419 5.39741 0.922614C5.9906 1.51581 6.32267 2.32112 6.32001 3.16002L6.32001 3.16002Z"/>
	<path fill="none" stroke="rgb(66,191,184)" stroke-width="1" stroke-miterlimit="4" transform="translate(158.21 96.5701)" d="M0.5 0L0.5 6.95"/>
	<path fill="none" stroke="rgb(66,191,184)" stroke-width="1" stroke-miterlimit="4" transform="translate(195.02 60.92)" d="M17.74 9.58C17.74 9.45 17.74 9.32 17.74 9.19C17.74 7.50001 16.37 6.13 14.68 6.13C14.4857 6.13133 14.2917 6.14804 14.1 6.18C14.1474 5.90236 14.1741 5.62159 14.18 5.34C14.18 2.3908 11.7892 0 8.84 0C5.8908 0 3.5 2.3908 3.5 5.34L3.5 5.41C1.51978 5.60018 0.00630927 7.26068 0 9.25C0 9.36 0 9.47 0 9.58"/>
	<path fill="none" stroke="rgb(66,191,184)" stroke-width="1" stroke-miterlimit="4" transform="translate(131.57 55.8988)" d="M17.75 9.81124C17.75 9.68124 17.75 9.55124 17.75 9.42125C17.75 7.73125 16.38 6.36125 14.69 6.36125C14.4918 6.36038 14.294 6.38049 14.1 6.42125C14.1497 6.14371 14.1798 5.86301 14.19 5.58125C14.275 3.61651 13.2753 1.76353 11.5865 0.755797C9.89774 -0.251932 7.79226 -0.251932 6.1035 0.755797C4.41475 1.76353 3.415 3.61651 3.5 5.58125L3.5 5.64125C1.51978 5.83143 0.00630927 7.49193 0 9.48125C0 9.59124 0 9.70125 0 9.81124"/>
	<path fill="none" stroke="rgb(66,191,184)" stroke-width="1" stroke-miterlimit="4" transform="translate(158.7 47.0699)" d="M9.08013 4.53001C9.08417 6.36717 7.98061 8.02569 6.28445 8.73155C4.58829 9.4374 2.63392 9.05145 1.33341 7.75381C0.0329052 6.45617 -0.357354 4.50266 0.344762 2.80495C1.04688 1.10724 2.70296 1.551e-05 4.54013 1.10534e-05C5.74329 -0.00264494 6.89808 0.473449 7.74979 1.32328C8.60149 2.1731 9.08013 3.32685 9.08013 4.53001Z"/>
	<path fill="none" stroke="rgb(66,191,184)" stroke-width="1" stroke-miterlimit="4" transform="translate(262.27 68.4993)" d="M14.9 9.67067C15.0433 6.07788 13.1027 2.72439 9.91623 1.05846C6.72981 -0.607462 2.86854 -0.287304 0 1.88067L14.9 9.67067Z"/>
	<path fill="none" stroke="rgb(66,191,184)" stroke-width="1" stroke-miterlimit="4" transform="translate(262.557 58.8994)" d="M13.7628 1.14057C10.6072 -0.585197 6.73947 -0.336758 3.83065 1.77855C0.921842 3.89385 -0.506512 7.49677 0.162747 11.0306L13.7628 1.14057Z"/>
	<path fill="none" stroke="rgb(66,191,184)" stroke-width="1" stroke-miterlimit="4" transform="translate(247.653 68.4993)" d="M0.00742411 9.67067C-0.135868 6.07788 1.80475 2.72439 4.99118 1.05846C8.17761 -0.607462 12.0389 -0.287304 14.9074 1.88067L0.00742411 9.67067Z"/>
	<path fill="none" stroke="rgb(66,191,184)" stroke-width="1" stroke-miterlimit="4" transform="translate(248.53 58.8357)" d="M0 1.17433C3.15738 -0.584553 7.04828 -0.352574 9.9743 1.76901C12.9003 3.89059 14.3303 7.51662 13.64 11.0643L0 1.17433Z"/>
	<path fill="none" stroke="rgb(66,191,184)" stroke-width="1" stroke-miterlimit="4" transform="translate(260.69 70.3401)" d="M3.73999 26.55L0 26.55L0.749998 0.59L1.87 0L2.73999 0.64L3.73999 26.55L3.73999 26.55Z"/>
	<path fill="none" stroke="rgb(66,191,184)" stroke-width="1" stroke-miterlimit="4" transform="translate(260.69 93.75)" d="M0 0.5L3.73999 0.5"/>
	<path fill="none" stroke="rgb(66,191,184)" stroke-width="1" stroke-miterlimit="4" transform="translate(260.86 90.4199)" d="M0 0.5L3.34 0.5"/>
	<path fill="none" stroke="rgb(66,191,184)" stroke-width="1" stroke-miterlimit="4" transform="translate(260.96 86.75)" d="M0 0.5L3.10001 0.5"/>
	<path fill="none" stroke="rgb(66,191,184)" stroke-width="1" stroke-miterlimit="4" transform="translate(261.07 83.1101)" d="M0 0.5L2.85001 0.5"/>
	<path fill="none" stroke="rgb(66,191,184)" stroke-width="1" stroke-miterlimit="4" transform="translate(261.16 79.9199)" d="M0 0.5L2.63 0.5"/>
	<path fill="none" stroke="rgb(66,191,184)" stroke-width="1" stroke-miterlimit="4" transform="translate(261.25 76.8301)" d="M0 0.5L2.42001 0.5"/>
	<path fill="none" stroke="rgb(66,191,184)" stroke-width="1" stroke-miterlimit="4" transform="translate(261.33 74)" d="M0 0.5L2.23999 0.5"/>
	<path fill="none" stroke="rgb(66,191,184)" stroke-width="1" stroke-miterlimit="4" transform="translate(174.07 118.17)" d="M0 0.5L61.36 0.5"/>
	<path fill="none" stroke="rgb(66,191,184)" stroke-width="1" stroke-miterlimit="4" transform="translate(243.17 118.17)" d="M0 0.5L8.66 0.5"/>
	<path fill="none" stroke="rgb(66,191,184)" stroke-width="1" stroke-miterlimit="4" transform="translate(292.53 91.28)" d="M1.95 0L17 0Q17.1 0 17.1984 0.00908821Q17.2968 0.0181764 17.3928 0.0362787Q17.4889 0.054381 17.5818 0.0813498Q17.6747 0.108319 17.7638 0.143934Q17.8528 0.179549 17.9372 0.22352Q18.0216 0.267491 18.1008 0.31946Q18.1799 0.371429 18.2531 0.430971Q18.3262 0.490513 18.3929 0.557143Q18.4595 0.623773 18.519 0.696947Q18.5786 0.770122 18.6306 0.849244Q18.6825 0.928366 18.7265 1.01279Q18.7705 1.09721 18.8061 1.18625Q18.8417 1.27529 18.8687 1.36822Q18.8956 1.46114 18.9137 1.5572Q18.9318 1.65325 18.9409 1.75165Q18.95 1.85006 18.95 1.95L18.95 10.96Q18.95 11.0599 18.9409 11.1583Q18.9318 11.2568 18.9137 11.3528Q18.8956 11.4489 18.8687 11.5418Q18.8417 11.6347 18.8061 11.7238Q18.7705 11.8128 18.7265 11.8972Q18.6825 11.9816 18.6306 12.0608Q18.5786 12.1399 18.519 12.2131Q18.4595 12.2862 18.3929 12.3529Q18.3262 12.4195 18.2531 12.479Q18.1799 12.5386 18.1008 12.5905Q18.0216 12.6425 17.9372 12.6865Q17.8528 12.7305 17.7638 12.7661Q17.6747 12.8017 17.5818 12.8287Q17.4889 12.8556 17.3928 12.8737Q17.2968 12.8918 17.1984 12.9009Q17.1 12.91 17 12.91L1.95 12.91Q1.85006 12.91 1.75165 12.9009Q1.65325 12.8918 1.5572 12.8737Q1.46114 12.8556 1.36822 12.8287Q1.27529 12.8017 1.18625 12.7661Q1.09721 12.7305 1.01279 12.6865Q0.928366 12.6425 0.849244 12.5905Q0.770122 12.5386 0.696947 12.479Q0.623773 12.4195 0.557143 12.3529Q0.490513 12.2862 0.430971 12.2131Q0.371429 12.1399 0.31946 12.0608Q0.267491 11.9816 0.22352 11.8972Q0.179549 11.8128 0.143934 11.7238Q0.108319 11.6347 0.0813498 11.5418Q0.054381 11.4489 0.0362787 11.3528Q0.0181764 11.2568 0.00908821 11.1583Q0 11.0599 0 10.96L0 1.95Q0 1.85006 0.00908821 1.75165Q0.0181764 1.65325 0.0362787 1.5572Q0.054381 1.46114 0.0813498 1.36822Q0.108319 1.27529 0.143934 1.18625Q0.179549 1.09721 0.22352 1.01279Q0.267491 0.928366 0.31946 0.849244Q0.371429 0.770122 0.430971 0.696947Q0.490513 0.623773 0.557143 0.557143Q0.623773 0.490513 0.696947 0.430971Q0.770122 0.371429 0.849244 0.31946Q0.928366 0.267491 1.01279 0.22352Q1.09721 0.179549 1.18625 0.143934Q1.27529 0.108319 1.36822 0.0813498Q1.46114 0.054381 1.5572 0.0362787Q1.65325 0.0181764 1.75165 0.00908821Q1.85006 0 1.95 0Z"/>
	<path fill="none" stroke="rgb(66,191,184)" stroke-width="1" stroke-miterlimit="4" transform="translate(292.53 98.9199)" d="M0 0L18.95 0L18.95 2.42L0 2.42L0 0Z"/>
	<path fill="none" stroke="rgb(66,191,184)" stroke-width="1" stroke-miterlimit="4" transform="translate(294.67 95.3701)" d="M0 0.5L2.51999 0.5"/>
	<path fill="none" stroke="rgb(66,191,184)" stroke-width="1" stroke-miterlimit="4" transform="translate(299.67 95.3701)" d="M0 0.5L3.25 0.5"/>
	<path fill="none" stroke="rgb(66,191,184)" stroke-width="1" stroke-miterlimit="4" transform="translate(305.17 95.3701)" d="M0 0.5L2.5 0.5"/>
	<path fill="none" stroke="rgb(66,191,184)" stroke-width="1" stroke-miterlimit="4" transform="translate(344.9 24.36)" d="M33.87 18.88L33.21 18.25C32.5249 17.6122 31.6156 17.2707 30.68 17.3L24.68 17.48L13.41 0L10.66 0L15.66 17.69L2.72 18.14L1.41 16.14L0 16.14L0.58 20.14L0.03 24.06L1.46 24.06L2.84 21.92L15.73 22.37L10.64 40.24L13.39 40.24L24.77 22.58L30.68 22.75C31.6171 22.7882 32.5297 22.4455 33.21 21.8L33.87 21.18C34.1924 20.8845 34.3759 20.4673 34.3759 20.03C34.3759 19.5927 34.1924 19.1755 33.87 18.88Z"/>
	<path fill="none" stroke="rgb(66,191,184)" stroke-width="1" stroke-miterlimit="4" transform="translate(320.92 40.29)" d="M16.12 0.5L0 0.5"/>
	<path fill="none" stroke="rgb(66,191,184)" stroke-width="1" stroke-miterlimit="4" transform="translate(295.93 34.42)" d="M18.36 0.5L0 0.5"/>
	<path fill="none" stroke="rgb(66,191,184)" stroke-width="1" stroke-miterlimit="4" transform="translate(396.87 49.5699)" d="M0.5 0L0.5 20.21"/>
	<path fill="none" stroke="rgb(66,191,184)" stroke-width="1" stroke-miterlimit="4" transform="translate(397.37 47.95)" d="M0 7.12L0 0L9.67001 3.56L0 7.12L0 7.12Z"/>
	<path fill="none" stroke="rgb(66,191,184)" stroke-width="1" stroke-miterlimit="4" transform="translate(394.66 69.28)" d="M0 0.5L5.42001 0.5"/>
	<path fill="none" stroke="rgb(66,191,184)" stroke-width="1" stroke-miterlimit="4" transform="translate(223.84 36.5)" d="M9.57 0C8.2829 0.000658262 7.10319 0.717739 6.51 1.86C5.7762 0.45079 4.17488 -0.275066 2.63143 0.101905C1.08799 0.478875 0.00156091 1.86119 0 3.45C0 6.9 6.51 11.34 6.51 11.34C6.51 11.34 13.02 6.9 13.02 3.45C13.0145 1.5469 11.4731 0.00549239 9.57 0Z"/>
	<path fill="none" stroke="rgb(66,191,184)" stroke-width="1" stroke-miterlimit="4" transform="translate(379.33 105.84)" d="M3.69 0L4.82 2.31L7.37 2.68L5.53 4.48L5.97 7.01L3.69 5.82L1.41 7.01L1.84 4.48L0 2.68L2.55 2.31L3.69 0L3.69 0Z"/>
	<path fill="none" stroke="rgb(66,191,184)" stroke-width="1" stroke-miterlimit="4" transform="translate(393.33 105.84)" d="M3.69 0L4.82 2.31L7.37 2.68L5.53 4.48L5.97 7.01L3.69 5.82L1.41 7.01L1.84 4.48L0 2.68L2.55 2.31L3.69 0L3.69 0Z"/>
	<path fill="none" stroke="rgb(66,191,184)" stroke-width="1" stroke-miterlimit="4" transform="translate(386.33 98.9199)" d="M3.69 0L4.82 2.3L7.37 2.67L5.53 4.47L5.97 7.01L3.69 5.81L1.41 7.01L1.84 4.47L0 2.67L2.55 2.3L3.69 0L3.69 0Z"/>
	<path fill="none" stroke="rgb(66,191,184)" stroke-width="1" stroke-miterlimit="4" transform="translate(19.26 74.04)" d="M0 0L29.12 0L29.12 23.84L0 23.84L0 0Z"/>
	<path fill="none" stroke="rgb(66,191,184)" stroke-width="1" stroke-miterlimit="4" transform="translate(19.26 74.04)" d="M0 0L29.12 0L29.12 5.2L0 5.2L0 0Z"/>
	<path fill="none" stroke="rgb(66,191,184)" stroke-width="1" stroke-miterlimit="4" transform="translate(22.88 82.1599)" d="M0 0L4 0L4 4L0 4L0 0Z"/>
	<path fill="none" stroke="rgb(66,191,184)" stroke-width="1" stroke-miterlimit="4" transform="translate(31.88 82.1599)" d="M0 0L4 0L4 4L0 4L0 0Z"/>
	<path fill="none" stroke="rgb(66,191,184)" stroke-width="1" stroke-miterlimit="4" transform="translate(40.88 82.1599)" d="M0 0L4 0L4 4L0 4L0 0Z"/>
	<path fill="none" stroke="rgb(66,191,184)" stroke-width="1" stroke-miterlimit="4" transform="translate(22.88 90.1599)" d="M0 0L4 0L4 4L0 4L0 0Z"/>
	<path fill="none" stroke="rgb(66,191,184)" stroke-width="1" stroke-miterlimit="4" transform="translate(31.88 90.1599)" d="M0 0L4 0L4 4L0 4L0 0Z"/>
	<path fill="none" stroke="rgb(66,191,184)" stroke-width="1" stroke-miterlimit="4" transform="translate(40.88 90.1599)" d="M0 0L4 0L4 4L0 4L0 0Z"/>
	<path fill="none" stroke="rgb(66,191,184)" stroke-width="1" stroke-miterlimit="4" transform="translate(24.38 70.6699)" d="M0.5 5.97L0.5 0"/>
	<path fill="none" stroke="rgb(66,191,184)" stroke-width="1" stroke-miterlimit="4" transform="translate(33.32 70.6699)" d="M0.5 5.97L0.5 0"/>
	<path fill="none" stroke="rgb(66,191,184)" stroke-width="1" stroke-miterlimit="4" transform="translate(42.45 70.6699)" d="M0.5 5.97L0.5 0"/>
	<path fill="none" stroke="rgb(66,191,184)" stroke-width="1" stroke-miterlimit="4" transform="translate(83.99 45.4)" d="M0 0L28.98 0L28.98 19.54L0 19.54L0 0Z"/>
	<path fill="none" stroke="rgb(66,191,184)" stroke-width="1" stroke-miterlimit="4" transform="translate(83.99 45.4)" d="M0 0L28.98 0L28.98 4.34L0 4.34L0 0Z"/>
	<path fill="none" stroke="rgb(66,191,184)" stroke-width="1" stroke-miterlimit="4" transform="translate(91.88 50)" d="M6.6 13.2C10.2451 13.2 13.2 10.2451 13.2 6.6C13.2 2.95492 10.2451 0 6.6 0C2.95492 0 0 2.95492 0 6.6C0 10.2451 2.95492 13.2 6.6 13.2Z"/>
	<path fill="none" stroke="rgb(66,191,184)" stroke-width="1" stroke-miterlimit="4" transform="translate(105.09 42.17)" d="M0 0L5.58 0L5.58 3.24L0 3.24L0 0Z"/>
	<path fill="none" stroke="rgb(66,191,184)" stroke-width="1" stroke-miterlimit="4" transform="translate(88.6 42.17)" d="M0.5 3.23L0.5 0"/>
	<path fill="none" stroke="rgb(66,191,184)" stroke-width="1" stroke-miterlimit="4" transform="translate(93.36 52.4399)" d="M2.56 5.12C3.97385 5.12 5.12 3.97385 5.12 2.56C5.12 1.14615 3.97385 0 2.56 0C1.14615 0 0 1.14615 0 2.56C0 3.97385 1.14615 5.12 2.56 5.12Z"/>
	<path fill="none" stroke="rgb(66,191,184)" stroke-width="1" stroke-miterlimit="4" transform="translate(302.92 215.63)" d="M0 0.5L62.45 0.5"/>
	<path fill="none" stroke="rgb(66,191,184)" stroke-width="1" stroke-miterlimit="4" transform="translate(0.519982 1.5752)" d="M67.51 32.6748C67.5972 32.0418 67.6439 31.4038 67.65 30.7648C67.65 26.9174 66.121 23.2278 63.3995 20.5082C60.6781 17.7887 56.9874 16.2622 53.14 16.2648C51.9491 16.2659 50.7631 16.4171 49.61 16.7148C48.1165 7.16663 39.939 0.0976399 30.2752 0.00100194C20.6114 -0.095636 12.2942 6.80841 10.61 16.3248C4.58154 16.9452 -0.00105653 22.0245 1.82535e-05 28.0848C-0.00276857 29.6619 0.313579 31.2232 0.930018 32.6748"/>
	<path fill="rgb(250,150,140)" stroke="none" transform="translate(148.925 203.964)" d="M2.18441 0L1.04541 5.4L0.0164087 8.771C-0.0555913 9.003 0.118409 9.237 0.361409 9.237L2.70941 9.237L2.70941 8.486L3.85041 9.237C3.85041 9.237 9.92741 9.572 10.1344 9.237C10.9164 7.973 7.42141 7.376 4.79541 6.484C2.67741 5.766 5.12241 0.406 5.12241 0.406L2.18441 0Z"/>
	<path fill="rgb(250,150,140)" stroke="none" transform="translate(128.591 203.964)" d="M8.06153 0L9.20053 5.4L10.2295 8.771C10.3005 9.003 10.1275 9.237 9.88453 9.237L7.53653 9.237L7.53653 8.486L6.39553 9.237C6.39553 9.237 0.318532 9.572 0.111532 9.237C-0.670468 7.973 2.82453 7.376 5.45053 6.484C7.56853 5.766 5.12353 0.406 5.12353 0.406L8.06153 0Z"/>
	<path fill="rgb(55,60,65)" stroke="none" transform="translate(148.925 210.454)" d="M5.49401 0.219C4.87501 0.522 4.14701 0.7 3.30301 0.7C2.27001 0.7 1.40901 0.437 0.713014 0L0.0160138 2.282C-0.0549862 2.513 0.119014 2.747 0.362014 2.747L2.71001 2.747L2.71001 1.996L3.85001 2.747C3.85001 2.747 9.92802 3.082 10.135 2.747C10.849 1.592 7.99501 0.993 5.49401 0.219"/>
	<path fill="rgb(55,60,65)" stroke="none" transform="translate(128.591 210.121)" d="M9.43159 0C8.66959 0.633 7.65859 1.033 6.38759 1.033C5.64259 1.033 4.98859 0.894 4.41959 0.654C2.00659 1.381 -0.571411 1.976 0.111589 3.08C0.318589 3.415 6.39559 3.08 6.39559 3.08L7.53559 2.329L7.53559 3.08L9.88459 3.08C10.1276 3.08 10.3006 2.846 10.2296 2.614L9.43159 0Z"/>
	<path fill="rgb(250,185,175)" stroke="none" transform="translate(114.72 133.339)" d="M15.4104 1.56C12.1824 3.66 -1.28457 15.095 0.0994349 17.223C1.48344 19.351 17.1954 11.366 20.4234 9.267C23.6514 7.167 25.1454 3.74 23.7624 1.612C22.3774 -0.517 18.6384 -0.54 15.4104 1.56"/>
	<path fill="rgb(250,185,175)" stroke="none" transform="translate(151.101 134.596)" d="M6.36382 12.9971C11.3928 18.0501 17.5888 20.0481 18.8078 18.8251C20.0828 17.5461 16.8838 12.0031 12.1348 7.02007C7.21682 1.85807 2.43882 -1.30993 0.594822 0.52507C-1.24818 2.35907 1.33482 7.94307 6.36382 12.9971"/>
	<path fill="rgb(0,85,140)" stroke="none" transform="translate(150.353 183.483)" d="M3.438 22.6213C6.178 16.8223 9.506 7.96728 10.162 6.23728C11.21 3.47228 10.75 0.734278 9.136 0.122278C7.521 -0.489722 5.362 1.25528 4.314 4.02128C3.618 5.85728 1.067 15.5563 0 22.0093L3.438 22.6213Z"/>
	<path fill="rgb(0,85,140)" stroke="none" transform="translate(126.686 183.483)" d="M10.5423 22.0092C9.47533 15.5562 7.10533 5.85823 6.41033 4.02123C5.36133 1.25623 3.20333 -0.489769 1.58833 0.122231C-0.0266666 0.734231 -0.485667 3.47223 0.562334 6.23823C1.21733 7.96723 4.67733 16.8222 7.41733 22.6212L10.5423 22.0092Z"/>
	<path fill="rgb(0,79,130)" stroke="none" transform="translate(127.004 161.533)" d="M27.9402 3.83401C26.2322 0.547007 22.5192 -0.905993 19.6452 0.587007C18.9302 0.958007 18.3352 1.47701 17.8702 2.09701C17.3602 2.77701 16.3952 2.77701 15.8852 2.09701C15.4202 1.47701 14.8252 0.958007 14.1102 0.587007C11.2362 -0.905993 7.52224 0.547007 5.81524 3.83401C4.10724 7.12001 -2.12776 26.729 0.746241 28.222C2.65224 29.212 8.67724 21.328 12.8082 14.899C14.7152 11.93 19.0392 11.931 20.9462 14.899C25.0762 21.329 31.1012 29.212 33.0092 28.222C35.8832 26.729 29.6482 7.12001 27.9402 3.83401"/>
	<path fill="rgb(250,150,140)" stroke="none" transform="translate(130.779 133.414)" d="M8.72125 37.3287L20.4692 37.3287C21.2652 36.3147 21.8102 35.0887 21.9962 33.7357L25.8002 6.04666C26.1372 3.59566 24.3312 1.37066 21.8632 1.19566L5.22925 0.0126584C1.91325 -0.222342 -0.661754 2.85266 0.151246 6.07566L7.33725 34.5477C7.60025 35.5907 8.08725 36.5247 8.72125 37.3287"/>
	<path fill="rgb(255,115,80)" stroke="none" transform="translate(130.779 133.414)" d="M8.72125 37.3287L21.4282 37.3287C22.2242 36.3147 23.6072 32.6687 23.7932 31.3157L25.8002 6.04666C26.1372 3.59566 24.3312 1.37066 21.8632 1.19566L16.7702 0.832658C17.1432 2.74366 16.1612 4.95366 13.6582 5.11766C10.7482 5.30766 9.51625 2.50366 10.1792 0.364658L5.22925 0.0126584C1.91325 -0.222342 -0.661754 2.85266 0.151246 6.07566L6.29225 32.4467C6.55525 33.4907 8.08725 36.5247 8.72125 37.3287"/>
	<path fill="rgb(105,40,15)" stroke="none" transform="translate(136.61 121.054)" d="M0.102099 5.4837C1.3821 11.3797 6.6761 12.6917 9.9741 11.9767C13.2711 11.2607 11.8891 5.3787 11.3391 2.8447C10.7891 0.310701 7.8471 -0.461299 4.5491 0.254701C1.2511 0.969701 -0.447901 2.9497 0.102099 5.4837"/>
	<path fill="rgb(250,150,140)" stroke="none" transform="translate(141.679 125.782)" d="M0 8.565L5.749 9.774L5.162 0L1.605 2.967L0 8.565Z"/>
	<path fill="rgb(255,115,80)" stroke="none" transform="translate(123.291 133.34)" d="M4.457 13.223C7.728 11.639 10.653 10.047 11.853 9.266C15.081 7.167 16.575 3.74 15.191 1.612C13.807 -0.517 10.068 -0.54 6.84 1.56C5.598 2.368 2.843 4.557 0 7.067C0.429 10.796 4.457 13.223 4.457 13.223"/>
	<path fill="rgb(255,115,80)" stroke="none" transform="translate(151.101 134.596)" d="M12.1348 7.02007C7.21675 1.85807 2.43775 -1.30993 0.59475 0.52507C-1.15425 2.26507 1.08375 7.37707 5.60975 12.2111C5.60975 12.2111 11.3387 9.86507 12.1348 7.02007"/>
	<path fill="rgb(250,185,175)" stroke="none" transform="translate(145.506 151.365)" d="M15.1291 0.458241C12.3071 0.979241 -0.288937 4.21324 0.00506338 5.81124C0.300063 7.40924 13.5381 6.34024 16.3291 5.67624C21.4561 4.45724 24.9621 2.73624 24.6671 1.13824C24.3721 -0.459759 17.9501 -0.0627587 15.1291 0.458241"/>
	<path fill="rgb(250,185,175)" stroke="none" transform="translate(137.791 123.186)" d="M0.181879 6.75191C1.10288 10.9959 2.37588 12.9059 4.55688 12.4329C7.21188 11.8559 9.93288 8.21591 9.17388 4.71891C8.41488 1.22191 6.43088 -0.465091 3.77488 0.110909C1.11988 0.687909 -0.577121 3.25491 0.181879 6.75191"/>
	<path fill="rgb(255,150,105)" stroke="none" transform="translate(137.815 123.186)" d="M8.761 3.3678L2.036 4.8268C1.327 4.9818 0.623 4.9008 0 4.6428C0.177 2.2478 1.665 0.563796 3.751 0.110796C6.037 -0.385204 7.824 0.798797 8.761 3.3678"/>
	<path fill="rgb(105,40,15)" stroke="none" transform="translate(135.295 121.451)" d="M4.414 5.91145L12.154 4.23145L11.819 2.68845C11.419 0.847449 9.602 -0.321551 7.761 0.0784493L0 1.76245L0.331 3.28445C0.733 5.13745 2.561 6.31345 4.414 5.91145"/>
	<path fill="rgb(105,40,15)" stroke="none" transform="translate(143.292 124.948)" d="M2.516 3.85L2.516 3.85L1.681 0L0 0.365L0.471 2.534C0.673 3.462 1.588 4.051 2.516 3.85"/>
	<path fill="rgb(250,185,175)" stroke="none" transform="translate(144.899 125.736)" d="M0.105946 2.45528C0.356946 3.61228 0.924947 4.47228 1.86795 4.26728C2.80995 4.06228 3.06895 2.33928 2.81795 1.18228C2.56695 0.0252777 1.89995 -0.127722 0.957947 0.0762777C0.0159464 0.280278 -0.145054 1.29828 0.105946 2.45528"/>
	<path fill="rgb(250,185,175)" stroke="none" transform="translate(114.72 147.599)" d="M4.8971 5.57171C7.6961 5.74871 21.6871 6.03471 21.7841 4.50171C21.8811 2.96871 8.0481 0.196705 5.2491 0.0187054C2.4491 -0.158295 0.1011 0.940705 0.00310043 2.47371C-0.0938996 4.00771 2.0971 5.39371 4.8971 5.57171"/>
	<path fill="rgb(250,185,175)" stroke="none" transform="translate(133.84 144.594)" d="M3.31454 4.8113C3.31454 4.8113 3.75254 7.5123 2.97354 7.9193C2.19254 8.3263 1.59554 8.4563 0.960539 7.3433C0.325539 6.2303 -0.0154615 4.4013 0.000538526 3.2633C0.0155385 2.1253 0.846538 0.228297 1.06854 0.0842971C1.88054 -0.440703 1.63654 1.6183 1.56654 2.6203C1.49754 3.6233 1.51854 4.7613 2.01054 4.6593C2.50254 4.5563 2.49154 2.6263 3.01554 2.3213C3.54054 2.0173 3.31454 4.8113 3.31454 4.8113"/>
	<path fill="rgb(200,230,235)" stroke="none" transform="translate(133.839 144.209)" d="M11.1378 14.312L2.55184 14.312C1.97484 14.312 1.49084 13.88 1.42284 13.308L0.00784149 1.27C-0.0711585 0.594 0.456841 0 1.13684 0L9.72284 0C10.2998 0 10.7838 0.432 10.8518 1.004L12.2668 13.042C12.3458 13.718 11.8178 14.312 11.1378 14.312"/>
	<path fill="rgb(165,200,205)" stroke="none" transform="translate(134.1 144.21)" d="M12.006 13.042L10.591 1.003C10.524 0.431 10.039 0 9.462 0L0.876 0C0.519 0 0.207 0.166 0 0.418C0.086 0.397 0.175 0.384 0.268 0.384L8.854 0.384C9.431 0.384 9.916 0.816 9.983 1.389L11.398 13.427C11.436 13.748 11.334 14.048 11.146 14.277C11.69 14.145 12.075 13.625 12.006 13.042"/>
	<path fill="rgb(250,185,175)" stroke="none" transform="translate(139.304 154.226)" d="M5.2301 0.761857C5.2301 0.761857 7.9131 1.29986 8.0201 2.17286C8.1271 3.04586 8.0391 3.65186 6.7741 3.85586C5.5091 4.05886 3.6761 3.73586 2.6161 3.32186C1.5561 2.90786 0.0730985 1.46386 0.0160985 1.20486C-0.190902 0.260857 1.6501 1.21186 2.5651 1.62886C3.4791 2.04586 4.5531 2.42686 4.6291 1.92986C4.7061 1.43286 2.8951 0.765857 2.7941 0.167857C2.6931 -0.430143 5.2301 0.761857 5.2301 0.761857"/>
	<path fill="rgb(66,190,183)" stroke="none" transform="translate(58.0559 213.236)" d="M347.303 2.318C347.303 3.399 346.426 4.276 345.344 4.276L1.958 4.276C0.877 4.276 0 3.399 0 2.318L0 1.958C0 0.876 0.877 0 1.958 0L345.344 0C346.426 0 347.303 0.876 347.303 1.958L347.303 2.318Z"/>
	<defs>
		<clipPath id="clip_0">
			<rect y="33" width="450.207" height="255.66699" clip-rule="evenodd"/>
		</clipPath>
	</defs>
	<g clip-path="url(#clip_0)">
		<text fill="rgb(66,190,183)" stroke="none" transform="translate(0 118.372)" font-size="90.851601" font-weight="bold" font-family="Source Sans Pro Black, Source Sans Pro" x="0" y="86.983597">
				BOOKINGS
		</text>
	</g>
	<defs>
		<clipPath id="clip_1">
			<rect y="33" width="450.207" height="255.66699" clip-rule="evenodd"/>
		</clipPath>
	</defs>
	<g clip-path="url(#clip_1)">
		<path fill="rgb(66,190,183)" stroke="none" transform="translate(162.207 247.014)" d="M59.125 0C91.779 0 118.25 1.205 118.25 2.691C118.25 4.176 91.779 5.381 59.125 5.381C26.471 5.381 0 4.176 0 2.691C0 1.205 26.471 0 59.125 0Z"/>
	</g>
	<defs>
		<clipPath id="clip_2">
			<rect y="33" width="450.207" height="255.66699" clip-rule="evenodd"/>
		</clipPath>
	</defs>
	<g clip-path="url(#clip_2)">
		<path fill="rgb(250,150,140)" stroke="none" transform="translate(266.024 242.583)" d="M0 6.768C0 6.768 3.244 6.822 4.1 7.286C4.956 7.749 6.685 8.095 6.945 6.754C7.062 6.156 6.859 5.519 6.829 4.708C6.767 3.039 8.142 0 6.725 0C6.382 0 6.361 1.319 6.017 2.115C5.312 3.739 4.345 5.303 0.738 4.755L0 6.768Z"/>
	</g>
	<defs>
		<clipPath id="clip_3">
			<rect y="33" width="450.207" height="255.66699" clip-rule="evenodd"/>
		</clipPath>
	</defs>
	<g clip-path="url(#clip_3)">
		<path fill="rgb(250,150,140)" stroke="none" transform="translate(236.069 241.809)" d="M34.8044 7.05687C34.4184 7.95787 8.5874 7.65987 5.3214 7.06887C2.0554 6.47787 -0.311602 4.45287 0.0333983 2.54687C0.379398 0.639873 3.3054 -0.428127 6.5714 0.162873C9.8374 0.754873 35.2524 6.01687 34.8044 7.05687Z"/>
	</g>
	<defs>
		<clipPath id="clip_4">
			<rect y="33" width="450.207" height="255.66699" clip-rule="evenodd"/>
		</clipPath>
	</defs>
	<g clip-path="url(#clip_4)">
		<path fill="rgb(80,55,75)" stroke="none" transform="translate(236.068 241.809)" d="M6.57122 0.162971C3.30622 -0.428029 0.379216 0.638971 0.0332162 2.54497C-0.310784 4.45297 2.05622 6.47797 5.32122 7.06897C6.08222 7.20697 8.07222 7.32797 10.6722 7.42197C10.6722 7.42197 10.9732 6.48297 10.9722 4.76597C10.9722 3.81697 10.6722 0.979971 10.6722 0.979971C8.70022 0.573971 7.21022 0.278971 6.57122 0.162971Z"/>
	</g>
	<defs>
		<clipPath id="clip_5">
			<rect y="33" width="450.207" height="255.66699" clip-rule="evenodd"/>
		</clipPath>
	</defs>
	<g clip-path="url(#clip_5)">
		<path fill="rgb(250,150,140)" stroke="none" transform="translate(209.421 215.078)" d="M6.67281 23.8402C4.68781 24.1702 0.708809 10.1812 0.143809 6.78221C-0.421191 3.38321 0.728809 0.359209 2.71381 0.0292094C4.69981 -0.299791 6.76681 2.18821 7.33181 5.58721C7.89681 8.98621 8.65781 23.5102 6.67281 23.8402Z"/>
	</g>
	<defs>
		<clipPath id="clip_6">
			<rect y="33" width="450.207" height="255.66699" clip-rule="evenodd"/>
		</clipPath>
	</defs>
	<g clip-path="url(#clip_6)">
		<path fill="rgb(245,130,160)" stroke="none" transform="translate(209.421 215.079)" d="M6.32573 10.7354C6.85173 10.7354 7.34374 10.7874 7.80873 10.8774C7.68273 8.57738 7.49873 6.59338 7.33173 5.58638C6.76674 2.18738 4.69874 -0.300622 2.71374 0.029378C0.729735 0.359378 -0.421265 3.38238 0.143735 6.78138C0.326735 7.88338 0.869735 10.0974 1.58573 12.5764C2.70373 11.4614 4.27973 10.7354 6.32573 10.7354Z"/>
	</g>
	<defs>
		<clipPath id="clip_7">
			<rect y="33" width="450.207" height="255.66699" clip-rule="evenodd"/>
		</clipPath>
	</defs>
	<g clip-path="url(#clip_7)">
		<path fill="rgb(250,150,140)" stroke="none" transform="translate(213.4 229.162)" d="M18.993 0.183241C19.461 1.33424 6.803 7.82524 4.717 8.67124C2.631 9.51724 0.561996 9.27024 0.0939963 8.11824C-0.372004 6.96624 0.939996 5.34724 3.026 4.50124C5.112 3.65424 18.526 -0.968759 18.993 0.183241Z"/>
	</g>
	<defs>
		<clipPath id="clip_8">
			<rect y="33" width="450.207" height="255.66699" clip-rule="evenodd"/>
		</clipPath>
	</defs>
	<g clip-path="url(#clip_8)">
		<path fill="rgb(80,55,75)" stroke="none" transform="translate(204.144 234.454)" d="M40.5633 12.7955C39.9723 15.8135 14.3453 15.4545 9.11325 14.5755C-1.52975 12.7865 -1.69075 4.34047 2.73825 1.04647C5.81325 -1.24053 11.0143 0.749468 16.1653 2.01847C21.3163 3.28647 41.3013 9.03547 40.5633 12.7955Z"/>
	</g>
	<defs>
		<clipPath id="clip_9">
			<rect y="33" width="450.207" height="255.66699" clip-rule="evenodd"/>
		</clipPath>
	</defs>
	<g clip-path="url(#clip_9)">
		<path fill="rgb(250,185,175)" stroke="none" transform="translate(234.498 230.927)" d="M28.398 21.6709C27.625 22.2629 5.42197 9.43789 2.88497 7.33789C0.345967 5.23789 -0.717033 2.33389 0.509967 0.851892C1.73597 -0.630108 4.78797 -0.129108 7.32497 1.97089C9.86297 4.07189 29.29 20.9899 28.398 21.6709Z"/>
	</g>
	<defs>
		<clipPath id="clip_10">
			<rect y="33" width="450.207" height="255.66699" clip-rule="evenodd"/>
		</clipPath>
	</defs>
	<g clip-path="url(#clip_10)">
		<path fill="rgb(235,90,125)" stroke="none" transform="translate(196.721 215.079)" d="M18.8131 4.683L18.8911 3.926C19.1071 1.826 17.4591 0 15.3481 0L2.78505 0C0.877051 0 -0.46595 1.878 0.152051 3.684L6.08805 21.041L7.93405 26.987L16.3801 28.328L17.7581 14.938L17.8831 14.938C20.5091 14.463 21.0701 12.679 19.8021 9.38L18.8131 4.683Z"/>
	</g>
	<defs>
		<clipPath id="clip_11">
			<rect y="33" width="450.207" height="255.66699" clip-rule="evenodd"/>
		</clipPath>
	</defs>
	<g clip-path="url(#clip_11)">
		<path fill="rgb(105,90,110)" stroke="none" transform="translate(203.27 230.776)" d="M36.6219 1.39871C37.5549 5.08671 17.5349 16.2457 12.5409 17.9167C2.38194 21.3167 -1.70006 13.9937 0.64294 9.04071C2.26994 5.60271 7.75494 4.91871 12.8589 3.62671C17.9629 2.33371 35.6879 -2.28829 36.6219 1.39871Z"/>
	</g>
	<defs>
		<clipPath id="clip_12">
			<rect y="33" width="450.207" height="255.66699" clip-rule="evenodd"/>
		</clipPath>
	</defs>
	<g clip-path="url(#clip_12)">
		<path fill="rgb(250,150,140)" stroke="none" transform="translate(230.535 223.936)" d="M0.0608185 5.33703C0.461819 6.04603 0.859819 6.44903 1.91482 5.90503C2.96882 5.36203 4.15682 4.11303 4.71882 3.22303C5.28182 2.33103 5.59382 0.439033 5.49382 0.215033C5.12882 -0.602967 4.27982 1.11903 3.82782 1.93303C3.37582 2.74603 2.78382 3.61903 2.45482 3.29103C2.12482 2.96303 3.10682 1.47103 2.85282 0.969033C2.59882 0.468033 1.36482 2.75103 1.36482 2.75103C1.36482 2.75103 -0.339182 4.62703 0.0608185 5.33703Z"/>
	</g>
	<defs>
		<clipPath id="clip_13">
			<rect y="33" width="450.207" height="255.66699" clip-rule="evenodd"/>
		</clipPath>
	</defs>
	<g clip-path="url(#clip_13)">
		<path fill="rgb(210,210,215)" stroke="none" transform="translate(230.731 218.537)" d="M0.48429 13.1393C0.10829 13.0083 -0.0907102 12.5983 0.0402897 12.2223L4.12729 0.48429C4.25829 0.10829 4.66929 -0.0907102 5.04529 0.0402898L5.61629 0.23829C5.99129 0.36929 6.19029 0.78029 6.05929 1.15629L1.97229 12.8953C1.84129 13.2703 1.43029 13.4693 1.05429 13.3383L0.48429 13.1393Z"/>
	</g>
	<defs>
		<clipPath id="clip_14">
			<rect y="33" width="450.207" height="255.66699" clip-rule="evenodd"/>
		</clipPath>
	</defs>
	<g clip-path="url(#clip_14)">
		<path fill="rgb(250,185,175)" stroke="none" transform="translate(190.587 215.097)" d="M0.522333 22.6609C-1.35467 21.9349 2.33633 7.86692 3.57933 4.65292C4.82133 1.43891 7.35033 -0.578085 9.22733 0.147915C11.1043 0.872915 11.6183 4.06692 10.3753 7.28091C9.13233 10.4949 2.39833 23.3859 0.522333 22.6609Z"/>
	</g>
	<defs>
		<clipPath id="clip_15">
			<rect y="33" width="450.207" height="255.66699" clip-rule="evenodd"/>
		</clipPath>
	</defs>
	<g clip-path="url(#clip_15)">
		<path fill="rgb(245,130,160)" stroke="none" transform="translate(192.335 215.097)" d="M6.041 12.6609C7.244 10.3809 8.224 8.32292 8.627 7.28091C9.87 4.06691 9.356 0.872915 7.479 0.147915C5.602 -0.578085 3.074 1.43891 1.831 4.65291C1.402 5.76191 0.682 8.16292 0 10.8609C1.85 10.4269 3.904 10.7939 5.782 12.4149C5.875 12.4949 5.954 12.5789 6.041 12.6609Z"/>
	</g>
	<defs>
		<clipPath id="clip_16">
			<rect y="33" width="450.207" height="255.66699" clip-rule="evenodd"/>
		</clipPath>
	</defs>
	<g clip-path="url(#clip_16)">
		<path fill="rgb(250,185,175)" stroke="none" transform="translate(176.708 234.639)" d="M0.0485432 14.1982C-0.771457 13.2642 9.04554 2.97121 10.7375 1.48621C12.4295 0.00121035 14.4655 -0.44579 15.2855 0.48721C16.1045 1.42221 15.3975 3.38321 13.7065 4.86821C12.0145 6.35221 0.868543 15.1322 0.0485432 14.1982Z"/>
	</g>
	<defs>
		<clipPath id="clip_17">
			<rect y="33" width="450.207" height="255.66699" clip-rule="evenodd"/>
		</clipPath>
	</defs>
	<g clip-path="url(#clip_17)">
		<path fill="rgb(250,185,175)" stroke="none" transform="translate(169.588 247.126)" d="M3.32769 0.0437386C2.68969 0.259738 -0.406309 1.40874 0.0446913 1.74174C0.496691 2.07374 2.37369 1.90074 3.64769 1.58174C4.92169 1.26174 5.13969 2.31274 7.29069 2.02374C8.41069 1.87374 8.27269 0.487738 8.27269 0.487738C8.27269 0.487738 3.96469 -0.173261 3.32769 0.0437386Z"/>
	</g>
	<defs>
		<clipPath id="clip_18">
			<rect y="33" width="450.207" height="255.66699" clip-rule="evenodd"/>
		</clipPath>
	</defs>
	<g clip-path="url(#clip_18)">
		<path fill="rgb(105,90,110)" stroke="none" transform="translate(234.498 230.927)" d="M7.3248 1.97089C4.7878 -0.129108 1.7358 -0.630108 0.509796 0.851892C-0.717205 2.33389 0.346795 5.23789 2.8848 7.33789C3.3868 7.75289 4.6628 8.59089 6.3898 9.65989C7.4038 10.2889 9.6178 3.92989 9.6178 3.92989C8.5368 2.99489 7.7218 2.29889 7.3248 1.97089Z"/>
	</g>
	<defs>
		<clipPath id="clip_19">
			<rect y="33" width="450.207" height="255.66699" clip-rule="evenodd"/>
		</clipPath>
	</defs>
	<g clip-path="url(#clip_19)">
		<path fill="rgb(250,185,175)" stroke="none" transform="translate(257.534 249.047)" d="M0 1.118C0 1.118 2.546 2.805 3.722 4.088C4.896 5.37 5.437 5.221 6.686 4.021C7.716 3.032 11.021 1.933 11.049 1.221C11.072 0.585 8.614 1.559 6.48 1.741C4.684 1.894 3.395 0.793 2.22 0L0 1.118Z"/>
	</g>
	<defs>
		<clipPath id="clip_20">
			<rect y="33" width="450.207" height="255.66699" clip-rule="evenodd"/>
		</clipPath>
	</defs>
	<g clip-path="url(#clip_20)">
		<path fill="rgb(255,220,215)" stroke="none" transform="translate(266.356 242.584)" d="M3.76727 7.285C4.62327 7.749 6.35227 8.094 6.61327 6.754C6.72927 6.155 6.52727 5.518 6.49627 4.708C6.43427 3.038 7.80927 0 6.39227 0C6.04927 0 6.02927 1.318 5.68427 2.114C4.98027 3.738 4.01227 5.302 0.406272 4.755C0.406272 4.755 -0.183728 6.769 0.0582719 6.778C0.947272 6.809 3.09527 6.921 3.76727 7.285Z"/>
	</g>
	<defs>
		<clipPath id="clip_21">
			<rect y="33" width="450.207" height="255.66699" clip-rule="evenodd"/>
		</clipPath>
	</defs>
	<g clip-path="url(#clip_21)">
		<path fill="rgb(255,220,215)" stroke="none" transform="translate(258.02 249.046)" d="M3.23482 4.088C4.40982 5.371 4.94982 5.221 6.19882 4.022C7.22882 3.033 10.5348 1.934 10.5618 1.221C10.5858 0.585 8.12782 1.56 5.99382 1.742C4.19682 1.895 2.90782 0.793 1.73282 0C1.73282 0 -0.283183 1.253 0.0338172 1.475C0.842817 2.039 2.39082 3.168 3.23482 4.088Z"/>
	</g>
	<defs>
		<clipPath id="clip_22">
			<rect y="33" width="450.207" height="255.66699" clip-rule="evenodd"/>
		</clipPath>
	</defs>
	<g clip-path="url(#clip_22)">
		<path fill="rgb(250,150,140)" stroke="none" transform="translate(231.621 224.822)" d="M0 2.193C0 2.193 0.462001 0.797 0.503001 0.404C0.545001 0.012 1.219 0 1.219 0L0.609001 1.751L0 2.193Z"/>
	</g>
	<defs>
		<clipPath id="clip_23">
			<rect y="33" width="450.207" height="255.66699" clip-rule="evenodd"/>
		</clipPath>
	</defs>
	<g clip-path="url(#clip_23)">
		<path fill="none" stroke="rgb(160,160,165)" stroke-width="0.75" stroke-miterlimit="4" transform="translate(234.499 220.542)" d="M0.8335 0L0.1665 1.917"/>
	</g>
	<defs>
		<clipPath id="clip_24">
			<rect y="33" width="450.207" height="255.66699" clip-rule="evenodd"/>
		</clipPath>
	</defs>
	<g clip-path="url(#clip_24)">
		<path fill="none" stroke="rgb(160,160,165)" stroke-width="0.75" stroke-miterlimit="4" transform="translate(233.665 223.542)" d="M0.625 0.0835L0.375 0.9165"/>
	</g>
	<defs>
		<clipPath id="clip_25">
			<rect y="33" width="450.207" height="255.66699" clip-rule="evenodd"/>
		</clipPath>
	</defs>
	<g clip-path="url(#clip_25)">
		<path fill="rgb(184,11,90)" stroke="none" transform="translate(200.994 205.461)" d="M4.186 8.374C1.874 8.374 0 6.499 0 4.187C0 1.875 1.874 0 4.186 0C6.498 0 8.373 1.875 8.373 4.187C8.373 6.499 6.498 8.374 4.186 8.374Z"/>
	</g>
	<defs>
		<clipPath id="clip_26">
			<rect y="33" width="450.207" height="255.66699" clip-rule="evenodd"/>
		</clipPath>
	</defs>
	<g clip-path="url(#clip_26)">
		<path fill="rgb(184,11,90)" stroke="none" transform="translate(203.968 199.762)" d="M0.217583 5.702L1.05758 3.245C1.46058 2.372 2.33458 1.813 3.29558 1.813L3.68558 1.813C10.0646 1.805 9.64058 0 9.64058 0C10.6006 0.229 11.3606 0.991 11.5866 1.952C12.0026 3.717 10.6756 5.286 8.98058 5.286C8.71058 5.286 5.10858 8.212 5.44258 9.921C5.57558 10.605 5.05858 10.906 4.25958 10.989C1.42358 11.284 -0.703417 8.401 0.217583 5.702Z"/>
	</g>
	<defs>
		<clipPath id="clip_27">
			<rect y="33" width="450.207" height="255.66699" clip-rule="evenodd"/>
		</clipPath>
	</defs>
	<g clip-path="url(#clip_27)">
		<path fill="rgb(250,150,140)" stroke="none" transform="translate(204.672 209.872)" d="M0 5.207L2.698 0L5.18 0.508L5.18 5.225C5.18 5.225 6.597 10.741 5.18 11.264C3.311 11.954 0 5.207 0 5.207Z"/>
	</g>
	<defs>
		<clipPath id="clip_28">
			<rect y="33" width="450.207" height="255.66699" clip-rule="evenodd"/>
		</clipPath>
	</defs>
	<g clip-path="url(#clip_28)">
		<path fill="rgb(184,11,90)" stroke="none" transform="translate(204.538 202.454)" d="M2.29686 8.467C-0.176138 8.467 0.00286246 4.81 0.00286246 2.91C0.00286246 1.011 1.98886 0 4.46186 0C6.93486 0 8.45886 1.154 8.45886 3.054C8.45886 7.475 4.76986 8.467 2.29686 8.467Z"/>
	</g>
	<defs>
		<clipPath id="clip_29">
			<rect y="33" width="450.207" height="255.66699" clip-rule="evenodd"/>
		</clipPath>
	</defs>
	<g clip-path="url(#clip_29)">
		<path fill="rgb(250,185,175)" stroke="none" transform="translate(205.867 203.942)" d="M4.139 9.756C2.148 9.756 0 6.76 0 4.138C0 1.516 1.159 0 3.15 0C5.142 0 7 0.33 7 2.952C7 5.574 6.13 9.756 4.139 9.756Z"/>
	</g>
	<defs>
		<clipPath id="clip_30">
			<rect y="33" width="450.207" height="255.66699" clip-rule="evenodd"/>
		</clipPath>
	</defs>
	<g clip-path="url(#clip_30)">
		<path fill="rgb(255,150,105)" stroke="none" transform="translate(205.936 203.871)" d="M5.043 3.1822C5.575 3.1822 6.501 2.8202 6.907 2.5392C6.907 0.661202 5.981 -0.275798 3.082 0.0712024C1.38 0.275202 0.272 1.1972 0 3.1822L5.043 3.1822Z"/>
	</g>
	<defs>
		<clipPath id="clip_31">
			<rect y="33" width="450.207" height="255.66699" clip-rule="evenodd"/>
		</clipPath>
	</defs>
	<g clip-path="url(#clip_31)">
		<path fill="rgb(184,11,90)" stroke="none" transform="translate(205.176 202.907)" d="M0 3.657L0 2.5C0 1.119 1.119 0 2.5 0L8.319 0L8.319 1.141C8.319 2.531 7.193 3.657 5.803 3.657L0 3.657Z"/>
	</g>
	<defs>
		<clipPath id="clip_32">
			<rect y="33" width="450.207" height="255.66699" clip-rule="evenodd"/>
		</clipPath>
	</defs>
	<g clip-path="url(#clip_32)">
		<path fill="rgb(184,11,90)" stroke="none" transform="translate(206.835 205.654)" d="M0 0L1.26 0L1.26 1.626C1.26 2.322 0.695999 2.886 0 2.886L0 0Z"/>
	</g>
	<defs>
		<clipPath id="clip_33">
			<rect y="33" width="450.207" height="255.66699" clip-rule="evenodd"/>
		</clipPath>
	</defs>
	<g clip-path="url(#clip_33)">
		<path fill="rgb(250,185,175)" stroke="none" transform="translate(205.332 206.41)" d="M1.004 3.142C0.297 3.142 0 2.138 0 1.271C0 0.403 0.297 0 1.004 0C1.71 0 1.983 0.703 1.983 1.571C1.983 2.439 1.71 3.142 1.004 3.142Z"/>
	</g>
	<defs>
		<clipPath id="clip_34">
			<rect y="33" width="450.207" height="255.66699" clip-rule="evenodd"/>
		</clipPath>
	</defs>
	<g clip-path="url(#clip_34)">
		<path fill="rgb(235,82,119)" stroke="none" transform="translate(207.179 227.818)" d="M7.29973 2.1984C7.29973 2.1984 6.35373 2.2024 5.48573 0.812399C5.49873 0.674399 5.52773 0.540399 5.52773 0.398399C5.52773 0.203399 5.38573 0.037399 5.19373 0.00539896C5.00073 -0.026601 4.81373 0.086399 4.75073 0.271399C4.59673 0.727399 4.33273 1.2114 3.92073 1.7254C3.09573 2.7564 1.90573 3.4834 0.586731 3.4644C0.285731 3.4594 0.0317308 3.6864 0.00273079 3.9854C-0.0262692 4.2844 0.178731 4.5554 0.473731 4.6094C0.723731 4.6554 0.981731 4.6794 1.24573 4.6794C2.34773 4.6794 3.34873 4.2614 4.10373 3.5754C4.94573 2.8104 6.18973 2.7074 7.05173 3.4504L7.16173 3.5444L7.29973 2.1984Z"/>
	</g>
	<defs>
		<clipPath id="clip_35">
			<rect y="33" width="450.207" height="255.66699" clip-rule="evenodd"/>
		</clipPath>
	</defs>
	<g clip-path="url(#clip_35)">
		<path fill="rgb(250,185,175)" stroke="none" transform="translate(258.609 125.813)" d="M22.7627 1.68651C20.0427 3.64251 -0.83228 19.4705 0.0257203 20.2245C0.76972 20.8775 24.1797 9.39351 26.8997 7.43751C29.6187 5.48151 30.8977 2.60851 29.7547 1.02051C28.6137 -0.567488 25.4827 -0.269488 22.7627 1.68651"/>
	</g>
	<defs>
		<clipPath id="clip_36">
			<rect y="33" width="450.207" height="255.66699" clip-rule="evenodd"/>
		</clipPath>
	</defs>
	<g clip-path="url(#clip_36)">
		<path fill="rgb(170,50,30)" stroke="none" transform="translate(265.174 125.813)" d="M23.19 1.02043C22.048 -0.567569 18.918 -0.269569 16.198 1.68743C14.538 2.88143 6.118 9.24143 0 14.1884L1.255 17.1284C8.428 13.7724 18.699 8.61443 20.335 7.43743C23.054 5.48143 24.333 2.60843 23.19 1.02043"/>
	</g>
	<defs>
		<clipPath id="clip_37">
			<rect y="33" width="450.207" height="255.66699" clip-rule="evenodd"/>
		</clipPath>
	</defs>
	<g clip-path="url(#clip_37)">
		<path fill="rgb(170,50,30)" stroke="none" transform="translate(282.664 125.813)" d="M23.8361 6.01563C18.8241 4.12763 1.44009 -2.56337 0.0760949 1.05663C-1.28791 4.67663 16.0461 17.7316 23.1251 20.3906C32.6601 23.9716 37.3251 19.7306 38.6901 16.1106C40.0531 12.4906 28.8471 7.90363 23.8361 6.01563"/>
	</g>
	<defs>
		<clipPath id="clip_38">
			<rect y="33" width="450.207" height="255.66699" clip-rule="evenodd"/>
		</clipPath>
	</defs>
	<g clip-path="url(#clip_38)">
		<path fill="rgb(250,185,175)" stroke="none" transform="translate(246.716 141.681)" d="M16.5278 2.7C16.5278 2.7 13.3648 4.191 11.9528 6.205C10.5408 8.219 9.85085 8.117 7.74685 7.338C5.64185 6.559 3.54385 7.859 2.14585 7.834C-0.75815 7.782 -0.53615 6.569 1.74185 6.152C3.89385 5.758 12.6098 3.079 16.4058 0L16.5278 2.7Z"/>
	</g>
	<defs>
		<clipPath id="clip_39">
			<rect y="33" width="450.207" height="255.66699" clip-rule="evenodd"/>
		</clipPath>
	</defs>
	<g clip-path="url(#clip_39)">
		<path fill="rgb(250,185,175)" stroke="none" transform="translate(336.237 128.236)" d="M7.22537 17.6608C8.26437 14.4758 11.1164 0.627786 9.25637 0.0207862C7.39737 -0.586214 1.53037 12.2778 0.491369 15.4628C-0.548631 18.6478 0.116369 21.7218 1.97537 22.3278C3.83537 22.9348 6.18537 20.8458 7.22537 17.6608"/>
	</g>
	<defs>
		<clipPath id="clip_40">
			<rect y="33" width="450.207" height="255.66699" clip-rule="evenodd"/>
		</clipPath>
	</defs>
	<g clip-path="url(#clip_40)">
		<path fill="rgb(250,185,175)" stroke="none" transform="translate(343.36 127.324)" d="M4.18104 4.54472C6.35704 4.31172 19.974 2.11172 19.845 0.910722C19.716 -0.290278 5.89004 -0.0382784 3.71404 0.194722C1.53804 0.427722 -0.121963 1.59072 0.00703722 2.79272C0.136037 3.99372 2.00404 4.77772 4.18104 4.54472"/>
	</g>
	<defs>
		<clipPath id="clip_41">
			<rect y="33" width="450.207" height="255.66699" clip-rule="evenodd"/>
		</clipPath>
	</defs>
	<g clip-path="url(#clip_41)">
		<path fill="rgb(250,150,140)" stroke="none" transform="translate(341.851 139.453)" d="M0.048 0L0 6.211L4.675 6.243L6.275 4.13L0.048 0Z"/>
	</g>
	<defs>
		<clipPath id="clip_42">
			<rect y="33" width="450.207" height="255.66699" clip-rule="evenodd"/>
		</clipPath>
	</defs>
	<g clip-path="url(#clip_42)">
		<path fill="rgb(110,225,255)" stroke="none" transform="translate(309.256 134.581)" d="M0 3.85964L8.163 12.7776L9.469 14.4246L27.593 15.7606C32.397 16.2296 34.64 14.3466 34.226 9.65164L33.597 2.52164C33.452 0.889638 31.929 -0.259362 30.319 0.0506377L0 3.85964Z"/>
	</g>
	<defs>
		<clipPath id="clip_43">
			<rect y="33" width="450.207" height="255.66699" clip-rule="evenodd"/>
		</clipPath>
	</defs>
	<g clip-path="url(#clip_43)">
		<path fill="rgb(110,225,255)" stroke="none" transform="translate(328.225 133.352)" d="M10.9782 8.74216L10.3562 1.68516L3.7982 0.0891627C1.7552 -0.408837 -0.171801 1.24816 0.0121989 3.34316L0.258199 6.13216L10.9782 8.74216Z"/>
	</g>
	<defs>
		<clipPath id="clip_44">
			<rect y="33" width="450.207" height="255.66699" clip-rule="evenodd"/>
		</clipPath>
	</defs>
	<g clip-path="url(#clip_44)">
		<path fill="rgb(250,185,175)" stroke="none" transform="translate(336.059 126.474)" d="M7.58676 16.5975C7.04076 13.2925 3.19076 -0.312516 1.25976 0.00548394C-0.670244 0.324484 0.0517563 14.4455 0.596756 17.7505C1.14176 21.0555 3.14876 23.4775 5.07876 23.1595C7.00876 22.8405 8.13176 19.9035 7.58676 16.5975"/>
	</g>
	<defs>
		<clipPath id="clip_45">
			<rect y="33" width="450.207" height="255.66699" clip-rule="evenodd"/>
		</clipPath>
	</defs>
	<g clip-path="url(#clip_45)">
		<path fill="rgb(200,70,45)" stroke="none" transform="translate(282.665 138.239)" d="M21.2439 14.3361C15.9109 14.8231 0.355865 18.1561 0.00486499 14.3031C-0.347135 10.4511 18.5029 0.519086 23.8359 0.0320861C29.1689 -0.454914 37.8959 4.70409 38.2479 8.55709C38.5989 12.4091 26.5769 13.8491 21.2439 14.3361"/>
	</g>
	<defs>
		<clipPath id="clip_46">
			<rect y="33" width="450.207" height="255.66699" clip-rule="evenodd"/>
		</clipPath>
	</defs>
	<g clip-path="url(#clip_46)">
		<path fill="rgb(250,150,140)" stroke="none" transform="translate(273.472 149.463)" d="M8.0672 4.6669C6.9562 7.8279 -1.0248 28.6989 0.110198 28.8259C0.377198 28.8559 1.4952 27.4969 3.0042 25.4379C7.0582 19.9069 13.9402 9.3209 14.7502 7.0179C15.8612 3.8579 15.2662 0.769897 13.4212 0.120897C11.5762 -0.529103 9.1782 1.5069 8.0672 4.6669"/>
	</g>
	<defs>
		<clipPath id="clip_47">
			<rect y="33" width="450.207" height="255.66699" clip-rule="evenodd"/>
		</clipPath>
	</defs>
	<g clip-path="url(#clip_47)">
		<path fill="rgb(200,70,45)" stroke="none" transform="translate(275.258 149.463)" d="M2.557 23.5746C6.491 17.8916 12.297 8.91557 12.964 7.01757C14.077 3.85857 13.481 0.769566 11.636 0.120566C9.79 -0.528434 7.393 1.50757 6.282 4.66757C5.581 6.65857 2.156 15.6786 0 22.1126L2.557 23.5746Z"/>
	</g>
	<defs>
		<clipPath id="clip_48">
			<rect y="33" width="450.207" height="255.66699" clip-rule="evenodd"/>
		</clipPath>
	</defs>
	<g clip-path="url(#clip_48)">
		<path fill="rgb(250,185,175)" stroke="none" transform="translate(336.46 116.334)" d="M4.75222 11.8445C6.42622 10.4345 16.4872 0.999453 15.7092 0.0744529C14.9312 -0.848547 3.60722 7.08845 1.93422 8.49845C0.260221 9.90745 -0.465779 11.8005 0.312221 12.7235C1.09022 13.6485 3.07822 13.2545 4.75222 11.8445"/>
	</g>
	<defs>
		<clipPath id="clip_49">
			<rect y="33" width="450.207" height="255.66699" clip-rule="evenodd"/>
		</clipPath>
	</defs>
	<g clip-path="url(#clip_49)">
		<path fill="rgb(130,50,100)" stroke="none" transform="translate(351.289 143.734)" d="M5.60483 2.98595C5.70483 1.43995 4.53284 0.105947 2.98584 0.0059473C1.43984 -0.0940527 0.105837 1.07895 0.00583755 2.62495C-0.0931624 4.17095 1.07884 5.50495 2.62484 5.60495C2.62484 5.60495 3.90384 4.32395 4.44984 3.56195C4.74483 3.14995 5.56983 3.52795 5.60483 2.98595"/>
	</g>
	<defs>
		<clipPath id="clip_50">
			<rect y="33" width="450.207" height="255.66699" clip-rule="evenodd"/>
		</clipPath>
	</defs>
	<g clip-path="url(#clip_50)">
		<path fill="rgb(250,185,175)" stroke="none" transform="translate(350.413 116.242)" d="M0.926468 2.95355C0.926468 2.95355 -0.731532 1.35255 0.388468 0.354549C1.50847 -0.644451 5.41647 0.683549 5.79147 1.67555C6.16747 2.66755 3.38247 2.44755 0.926468 2.95355"/>
	</g>
	<defs>
		<clipPath id="clip_51">
			<rect y="33" width="450.207" height="255.66699" clip-rule="evenodd"/>
		</clipPath>
	</defs>
	<g clip-path="url(#clip_51)">
		<path fill="rgb(0,115,170)" stroke="none" transform="translate(349.924 117.035)" d="M0.00711912 1.91034L0.00711912 1.91034C0.0621191 2.28534 0.409119 2.54434 0.784119 2.49034L8.54112 1.36334C8.91612 1.30834 9.17512 0.961342 9.12112 0.586342C9.06712 0.212342 8.71912 -0.047658 8.34412 0.00734204L0.587119 1.13434C0.212119 1.18834 -0.0468809 1.53534 0.00711912 1.91034"/>
	</g>
	<defs>
		<clipPath id="clip_52">
			<rect y="33" width="450.207" height="255.66699" clip-rule="evenodd"/>
		</clipPath>
	</defs>
	<g clip-path="url(#clip_52)">
		<path fill="rgb(250,185,175)" stroke="none" transform="translate(350.771 117.054)" d="M4.66839 2.24221C4.54439 2.46421 3.83439 2.24121 3.03939 1.90021C2.60039 1.71221 2.09939 1.62121 1.64639 1.77721C1.35239 1.87921 0.984389 1.84721 0.650389 1.66221C0.0953888 1.35321 -0.152611 0.73721 0.0973888 0.28621C0.424389 -0.30179 1.54239 0.16521 1.96039 0.37221C2.69739 0.73721 4.82439 1.96021 4.66839 2.24221"/>
	</g>
	<defs>
		<clipPath id="clip_53">
			<rect y="33" width="450.207" height="255.66699" clip-rule="evenodd"/>
		</clipPath>
	</defs>
	<g clip-path="url(#clip_53)">
		<path fill="rgb(130,50,100)" stroke="none" transform="translate(344.696 146.54)" d="M7.904 24.044L7.904 30.044C3.539 30.044 0 26.505 0 22.14L0 0L7.904 0L7.904 24.044Z"/>
	</g>
	<defs>
		<clipPath id="clip_54">
			<rect y="33" width="450.207" height="255.66699" clip-rule="evenodd"/>
		</clipPath>
	</defs>
	<g clip-path="url(#clip_54)">
		<path fill="rgb(130,50,100)" stroke="none" transform="translate(348.407 146.04)" d="M7.904 33.044L7.904 39.044C3.539 39.044 0 35.505 0 31.14L0 5L7.904 0L7.904 33.044Z"/>
	</g>
	<defs>
		<clipPath id="clip_55">
			<rect y="33" width="450.207" height="255.66699" clip-rule="evenodd"/>
		</clipPath>
	</defs>
	<g clip-path="url(#clip_55)">
		<path fill="rgb(250,185,175)" stroke="none" transform="translate(362.03 124.562)" d="M1.60968 1.44766C1.60968 1.44766 -0.166324 2.62566 0.0126757 3.28666C0.192676 3.94766 0.434675 4.35966 1.40768 4.13366C2.37967 3.90766 3.60567 3.13466 4.24967 2.52466C4.89167 1.91366 5.53667 0.435662 5.50167 0.231662C5.37267 -0.510338 4.32467 0.717662 3.78767 1.28766C3.25167 1.85866 2.58867 2.44866 2.38667 2.11366C2.18567 1.77766 3.29567 0.762662 3.19167 0.301662C3.08867 -0.159338 1.60968 1.44766 1.60968 1.44766"/>
	</g>
	<defs>
		<clipPath id="clip_56">
			<rect y="33" width="450.207" height="255.66699" clip-rule="evenodd"/>
		</clipPath>
	</defs>
	<g clip-path="url(#clip_56)">
		<path fill="rgb(130,50,100)" stroke="none" transform="translate(344.695 143.243)" d="M9.26429 1.99527C6.21129 -1.47773 2.6283 0.290266 0.686296 1.99727C-1.2567 3.70427 1.4093 6.45327 2.7193 7.94527C4.0313 9.43726 6.28929 8.86026 8.23229 7.15326C10.1743 5.44627 10.5753 3.48727 9.26429 1.99527"/>
	</g>
	<defs>
		<clipPath id="clip_57">
			<rect y="33" width="450.207" height="255.66699" clip-rule="evenodd"/>
		</clipPath>
	</defs>
	<g clip-path="url(#clip_57)">
		<path fill="rgb(250,185,175)" stroke="none" transform="translate(344.977 140.493)" d="M7.92308 3.74581C6.11308 1.68581 2.54408 -0.998187 0.980083 0.375813C-0.583916 1.74981 -0.203916 5.58581 1.60708 7.64581C3.41608 9.70581 5.37308 10.0968 6.93808 8.72281C8.50208 7.34781 9.73408 5.80581 7.92308 3.74581"/>
	</g>
	<defs>
		<clipPath id="clip_58">
			<rect y="33" width="450.207" height="255.66699" clip-rule="evenodd"/>
		</clipPath>
	</defs>
	<g clip-path="url(#clip_58)">
		<path fill="rgb(255,150,105)" stroke="none" transform="translate(347.346 144.636)" d="M0 4.263L3.961 0.782C4.379 0.415 5.356 0.059 5.87 0C7.167 1.476 7.086 2.851 4.568 4.58C3.091 5.594 1.585 5.635 0 4.263"/>
	</g>
	<defs>
		<clipPath id="clip_59">
			<rect y="33" width="450.207" height="255.66699" clip-rule="evenodd"/>
		</clipPath>
	</defs>
	<g clip-path="url(#clip_59)">
		<path fill="rgb(130,50,100)" stroke="none" transform="translate(347.086 145.147)" d="M4.559 0.654719L0 4.66072L0.799 5.56972C1.752 6.65472 3.404 6.76072 4.489 5.80772L9.06 1.79072L8.272 0.893719C7.313 -0.197281 5.651 -0.304281 4.559 0.654719"/>
	</g>
	<defs>
		<clipPath id="clip_60">
			<rect y="33" width="450.207" height="255.66699" clip-rule="evenodd"/>
		</clipPath>
	</defs>
	<g clip-path="url(#clip_60)">
		<path fill="rgb(130,50,100)" stroke="none" transform="translate(347.026 146.783)" d="M0 0.327854L0 0.327854L1.992 2.59585L2.982 1.72485L1.859 0.447854C1.379 -0.0991458 0.546 -0.152146 0 0.327854"/>
	</g>
	<defs>
		<clipPath id="clip_61">
			<rect y="33" width="450.207" height="255.66699" clip-rule="evenodd"/>
		</clipPath>
	</defs>
	<g clip-path="url(#clip_61)">
		<path fill="rgb(250,185,175)" stroke="none" transform="translate(345.686 146.436)" d="M2.10396 0.782251C1.50396 0.100251 0.803959 -0.263749 0.249959 0.224251C-0.305041 0.712251 0.153959 1.70525 0.752959 2.38725C1.35196 3.06925 1.86396 3.18025 2.41796 2.69325C2.97396 2.20525 2.70296 1.46425 2.10396 0.782251"/>
	</g>
	<defs>
		<clipPath id="clip_62">
			<rect y="33" width="450.207" height="255.66699" clip-rule="evenodd"/>
		</clipPath>
	</defs>
	<g clip-path="url(#clip_62)">
		<path fill="rgb(250,150,140)" stroke="none" transform="translate(266.721 172.207)" d="M10.1351 2.124C10.1351 2.124 8.43106 5.178 8.45506 7.637C8.48006 10.097 7.86006 10.416 5.69506 11.007C3.53006 11.599 2.26906 13.554 1.42906 14.67C0.589063 15.788 -0.639937 15.73 0.396063 13.803C1.43306 11.875 7.17006 4.713 8.46406 0L10.1351 2.124Z"/>
	</g>
	<defs>
		<clipPath id="clip_63">
			<rect y="33" width="450.207" height="255.66699" clip-rule="evenodd"/>
		</clipPath>
	</defs>
	<g clip-path="url(#clip_63)">
		<path fill="rgb(200,70,45)" stroke="none" transform="translate(306.873 137.119)" d="M14.594 12.344L12.901 0L0 1.13L11.501 12.541L14.594 12.344Z"/>
	</g>
	<defs>
		<clipPath id="clip_64">
			<rect y="33" width="450.207" height="255.66699" clip-rule="evenodd"/>
		</clipPath>
	</defs>
	<g clip-path="url(#clip_64)">
		<path fill="rgb(130,50,20)" stroke="none" transform="translate(317.078 136.972)" d="M1.884 12.971L0 0.294L1.979 0L3.863 12.677L1.884 12.971Z"/>
	</g>
	<defs>
		<clipPath id="clip_65">
			<rect y="33" width="450.207" height="255.66699" clip-rule="evenodd"/>
		</clipPath>
	</defs>
	<g clip-path="url(#clip_65)">
		<path fill="rgb(150,80,40)" stroke="none" transform="translate(318.537 136.972)" d="M1.884 12.754L2.404 12.677L0.52 0L0 0.077L1.884 12.754Z"/>
	</g>
	<defs>
		<clipPath id="clip_66">
			<rect y="33" width="450.207" height="255.66699" clip-rule="evenodd"/>
		</clipPath>
	</defs>
	<g clip-path="url(#clip_66)">
		<path fill="none" stroke="rgb(200,70,45)" stroke-width="1" stroke-miterlimit="4" transform="translate(317.512 139.56)" d="M0 0.6225L1.985 0.3775"/>
	</g>
	<defs>
		<clipPath id="clip_67">
			<rect y="33" width="450.207" height="255.66699" clip-rule="evenodd"/>
		</clipPath>
	</defs>
	<g clip-path="url(#clip_67)">
		<path fill="none" stroke="rgb(200,70,45)" stroke-width="1" stroke-miterlimit="4" transform="translate(318.103 144.802)" d="M0 0.656L2.25 0.344"/>
	</g>
	<defs>
		<clipPath id="clip_68">
			<rect y="33" width="450.207" height="255.66699" clip-rule="evenodd"/>
		</clipPath>
	</defs>
	<g clip-path="url(#clip_68)">
		<path fill="rgb(0,145,200)" stroke="none" transform="translate(386.54 250.672)" d="M63.667 1.681C63.667 2.61 49.414 3.362 31.833 3.362C14.252 3.362 0 2.61 0 1.681C0 0.753 14.252 0 31.833 0C49.414 0 63.667 0.753 63.667 1.681"/>
	</g>
	<defs>
		<clipPath id="clip_69">
			<rect y="33" width="450.207" height="255.66699" clip-rule="evenodd"/>
		</clipPath>
	</defs>
	<g clip-path="url(#clip_69)">
		<path fill="rgb(30,45,100)" stroke="none" transform="translate(418.855 143.695)" d="M0 3.836C0 9.39 4.507 11.604 7.613 11.604C10.72 11.604 10.624 6.043 10.624 3.656C10.624 1.269 8.129 0 5.022 0C1.916 0 0 1.449 0 3.836"/>
	</g>
	<defs>
		<clipPath id="clip_70">
			<rect y="33" width="450.207" height="255.66699" clip-rule="evenodd"/>
		</clipPath>
	</defs>
	<g clip-path="url(#clip_70)">
		<path fill="rgb(250,185,175)" stroke="none" transform="translate(408.562 158.278)" d="M2.44099 4.40008C1.41399 7.46808 -1.35601 22.0681 0.800993 22.7901C2.95899 23.5131 9.22499 10.0841 10.253 7.01608C11.28 3.94808 10.364 0.875083 8.20699 0.153083C6.04899 -0.568917 3.46799 1.33208 2.44099 4.40008"/>
	</g>
	<defs>
		<clipPath id="clip_71">
			<rect y="33" width="450.207" height="255.66699" clip-rule="evenodd"/>
		</clipPath>
	</defs>
	<g clip-path="url(#clip_71)">
		<path fill="rgb(255,170,80)" stroke="none" transform="translate(409.387 158.277)" d="M7.37401 11.84C8.35501 9.74903 9.12301 7.92503 9.42801 7.01603C10.455 3.94803 9.53901 0.876028 7.38201 0.153028C5.225 -0.568973 2.644 1.33303 1.616 4.40103C1.211 5.60903 0.537 8.60703 0 11.84L7.37401 11.84Z"/>
	</g>
	<defs>
		<clipPath id="clip_72">
			<rect y="33" width="450.207" height="255.66699" clip-rule="evenodd"/>
		</clipPath>
	</defs>
	<g clip-path="url(#clip_72)">
		<path fill="rgb(250,150,140)" stroke="none" transform="translate(392.226 240.813)" d="M10.518 0L8.86403 6.962C8.86403 6.962 9.40903 8.17501 9.42103 8.98401C9.42803 9.45501 9.44803 10.087 9.46204 10.532C9.47203 10.848 9.25203 11.122 8.94303 11.181L7.34103 11.484C7.03603 11.543 6.74203 11.34 6.68803 11.033L6.61603 10.625L5.23903 11.544C4.76003 11.863 4.15203 11.906 3.63503 11.654C2.30903 11.008 -0.111978 9.77301 0.00402243 9.43401C0.371023 8.36901 4.50403 9.37101 4.50403 9.37101L6.79203 6.685L7.69203 2.079L10.518 0Z"/>
	</g>
	<defs>
		<clipPath id="clip_73">
			<rect y="33" width="450.207" height="255.66699" clip-rule="evenodd"/>
		</clipPath>
	</defs>
	<g clip-path="url(#clip_73)">
		<path fill="rgb(250,185,175)" stroke="none" transform="translate(435.711 238.885)" d="M3.54254 0L6.02154 6.712C6.02154 6.712 7.14653 7.42 7.60553 8.088C7.87253 8.476 8.23853 8.991 8.49753 9.354C8.68153 9.61 8.64853 9.961 8.42453 10.182L7.25953 11.321C7.03654 11.539 6.67954 11.532 6.46554 11.308L6.17954 11.008L5.54154 12.535C5.31954 13.066 4.83754 13.438 4.26754 13.516C2.80554 13.712 0.105544 14.025 0.0145441 13.677C-0.270456 12.589 3.72754 11.133 3.72754 11.133L4.14454 7.629L2.34154 3.296L3.54254 0Z"/>
	</g>
	<defs>
		<clipPath id="clip_74">
			<rect y="33" width="450.207" height="255.66699" clip-rule="evenodd"/>
		</clipPath>
	</defs>
	<g clip-path="url(#clip_74)">
		<path fill="rgb(250,150,140)" stroke="none" transform="translate(399.749 214.432)" d="M3.22647 5.09568C2.69247 8.20568 -0.873531 32.6277 0.200469 32.5677C1.13147 32.5147 9.26947 9.33668 9.80347 6.22568C10.3375 3.11568 9.29847 0.340683 7.48347 0.0286832C5.66647 -0.283317 3.76047 1.98568 3.22647 5.09568"/>
	</g>
	<defs>
		<clipPath id="clip_75">
			<rect y="33" width="450.207" height="255.66699" clip-rule="evenodd"/>
		</clipPath>
	</defs>
	<g clip-path="url(#clip_75)">
		<path fill="rgb(60,80,100)" stroke="none" transform="translate(403.012 187.338)" d="M11.8286 4.21661C9.21959 7.95361 -2.23842 31.7316 0.388583 33.5666C3.01558 35.4016 19.2596 14.8546 21.8696 11.1176C24.4786 7.38061 23.9396 2.6086 21.3116 0.773605C18.6846 -1.0614 14.4386 0.479605 11.8286 4.21661"/>
	</g>
	<defs>
		<clipPath id="clip_76">
			<rect y="33" width="450.207" height="255.66699" clip-rule="evenodd"/>
		</clipPath>
	</defs>
	<g clip-path="url(#clip_76)">
		<path fill="rgb(250,185,175)" stroke="none" transform="translate(426.878 214.285)" d="M0.778465 6.74912C2.05546 9.63512 12.6145 31.9431 13.4755 31.2981C14.2215 30.7381 8.15847 6.93312 6.88146 4.04712C5.60247 1.16112 3.20146 -0.572883 1.51546 0.173117C-0.169535 0.919117 -0.499535 3.86412 0.778465 6.74912"/>
	</g>
	<defs>
		<clipPath id="clip_77">
			<rect y="33" width="450.207" height="255.66699" clip-rule="evenodd"/>
		</clipPath>
	</defs>
	<g clip-path="url(#clip_77)">
		<path fill="rgb(60,80,100)" stroke="none" transform="translate(399.748 214.431)" d="M3.263 28.4857C6.00799 21.4957 9.42599 8.42968 9.80399 6.22568C10.338 3.11568 9.29899 0.340683 7.48399 0.0286832C5.66699 -0.283317 3.761 1.98568 3.227 5.09568C2.845 7.31768 0.679999 20.2677 0 27.5487L3.263 28.4857Z"/>
	</g>
	<defs>
		<clipPath id="clip_78">
			<rect y="33" width="450.207" height="255.66699" clip-rule="evenodd"/>
		</clipPath>
	</defs>
	<g clip-path="url(#clip_78)">
		<path fill="rgb(60,90,115)" stroke="none" transform="translate(426.878 214.285)" d="M10.9752 28.6321L14.1002 27.3821C12.7482 20.5501 7.86919 6.27812 6.88119 4.04712C5.60319 1.16112 3.20219 -0.572883 1.51619 0.173117C-0.169809 0.920116 -0.499809 3.86312 0.779191 6.74912C1.72219 8.87912 7.55119 22.3781 10.9752 28.6321"/>
	</g>
	<defs>
		<clipPath id="clip_79">
			<rect y="33" width="450.207" height="255.66699" clip-rule="evenodd"/>
		</clipPath>
	</defs>
	<g clip-path="url(#clip_79)">
		<path fill="rgb(60,90,115)" stroke="none" transform="translate(422.04 183.052)" d="M0.00218325 8.12008C-0.101817 12.6771 3.52918 38.8201 6.73318 38.8931C9.93718 38.9661 12.0802 12.8611 12.1842 8.30508C12.2872 3.74808 9.19418 0.0740805 5.99018 0.00108054C2.78618 -0.0719195 0.106183 3.56308 0.00218325 8.12008"/>
	</g>
	<defs>
		<clipPath id="clip_80">
			<rect y="33" width="450.207" height="255.66699" clip-rule="evenodd"/>
		</clipPath>
	</defs>
	<g clip-path="url(#clip_80)">
		<path fill="rgb(70,115,140)" stroke="none" transform="translate(398.976 241.722)" d="M3.932 2.735L0 1.724L0.444 0L4.375 1.009L3.932 2.735Z"/>
	</g>
	<defs>
		<clipPath id="clip_81">
			<rect y="33" width="450.207" height="255.66699" clip-rule="evenodd"/>
		</clipPath>
	</defs>
	<g clip-path="url(#clip_81)">
		<path fill="rgb(85,135,155)" stroke="none" transform="translate(437.453 241.324)" d="M4.207 1.457L0.566 2.873L0 1.416L3.641 0L4.207 1.457Z"/>
	</g>
	<defs>
		<clipPath id="clip_82">
			<rect y="33" width="450.207" height="255.66699" clip-rule="evenodd"/>
		</clipPath>
	</defs>
	<g clip-path="url(#clip_82)">
		<path fill="rgb(195,70,70)" stroke="none" transform="translate(392.226 244.686)" d="M8.8631 3.08713L9.5831 0.0581276C8.8321 -0.00987238 8.0811 -0.0248724 7.3311 0.0491276L6.7921 2.81113L4.5041 5.49712C4.5041 5.49712 0.370091 4.49512 0.00409084 5.56012C-0.112909 5.90012 2.30809 7.13412 3.63409 7.78012C4.15109 8.03212 4.7591 7.98912 5.2381 7.67012L6.6151 6.75112L6.6871 7.15912C6.7411 7.46612 7.0351 7.66912 7.3411 7.61012L8.9421 7.30712C9.2521 7.24812 9.4711 6.97412 9.4621 6.65812C9.4471 6.21312 9.4271 5.58112 9.4211 5.11012C9.4081 4.30112 8.8631 3.08713 8.8631 3.08713"/>
	</g>
	<defs>
		<clipPath id="clip_83">
			<rect y="33" width="450.207" height="255.66699" clip-rule="evenodd"/>
		</clipPath>
	</defs>
	<g clip-path="url(#clip_83)">
		<path fill="rgb(195,70,70)" stroke="none" transform="translate(435.71 244.131)" d="M7.60646 2.842C7.14746 2.174 6.02146 1.466 6.02146 1.466L5.48045 0C4.75045 0.088 4.02045 0.192 3.29445 0.34L4.14445 2.383L3.72745 5.887C3.72745 5.887 -0.269552 7.343 0.014448 8.431C0.106448 8.779 2.80645 8.466 4.26745 8.27C4.83745 8.193 5.32045 7.821 5.54246 7.289L6.17946 5.762L6.46546 6.062C6.68046 6.286 7.03746 6.293 7.25946 6.075L8.42446 4.936C8.64946 4.715 8.68146 4.364 8.49846 4.108C8.23946 3.744 7.87346 3.23 7.60646 2.842"/>
	</g>
	<defs>
		<clipPath id="clip_84">
			<rect y="33" width="450.207" height="255.66699" clip-rule="evenodd"/>
		</clipPath>
	</defs>
	<g clip-path="url(#clip_84)">
		<path fill="rgb(55,60,65)" stroke="none" transform="translate(392.226 248.717)" d="M9.21201 0C8.60301 0.289 7.88802 0.458 7.06502 0.458C6.51002 0.458 6.00602 0.379 5.54802 0.241L4.50402 1.467C4.50402 1.467 0.370022 0.465 0.00402242 1.529C-0.111977 1.869 2.30902 3.104 3.63502 3.75C4.15102 4.002 4.76002 3.959 5.23802 3.64L6.61502 2.721L6.68802 3.129C6.74102 3.436 7.03502 3.639 7.34102 3.58L8.94201 3.276C9.25201 3.218 9.47201 2.943 9.46201 2.628C9.44701 2.183 9.42801 1.551 9.42101 1.08C9.41601 0.75 9.32101 0.354 9.21201 0"/>
	</g>
	<defs>
		<clipPath id="clip_85">
			<rect y="33" width="450.207" height="255.66699" clip-rule="evenodd"/>
		</clipPath>
	</defs>
	<g clip-path="url(#clip_85)">
		<path fill="rgb(55,60,65)" stroke="none" transform="translate(435.711 245.782)" d="M8.49753 2.456C8.23853 2.093 7.87253 1.578 7.60553 1.19C7.28854 0.728001 6.65854 0.253 6.29654 0C5.90154 1.166 5.10554 2.179 3.90654 2.721L3.72654 4.235C3.72654 4.235 -0.270452 5.69101 0.0145476 6.77901C0.105547 7.12801 2.80654 6.81401 4.26754 6.61801C4.83754 6.54101 5.31954 6.16901 5.54154 5.63801L6.17954 4.11L6.46554 4.41C6.68054 4.635 7.03654 4.642 7.25954 4.424L8.42453 3.284C8.64853 3.063 8.68153 2.713 8.49753 2.456"/>
	</g>
	<defs>
		<clipPath id="clip_86">
			<rect y="33" width="450.207" height="255.66699" clip-rule="evenodd"/>
		</clipPath>
	</defs>
	<g clip-path="url(#clip_86)">
		<path fill="rgb(250,185,175)" stroke="none" transform="translate(392.902 168.235)" d="M15.1416 7.42477C12.9966 5.98777 0.828593 -1.04323 0.0405925 0.13177C-0.746408 1.30677 10.1456 10.2418 12.2906 11.6798C14.4366 13.1168 16.8136 13.3298 17.6006 12.1548C18.3876 10.9798 17.2876 8.86177 15.1416 7.42477"/>
	</g>
	<defs>
		<clipPath id="clip_87">
			<rect y="33" width="450.207" height="255.66699" clip-rule="evenodd"/>
		</clipPath>
	</defs>
	<g clip-path="url(#clip_87)">
		<path fill="rgb(250,185,175)" stroke="none" transform="translate(390.303 163.077)" d="M3.98027 2.95727C3.98027 2.95727 5.56027 4.91727 5.12227 5.59827C4.68327 6.27927 4.26427 6.65627 3.25027 6.05527C2.23527 5.45427 1.12827 4.14527 0.623274 3.22827C0.117274 2.31127 -0.0817258 0.416273 0.0302742 0.199274C0.440274 -0.590726 1.18227 1.16727 1.58427 2.00027C1.98427 2.83427 2.52027 3.73627 2.86727 3.42927C3.21327 3.12327 2.32527 1.58427 2.60627 1.10227C2.88727 0.620273 3.98027 2.95727 3.98027 2.95727"/>
	</g>
	<defs>
		<clipPath id="clip_88">
			<rect y="33" width="450.207" height="255.66699" clip-rule="evenodd"/>
		</clipPath>
	</defs>
	<g clip-path="url(#clip_88)">
		<path fill="rgb(250,200,85)" stroke="none" transform="translate(411.996 158.011)" d="M20.3121 2.12994L5.10411 0.0429401C2.07311 -0.37306 -0.477888 2.29694 0.0761121 5.30494L4.96211 31.8909C5.54511 35.0649 8.25411 37.4069 11.4791 37.5259C14.8411 37.6499 21.5531 36.6429 22.2281 33.3459L23.6361 6.82294C24.0931 4.59194 22.5691 2.43994 20.3121 2.12994"/>
	</g>
	<defs>
		<clipPath id="clip_89">
			<rect y="33" width="450.207" height="255.66699" clip-rule="evenodd"/>
		</clipPath>
	</defs>
	<g clip-path="url(#clip_89)">
		<path fill="rgb(250,185,175)" stroke="none" transform="translate(397.94 165.065)" d="M14.6941 4.77478C12.2081 3.52978 0.81012 -1.23622 0.0401206 0.302782C-0.729879 1.84078 9.80812 8.83678 12.3611 9.94078C17.0481 11.9688 20.8071 12.5998 21.5771 11.0618C22.3471 9.52278 17.1801 6.01878 14.6941 4.77478"/>
	</g>
	<defs>
		<clipPath id="clip_90">
			<rect y="33" width="450.207" height="255.66699" clip-rule="evenodd"/>
		</clipPath>
	</defs>
	<g clip-path="url(#clip_90)">
		<path fill="rgb(250,185,175)" stroke="none" transform="translate(415.68 160.594)" d="M12.2701 11.619C7.11611 15.851 1.19011 17.164 0.186108 15.931C-0.862892 14.643 2.64911 9.80196 7.53711 5.61096C12.5991 1.26996 17.3051 -1.22204 18.8521 0.605963C21.5491 3.79596 17.4241 7.38696 12.2701 11.619"/>
	</g>
	<defs>
		<clipPath id="clip_91">
			<rect y="33" width="450.207" height="255.66699" clip-rule="evenodd"/>
		</clipPath>
	</defs>
	<g clip-path="url(#clip_91)">
		<path fill="rgb(255,170,80)" stroke="none" transform="translate(423.216 160.658)" d="M5.464 11.7141C9.31699 8.37509 14.699 3.83509 11.316 0.542088C9.59999 -1.12791 5.063 1.20609 0 5.54709C2.316 9.02809 5.464 11.7141 5.464 11.7141"/>
	</g>
	<defs>
		<clipPath id="clip_92">
			<rect y="33" width="450.207" height="255.66699" clip-rule="evenodd"/>
		</clipPath>
	</defs>
	<g clip-path="url(#clip_92)">
		<path fill="rgb(250,185,175)" stroke="none" transform="translate(392.801 162.391)" d="M3.43572 3.64683C3.43572 3.64683 5.59272 4.94583 6.20772 4.41883C6.82272 3.89183 7.13871 3.42583 6.40572 2.50183C5.67172 1.57884 4.22572 0.660837 3.24872 0.283838C2.27072 -0.0921619 0.365723 -0.032162 0.165723 0.108838C-0.560276 0.622837 1.28172 1.11884 2.16272 1.40284C3.04172 1.68684 4.00772 2.09483 3.75172 2.47983C3.49572 2.86483 1.85072 2.19383 1.41072 2.53883C0.970722 2.88183 3.43572 3.64683 3.43572 3.64683"/>
	</g>
	<defs>
		<clipPath id="clip_93">
			<rect y="33" width="450.207" height="255.66699" clip-rule="evenodd"/>
		</clipPath>
	</defs>
	<g clip-path="url(#clip_93)">
		<path fill="rgb(250,150,140)" stroke="none" transform="translate(422.24 153.975)" d="M0.976403 10.222C2.4964 10.658 5.1734 5.493 5.1734 5.493L4.1604 0L0.747404 0.423L0.0584041 4.791C0.0584041 4.791 -0.346596 9.843 0.976403 10.222"/>
	</g>
	<defs>
		<clipPath id="clip_94">
			<rect y="33" width="450.207" height="255.66699" clip-rule="evenodd"/>
		</clipPath>
	</defs>
	<g clip-path="url(#clip_94)">
		<path fill="rgb(250,185,175)" stroke="none" transform="translate(419.326 145.563)" d="M0 5.272C0 9.27 0.770999 11.236 2.826 11.236C5.32699 11.236 8.48599 8.493 8.48599 5.199C8.48599 1.905 7.02999 0 4.528 0C2.027 0 0 1.978 0 5.272"/>
	</g>
	<defs>
		<clipPath id="clip_95">
			<rect y="33" width="450.207" height="255.66699" clip-rule="evenodd"/>
		</clipPath>
	</defs>
	<g clip-path="url(#clip_95)">
		<path fill="rgb(255,150,105)" stroke="none" transform="translate(419.594 145.564)" d="M8.13101 3.908L1.796 3.908C1.128 3.908 0.511001 3.698 0 3.345C0.628001 1.224 2.295 0 4.26001 0C6.41301 0 7.78901 1.414 8.13101 3.908"/>
	</g>
	<defs>
		<clipPath id="clip_96">
			<rect y="33" width="450.207" height="255.66699" clip-rule="evenodd"/>
		</clipPath>
	</defs>
	<g clip-path="url(#clip_96)">
		<path fill="rgb(30,45,100)" stroke="none" transform="translate(418.23 144.264)" d="M3.16 4.594L10.45 4.594L10.45 3.14C10.45 1.406 9.04401 0 7.30901 0L0 0L0 1.433C0 3.179 1.415 4.594 3.16 4.594"/>
	</g>
	<defs>
		<clipPath id="clip_97">
			<rect y="33" width="450.207" height="255.66699" clip-rule="evenodd"/>
		</clipPath>
	</defs>
	<g clip-path="url(#clip_97)">
		<path fill="rgb(30,45,100)" stroke="none" transform="translate(425.014 147.713)" d="M1.58301 3.626L1.58301 3.626L1.58301 0L0 0L0 2.043C0 2.918 0.708004 3.626 1.58301 3.626"/>
	</g>
	<defs>
		<clipPath id="clip_98">
			<rect y="33" width="450.207" height="255.66699" clip-rule="evenodd"/>
		</clipPath>
	</defs>
	<g clip-path="url(#clip_98)">
		<path fill="rgb(250,185,175)" stroke="none" transform="translate(425.993 148.664)" d="M0 1.974C0 3.064 0.342999 3.948 1.22999 3.948C2.11799 3.948 2.68799 2.449 2.68799 1.358C2.68799 0.268 2.11799 0 1.22999 0C0.342999 0 0 0.884 0 1.974"/>
	</g>
	<defs>
		<clipPath id="clip_99">
			<rect y="33" width="450.207" height="255.66699" clip-rule="evenodd"/>
		</clipPath>
	</defs>
	<g clip-path="url(#clip_99)">
		<path fill="rgb(80,85,90)" stroke="none" transform="translate(388.785 158.431)" d="M7.36248 9.17561L4.14548 1.3646C4.09448 1.2426 3.99448 1.1496 3.86948 1.1076L0.594475 0.0236024C0.227474 -0.0973977 -0.112526 0.268602 0.035474 0.625603L3.26648 8.41861C3.31648 8.53861 3.41648 8.63161 3.53948 8.67361L6.80048 9.77561C7.16748 9.89961 7.50948 9.53361 7.36248 9.17561"/>
	</g>
	<defs>
		<clipPath id="clip_100">
			<rect y="33" width="450.207" height="255.66699" clip-rule="evenodd"/>
		</clipPath>
	</defs>
	<g clip-path="url(#clip_100)">
		<path fill="rgb(55,60,65)" stroke="none" transform="translate(388.82 159.045)" d="M6.64701 9.11199L3.43001 1.301C3.38001 1.179 3.28 1.086 3.155 1.044L0 0C0.001 0.004 0 0.00799999 0.001 0.012L3.23201 7.805C3.28201 7.92499 3.38101 8.01799 3.50401 8.05999L6.64801 9.12199C6.64701 9.11899 6.64801 9.11499 6.64701 9.11199"/>
	</g>
	<defs>
		<clipPath id="clip_101">
			<rect y="33" width="450.207" height="255.66699" clip-rule="evenodd"/>
		</clipPath>
	</defs>
	<g clip-path="url(#clip_101)">
		<path fill="rgb(80,85,90)" stroke="none" transform="translate(390.72 160.927)" d="M1.02969 0.681112C1.21669 1.14811 1.16369 1.60811 0.90969 1.71011C0.656693 1.81211 0.299697 1.51611 0.1117 1.04911C-0.0752979 0.582112 -0.0222986 0.122112 0.231698 0.0201114C0.484695 -0.0818887 0.842691 0.214112 1.02969 0.681112"/>
	</g>
	<defs>
		<clipPath id="clip_102">
			<rect y="33" width="450.207" height="255.66699" clip-rule="evenodd"/>
		</clipPath>
	</defs>
	<g clip-path="url(#clip_102)">
		<path fill="rgb(255,115,80)" stroke="none" transform="translate(55.6838 144.778)" d="M10.0906 6.94191C10.0906 6.39091 11.7066 3.81891 11.5236 2.42591C11.3676 1.24791 10.4286 0.25491 9.25861 0.0459096C7.48261 -0.27009 5.93761 1.08791 5.93761 2.80591C5.93761 3.35691 6.10261 3.86691 6.37661 4.29991C5.27661 4.67891 4.48061 5.71291 4.48061 6.94191C4.48061 7.53691 4.66861 8.08691 4.98461 8.54091C1.78061 9.27991 -0.511389 12.4039 0.0986114 15.9479C0.541611 18.5169 2.58061 20.6129 5.13961 21.1109C9.25961 21.9139 12.8666 18.7799 12.8666 14.8039C12.8666 12.2369 10.0906 7.75591 10.0906 6.94191"/>
	</g>
	<defs>
		<clipPath id="clip_103">
			<rect y="33" width="450.207" height="255.66699" clip-rule="evenodd"/>
		</clipPath>
	</defs>
	<g clip-path="url(#clip_103)">
		<path fill="rgb(250,150,140)" stroke="none" transform="translate(58.022 213.913)" d="M6.312 0C6.312 0 4.554 3.142 3.585 2.978C2.616 2.813 1.018 3.034 1.04 4.412C1.056 5.435 1.005 6.564 1.099 7.378C1.18 8.078 0 13.713 0 13.713C2.362 14.144 3.478 4.878 7.143 2.772L6.312 0Z"/>
	</g>
	<defs>
		<clipPath id="clip_104">
			<rect y="33" width="450.207" height="255.66699" clip-rule="evenodd"/>
		</clipPath>
	</defs>
	<g clip-path="url(#clip_104)">
		<path fill="rgb(0,145,200)" stroke="none" transform="translate(41.4885 248.346)" d="M27.322 0.928001C27.322 1.44 21.206 1.856 13.661 1.856C6.116 1.856 0 1.44 0 0.928001C0 0.415001 6.116 0 13.661 0C21.206 0 27.322 0.415001 27.322 0.928001"/>
	</g>
	<defs>
		<clipPath id="clip_105">
			<rect y="33" width="450.207" height="255.66699" clip-rule="evenodd"/>
		</clipPath>
	</defs>
	<g clip-path="url(#clip_105)">
		<path fill="rgb(250,150,140)" stroke="none" transform="translate(59.5997 201.161)" d="M19.8183 7.3765C16.9063 9.03249 0.330314 18.9815 0.00331423 17.8875C-0.0736858 17.6305 1.19931 16.4895 2.95731 14.6375C7.67831 9.6635 14.1943 2.42549 16.3163 1.21849C19.2283 -0.436506 22.3733 -0.401506 23.3393 1.29849C24.3073 2.99949 22.7303 5.7205 19.8183 7.3765"/>
	</g>
	<defs>
		<clipPath id="clip_106">
			<rect y="33" width="450.207" height="255.66699" clip-rule="evenodd"/>
		</clipPath>
	</defs>
	<g clip-path="url(#clip_106)">
		<path fill="rgb(255,115,80)" stroke="none" transform="translate(54.8165 141.88)" d="M10.414 0.0835221C9.485 -0.139478 8.614 0.0995221 7.976 0.616522C6.965 1.43452 5.762 1.97752 4.462 1.97752L3.775 1.97752C2.769 1.97752 1.855 2.56252 1.434 3.47552L0 6.58252L1.224 7.03452L8.914 6.58252L8.914 5.47852C9.17 5.55652 9.437 5.61052 9.72 5.61052C11.491 5.61052 12.878 3.97052 12.446 2.12652C12.213 1.13152 11.409 0.322522 10.414 0.0835221"/>
	</g>
	<defs>
		<clipPath id="clip_107">
			<rect y="33" width="450.207" height="255.66699" clip-rule="evenodd"/>
		</clipPath>
	</defs>
	<g clip-path="url(#clip_107)">
		<path fill="rgb(255,115,80)" stroke="none" transform="translate(45.1318 148.135)" d="M17.107 10.386C17.107 16.122 13.277 20.773 8.553 20.773C3.83 20.773 0 16.122 0 10.386C0 4.65 3.83 0 8.553 0C13.277 0 17.107 4.65 17.107 10.386"/>
	</g>
	<defs>
		<clipPath id="clip_108">
			<rect y="33" width="450.207" height="255.66699" clip-rule="evenodd"/>
		</clipPath>
	</defs>
	<g clip-path="url(#clip_108)">
		<path fill="rgb(160,60,55)" stroke="none" transform="translate(49.144 181.95)" d="M13.877 15.4144C18.657 17.8294 32.046 25.6704 33.79 22.2174C35.534 18.7644 21.509 3.57439 16.729 1.16039C11.949 -1.25461 1.93597 0.331387 0.190967 3.78539C-1.55303 7.23839 9.09697 12.9994 13.877 15.4144"/>
	</g>
	<defs>
		<clipPath id="clip_109">
			<rect y="33" width="450.207" height="255.66699" clip-rule="evenodd"/>
		</clipPath>
	</defs>
	<g clip-path="url(#clip_109)">
		<path fill="rgb(250,185,175)" stroke="none" transform="translate(61.9931 157.316)" d="M7.12797 5.43159C7.67697 8.73559 8.41797 22.8556 6.48797 23.1766C4.55797 23.4976 0.689966 9.89759 0.139966 6.59359C-0.410034 3.28859 0.709966 0.349589 2.63897 0.0285888C4.56897 -0.292411 6.57897 2.12659 7.12797 5.43159"/>
	</g>
	<defs>
		<clipPath id="clip_110">
			<rect y="33" width="450.207" height="255.66699" clip-rule="evenodd"/>
		</clipPath>
	</defs>
	<g clip-path="url(#clip_110)">
		<path fill="rgb(250,185,175)" stroke="none" transform="translate(67.5929 172.911)" d="M3.11949 3.48434C5.19349 2.78434 18.4785 -0.926665 18.8655 0.217335C19.2515 1.36234 6.59349 6.92934 4.51949 7.62934C2.44649 8.32934 0.452486 7.96934 0.0654858 6.82434C-0.321514 5.68034 1.04649 4.18434 3.11949 3.48434"/>
	</g>
	<defs>
		<clipPath id="clip_111">
			<rect y="33" width="450.207" height="255.66699" clip-rule="evenodd"/>
		</clipPath>
	</defs>
	<g clip-path="url(#clip_111)">
		<path fill="rgb(57,174,150)" stroke="none" transform="translate(49.6465 157.316)" d="M20.2939 10.465L18.2899 4.553L18.3649 3.817C18.5749 1.775 16.9739 0 14.9209 0L2.70788 0C0.852875 0 -0.453126 1.825 0.147875 3.581L5.91888 20.455L7.71288 26.236L15.9239 27.539L17.2639 14.522L17.3849 14.522C19.4879 14.522 20.9689 12.456 20.2939 10.465"/>
	</g>
	<defs>
		<clipPath id="clip_112">
			<rect y="33" width="450.207" height="255.66699" clip-rule="evenodd"/>
		</clipPath>
	</defs>
	<g clip-path="url(#clip_112)">
		<path fill="rgb(250,185,175)" stroke="none" transform="translate(52.3437 212.069)" d="M7.15871 6.51933C6.69371 9.83633 2.40771 35.6813 1.34171 35.2733C0.416707 34.9183 -0.321293 8.85433 0.142707 5.53733C0.607707 2.21933 2.55471 -0.25067 4.49171 0.0203299C6.42971 0.29233 7.62271 3.20233 7.15871 6.51933"/>
	</g>
	<defs>
		<clipPath id="clip_113">
			<rect y="33" width="450.207" height="255.66699" clip-rule="evenodd"/>
		</clipPath>
	</defs>
	<g clip-path="url(#clip_113)">
		<path fill="rgb(160,60,55)" stroke="none" transform="translate(63.6035 201.161)" d="M19.336 1.29888C18.369 -0.401124 15.224 -0.437124 12.313 1.21888C10.343 2.33888 4.591 8.65088 0 13.5299L0 13.5489L1.829 15.3789C7.004 12.5849 14.015 8.40088 15.815 7.37688C18.727 5.72088 20.303 2.99988 19.336 1.29888"/>
	</g>
	<defs>
		<clipPath id="clip_114">
			<rect y="33" width="450.207" height="255.66699" clip-rule="evenodd"/>
		</clipPath>
	</defs>
	<g clip-path="url(#clip_114)">
		<path fill="rgb(195,70,70)" stroke="none" transform="translate(52.3438 212.069)" d="M3.10438 29.2853C4.74338 21.5433 6.84138 8.78334 7.15838 6.51834C7.62338 3.20134 6.42938 0.291337 4.49238 0.0203374C2.55438 -0.250663 0.607377 2.21834 0.143377 5.53534C-0.182623 7.85534 0.0823766 21.2883 0.585377 29.2853L3.10438 29.2853Z"/>
	</g>
	<defs>
		<clipPath id="clip_115">
			<rect y="33" width="450.207" height="255.66699" clip-rule="evenodd"/>
		</clipPath>
	</defs>
	<g clip-path="url(#clip_115)">
		<path fill="rgb(250,150,140)" stroke="none" transform="translate(56.2663 152.535)" d="M5.032 8.115C2.38 8.475 0 4.781 0 4.781L2.435 0L5.032 0.531C5.032 0.531 4.613 2.745 4.813 4.781C4.977 6.451 5.879 8 5.032 8.115"/>
	</g>
	<defs>
		<clipPath id="clip_116">
			<rect y="33" width="450.207" height="255.66699" clip-rule="evenodd"/>
		</clipPath>
	</defs>
	<g clip-path="url(#clip_116)">
		<path fill="rgb(195,70,70)" stroke="none" transform="translate(46.6805 177.092)" d="M14.009 17.459C14.009 22.814 14.14 41.441 10.272 41.441C6.40301 41.441 -0.00899054 21.14 9.46423e-06 13.578C0.0110095 3.393 5.93101 0 9.80001 0C13.668 0 14.009 12.104 14.009 17.459"/>
	</g>
	<defs>
		<clipPath id="clip_117">
			<rect y="33" width="450.207" height="255.66699" clip-rule="evenodd"/>
		</clipPath>
	</defs>
	<g clip-path="url(#clip_117)">
		<path fill="rgb(57,174,150)" stroke="none" transform="translate(48.6712 177.092)" d="M20.1857 8.12599C19.0167 7.15199 17.9847 6.413 17.2017 6.018C15.5717 5.194 13.3317 4.846 11.0197 4.868C10.4017 2.067 9.40667 0 7.80867 0C5.37967 0 2.14767 1.344 0.0756712 4.864C-0.998329 6.687 9.66067 9.33399 12.9847 9.57499C15.4437 9.75199 21.5157 9.23299 20.1857 8.12599"/>
	</g>
	<defs>
		<clipPath id="clip_118">
			<rect y="33" width="450.207" height="255.66699" clip-rule="evenodd"/>
		</clipPath>
	</defs>
	<g clip-path="url(#clip_118)">
		<path fill="rgb(250,185,175)" stroke="none" transform="translate(52.1496 241.401)" d="M0.781978 0C0.781978 0 0.677978 3.104 0.195978 4.807C-0.288022 6.50799 0.0759776 7.22399 1.83398 7.33799C3.59198 7.45099 8.00998 8.12099 8.52698 7.61099C9.04298 7.10299 6.98198 6.28399 5.55898 5.671C3.87498 4.945 2.87398 2.766 2.93398 1.325L0.781978 0Z"/>
	</g>
	<defs>
		<clipPath id="clip_119">
			<rect y="33" width="450.207" height="255.66699" clip-rule="evenodd"/>
		</clipPath>
	</defs>
	<g clip-path="url(#clip_119)">
		<path fill="rgb(100,40,35)" stroke="none" transform="translate(58.0219 216.848)" d="M2.754 1.38463C2.901 0.89963 3.114 0.43763 3.398 0.0216297C2.423 -0.0863703 1.019 0.18163 1.04 1.47563C1.056 2.49863 1.005 3.62863 1.099 4.44263C1.18 5.14163 0 10.7776 0 10.7776C1.154 10.9876 2.011 8.88163 3.014 6.42763C2.114 4.94363 2.031 2.96563 2.754 1.38463"/>
	</g>
	<defs>
		<clipPath id="clip_120">
			<rect y="33" width="450.207" height="255.66699" clip-rule="evenodd"/>
		</clipPath>
	</defs>
	<g clip-path="url(#clip_120)">
		<path fill="rgb(100,40,35)" stroke="none" transform="translate(52.1493 245.836)" d="M5.55923 1.236C5.51823 1.218 5.48322 1.191 5.44423 1.172C4.90223 1.546 4.22423 1.781 3.39123 1.781C1.87023 1.781 0.840225 1.025 0.289225 0C0.260225 0.13 0.229225 0.255 0.195225 0.372C-0.287775 2.073 0.0772253 2.789 1.83423 2.903C3.59223 3.016 8.01023 3.68599 8.52723 3.176C9.04323 2.668 6.98222 1.849 5.55923 1.236"/>
	</g>
	<defs>
		<clipPath id="clip_121">
			<rect y="33" width="450.207" height="255.66699" clip-rule="evenodd"/>
		</clipPath>
	</defs>
	<g clip-path="url(#clip_121)">
		<path fill="rgb(250,185,175)" stroke="none" transform="translate(49.6463 157.316)" d="M7.42008 3.45379C9.27708 6.24179 15.7481 18.8138 14.1201 19.8978C12.4921 20.9828 3.38208 10.1698 1.52408 7.38179C-0.33292 4.59379 -0.51892 1.45479 1.10908 0.369785C2.73708 -0.714215 5.56308 0.665785 7.42008 3.45379"/>
	</g>
	<defs>
		<clipPath id="clip_122">
			<rect y="33" width="450.207" height="255.66699" clip-rule="evenodd"/>
		</clipPath>
	</defs>
	<g clip-path="url(#clip_122)">
		<path fill="rgb(250,185,175)" stroke="none" transform="translate(62.0252 165.214)" d="M2.30153 7.33121C4.12253 6.11821 15.9935 -0.90779 16.6635 0.0982101C17.3335 1.10321 6.54853 9.75821 4.72753 10.9722C2.90553 12.1852 0.886533 12.3542 0.216533 11.3492C-0.452467 10.3432 0.480533 8.54421 2.30153 7.33121"/>
	</g>
	<defs>
		<clipPath id="clip_123">
			<rect y="33" width="450.207" height="255.66699" clip-rule="evenodd"/>
		</clipPath>
	</defs>
	<g clip-path="url(#clip_123)">
		<path fill="rgb(250,185,175)" stroke="none" transform="translate(77.0825 160.495)" d="M0 3.78678C0 3.78678 0.594 6.01377 2.01 5.51978C3.427 5.02678 4.165 0.964781 3.48 0.154782C2.796 -0.655216 1.636 1.88578 0 3.78678"/>
	</g>
	<defs>
		<clipPath id="clip_124">
			<rect y="33" width="450.207" height="255.66699" clip-rule="evenodd"/>
		</clipPath>
	</defs>
	<g clip-path="url(#clip_124)">
		<path fill="rgb(0,115,170)" stroke="none" transform="translate(76.3469 158.171)" d="M0.269768 7.46334L0.269768 7.46334C-0.0312315 7.23434 -0.0892314 6.80334 0.140768 6.50334L4.89377 0.269342C5.12377 -0.0316585 5.55277 -0.0886585 5.85377 0.140342C6.15477 0.369342 6.21277 0.799342 5.98277 1.10034L1.22977 7.33434C1.00077 7.63434 0.570768 7.69234 0.269768 7.46334"/>
	</g>
	<defs>
		<clipPath id="clip_125">
			<rect y="33" width="450.207" height="255.66699" clip-rule="evenodd"/>
		</clipPath>
	</defs>
	<g clip-path="url(#clip_125)">
		<path fill="rgb(250,185,175)" stroke="none" transform="translate(77.5413 160.65)" d="M1.445 0C1.19 0 1.041 0.729001 0.951998 1.589C0.902999 2.065 0.738999 2.547 0.382999 2.867C0.151 3.075 0 3.412 0 3.79301C0 4.42901 0.417999 4.94501 0.933998 4.94501C1.607 4.94501 1.742 3.74101 1.764 3.275C1.803 2.454 1.768 0 1.445 0"/>
	</g>
	<defs>
		<clipPath id="clip_126">
			<rect y="33" width="450.207" height="255.66699" clip-rule="evenodd"/>
		</clipPath>
	</defs>
	<g clip-path="url(#clip_126)">
		<path fill="rgb(250,185,175)" stroke="none" transform="translate(84.6856 167.914)" d="M0.607378 3.11545C0.607378 3.11545 -0.347622 5.02045 0.137378 5.50545C0.622378 5.98945 1.03638 6.22545 1.76738 5.54645C2.49938 4.86645 3.17838 3.58645 3.43238 2.73745C3.68638 1.88745 3.51038 0.283448 3.37838 0.124448C2.89738 -0.454552 2.59938 1.13245 2.41738 1.89345C2.23538 2.65545 1.95438 3.49745 1.61238 3.30545C1.27138 3.11545 1.72938 1.68245 1.41038 1.33445C1.09138 0.986448 0.607378 3.11545 0.607378 3.11545"/>
	</g>
	<defs>
		<clipPath id="clip_127">
			<rect y="33" width="450.207" height="255.66699" clip-rule="evenodd"/>
		</clipPath>
	</defs>
	<g clip-path="url(#clip_127)">
		<path fill="rgb(250,185,175)" stroke="none" transform="translate(57.1317 146.334)" d="M7.32 3.087C7.32 5.829 6.41 10.202 4.328 10.202C2.246 10.202 0 7.069 0 4.327C0 1.585 1.212 0 3.294 0C5.376 0 7.32 0.345 7.32 3.087"/>
	</g>
	<defs>
		<clipPath id="clip_128">
			<rect y="33" width="450.207" height="255.66699" clip-rule="evenodd"/>
		</clipPath>
	</defs>
	<g clip-path="url(#clip_128)">
		<path fill="rgb(255,150,105)" stroke="none" transform="translate(57.2036 146.259)" d="M0 3.32786L5.273 3.32786C5.829 3.32786 6.798 2.94986 7.223 2.65586C7.223 0.690855 6.254 -0.289146 3.222 0.0748542C1.443 0.287854 0.285 1.25186 0 3.32786"/>
	</g>
	<defs>
		<clipPath id="clip_129">
			<rect y="33" width="450.207" height="255.66699" clip-rule="evenodd"/>
		</clipPath>
	</defs>
	<g clip-path="url(#clip_129)">
		<path fill="rgb(255,115,80)" stroke="none" transform="translate(56.4081 145.251)" d="M6.069 3.825L0 3.825L0 2.615C0 1.171 1.171 0 2.615 0L8.7 0L8.7 1.194C8.7 2.647 7.522 3.825 6.069 3.825"/>
	</g>
	<defs>
		<clipPath id="clip_130">
			<rect y="33" width="450.207" height="255.66699" clip-rule="evenodd"/>
		</clipPath>
	</defs>
	<g clip-path="url(#clip_130)">
		<path fill="rgb(255,115,80)" stroke="none" transform="translate(58.1431 148.124)" d="M0 3.018L0 3.018L0 0L1.317 0L1.317 1.701C1.317 2.428 0.728001 3.018 0 3.018"/>
	</g>
	<defs>
		<clipPath id="clip_131">
			<rect y="33" width="450.207" height="255.66699" clip-rule="evenodd"/>
		</clipPath>
	</defs>
	<g clip-path="url(#clip_131)">
		<path fill="rgb(250,185,175)" stroke="none" transform="translate(56.572 148.915)" d="M2.074 1.643C2.074 2.55 1.788 3.286 1.049 3.286C0.31 3.286 0 2.236 0 1.329C0 0.421 0.31 0 1.049 0C1.788 0 2.074 0.735001 2.074 1.643"/>
	</g>
	<defs>
		<clipPath id="clip_132">
			<rect y="33" width="450.207" height="255.66699" clip-rule="evenodd"/>
		</clipPath>
	</defs>
	<g clip-path="url(#clip_132)">
		<path fill="rgb(240,125,75)" stroke="none" transform="translate(54.0722 175.792)" d="M11.815 7.185L11.067 7.153C3.659 6.37 0 1.657 0 1.657L0.816 0C0.816 0 4.838 4.483 11.277 5.164L12.022 5.288L11.815 7.185Z"/>
	</g>

</svg>