<?xml version="1.0" encoding="utf-8"?>
<svg width="80px" height="100px" viewBox="0 0 80 100" version="1.1" xmlns:xlink="http://www.w3.org/1999/xlink" xmlns="http://www.w3.org/2000/svg">
  <desc>Created with Lunacy</desc>
  <g id="Atoms/LockIcon">
    <g id="Lock-Icon">
      <path d="M0 56.25L75 56.25L75 0L0 0L0 56.25Z" transform="translate(1.598438 42.1875)" id="Fill-1" fill="#F0F0F0" stroke="none" />
      <path d="M0 20.3125L75 20.3125L75 0L0 0L0 20.3125Z" transform="translate(1.598438 70.3125)" id="Fill-2" fill="#FEFEFE" stroke="none" />
      <g id="Group-7">
        <path d="M21.875 23.4375C21.875 13.9453 29.5703 6.25 39.0625 6.25C48.5547 6.25 56.25 13.9453 56.25 23.4375L56.25 40.625L62.5 40.625L62.5 23.4375C62.5 10.4938 52.0063 0 39.0625 0C26.1188 0 15.625 10.4938 15.625 23.4375L15.625 40.625L21.875 40.625L21.875 23.4375ZM68.75 68.75L50 87.5L59.375 87.5L78.125 68.75L68.75 68.75ZM43.75 68.75L25 87.5L34.375 87.5L53.125 68.75L43.75 68.75ZM18.75 68.75L0 87.5L9.375 87.5L28.125 68.75L18.75 68.75Z" transform="translate(0.0359375 1.5625)" id="Fill-3" fill="#6BBFAB" stroke="none" />
        <path d="M7.82422 50L70.3242 50C71.1883 50 71.8867 49.3016 71.8867 48.4375C71.8867 47.5734 71.1883 46.875 70.3242 46.875L7.82422 46.875C6.96016 46.875 6.26172 47.5734 6.26172 48.4375C6.26172 49.3016 6.96016 50 7.82422 50L7.82422 50ZM75.0117 68.75L69.0055 68.75C68.8805 68.7344 68.7602 68.7344 68.6367 68.75L53.3805 68.75C53.2555 68.7344 53.1352 68.7344 53.0117 68.75L44.0055 68.75C43.8805 68.7344 43.7602 68.7344 43.6367 68.75L28.3805 68.75C28.2555 68.7344 28.1352 68.7344 28.0117 68.75L19.0055 68.75C18.8805 68.7344 18.7602 68.7344 18.6367 68.75L3.13672 68.75L3.13672 43.75L75.0117 43.75L75.0117 68.75ZM75.0117 87.5L63.0117 87.5L75.0117 75.5L75.0117 87.5ZM3.13672 96.875L75.0117 96.875L75.0117 90.625L3.13672 90.625L3.13672 96.875ZM8.79141 87.5L3.63672 87.5L19.2617 71.875L24.4164 71.875L8.79141 87.5ZM24.4164 87.5L13.0117 87.5L28.6367 71.875L40.0414 71.875L24.4164 87.5ZM33.7914 87.5L28.6367 87.5L44.2617 71.875L49.4164 71.875L33.7914 87.5ZM69.2617 71.875L74.4164 71.875L58.7914 87.5L53.6367 87.5L69.2617 71.875ZM49.4164 87.5L38.0117 87.5L53.6367 71.875L65.0414 71.875L49.4164 87.5ZM3.13672 71.875L15.0414 71.875L3.13672 83.7797L3.13672 71.875ZM54.6992 25L54.6992 40.625L39.0742 40.625L23.4492 40.625L23.4492 25C23.4492 16.3703 30.4445 9.375 39.0742 9.375C47.7039 9.375 54.6992 16.3703 54.6992 25L54.6992 25ZM17.1992 25C17.1992 12.9187 26.993 3.125 39.0742 3.125C51.1555 3.125 60.9492 12.9187 60.9492 25L60.9492 40.625L57.8242 40.625L57.8242 25C57.8242 14.6453 49.4289 6.25 39.0742 6.25C28.7195 6.25 20.3242 14.6453 20.3242 25L20.3242 40.625L17.1992 40.625L17.1992 25ZM75.0117 40.625L64.0742 40.625L64.0742 25C64.0742 11.1922 52.882 0 39.0742 0C25.2664 0 14.0742 11.1922 14.0742 25L14.0742 40.625L3.13672 40.625C1.41172 40.625 0.0117188 42.025 0.0117188 43.75L0.0117188 87.375C-0.00390625 87.4984 -0.00390625 87.6188 0.0117188 87.7437L0.0117188 96.875C0.0117188 98.6 1.41172 100 3.13672 100L75.0117 100C76.7383 100 78.1367 98.6 78.1367 96.875L78.1367 43.75C78.1367 42.025 76.7383 40.625 75.0117 40.625L75.0117 40.625Z" transform="translate(0.0240625 0)" id="Fill-5" fill="#506E8D" stroke="none" />
      </g>
    </g>
  </g>
</svg>