<?xml version="1.0" encoding="utf-8"?>
<svg width="25px" height="25px" viewBox="0 0 25 25" version="1.1" xmlns:xlink="http://www.w3.org/1999/xlink" xmlns="http://www.w3.org/2000/svg">
  <desc>Created with Lunacy</desc>
  <defs>
    <path d="M0 11.5674C0 5.18912 5.18912 0 11.5674 0C17.9457 0 23.1348 5.18912 23.1348 11.5673C23.1348 13.0055 22.874 14.409 22.3597 15.7389C22.2658 15.9814 21.9933 16.1018 21.7507 16.0082C21.5082 15.9143 21.3877 15.6418 21.4814 15.3992C21.9537 14.1781 22.1932 12.8889 22.1932 11.5674C22.1932 5.70833 17.4264 0.94158 11.5674 0.94158C5.70833 0.94158 0.94158 5.70825 0.94158 11.5674C0.94158 17.4265 5.70833 22.1933 11.5675 22.1932C14.3271 22.1932 16.9421 21.1403 18.9308 19.2283C19.1183 19.0481 19.4163 19.054 19.5964 19.2414C19.7766 19.4288 19.7707 19.7269 19.5833 19.907C17.4183 21.9885 14.5716 23.1348 11.5674 23.1348C5.18912 23.1348 0 17.9456 0 11.5674ZM16.1963 6.27265C16.3801 6.0888 16.6783 6.0888 16.8621 6.27265C17.046 6.45657 17.046 6.75458 16.8621 6.9385L6.9385 16.8621C6.84654 16.954 6.72609 17 6.60557 17C6.48505 17 6.36453 16.954 6.27265 16.8621C6.0888 16.6783 6.0888 16.3802 6.27265 16.1963L16.1963 6.27265ZM9.82209 10.4879C9.91397 10.5797 10.0345 10.6257 10.155 10.6257C10.2755 10.6257 10.396 10.5797 10.4879 10.4879C10.6718 10.304 10.6718 10.0059 10.4879 9.82209L6.9385 6.27265C6.75466 6.0888 6.45649 6.0888 6.27272 6.27265C6.08888 6.45649 6.08888 6.75458 6.27272 6.93842L9.82209 10.4879ZM12.4864 12.572C12.6682 12.3862 12.9663 12.3829 13.1522 12.5649L16.8586 16.1927C17.0443 16.3746 17.0475 16.6727 16.8656 16.8585C16.7735 16.9527 16.6514 17 16.5292 17C16.4104 17 16.2915 16.9553 16.1999 16.8657L12.4935 13.2377C12.3078 13.0559 12.3046 12.7578 12.4864 12.572Z" transform="translate(0.9259259 0.9259259)" id="path_1" />
    <clipPath id="mask_1">
      <use xlink:href="#path_1" />
    </clipPath>
  </defs>
  <g id="Atoms/Icon/close">
    <path d="M0 11.5674C0 5.18912 5.18912 0 11.5674 0C17.9457 0 23.1348 5.18912 23.1348 11.5673C23.1348 13.0055 22.874 14.409 22.3597 15.7389C22.2658 15.9814 21.9933 16.1018 21.7507 16.0082C21.5082 15.9143 21.3877 15.6418 21.4814 15.3992C21.9537 14.1781 22.1932 12.8889 22.1932 11.5674C22.1932 5.70833 17.4264 0.94158 11.5674 0.94158C5.70833 0.94158 0.94158 5.70825 0.94158 11.5674C0.94158 17.4265 5.70833 22.1933 11.5675 22.1932C14.3271 22.1932 16.9421 21.1403 18.9308 19.2283C19.1183 19.0481 19.4163 19.054 19.5964 19.2414C19.7766 19.4288 19.7707 19.7269 19.5833 19.907C17.4183 21.9885 14.5716 23.1348 11.5674 23.1348C5.18912 23.1348 0 17.9456 0 11.5674ZM16.1963 6.27265C16.3801 6.0888 16.6783 6.0888 16.8621 6.27265C17.046 6.45657 17.046 6.75458 16.8621 6.9385L6.9385 16.8621C6.84654 16.954 6.72609 17 6.60557 17C6.48505 17 6.36453 16.954 6.27265 16.8621C6.0888 16.6783 6.0888 16.3802 6.27265 16.1963L16.1963 6.27265ZM9.82209 10.4879C9.91397 10.5797 10.0345 10.6257 10.155 10.6257C10.2755 10.6257 10.396 10.5797 10.4879 10.4879C10.6718 10.304 10.6718 10.0059 10.4879 9.82209L6.9385 6.27265C6.75466 6.0888 6.45649 6.0888 6.27272 6.27265C6.08888 6.45649 6.08888 6.75458 6.27272 6.93842L9.82209 10.4879ZM12.4864 12.572C12.6682 12.3862 12.9663 12.3829 13.1522 12.5649L16.8586 16.1927C17.0443 16.3746 17.0475 16.6727 16.8656 16.8585C16.7735 16.9527 16.6514 17 16.5292 17C16.4104 17 16.2915 16.9553 16.1999 16.8657L12.4935 13.2377C12.3078 13.0559 12.3046 12.7578 12.4864 12.572Z" transform="translate(0.9259259 0.9259259)" id="Combined-Shape" fill="#263646" fill-rule="evenodd" stroke="none" />
  </g>
</svg>