<?xml version="1.0" encoding="utf-8"?>
<!-- Generator: Adobe Illustrator 23.0.3, SVG Export Plug-In . SVG Version: 6.00 Build 0)  -->
<svg version="1.1" id="Layer_1" xmlns="http://www.w3.org/2000/svg" xmlns:xlink="http://www.w3.org/1999/xlink" x="0px" y="0px"
	 viewBox="0 0 27 27" style="enable-background:new 0 0 27 27;" xml:space="preserve">
<style type="text/css">
	.st0{fill-rule:evenodd;clip-rule:evenodd;fill:#A1BCCF;}
</style>
<title>Atoms/Icon/close</title>
<desc>Created with Sketch.</desc>
<g>
	<g id="Combined-Shape">
		<path class="st0" d="M13.5,1C20.4,1,26,6.6,26,13.5c0,1.6-0.3,3.1-0.8,4.5c-0.1,0.3-0.4,0.4-0.7,0.3c-0.3-0.1-0.4-0.4-0.3-0.7
			c0.5-1.3,0.8-2.7,0.8-4.1C25,7.2,19.8,2,13.5,2S2,7.2,2,13.5S7.2,25,13.5,25c3,0,5.8-1.1,8-3.2c0.2-0.2,0.5-0.2,0.7,0
			c0.2,0.2,0.2,0.5,0,0.7c-2.3,2.2-5.4,3.5-8.7,3.5C6.6,26,1,20.4,1,13.5S6.6,1,13.5,1z M15.2,14.6l4,3.9c0.2,0.2,0.2,0.5,0,0.7
			c-0.1,0.1-0.2,0.2-0.4,0.2c-0.1,0-0.3,0-0.4-0.1l-4-3.9c-0.2-0.2-0.2-0.5,0-0.7C14.7,14.4,15,14.4,15.2,14.6z M11.6,12.3L7.8,8.5
			C7.6,8.3,7.6,8,7.8,7.8c0.2-0.2,0.5-0.2,0.7,0l3.8,3.8c0.2,0.2,0.2,0.5,0,0.7c-0.1,0.1-0.2,0.1-0.4,0.1
			C11.8,12.5,11.7,12.4,11.6,12.3z M19.2,7.8c0.2,0.2,0.2,0.5,0,0.7L8.5,19.2c-0.1,0.1-0.2,0.1-0.4,0.1c-0.1,0-0.3,0-0.4-0.1
			c-0.2-0.2-0.2-0.5,0-0.7L18.5,7.8C18.7,7.6,19,7.6,19.2,7.8z"/>
	</g>
</g>
</svg>
