<?xml version="1.0" encoding="utf-8"?>
<!-- Generator: Adobe Illustrator 24.0.2, SVG Export Plug-In . SVG Version: 6.00 Build 0)  -->
<svg version="1.1" id="Layer_1" xmlns="http://www.w3.org/2000/svg" xmlns:xlink="http://www.w3.org/1999/xlink" x="0px" y="0px"
	 viewBox="0 0 27 27" style="enable-background:new 0 0 27 27;" xml:space="preserve">
<style type="text/css">
	.st0{fill-rule:evenodd;clip-rule:evenodd;}
</style>
<title>Atoms/Icon/search</title>
<desc>Created with Sketch.</desc>
<g id="Atoms_x2F_Icon_x2F_search">
	<g id="Shape">
		<path id="path-1_1_" class="st0" d="M25.8,25.1l-7-7.3c1.8-1.8,2.9-4.3,2.9-7c0-5.4-4.4-9.9-9.9-9.9S2,5.4,2,10.9s4.4,9.9,9.9,9.9
			c2.4,0,4.6-0.9,6.3-2.3l7,7.3c0.1,0.1,0.2,0.1,0.3,0.1c0.1,0,0.2,0,0.3-0.1C26,25.6,26,25.3,25.8,25.1z M11.9,19.8
			c-4.9,0-8.9-4-8.9-8.9s4-8.9,8.9-8.9s8.9,4,8.9,8.9S16.8,19.8,11.9,19.8z"/>
	</g>
</g>
</svg>
