<?xml version="1.0" encoding="utf-8"?>
<!-- Generator: Adobe Illustrator 23.0.3, SVG Export Plug-In . SVG Version: 6.00 Build 0)  -->
<svg version="1.1" id="Layer_1" xmlns="http://www.w3.org/2000/svg" xmlns:xlink="http://www.w3.org/1999/xlink" x="0px" y="0px"
	 viewBox="0 0 27 27" style="enable-background:new 0 0 27 27;" xml:space="preserve">
<style type="text/css">
	.st0{fill-rule:evenodd;clip-rule:evenodd;fill:#FFFFFF;}
</style>
<title>Atoms/Icon/feedback</title>
<desc>Created with Sketch.</desc>
<g>
	<g id="Combined-Shape">
		<path class="st0" d="M25.7,5C26.4,5,27,5.6,27,6.3v15.2c0,0.7-0.6,1.3-1.3,1.3H1.3c-0.7,0-1.3-0.6-1.3-1.3V6.3C0,5.6,0.6,5,1.3,5
			h2.9c0.2,0,0.4,0.2,0.4,0.4S4.4,5.8,4.2,5.8H1.3C1,5.8,0.8,6,0.8,6.3v15.2c0,0.3,0.2,0.5,0.5,0.5h24.4c0.3,0,0.5-0.2,0.5-0.5V6.3
			c0-0.3-0.2-0.5-0.5-0.5H5.8c-0.2,0-0.4-0.2-0.4-0.4C5.4,5.2,5.6,5,5.8,5H25.7z M24.8,11.5H20c-0.3,0-0.6-0.3-0.6-0.6V7
			c0-0.3,0.3-0.6,0.6-0.6h4.8c0.3,0,0.6,0.3,0.6,0.6v3.9C25.3,11.2,25.1,11.5,24.8,11.5z M20.2,7.2v3.5h4.3V7.2H20.2z M1.6,16.5
			c0-0.2,0.2-0.4,0.4-0.4h8.5c0.2,0,0.4,0.2,0.4,0.4c0,0.2-0.2,0.4-0.4,0.4H2C1.7,16.9,1.6,16.7,1.6,16.5z M1.6,13.9
			c0-0.2,0.2-0.4,0.4-0.4h8.4c0.2,0,0.4,0.2,0.4,0.4c0,0.2-0.2,0.4-0.4,0.4H2C1.7,14.3,1.6,14.1,1.6,13.9z M7.2,20
			c0.2,0,0.4,0.2,0.4,0.4c0,0.2-0.2,0.4-0.4,0.4H1.9c-0.2,0-0.4-0.2-0.4-0.4c0-0.2,0.2-0.4,0.4-0.4H7.2z M1.6,18.8
			c0-0.2,0.2-0.4,0.4-0.4h11.7c0.2,0,0.4,0.2,0.4,0.4c0,0.2-0.2,0.4-0.4,0.4H2C1.7,19.2,1.6,19,1.6,18.8z"/>
	</g>
</g>
</svg>
