<?xml version="1.0" encoding="utf-8"?>
<!-- Generator: Adobe Illustrator 23.0.3, SVG Export Plug-In . SVG Version: 6.00 Build 0)  -->
<svg version="1.1" id="Layer_1" xmlns="http://www.w3.org/2000/svg" xmlns:xlink="http://www.w3.org/1999/xlink" x="0px" y="0px"
	 viewBox="0 0 27 27" style="enable-background:new 0 0 27 27;" xml:space="preserve">
<style type="text/css">
	.st0{fill-rule:evenodd;clip-rule:evenodd;fill:#FFFFFF;}
</style>
<title>Atoms/Icon/legal</title>
<desc>Created with Sketch.</desc>
<g>
	<g id="Combined-Shape">
		<path class="st0" d="M6.8,9.5c0.2,0.2,0.2,0.5,0,0.7c-0.2,0.2-0.5,0.2-0.7,0c-0.2-0.2-0.2-0.5,0-0.7C6.3,9.3,6.6,9.3,6.8,9.5z
			 M13.4,22.9c0.8,0.4,1.3,1.2,1.3,2.2v0.5c0,0.3-0.2,0.5-0.5,0.5H1.5C1.2,26,1,25.8,1,25.5V25c0-0.9,0.5-1.8,1.3-2.2
			c-0.2-0.3-0.3-0.6-0.3-1c0-0.5,0.2-0.9,0.5-1.2c0.3-0.3,0.8-0.5,1.2-0.5H12c0.9,0,1.7,0.8,1.7,1.7C13.7,22.2,13.6,22.6,13.4,22.9z
			 M3.2,21.3C3,21.5,3,21.7,3,21.8c0,0.4,0.3,0.7,0.7,0.7H12c0.2,0,0.4-0.1,0.5-0.2c0.1-0.1,0.2-0.3,0.2-0.5c0-0.4-0.3-0.7-0.7-0.7
			H3.7C3.5,21.1,3.3,21.2,3.2,21.3z M2,25h11.7c0-0.8-0.7-1.5-1.5-1.5H12H3.7H3.4C2.6,23.6,2,24.2,2,25z M25.5,21.5
			c0.6,0.9,0.6,2,0.1,2.9c-0.5,0.8-1.3,1.4-2.2,1.5c-0.1,0-0.3,0-0.4,0c-0.8,0-1.5-0.3-2.1-0.9c-0.1-0.1-0.1-0.1-0.2-0.2l-2-2.3
			c0,0,0,0,0,0c0,0,0-0.1-0.1-0.1l-6.8-7.8c-0.3,0.3-0.6,0.4-1,0.4c-0.4,0-0.8-0.2-1-0.4c-0.1-0.1-0.2-0.3-0.3-0.4L9,14.9
			c0.2,0.7,0,1.4-0.5,1.9c-0.4,0.4-0.9,0.6-1.4,0.6c-0.5,0-1-0.2-1.4-0.6l-4.1-4.1c-0.8-0.8-0.8-2,0-2.8C1.9,9.5,2.4,9.3,3,9.3
			c0.2,0,0.3,0,0.5,0.1l5.9-5.9c-0.2-0.7,0-1.4,0.5-1.9C10.2,1.2,10.7,1,11.2,1c0.5,0,1,0.2,1.4,0.6l4.1,4.1
			c0.4,0.4,0.6,0.9,0.6,1.4s-0.2,1-0.6,1.4C16.4,8.9,15.9,9,15.4,9C15.2,9,15,9,14.9,9l-0.6,0.6c0.1,0.1,0.3,0.2,0.4,0.3
			c0.3,0.3,0.4,0.6,0.4,1c0,0.4-0.1,0.7-0.4,1l6.4,5.6l1.4,1.2c0,0,0.1,0.1,0.1,0.1c0,0,0,0,0.1,0.1l2.3,2
			C25.2,21,25.4,21.3,25.5,21.5z M10.5,2.3c-0.4,0.4-0.4,1,0,1.4c0,0,0,0,0,0l4.1,4.1c0.4,0.4,1,0.4,1.4,0c0.2-0.2,0.3-0.4,0.3-0.7
			c0-0.3-0.1-0.5-0.3-0.7l-4.1-4.1C11.7,2.1,11.5,2,11.2,2C11,2,10.7,2.1,10.5,2.3z M7.8,16.1c0.4-0.4,0.4-1,0-1.4l-4.1-4.1
			c-0.2-0.2-0.4-0.3-0.7-0.3c-0.3,0-0.5,0.1-0.7,0.3c-0.4,0.4-0.4,1,0,1.4l4.1,4.1C6.8,16.5,7.4,16.5,7.8,16.1z M9.8,12.6
			C9.8,12.6,9.9,12.6,9.8,12.6l2.8-2.8c0,0,0,0,0,0L14,8.5L9.9,4.3L4.3,9.9L8.5,14L9.8,12.6z M11.6,13.7l2.1-2.1c0,0,0,0,0,0
			l0.3-0.3c0.1-0.1,0.1-0.2,0.1-0.3c0-0.1-0.1-0.3-0.1-0.3c-0.2-0.2-0.5-0.2-0.7,0l-2.8,2.8c-0.1,0.1-0.1,0.2-0.1,0.3
			c0,0.1,0.1,0.3,0.1,0.3c0.1,0.1,0.2,0.1,0.3,0.1c0.1,0,0.3-0.1,0.3-0.1L11.6,13.7C11.6,13.7,11.6,13.7,11.6,13.7z M12.6,14l5.3,6
			l2.2-2.2l-6-5.3L12.6,14z M18.5,20.8l0.6,0.7l2.4-2.4l-0.7-0.6L18.5,20.8z M24.8,24c0.3-0.6,0.3-1.4-0.1-1.9
			c-0.1-0.2-0.3-0.3-0.4-0.5c0,0,0,0,0,0l-2-1.8l-2.5,2.5l1.8,2c0,0,0,0,0,0c0,0,0.1,0.1,0.1,0.1c0.4,0.4,1,0.6,1.7,0.6
			C23.9,24.9,24.5,24.5,24.8,24z M10.2,6.1c0.2,0.2,0.2,0.5,0,0.7L8.1,8.8C8,8.9,7.9,9,7.8,9c-0.1,0-0.2,0-0.3-0.1
			c-0.2-0.2-0.2-0.5,0-0.7l2.1-2.1C9.7,5.9,10,5.9,10.2,6.1z"/>
	</g>
</g>
</svg>
