<?xml version="1.0" encoding="utf-8"?>
<!-- Generator: Adobe Illustrator 24.1.1, SVG Export Plug-In . SVG Version: 6.00 Build 0)  -->
<svg version="1.1" id="Layer_1" xmlns="http://www.w3.org/2000/svg" xmlns:xlink="http://www.w3.org/1999/xlink" x="0px" y="0px"
	 viewBox="0 0 27 27" style="enable-background:new 0 0 27 27;" xml:space="preserve">
<style type="text/css">
	.st0{fill-rule:evenodd;clip-rule:evenodd;fill:#FFFFFF;}
</style>
<desc>Created with Sketch.</desc>
<g id="Atoms_x2F_Icon_x2F_notifications">
	<g id="Shape">
		<path id="path-1_1_" class="st0" d="M20.7,3l0.4-1C21.2,1.6,21,1.2,20.6,1c-0.4-0.1-0.8,0-0.9,0.4l-0.4,1
			C14.7,1.2,9.7,3.7,8.1,8.2l-2.3,6.4l-4.3,2C1.2,16.6,1,16.9,1,17.2s0.2,0.5,0.5,0.6l7.8,2.8c-0.3,1.8,0.7,3.7,2.5,4.3
			c1.8,0.6,3.8-0.1,4.7-1.7l7.8,2.8l0,0c0.4,0.1,0.8-0.1,0.9-0.4c0.1-0.2,0-0.4-0.1-0.6l-2-4.2l2.3-6.4C27.2,9.9,25,5,20.7,3L20.7,3
			z M12.3,23.6c-1.1-0.4-1.7-1.4-1.6-2.5l4.5,1.6C14.5,23.6,13.3,24,12.3,23.6L12.3,23.6z M24.2,14l-2.4,6.6c-0.1,0.2-0.1,0.4,0,0.5
			l1.4,3l-6.8-2.4l-6.1-2.2l-6.8-2.4l3-1.4c0.2-0.1,0.3-0.2,0.4-0.4l2.4-6.6c1.5-4,6-6.1,10.1-4.6C23.6,5.5,25.7,10,24.2,14L24.2,14
			z"/>
	</g>
</g>
</svg>
