<?xml version="1.0" encoding="utf-8"?>
<!-- Generator: Adobe Illustrator 24.1.1, SVG Export Plug-In . SVG Version: 6.00 Build 0)  -->
<svg version="1.1" id="Layer_1" xmlns="http://www.w3.org/2000/svg" xmlns:xlink="http://www.w3.org/1999/xlink" x="0px" y="0px"
	 viewBox="0 0 21 26" style="enable-background:new 0 0 21 26;" xml:space="preserve">
<style type="text/css">
	.st0{fill-rule:evenodd;clip-rule:evenodd;fill:#FFFFFF;}
</style>
<desc>Created with Sketch.</desc>
<g id="Mobile">
	<g id="_x30_3.1-guest-menu" transform="translate(-42.000000, -617.000000)">
		<g id="Panel" transform="translate(20.000000, 9.000000)">
			<g id="menu-list" transform="translate(0.000000, 136.000000)">
				<g id="terms-_x26_-cons" transform="translate(0.000000, 458.388443)">
					<g id="Atoms_x2F_Icon_x2F_privacy-policy" transform="translate(19.000000, 13.000000)">
						<path id="Combined-Shape" class="st0" d="M13.1,1.1c0.1-0.1,0.3-0.1,0.5,0l0,0l10.1,5C23.9,6.1,24,6.3,24,6.5l0,0v6.4
							c0,5.4-3.5,10.4-8.9,12.5l0,0L13.5,26c-0.1,0.1-0.3,0.1-0.4,0l0,0l-1.4-0.6C6.4,23.3,3,18.4,3,13l0,0V6.5
							c0-0.2,0.1-0.3,0.3-0.4l0,0L13.1,1.1z M13.4,2L4,6.8V13c0,5,3.2,9.5,8.2,11.5l0,0l1.2,0.5l1.3-0.5c5-2,8.3-6.5,8.3-11.6l0,0
							V6.8L13.4,2z M17.8,10.9c0.2-0.2,0.5-0.1,0.7,0.1c0.2,0.2,0.1,0.5-0.1,0.7l0,0l-6.2,4.7c-0.2,0.2-0.5,0.1-0.7-0.1l0,0
							l-2.7-2.9c-0.2-0.2-0.2-0.5,0.1-0.7c0.2-0.2,0.5-0.1,0.7,0.1l0,0l2.3,2.5L17.8,10.9z"/>
					</g>
				</g>
			</g>
		</g>
	</g>
</g>
</svg>
