<?xml version="1.0" encoding="utf-8"?>
<!-- Generator: Adobe Illustrator 23.0.3, SVG Export Plug-In . SVG Version: 6.00 Build 0)  -->
<svg version="1.1" id="Layer_1" xmlns="http://www.w3.org/2000/svg" xmlns:xlink="http://www.w3.org/1999/xlink" x="0px" y="0px"
	 viewBox="0 0 27 27" style="enable-background:new 0 0 27 27;" xml:space="preserve">
<style type="text/css">
	.st0{fill-rule:evenodd;clip-rule:evenodd;fill:#FFFFFF;}
</style>
<title>Atoms/Icon/settings</title>
<desc>Created with Sketch.</desc>
<g>
	<g id="Shape">
		<path class="st0" d="M4.9,21.4c0-0.4,0.4-0.8,0.8-0.8c0.4,0,0.8,0.4,0.8,0.8c0,0.4-0.4,0.8-0.8,0.8C5.3,22.2,4.9,21.8,4.9,21.4
			L4.9,21.4L4.9,21.4z M18.2,16.7h-0.8c-0.4,0-0.8-0.4-0.8-0.8c0-0.4,0.4-0.8,0.8-0.8h0.8c3.4,0,6.2-2.8,6.3-6.2
			c0-0.2-0.2-0.4-0.4-0.4c-0.1,0-0.2,0-0.3,0.1l-0.6,0.6c-1.5,1.5-3.9,1.5-5.5,0c-1.5-1.5-1.5-3.9,0-5.4l0.6-0.6
			c0.1-0.1,0.1-0.2,0.1-0.3c0-0.2-0.2-0.4-0.4-0.4c-3.3,0.1-6,2.6-6.1,5.9c0,0.1,0,0.2,0,0.4v0v0v0c0,1.2-0.5,2.3-1.2,3.1l-7.3,7.3
			c-1.2,1.2-1.2,3.2,0,4.4c1.2,1.2,3.2,1.2,4.4,0l2.6-2.6c0,0,0,0,0.1-0.1l0.1-0.1l0,0c0.2-0.2,0.5-0.3,0.6-0.3
			c0.4,0,0.8,0.4,0.8,0.8c0,0.1-0.1,0.4-0.3,0.6l0,0l-0.1,0.1c0,0,0,0,0,0L9,24.7c-1.8,1.8-4.8,1.8-6.7,0c-1.8-1.8-1.8-4.8,0-6.6
			l7.2-7.2c0.5-0.5,0.8-1.2,0.8-2c0-4.3,3.5-7.8,7.8-7.8c1,0,1.9,0.8,1.9,1.9c0,0.5-0.2,1-0.5,1.3l-0.7,0.7c-0.9,0.9-0.9,2.4,0,3.3
			c0.9,0.9,2.4,0.9,3.3,0l0.7-0.7c0.3-0.3,0.8-0.5,1.3-0.5c1,0,1.9,0.8,1.9,1.9c0,0,0,0,0,0.1C26.1,13.2,22.6,16.7,18.2,16.7
			L18.2,16.7L18.2,16.7z M13.5,18.2c0.4,0,0.8,0.4,0.8,0.8c0,0.4-0.4,0.8-0.8,0.8s-0.8-0.4-0.8-0.8C12.8,18.6,13.1,18.2,13.5,18.2
			L13.5,18.2L13.5,18.2z"/>
	</g>
</g>
</svg>
