<?xml version="1.0" encoding="utf-8"?>
<!-- Generator: Adobe Illustrator 24.0.2, SVG Export Plug-In . SVG Version: 6.00 Build 0)  -->
<svg version="1.1" id="Layer_1" xmlns="http://www.w3.org/2000/svg" xmlns:xlink="http://www.w3.org/1999/xlink" x="0px" y="0px"
	 viewBox="0 0 27 27" style="enable-background:new 0 0 27 27;" xml:space="preserve">
<style type="text/css">
	.st0{fill-rule:evenodd;clip-rule:evenodd;}
</style>
<title>Atoms/Icon/host</title>
<desc>Created with Sketch.</desc>
<g id="Atoms_x2F_Icon_x2F_host">
	<g id="Combined-Shape" transform="translate(13.500000, 13.111111) scale(-1, 1) translate(-13.500000, -13.111111) ">
		<path id="path-1_1_" class="st0" d="M17.3,19.6c-0.3,0-0.5,0.2-0.5,0.5c0,0.3,0.2,0.5,0.5,0.5h5.4c0.3,0,0.5-0.2,0.5-0.5
			c0-0.3-0.2-0.5-0.5-0.5H17.3z M7.1,19.6c-0.3,0-0.5,0.2-0.5,0.5c0,0.3,0.2,0.5,0.5,0.5h5.4c0.3,0,0.5-0.2,0.5-0.5
			c0-0.3-0.2-0.5-0.5-0.5H7.1z M8.1,5.7c-0.3,0-0.6,0.2-0.6,0.5s0.3,0.5,0.6,0.5h14.6c0.3,0,0.6-0.2,0.6-0.5S23,5.7,22.6,5.7H8.1z
			 M7.1,8.5c-0.3,0-0.5,0.2-0.5,0.5s0.2,0.5,0.5,0.5h5.4c0.3,0,0.5-0.2,0.5-0.5s-0.2-0.5-0.5-0.5H7.1z M7.1,11.3
			c-0.3,0-0.5,0.2-0.5,0.5s0.2,0.5,0.5,0.5h5.4c0.3,0,0.5-0.2,0.5-0.5s-0.2-0.5-0.5-0.5H7.1z M7.1,14c-0.3,0-0.5,0.2-0.5,0.5
			S6.8,15,7.1,15h5.4c0.3,0,0.5-0.2,0.5-0.5S12.8,14,12.5,14H7.1z M7.1,16.8c-0.3,0-0.5,0.2-0.5,0.5c0,0.3,0.2,0.5,0.5,0.5h5.4
			c0.3,0,0.5-0.2,0.5-0.5c0-0.3-0.2-0.5-0.5-0.5H7.1z M17.3,16.8c-0.3,0-0.5,0.2-0.5,0.5c0,0.3,0.2,0.5,0.5,0.5h5.4
			c0.3,0,0.5-0.2,0.5-0.5c0-0.3-0.2-0.5-0.5-0.5H17.3z M17.3,8.5c-0.3,0-0.5,0.2-0.5,0.5v5.4c0,0.3,0.2,0.5,0.5,0.5h5.4
			c0.3,0,0.5-0.2,0.5-0.5V9c0-0.3-0.2-0.5-0.5-0.5H17.3z M17.8,13.9V9.6h4.3v4.3H17.8z M2.1,4.8C1.5,4.8,1,5.4,1,6v15.4
			c0,1.6,1.3,2.8,2.8,2.8h19.3c1.6,0,2.8-1.3,2.8-2.8V3.1C26,2.5,25.5,2,24.9,2H5C4.3,2,3.8,2.5,3.8,3.1v1.7H2.1z M2.1,21.4V6h1.7
			v14.5c0,0.2-0.1,0.3-0.3,0.3c-0.3,0-0.6,0.3-0.6,0.6c0,0.3,0.3,0.6,0.6,0.6c0.8,0,1.4-0.6,1.4-1.4V3.1h19.9v18.2
			c0,0.9-0.8,1.7-1.7,1.7H3.8C2.9,23.1,2.1,22.3,2.1,21.4z"/>
	</g>
</g>
</svg>
