<?xml version="1.0" encoding="utf-8"?>
<svg width="27px" height="27px" viewBox="0 0 27 27" version="1.1" xmlns:xlink="http://www.w3.org/1999/xlink" xmlns="http://www.w3.org/2000/svg">
  <desc>Created with Lunacy</desc>
  <g id="icon">
    <g id="Check">
      <path d="M13.5 27C20.9558 27 27 20.9558 27 13.5C27 6.04416 20.9558 0 13.5 0C6.04416 0 0 6.04416 0 13.5C0 20.9558 6.04416 27 13.5 27Z" id="Oval-1" fill="#00BDBB" stroke="#FFFFFF" stroke-width="2" />
      <path d="M15.3749 0.88506L14.7679 0.28215C14.5851 0.10017 14.3421 0 14.0835 0C13.8251 0 13.5818 0.10017 13.3993 0.28188L5.643 7.98957L2.26152 4.62942C2.07846 4.4469 1.83546 4.34646 1.5768 4.34646C1.31841 4.34646 1.07541 4.4469 0.89208 4.62888L0.28566 5.23152C0.10152 5.41431 0 5.65785 0 5.91705C0 6.17625 0.10179 6.41952 0.28512 6.6015L4.64427 10.9331C4.90833 11.1955 5.25906 11.34 5.6322 11.34C6.00426 11.34 6.35472 11.1961 6.61905 10.9342L15.3743 2.25531C15.5582 2.07252 15.6597 1.82952 15.66 1.57086C15.6603 1.3122 15.5593 1.06866 15.3749 0.88506" transform="translate(5.670081 8.369946)" id="Icon" fill="#FFFFFF" stroke="none" />
    </g>
  </g>
</svg>