<?xml version="1.0" encoding="utf-8" ?>
<svg xmlns="http://www.w3.org/2000/svg" xmlns:xlink="http://www.w3.org/1999/xlink" width="27" height="27">
	<rect fill="rgb(255,255,255)" stroke="none" width="27" height="27"/>
	<path fill="rgb(0,0,0)" stroke="none" transform="translate(10.05 4)" d="M6.9 3.45C6.9 5.35544 5.35544 6.9 3.45 6.9C1.5455 6.89794 0.00205893 5.3545 0 3.45C0 1.54456 1.54456 0 3.45 0C5.35544 0 6.9 1.54456 6.9 3.45ZM6.13333 3.45C6.13333 1.96795 4.93205 0.766667 3.45 0.766667C1.9687 0.768351 0.768351 1.9687 0.766667 3.45C0.766667 4.93205 1.96795 6.13333 3.45 6.13333C4.93205 6.13333 6.13333 4.93205 6.13333 3.45Z" fill-rule="evenodd"/>
	<path fill="rgb(0,0,0)" stroke="none" transform="translate(3.53333 5.91669)" d="M3.83333 1.91667C3.83333 2.97514 2.97514 3.83333 1.91667 3.83333C0.858569 3.83202 0.00131023 2.97476 0 1.91667C0 0.858195 0.858195 0 1.91667 0C2.97514 0 3.83333 0.858195 3.83333 1.91667ZM3.06667 1.91667C3.06667 1.28158 2.55175 0.766667 1.91667 0.766667C1.28158 0.766667 0.766667 1.28158 0.766667 1.91667C0.766667 2.55175 1.28158 3.06667 1.91667 3.06667C2.55175 3.06667 3.06667 2.55175 3.06667 1.91667Z" fill-rule="evenodd"/>
	<path fill="rgb(0,0,0)" stroke="none" transform="translate(19.6333 5.91669)" d="M3.83333 1.91667C3.83333 2.97514 2.97514 3.83333 1.91667 3.83333C0.858569 3.83202 0.00131023 2.97476 0 1.91667C0 0.858195 0.858195 0 1.91667 0C2.97514 0 3.83333 0.858195 3.83333 1.91667ZM3.06667 1.91667C3.06667 1.28158 2.55175 0.766667 1.91667 0.766667C1.28158 0.766667 0.766667 1.28158 0.766667 1.91667C0.766667 2.55175 1.28158 3.06667 1.91667 3.06667C2.55175 3.06667 3.06667 2.55175 3.06667 1.91667Z" fill-rule="evenodd"/>
	<path fill="rgb(0,0,0)" stroke="none" transform="translate(2 9.75)" d="M20.8533 0.0767429C20.9197 0.0269545 21.0004 0 21.0833 0C22.1414 0.00131157 22.9987 0.858571 23 1.91667L23 5.27458C23.0011 5.71107 22.7539 6.11013 22.3625 6.30348L20.0625 7.45348C19.7396 7.61445 19.36 7.61445 19.0371 7.45348L18.7833 7.32751L18.7833 9.46841C18.7833 9.92324 18.5151 10.3356 18.099 10.5198L12.2766 13.1073C11.7821 13.3278 11.2172 13.3278 10.7227 13.1073L4.9006 10.5201C4.48451 10.3358 4.21648 9.92343 4.21667 9.46841L4.21667 7.71196L4.0046 7.81809C3.84569 7.89689 3.67049 7.9377 3.49286 7.93732C3.27892 7.93751 3.0691 7.87892 2.88604 7.76793L0.54056 6.30123C0.204395 6.09028 0.000187174 5.72136 0 5.32455L0 1.91667C0.00131022 0.858571 0.858569 0.00131157 1.91667 0C1.99959 0 2.08026 0.0269545 2.1467 0.0767429L3.45 1.05417L4.7533 0.0767429C4.81974 0.0269545 4.90041 0 4.98333 0C5.6143 -0.000747358 6.20427 0.312208 6.55766 0.834987C7.13921 0.540374 7.7814 0.385768 8.43333 0.383335C8.53497 0.383335 8.63249 0.423764 8.70436 0.495639L11.5 3.29128L14.2956 0.495639C14.3675 0.423764 14.465 0.383335 14.5667 0.383335C15.2186 0.385768 15.8608 0.540374 16.4423 0.834987C16.7957 0.312208 17.3857 -0.000747358 18.0167 0C18.0996 0 18.1803 0.0269545 18.2467 0.0767429L19.55 1.05417L20.8533 0.0767429ZM3.28903 7.11357C3.40246 7.18207 3.54303 7.18825 3.66207 7.13004L4.21667 6.85471L4.21667 4.6C4.21704 4.4263 4.22808 4.25261 4.24961 4.08022C4.25653 4.02388 4.27001 3.96904 4.27918 3.91307C4.29753 3.79927 4.3168 3.68528 4.34432 3.57429C4.36042 3.50896 4.38232 3.44663 4.40141 3.38262C4.43136 3.28323 4.45962 3.18478 4.49799 3.08857C4.52326 3.02212 4.55321 2.95848 4.58166 2.89409C4.62152 2.80219 4.66252 2.71291 4.70856 2.62587C4.74263 2.56186 4.77856 2.49972 4.81694 2.43757C4.86672 2.35484 4.91782 2.27324 4.97341 2.19387C5.01553 2.13173 5.0597 2.07502 5.10481 2.01681C5.16414 1.94081 5.22591 1.86707 5.2903 1.79557C5.34065 1.73998 5.39081 1.68588 5.44378 1.63291C5.51229 1.56441 5.58398 1.49927 5.65754 1.43526C5.71519 1.38584 5.77078 1.33661 5.83011 1.29001C5.85538 1.27035 5.87765 1.24771 5.9033 1.22861C5.71257 0.970875 5.42207 0.805413 5.10294 0.772845L3.68004 1.83993C3.54377 1.94231 3.35623 1.94231 3.21996 1.83993L1.79706 0.772845C1.21139 0.834051 0.766667 1.32782 0.766667 1.91667L0.766667 5.32455C0.7691 5.45745 0.838354 5.58005 0.950659 5.65117L3.28903 7.11357ZM22.0194 5.61973C22.1508 5.55497 22.2337 5.42114 22.2333 5.27458L22.2333 1.91667C22.2333 1.32782 21.7886 0.834051 21.2029 0.772845L19.78 1.83993C19.6438 1.94231 19.4562 1.94231 19.32 1.83993L17.8982 0.772845C17.5792 0.805413 17.2889 0.970875 17.0982 1.22861C17.1238 1.24771 17.1461 1.27035 17.171 1.29001C17.2309 1.33699 17.2887 1.38696 17.3458 1.43675C17.4183 1.50002 17.4892 1.56403 17.5566 1.63179C17.6103 1.68551 17.6622 1.7411 17.7127 1.79744C17.7763 1.86838 17.8368 1.93857 17.8952 2.01512C17.9412 2.07427 17.986 2.13398 18.029 2.19537C18.0822 2.27361 18.1333 2.35409 18.1823 2.43608C18.2198 2.50009 18.2577 2.56298 18.2918 2.62774C18.3379 2.71441 18.3792 2.80294 18.4176 2.89222C18.4464 2.95736 18.4767 3.02175 18.5024 3.08857C18.5387 3.1844 18.5686 3.28248 18.5982 3.38093C18.6173 3.4442 18.6396 3.50709 18.6557 3.5726C18.6824 3.68341 18.7021 3.79571 18.7208 3.91082C18.73 3.96679 18.7435 4.02163 18.7504 4.07835C18.7719 4.2513 18.783 4.42555 18.7833 4.6L18.7833 6.47062L19.3802 6.76973C19.4869 6.82289 19.6127 6.82289 19.7194 6.76973L22.0194 5.61973ZM18.0167 9.46841C18.0167 9.62077 17.9263 9.75853 17.7866 9.81955L11.9646 12.4074C11.6686 12.5396 11.3306 12.5396 11.0347 12.4074L5.21337 9.81955C5.07374 9.75853 4.98333 9.62077 4.98333 9.46841L4.98333 4.6C4.98315 4.3052 5.02039 4.01152 5.09414 3.72608C5.48084 2.265 6.77048 1.22375 8.28004 1.15337L11.2316 4.10511C11.3813 4.25485 11.6241 4.25485 11.7736 4.10511L14.7254 1.15337C16.5659 1.24116 18.0139 2.75746 18.0167 4.6L18.0167 9.46841Z" fill-rule="evenodd"/>

</svg>