<?xml version="1.0" encoding="utf-8" ?>
<svg xmlns="http://www.w3.org/2000/svg" xmlns:xlink="http://www.w3.org/1999/xlink" width="27" height="27">
	<rect fill="rgb(255,255,255)" stroke="none" width="27" height="27"/>
	<path fill="rgb(161,188,207)" stroke="none" transform="translate(2 2)" d="M21.4055 14.3696C21.7681 14.0927 22.2702 14.0982 22.6265 14.3826C22.983 14.6673 23.0994 15.1557 22.9098 15.5704C21.9914 17.5784 20.5273 19.281 18.6761 20.494C16.7752 21.7395 14.5643 22.3979 12.2827 22.3979C5.842 22.3979 0.602043 17.1579 0.602043 10.7172C0.602043 8.43542 1.26037 6.22459 2.50592 4.32381C3.71895 2.47258 5.42153 1.00858 7.42949 0.0902846C7.84385 -0.0994205 8.33251 0.0167924 8.61718 0.373472C8.90172 0.729927 8.90715 1.23197 8.6303 1.5944C7.40874 3.19362 6.76303 5.10491 6.76303 7.12168C6.76303 11.0614 9.27843 14.5404 13.0224 15.7788C13.2286 15.847 13.3405 16.0696 13.2723 16.2759C13.204 16.482 12.9817 16.5939 12.7752 16.5258C10.8144 15.8772 9.12745 14.6497 7.89673 12.9762C6.64031 11.2677 5.97623 9.2433 5.97623 7.12164C5.97623 4.9308 6.67777 2.85437 8.00503 1.11679C8.06231 1.04186 8.06109 0.938005 8.00229 0.864288C7.94344 0.790527 7.84264 0.766404 7.75693 0.805665C5.88378 1.66233 4.29565 3.02795 3.16403 4.75506C2.00271 6.52736 1.38885 8.58905 1.38885 10.7172C1.38885 16.7241 6.27581 21.611 12.2827 21.611C14.4107 21.611 16.4724 20.9971 18.2449 19.8359C19.9719 18.7042 21.3376 17.1161 22.1942 15.2431C22.2334 15.1573 22.2094 15.0563 22.1357 14.9975C22.0619 14.9387 21.958 14.9375 21.883 14.9948C20.1457 16.322 18.0693 17.0236 15.8783 17.0236C15.2824 17.0236 14.685 16.9699 14.1025 16.8641C13.8887 16.8253 13.7469 16.6205 13.7858 16.4068C13.8246 16.1929 14.0292 16.051 14.2431 16.09C14.7793 16.1874 15.3295 16.2368 15.8783 16.2368C17.8952 16.2368 19.8065 15.5912 21.4055 14.3696ZM17.0309 3.77491C17.0309 4.0473 16.8101 4.26811 16.5377 4.26811C16.2653 4.26811 16.0445 4.0473 16.0445 3.77491C16.0445 3.50253 16.2653 3.28171 16.5377 3.28171C16.8101 3.28171 17.0309 3.50253 17.0309 3.77491ZM13.8681 11.3984C13.8681 11.6708 13.6472 11.8916 13.3749 11.8916C13.1025 11.8916 12.8817 11.6708 12.8817 11.3984C12.8817 11.126 13.1025 10.9052 13.3749 10.9052C13.6472 10.9052 13.8681 11.126 13.8681 11.3984ZM0.493197 17.8136C0.765583 17.8136 0.986394 17.5928 0.986394 17.3204C0.986394 17.048 0.765583 16.8272 0.493197 16.8272C0.220812 16.8272 0 17.048 0 17.3204C0 17.5928 0.220812 17.8136 0.493197 17.8136Z" fill-rule="evenodd"/>
	<path fill="rgb(0,0,0)" stroke="none" transform="translate(12.9024 6.20404)" d="M2.07912 4.55157C2.07912 3.6221 1.32286 2.86588 0.393381 2.86588C0.176139 2.86588 0 2.68974 0 2.4725C0 2.25526 0.176139 2.07912 0.393381 2.07912C1.32286 2.07912 2.07912 1.32286 2.07912 0.393381C2.07912 0.176139 2.25526 0 2.4725 0C2.68974 0 2.86588 0.176139 2.86588 0.393381C2.86588 1.32286 3.6221 2.07912 4.55157 2.07912C4.76882 2.07912 4.94495 2.25526 4.94495 2.4725C4.94495 2.68974 4.76882 2.86588 4.55157 2.86588C3.6221 2.86588 2.86588 3.6221 2.86588 4.55157C2.86588 4.76882 2.68974 4.94495 2.4725 4.94495C2.25526 4.94495 2.07912 4.76882 2.07912 4.55157ZM3.21474 2.4725C2.91763 2.28077 2.66418 2.02732 2.4725 1.73021C2.28082 2.02732 2.02732 2.28082 1.73021 2.4725C2.02732 2.66423 2.28082 2.91763 2.4725 3.21474C2.66423 2.91763 2.91763 2.66418 3.21474 2.4725Z" fill-rule="evenodd"/>
	<path fill="rgb(0,0,0)" stroke="none" transform="translate(17.64 11.681)" d="M2.44766 1.22385C2.44766 1.89862 1.89862 2.44761 1.22381 2.44761C0.549035 2.44761 8.98437e-05 1.89862 0 1.22385C0 0.549035 0.54899 0 1.22381 0C1.89862 0 2.44766 0.549035 2.44766 1.22385ZM1.66085 1.2239C1.66085 0.98289 1.46477 0.786851 1.22381 0.786851C0.982846 0.786851 0.786851 0.98289 0.786807 1.2239C0.786807 1.46486 0.982801 1.66085 1.22381 1.66085C1.46481 1.66085 1.66085 1.46481 1.66085 1.2239Z" fill-rule="evenodd"/>
	<path fill="rgb(0,0,0)" stroke="none" transform="translate(2.59332 21.3193)" d="M0 1.22381C0 0.54899 0.54899 0 1.22381 0C1.89862 0 2.44761 0.54899 2.44761 1.22381C2.44761 1.89862 1.89862 2.44766 1.22381 2.44766C0.54899 2.44766 0 1.89862 0 1.22381ZM0.786807 1.22376C0.786807 1.46477 0.982846 1.66081 1.22381 1.66081C1.46481 1.66081 1.66081 1.46477 1.66081 1.22381C1.66081 0.982801 1.46477 0.786807 1.22381 0.786807C0.982846 0.786807 0.786807 0.982756 0.786807 1.22376Z" fill-rule="evenodd"/>

</svg>