<?xml version="1.0" encoding="utf-8" ?>
<svg xmlns="http://www.w3.org/2000/svg" xmlns:xlink="http://www.w3.org/1999/xlink" width="375" height="238">
	<path fill="rgb(66,190,183)" stroke="none" transform="translate(0 232)" d="M0 5L375 5L375 0L0 0L0 5Z"/>
	<path fill="rgb(66,190,183)" stroke="none" transform="translate(0.33252 193.409)" d="M46.6617 11.5807L46.6617 12.6072L46.6617 20.9417L46.6617 21.6248L46.6617 22.9914L46.6617 36.7109L46.6617 41.3271L48.2831 43.5907L43.7503 43.5907L36.8053 43.5907L30.7748 43.5907L32.1056 41.3271L32.1469 41.3271L32.1469 23.3334L31.2736 20.8555L34.3927 20.8555L33.3952 20.8555L32.1886 20.8555C31.898 17.223 28.9031 14.3168 25.327 14.3168C21.667 14.3168 18.7139 17.223 18.4237 20.8555L17.2172 20.8555L16.1775 20.8555L19.3383 20.8555L18.465 23.3334L18.465 41.3271L18.5067 41.3271L20.0869 43.5907L13.89 43.5907L7.19391 43.5907L2.61937 43.5907L3.90891 41.3271L3.90891 36.7109L3.90891 22.9914L3.90891 21.6248L3.90891 20.9417L3.90891 12.6072L3.90891 11.5807L3.90891 8.63268L3.90891 8.24731L0.124688 5.21304L0 5.21304L0 5.0849L0 4.9139L3.90891 4.9139L3.90891 1.96488L3.90891 1.15417L3.90891 0.470146L3.90891 0L46.6617 0L46.6617 0.470146L46.6617 1.15417L46.6617 1.96488L46.6617 4.9139L50.6123 4.9139L50.6123 5.00012L50.6123 5.21304L50.4047 5.21304L46.6617 8.24731L46.6617 8.63268L46.6617 11.5807Z"/>
	<path fill="rgb(66,190,183)" stroke="none" transform="translate(47.5764 158.321)" d="M0.624375 57.7813L0.624375 52.4401L1.12219 52.4401L1.12219 6.79593L0 6.79593L0 5.51314L2.03719 5.51314L2.03719 3.58968L2.99437 3.58968L2.99437 2.99237L3.24328 2.99237L3.99281 1.53954L4.82437 0L5.61422 1.53954L6.40453 2.99237L6.61172 2.99237L6.61172 3.58968L18.1734 3.58968L18.1734 5.51314L20.1703 5.51314L20.1703 6.79593L19.1719 6.79593L19.1719 27.6095L24.7036 27.6095L25.4934 21.4967L25.7428 19.6599L25.7428 11.1554L24.4125 11.1554L24.4125 10.086L25.7428 10.086L25.7428 8.93134L26.8655 8.93134L26.8655 10.086L28.1962 10.086L28.1962 11.1554L26.8655 11.1554L26.8655 19.8733L27.0319 21.4967L27.8227 27.6095L32.73 27.6095L32.73 6.79593L31.6069 6.79593L31.6069 5.51314L33.6445 5.51314L33.6445 3.58968L45.4552 3.58968L45.4552 2.99237L45.6633 2.99237L46.4541 1.53954L47.2444 0L48.0759 1.53954L48.8662 2.99237L49.0734 2.99237L49.0734 3.58968L49.7808 3.58968L49.7808 5.51314L51.7767 5.51314L51.7767 6.79593L50.7792 6.79593L50.7792 52.4401L51.4861 52.4401L51.4861 58.5501L50.9447 58.5501L50.9447 78.6792L0.915 78.6792L0.915 58.5501L0.624375 58.5501L0.624375 57.7813ZM47.7844 37.1825L35.7239 37.1825L35.7239 27.7796L47.7844 27.7796L47.7844 37.1825ZM8.73281 29.2762C9.14953 29.2762 9.48188 29.532 9.48188 29.8302L9.48188 36.1989L7.94297 36.1989L7.94297 29.8302C7.94297 29.532 8.27531 29.2762 8.73281 29.2762ZM12.6427 29.8302C12.6427 29.532 12.2686 29.2762 11.8528 29.2762C11.3958 29.2762 11.062 29.532 11.062 29.8302L11.062 36.1989L12.6427 36.1989L12.6427 29.8302ZM40.3406 29.2762C40.7559 29.2762 41.1305 29.532 41.1305 29.8302L41.1305 36.1989L39.5503 36.1989L39.5503 29.8302C39.5503 29.532 39.8827 29.2762 40.3406 29.2762ZM44.2495 29.8302C44.2495 29.532 43.875 29.2762 43.4597 29.2762C43.0017 29.2762 42.6694 29.532 42.6694 29.8302L42.6694 36.1989L44.2495 36.1989L44.2495 29.8302ZM19.1719 29.532L24.7453 29.532L24.7453 33.1227L24.4125 33.6766L22.4995 36.7552L19.1719 36.7552L19.1719 29.532ZM32.73 29.532L27.8227 29.532L27.8227 33.1227L28.1963 33.6766L30.068 36.7552L32.73 36.7552L32.73 29.532ZM5.115 40.3016L6.73734 40.3016L6.73734 38.6349L5.115 38.6349L5.115 40.3016ZM15.2634 40.3016L13.6406 40.3016L13.6406 38.6349L15.2634 38.6349L15.2634 40.3016ZM36.7223 40.3016L38.3855 40.3016L38.3855 38.6349L36.7223 38.6349L36.7223 40.3016ZM46.8698 40.3016L45.248 40.3016L45.248 38.6349L46.8698 38.6349L46.8698 40.3016ZM20.0456 45.2588C20.2116 42.1821 22.5408 39.7462 25.4934 39.5332C22.5408 39.7462 20.2116 42.225 20.0456 45.2588ZM16.552 77.4412L15.1378 77.4412L15.1378 66.1582C15.1378 62.6966 10.1887 59.8757 10.1887 59.8757C10.1887 59.8757 5.24016 62.6966 5.24016 66.1582L5.24016 77.4412L3.99281 77.4412L3.99281 58.5501L16.552 58.5501L16.552 77.4412ZM32.2303 77.4412L30.9417 77.4412L30.9417 66.1582C30.9417 62.6966 25.9922 59.8757 25.9922 59.8757C25.9922 59.8757 21.0436 62.6966 21.0436 66.1582L21.0436 77.4412L19.6289 77.4412L19.6289 58.5501L32.2303 58.5501L32.2303 77.4412ZM46.7864 77.4412L47.9095 77.4412L47.9095 58.5501L35.2664 58.5501L35.2664 77.4412L36.8883 77.4412L36.8883 66.1582C36.8883 62.6966 41.8378 59.8757 41.8378 59.8757C41.8378 59.8757 46.7864 62.6966 46.7864 66.1582L46.7864 77.4412Z" fill-rule="evenodd"/>
	<path fill="rgb(66,190,183)" stroke="none" transform="translate(205.653 91.3088)" d="M51.9853 142.658L51.1533 142.658L51.1533 145.691L66.9567 145.691L66.9567 142.658L64.4611 142.658L51.2367 116.417L50.9442 116.546L50.9442 112.913L49.4902 112.913L44.7914 99.0222L43.5014 95.1752L43.8342 95.1752L43.8342 91.5856L42.4195 91.5856L42.4195 90.9025L44.5823 90.9025L44.5823 87.0127L41.2547 87.0127C41.0878 85.2184 40.8389 83.3802 40.6317 81.3295C39.8822 73.8077 39.2587 65.0459 38.7609 56.4551L38.8017 56.4132L38.7609 56.2851C37.928 42.0954 37.5127 28.5913 37.3045 22.4798L37.3462 22.4798L37.3462 21.6248L37.2628 21.6248L37.1803 19.5303L37.8037 19.5303L37.8037 16.0264L36.2639 16.0264L36.2639 11.7093L34.5595 11.7093L34.5595 5.5984L33.9366 5.5984L33.9366 0L33.2705 0L33.2705 5.5984L32.6883 5.5984L32.6883 11.7093L30.9422 11.7093L30.9422 16.0264L29.4445 16.0264L29.4445 19.5303L30.0262 19.5303L29.985 21.6248L29.8594 21.6248L29.8594 22.4798L29.9433 22.4798C29.5687 33.3346 28.4044 67.2685 25.9505 87.0127L22.665 87.0127L22.665 90.9025L24.8283 90.9025L24.8283 91.5856L23.3723 91.5856L23.3723 95.1752L23.8716 95.1752L22.5816 99.0222L22.4981 99.0222L22.4981 99.3213L17.8823 112.913L15.0952 112.913L15.0952 116.802L2.07938 142.658L0 142.658L0 145.691L15.803 145.691L15.803 142.658L14.5969 142.658L21.2925 129.366C24.4523 126.631 28.5291 124.965 33.0211 124.965C37.928 124.965 42.4195 126.929 45.705 130.178L51.9853 142.658ZM33.1448 19.5303L32.1464 20.3854L31.1494 19.5303L33.1448 19.5303ZM34.1859 19.5303L35.2242 20.3854L36.1814 19.5303L34.1859 19.5303ZM30.6914 21.6248L31.8563 20.685L30.7744 19.7013L30.6914 21.6248ZM36.5142 21.4972L35.5167 20.685L36.4725 19.7866L36.5142 21.4972ZM34.02 19.8295L34.9336 20.6421L34.02 21.4972L34.02 19.8295ZM33.2287 19.9581L32.3972 20.6421L33.2287 21.4104L33.2287 19.9581ZM31.2328 21.6248L32.0639 20.8984L32.813 21.6248L31.2328 21.6248ZM36.0567 21.6248L35.2659 20.8984L34.477 21.6248L36.0567 21.6248ZM33.2287 22.5646L31.9805 23.8898L30.6914 22.4798L33.2287 22.4798L33.2287 22.5646ZM34.02 22.4798L35.3902 23.8898L36.5555 22.5227L36.5555 22.4798L34.02 22.4798ZM34.02 23.0348L35.0995 24.1894L34.02 25.4288L34.02 23.0348ZM30.608 25.386L31.6486 24.2313L30.6497 23.0781L30.608 25.386ZM33.2287 23.121L32.2298 24.1894L33.2287 25.2997L33.2287 23.121ZM36.5972 25.2574L35.6827 24.2313L36.5555 23.2491L36.5972 25.2574ZM30.608 25.9414L31.9388 24.5305L33.1448 25.9414L30.608 25.9414ZM36.638 25.8556L35.4338 24.5305L34.1437 25.9414L36.638 25.9414L36.638 25.8556ZM33.2287 26.7959L31.8975 28.1635L30.6914 26.7531L33.2287 26.7531L33.2287 26.7959ZM34.102 26.7531L35.475 28.1635L36.5972 26.7531L34.102 26.7531ZM30.4425 29.6597L31.523 28.4626L30.5241 27.2237L30.4425 29.6597ZM34.02 27.2661L35.183 28.4626L34.02 29.9588L34.02 27.2661ZM33.2288 27.3518L32.1464 28.4626L33.2288 29.7449L33.2288 27.3518ZM36.7636 29.4887L35.7656 28.4626L36.7214 27.3518L36.7636 29.4887ZM30.4008 30.2584L31.8563 28.8051L33.0623 30.3013L30.4008 30.3013L30.4008 30.2584ZM36.8048 30.0865L35.5167 28.8051L34.3102 30.3013L36.8048 30.3013L36.8048 30.0865ZM33.2287 31.1983L31.8562 32.5653L30.5662 31.113L33.2287 31.113L33.2287 31.1983ZM34.02 31.113L35.5167 32.5653L36.8048 31.113L34.02 31.113ZM30.2756 34.1039L31.4817 32.9078L30.3586 31.625L30.2756 33.8476L30.2756 34.1039ZM34.02 31.7108L35.2242 32.9078L34.02 34.3178L34.02 31.7108ZM36.9291 33.9334L35.8495 32.9078L36.8461 31.7532L36.9291 33.9334ZM33.2288 31.7965L32.0639 32.9078L33.2288 34.1892L33.2288 31.7965ZM30.3586 34.5745L31.7723 33.2065L32.9794 34.5745L30.3586 34.5745ZM36.9291 34.5745L35.5584 33.2065L34.3931 34.5745L36.9291 34.5745ZM33.2287 35.6854L31.8562 36.9253L30.3586 35.3862L33.1448 35.3862L33.2287 35.4291L33.2287 35.6854ZM34.02 35.5572L34.1437 35.3862L36.9291 35.3862L35.5167 36.9253L34.02 35.5996L34.02 35.5572ZM30.1097 38.421L31.4817 37.2239L30.2344 35.8997L30.1097 38.421ZM35.8495 37.2239L37.0969 38.3352L37.012 35.9845L35.8495 37.2239ZM35.2242 37.2239L34.02 36.1555L34.02 38.4634L35.2242 37.2239ZM33.2288 36.2412L32.0639 37.2239L33.2288 38.3786L33.2288 36.2412ZM30.1509 38.933L31.7723 37.5236L33.1036 38.933L30.1509 38.933ZM35.5584 37.5236L37.1391 38.8906L37.1391 38.933L34.1859 38.933L35.5584 37.5236ZM31.6486 41.1556L33.2288 39.7885L33.2288 39.7457L30.2756 39.7457L31.6486 41.1556ZM35.7244 41.1556L34.102 39.7457L37.0969 39.7457L35.7244 41.1556ZM31.3158 41.4552L29.9433 42.6518L30.0263 40.1301L31.3158 41.4552ZM35.4338 41.4552L34.0608 40.2582L34.0608 42.8652L35.4338 41.4552ZM36.0567 41.4552L37.3045 42.5661L37.1803 40.3011L36.0567 41.4552ZM31.9387 41.4552L33.1448 40.344L33.1448 42.7795L31.9387 41.4552ZM31.6069 41.7539L29.8594 43.2072L29.8594 43.293L33.0211 43.293L31.6069 41.7539ZM35.7656 41.7539L37.3045 43.122L37.3462 43.293L34.3514 43.293L35.7656 41.7539ZM31.523 45.5579L33.1036 44.148L33.1036 44.0622L30.1097 44.0622L31.523 45.5579ZM35.8078 45.5579L34.102 44.0622L37.2628 44.0622L35.8078 45.5579ZM29.8186 44.4467L29.9433 44.0623L29.8594 44.0623L29.8186 44.4467ZM29.8186 44.4467L29.7356 47.1818L31.1911 45.8571L29.8186 44.4467ZM35.5167 45.8571L34.102 44.5753L34.102 46.0705L34.1437 46.7545L34.1437 47.2675L35.5167 45.8571ZM36.1814 45.8571L37.5127 47.0541L37.3875 44.5753L36.1814 45.8571ZM31.8563 45.8571L33.1036 44.7034L33.1036 46.0705L33.0623 46.7545L33.0623 47.1818L31.8563 45.8571ZM31.4817 46.1567L29.8594 47.5667L32.8542 47.5667L31.4817 46.1567ZM35.8495 46.1567L37.5127 47.5667L34.477 47.5667L35.8495 46.1567ZM32.9377 48.3783L31.4405 49.7464L30.1097 48.3783L32.9377 48.3783ZM35.8495 49.7464L34.4348 48.3783L37.1803 48.3783L35.8495 49.7464ZM29.4862 51.5408L31.0664 50.0879L29.6109 48.6351L29.4862 51.5408ZM35.5584 50.0451L34.1437 48.7632L34.1859 49.6183L34.1859 50.7291L34.2277 51.3702L35.5584 50.0451ZM36.2639 50.0879L37.7203 51.4131L37.5947 48.7632L36.2639 50.0879ZM33.0623 48.8914L31.7723 50.0451L32.9794 51.2421L33.0211 50.7291L33.0211 49.6183L33.0623 48.8914ZM29.7778 51.9256L31.3997 50.3876L32.9377 51.9256L29.7778 51.9256ZM35.9733 50.3876L37.5947 51.9256L34.4348 51.9256L35.9733 50.3876ZM32.6883 52.7378L31.2328 53.9772L30.0263 52.7378L32.6883 52.7378ZM36.0989 53.9772L34.643 52.7378L37.3045 52.7378L36.0989 53.9772ZM29.2355 55.7302L30.8166 54.4055L29.4445 52.9088L29.2355 55.7302ZM36.5142 54.4055L37.928 55.602L37.8037 53.0369L36.5142 54.4055ZM35.7244 54.4055L34.2277 53.1227L34.3102 53.7643L34.3514 55.8149L35.7244 54.4055ZM32.9377 53.2075L31.6486 54.4055L32.8542 55.6868L32.9377 53.7643L32.9377 53.2075ZM29.4862 56.2422L31.1911 54.7465L32.5641 56.2422L29.4862 56.2422ZM36.1814 54.7465L37.8445 56.2422L34.7255 56.2422L36.1814 54.7465ZM28.9861 60.3888L30.8166 58.763L29.1952 57.0558L28.9861 60.3888ZM32.813 57.0558L31.2328 58.4215L29.985 57.0558L32.813 57.0558ZM36.0567 58.4215L34.5595 57.0558L37.3875 57.0558L36.0567 58.4215ZM36.5142 58.763L38.2186 60.303L38.0109 57.2259L36.5142 58.763ZM35.7244 58.763L34.3931 57.6527L34.3931 57.9518L34.4348 58.1647L34.4348 59.2765L34.477 60.0877L35.7244 58.763ZM32.813 57.7798L31.6486 58.763L32.73 59.9596L32.7713 59.2765L32.7713 58.1647L32.813 57.9518L32.813 57.7798ZM29.6109 60.5588L31.1911 59.1912L32.5219 60.5588L29.6109 60.5588ZM36.1814 59.1912L37.7203 60.5588L34.8506 60.5588L36.1814 59.1912ZM28.695 64.6186L30.5241 63.0377L28.9444 61.37L28.695 64.6186ZM32.4389 61.37L30.9422 62.6099L29.7778 61.37L32.4389 61.37ZM36.3473 62.6099L34.9336 61.37L37.5947 61.37L36.3473 62.6099ZM36.8048 63.0377L38.5106 64.4905L38.3433 61.4553L36.8048 63.0377ZM36.015 63.0377L34.5595 61.7554L34.6012 62.3117L34.6012 62.6528L34.643 64.4476L36.015 63.0377ZM32.6883 61.8416L31.3575 63.0377L32.5641 64.2766L32.647 62.6528L32.647 62.3117L32.6883 61.8416ZM29.2355 64.8749L30.9 63.4221L32.3137 64.8749L29.2355 64.8749ZM36.4725 63.4221L38.1361 64.8749L35.0161 64.8749L36.4725 63.4221ZM32.1464 65.6875L30.5662 67.0122L29.3203 65.6875L32.1464 65.6875ZM36.8048 67.0122L35.183 65.6875L37.9697 65.6875L36.8048 67.0122ZM28.4044 68.7642L30.1097 67.3538L28.6537 65.729L28.4044 68.7642ZM37.2628 67.3538L38.7609 68.6785L38.5509 65.9009L37.2628 67.3538ZM36.3891 67.3966L34.7255 65.9862C34.7667 67.0546 34.8506 68.0802 34.8923 69.0633L36.3891 67.3966ZM32.4802 66.1572L30.9 67.3966L32.3138 68.9352C32.3972 68.0368 32.4389 67.0546 32.4802 66.1572ZM28.7367 69.1915L30.5241 67.781L31.7723 69.1915L28.7367 69.1915ZM36.8461 67.781L38.5509 69.1915L35.5167 69.1915L36.8461 67.781ZM28.072 73.2523L30.0262 71.6708L28.4878 70.047L28.3214 70.047C28.2375 71.1145 28.1555 72.2258 28.072 73.2523ZM32.0227 70.047L30.4425 71.285L29.2355 70.047L32.0227 70.047ZM36.8878 71.285L35.3072 70.047L38.0944 70.047L36.8878 71.285ZM37.3462 71.6708L39.1753 73.1675C39.0511 72.0976 38.9681 71.1145 38.9269 70.047L38.8847 70.047L37.3462 71.6708ZM36.5142 71.7137L34.9748 70.4309C35.0161 71.3717 35.0995 72.311 35.1417 73.2104L36.5142 71.7137ZM32.2298 70.559L30.8166 71.7137L32.0639 73.0813C32.1464 72.2681 32.1881 71.4146 32.2298 70.559ZM28.6537 73.508L30.3586 72.0547L31.6898 73.508L28.6537 73.508ZM36.9291 72.0547L38.7188 73.508L35.6414 73.508L36.9291 72.0547ZM27.6984 77.3107L29.5275 75.8583L28.1555 74.3197L27.9469 74.3197C27.9061 75.3463 27.8231 76.3713 27.6984 77.3107ZM31.3575 74.3197L29.985 75.4739L28.9444 74.3197L31.3575 74.3197ZM37.3875 75.4739L36.015 74.3197L38.4267 74.3197L37.3875 75.4739ZM37.8445 75.8583L39.5077 77.2264C39.4256 76.2442 39.3005 75.3029 39.2588 74.3197L39.2175 74.3197L37.8445 75.8583ZM37.012 75.9007L35.2242 74.3626C35.2659 75.4739 35.3902 76.5438 35.475 77.5674L37.012 75.9007ZM31.9805 74.5351L30.3169 75.9007L31.7316 77.3969C31.8563 76.5004 31.8975 75.4739 31.9805 74.5351ZM27.9469 77.868L29.8594 76.2442L31.3997 77.868L27.9469 77.868ZM37.4292 76.2442L39.4256 77.868L35.9733 77.868L37.4292 76.2442ZM31.4405 78.6797L29.6109 80.133L28.3214 78.6797L31.4405 78.6797ZM37.6786 80.133L35.932 78.6797L39.0511 78.6797L37.6786 80.133ZM27.4064 82.0126L29.1952 80.474L27.5719 78.7225C27.4477 79.8338 27.3642 80.9446 27.2808 82.0126L27.4064 82.0126ZM38.1361 80.474L39.9652 82.0126C39.84 80.9875 39.758 79.9191 39.6328 78.8931L38.1361 80.474ZM37.3463 80.5598L35.6414 79.1498C35.7244 80.133 35.8078 81.1166 35.9733 82.0126L37.3463 80.5598ZM31.3158 81.9268C31.3997 81.1166 31.4817 80.1763 31.6069 79.2765L30.0263 80.5598L31.3158 81.9268ZM28.2375 82.0126L29.5688 80.9027L30.5662 82.0126L28.2375 82.0126ZM37.8038 80.9027L39.0511 82.0126L36.7636 82.0126L37.8038 80.9027ZM31.1081 82.8262L29.0695 84.5348L27.5306 82.8262L31.1081 82.8262ZM38.2598 84.5348L36.2231 82.8262L39.7988 82.8262L38.2598 84.5348ZM26.7825 86.4159L28.6537 84.8759L27.1153 83.2525C27.0314 84.3209 26.8659 85.3894 26.7825 86.4159ZM38.7188 84.8759L40.4236 86.2868C40.3411 85.346 40.1742 84.3638 40.0903 83.3802L38.7188 84.8759ZM37.8858 84.9192L36.1814 83.4664C36.3061 84.5348 36.4725 85.4737 36.638 86.2868L37.8858 84.9192ZM31.0664 83.5936L29.4445 84.9192L30.608 86.2015C30.7744 85.4322 30.9 84.5348 31.0664 83.5936ZM26.8659 87.0127L28.9861 85.3031L30.4008 86.8422L30.4008 86.8851L30.3586 87.0127L26.8659 87.0127ZM38.3433 85.3031L40.4236 87.0127L36.8461 87.0127L36.8048 86.9698L38.3433 85.3031ZM28.9022 95.1752L26.8659 96.5009L25.4095 95.1752L28.9022 95.1752ZM30.0684 95.1752L27.3642 96.972L29.7778 99.0222L29.9433 99.0222L30.4425 95.1752L30.0684 95.1752ZM36.3061 96.7143L31.1081 96.7143L31.3575 95.1752L36.0567 95.1752L36.3061 96.7143ZM39.84 96.842L36.9291 95.1752L37.5539 99.0222L39.84 96.842ZM40.3411 96.4152L38.2598 95.1752L41.6292 95.1752L40.3411 96.4152ZM42.4608 95.1752L42.5859 95.1752L43.6673 98.381L40.8806 96.7143L42.4608 95.1752ZM23.6222 98.6387L26.3667 96.842L24.7041 95.3911L23.6222 98.6387ZM40.3823 97.1421L38.4267 99.0222L43.5431 99.0222L40.3823 97.1421ZM28.8206 99.0222L24.1617 99.0222L26.8659 97.3131L28.8206 99.0222ZM36.4725 97.5274L31.0252 97.5274L29.8186 105.048L28.6537 112.913L38.7609 112.913L36.4725 97.5274ZM29.1525 99.8343L25.7836 102.1L23.5805 99.8343L29.1525 99.8343ZM41.7548 102.015L38.3433 99.8343L43.8755 99.8343L41.7548 102.015ZM25.1602 102.528L21.4186 105.048L23.04 100.348L25.1602 102.528ZM44.3733 100.391L42.4195 102.441L45.788 104.621L44.3733 100.391ZM41.1295 102.655L37.7203 100.475L38.4267 105.048L38.4684 105.391L41.1295 102.655ZM28.9444 105.347L29.6939 100.605L26.4502 102.74L28.9444 105.347ZM41.7548 103.082L39.1345 105.775L46.0369 105.775L41.7548 103.082ZM28.3631 105.775L21.9164 105.775L25.7836 103.168L28.3631 105.775ZM23.9958 109.023L27.9061 106.587L21.5011 106.587L23.9958 109.023ZM39.2588 106.587L43.2108 109.023L45.6633 106.587L39.2588 106.587ZM43.9167 109.493L46.5783 106.887L48.367 112.143L43.9167 109.493ZM19.0472 112.014L23.2481 109.493L20.7938 107.057L19.0472 112.014ZM24.6619 109.75L28.6537 107.314L27.8231 112.827L24.6619 109.75ZM38.8017 107.441L42.5025 109.75L39.5916 112.613L38.8017 107.441ZM19.463 112.913L26.7408 112.913L23.9128 110.135L19.463 112.913ZM40.5066 112.913L43.252 110.135L47.7009 112.913L40.5066 112.913ZM23.2898 121.545L14.5969 121.545L16.4264 117.956L25.1189 117.956L23.2898 121.545ZM27.4064 117.956L27.4064 121.588L26.8659 121.759L26.8659 118.255L27.0314 117.956L27.4064 117.956ZM28.3214 121.332L28.3214 117.956L27.7809 117.956L27.7809 121.503L28.3214 121.332ZM29.1952 117.956L29.1952 121.204L28.6537 121.289L28.6537 117.956L29.1952 117.956ZM30.0684 121.033L30.0684 117.956L29.5275 117.956L29.5275 121.076L30.0684 121.033ZM30.9422 117.956L30.9422 120.947L30.4008 120.99L30.4008 117.956L30.9422 117.956ZM31.8562 120.863L31.8562 117.956L31.3158 117.956L31.3158 120.905L31.8562 120.863ZM32.73 117.956L32.73 120.863L32.2298 120.863L32.2298 117.956L32.73 117.956ZM33.6445 120.863L33.6445 117.956L33.1036 117.956L33.1036 120.863L33.6445 120.863ZM34.5595 117.956L34.5595 120.905L34.02 120.863L34.02 117.956L34.5595 117.956ZM35.4338 120.947L35.4338 117.956L34.8923 117.956L34.8923 120.905L35.4338 120.947ZM36.3061 117.956L36.3061 121.076L35.7656 120.99L35.7656 117.956L36.3061 117.956ZM37.1803 121.246L37.1803 117.956L36.638 117.956L36.638 121.162L37.1803 121.246ZM38.0944 117.956L38.0944 121.46L37.5539 121.289L37.5539 117.956L38.0944 117.956ZM38.9681 121.63L38.9681 117.956L38.4684 117.956L38.4684 121.503L38.9681 121.63ZM39.8822 118.639L39.8822 121.972L39.3422 121.759L39.3422 117.956L39.5498 117.956L39.8822 118.639ZM43.252 121.545L51.9431 121.545L50.1553 117.956L41.4628 117.956L43.252 121.545ZM26.4923 121.845L26.4923 118.98L25.9917 120.05L25.9917 122.016L26.4923 121.845ZM40.7977 122.271L40.7977 120.392L40.2577 119.323L40.2577 122.058L40.7977 122.271ZM25.6177 120.733L25.6177 122.143C25.2858 122.271 24.9942 122.357 24.7041 122.529L25.6177 120.733ZM41.1295 122.4L41.1295 121.076L41.963 122.742C41.7136 122.657 41.4206 122.529 41.1295 122.4ZM13.3912 123.938L22.1245 123.938L22.9144 122.357L14.1811 122.357L13.3912 123.938ZM53.1497 123.938L44.4572 123.938L43.6673 122.357L52.358 122.357L53.1497 123.938ZM43.3355 125.434L43.792 126.332C40.6317 124.323 37.012 123.169 33.0211 123.169C29.4028 123.169 25.9917 124.195 23.04 125.905L23.4558 125.049C26.2842 123.468 29.5688 122.572 33.0211 122.572C36.8048 122.572 40.2994 123.596 43.3355 125.434ZM13.8075 124.708L16.177 126.375L20.6691 124.708L13.8075 124.708ZM52.6922 124.708L50.3217 126.375L45.788 124.708L52.6922 124.708ZM53.6892 125.049L51.3206 126.759L55.3116 128.255L53.6892 125.049ZM12.8091 125.092L15.1791 126.759L11.2289 128.212L12.8091 125.092ZM19.5867 128.854L17.1347 127.101L21.2925 125.606L19.5867 128.854ZM46.9111 128.811L49.3228 127.101L45.2892 125.606L46.9111 128.811ZM18.5902 129.152L11.5603 129.152L16.177 127.443L18.5902 129.152ZM54.937 129.152L47.91 129.152L50.3217 127.443L54.937 129.152ZM11.3948 129.965L13.5984 131.545L17.7998 129.965L11.3948 129.965ZM52.8586 131.545L55.1039 129.965L48.6998 129.965L52.8586 131.545ZM53.8561 131.888L56.31 130.135L57.9319 133.384L53.8561 131.888ZM10.2717 130.178L12.6431 131.888L8.65031 133.384L10.2717 130.178ZM17.0513 133.982L14.5969 132.188L18.6731 130.692L17.0513 133.982ZM51.9014 132.188L49.4902 133.939L47.91 130.734L51.9014 132.188ZM16.177 134.409L13.5984 132.572L8.69109 134.409L16.177 134.409ZM52.8586 132.572L50.3217 134.409L57.7659 134.409L52.8586 132.572ZM8.02641 135.222L10.1053 137.914L15.9698 135.222L8.02641 135.222ZM56.3513 137.914L58.4714 135.222L50.5289 135.222L56.3513 137.914ZM57.4341 138.427L59.2631 136.034L61.3833 140.179L57.4341 138.427ZM7.27734 136.077L9.02437 138.427L5.23922 140.137L7.27734 136.077ZM13.1002 141.761L10.8961 138.855L15.6787 136.717L13.1002 141.761ZM55.5605 138.855L53.3986 141.675L50.903 136.717L55.5605 138.855ZM12.3937 142.658L9.81516 139.367L4.36594 141.847L3.99187 142.658L12.3937 142.658ZM56.6423 139.367L54.1064 142.658L62.5903 142.658L62.2163 141.888L56.6423 139.367Z" fill-rule="evenodd"/>
	<path fill="rgb(66,190,183)" stroke="none" transform="translate(130.004 198.708)" d="M32.2313 4.87102L32.2313 1.83675C32.5636 1.62335 32.7712 1.23847 32.7712 0.811677C32.7712 0.511091 32.6466 0.212915 32.3977 0C32.4389 0.0847805 32.4806 0.254823 32.4806 0.383921C32.4806 1.02507 31.9397 1.53761 31.3162 1.53761C31.0252 1.53761 30.7753 1.45283 30.5672 1.23847C30.7341 1.70862 31.1494 2.00776 31.6069 2.00776L31.8567 2.00776L31.8567 4.87102L31.4817 4.87102L31.4817 5.4274L31.6069 5.4274C23.3704 10.6213 24.7771 13.0251 25.6598 14.5336C25.9537 15.0358 26.1896 15.4388 25.9922 15.8125L32.2313 15.8125C34.3102 15.7692 36.3483 15.7692 38.3855 15.8125C38.05 15.4445 38.2353 15.0209 38.4788 14.4642C39.1404 12.9519 40.2317 10.4574 32.4806 5.4274L32.6053 5.4274L32.6053 4.87102L32.2313 4.87102ZM7.56891 8.46023C7.51737 8.36528 7.57807 8.26505 7.65375 8.14007C7.88371 7.76034 8.25199 7.15219 6.03047 5.76989C3.92552 7.08572 4.21476 7.7352 4.38724 8.12252C4.44991 8.26323 4.49716 8.36934 4.40859 8.46023L7.56891 8.46023ZM56.6952 8.13001C56.7712 8.25969 56.8316 8.36275 56.7684 8.46023L59.9705 8.46023C59.8816 8.36927 59.9288 8.26307 59.9913 8.12219C60.1634 7.73484 60.4519 7.08535 58.3486 5.76989C56.1151 7.14005 56.4723 7.7496 56.6952 8.13001ZM3.99281 9.10282L8.15109 9.10282L8.15109 8.67603L3.99281 8.67603L3.99281 9.10282ZM56.227 9.23048L60.3867 9.23048L60.3867 8.67651L56.227 8.67651L56.227 9.23048ZM8.15109 9.78588L3.99281 9.78588L3.99281 9.31622L8.15109 9.31622L8.15109 9.78588ZM59.9292 11.6665L59.9292 9.87066L60.3862 9.87066L60.3862 9.3167L56.227 9.3167L56.227 9.87066L56.6845 9.87066L56.6845 11.6665L56.227 11.6665L56.227 12.7354L56.6428 12.7354L56.6428 21.3247L59.9705 21.3247L59.9705 12.7354L60.3862 12.7354L60.3862 11.6665L59.9292 11.6665ZM7.65281 11.6665L4.44984 11.6665L4.44984 9.87066L7.65281 9.87066L7.65281 11.6665ZM5.03203 11.2825L5.57297 11.2825L5.57297 10.257L5.03203 10.257L5.03203 11.2825ZM6.32156 11.2825L5.78062 11.2825L5.78062 10.257L6.32156 10.257L6.32156 11.2825ZM7.06969 11.2825L6.52922 11.2825L6.52922 10.257L7.06969 10.257L7.06969 11.2825ZM57.8489 11.2825L57.3084 11.2825L57.3084 10.257L57.8489 10.257L57.8489 11.2825ZM58.5984 11.2825L58.0566 11.2825L58.0566 10.257L58.5984 10.257L58.5984 11.2825ZM58.7644 11.2825L59.3461 11.2825L59.3461 10.257L58.7644 10.257L58.7644 11.2825ZM8.15109 12.2228L3.99281 12.2228L3.99281 11.796L8.15109 11.796L8.15109 12.2228ZM3.99281 12.6501L8.15109 12.6501L8.15109 12.351L3.99281 12.351L3.99281 12.6501ZM4.36734 21.3247L7.73578 21.3247L7.73578 12.7354L4.36734 12.7354L4.36734 21.3247ZM23.2477 12.9064C23.3311 12.9493 23.3723 13.0331 23.3723 13.1622C23.3723 13.2903 23.3311 13.3756 23.2477 13.4628L23.2477 14.3163L23.3723 14.3163L23.3723 14.4869L22.9987 14.4869L22.9987 14.3163L23.1234 14.3163L23.1234 13.5475L22.9987 13.5475C22.8736 13.5475 22.7489 13.4194 22.6655 13.2903C22.7489 13.3327 22.8319 13.3756 22.9153 13.3756C23.1234 13.3756 23.2894 13.2055 23.2894 13.0331C23.2894 12.9916 23.2894 12.9493 23.2477 12.9064ZM23.1647 14.4869C25.7932 16.1282 25.4315 16.9212 25.2152 17.3953C25.1441 17.5512 25.0887 17.6726 25.1606 17.7784L21.2512 17.7784C21.325 17.6595 21.2498 17.5352 21.1554 17.3792C20.8765 16.9181 20.43 16.1799 23.1647 14.4869ZM41.0892 14.4869L40.9233 14.4869L40.9233 14.3163L41.0475 14.3163L41.0475 13.5475L40.9233 13.5475C40.7981 13.5475 40.6313 13.4194 40.5895 13.2903C40.6313 13.3327 40.7559 13.3756 40.8403 13.3756C41.0475 13.3756 41.2134 13.2055 41.2134 13.0331C41.2134 12.9916 41.2134 12.9493 41.1727 12.9064C41.2556 12.9493 41.2969 13.0331 41.2969 13.1622C41.2969 13.2903 41.2556 13.3756 41.1727 13.4628L41.1727 14.3163L41.2556 14.3163L41.2556 14.4869L41.0892 14.4869ZM41.0892 14.4869C43.6916 16.1121 43.3395 16.9056 43.1284 17.3812C43.0562 17.5439 43.0005 17.6695 43.0852 17.7784L39.1753 17.7784C39.2371 17.6625 39.1624 17.5415 39.0695 17.391C38.7854 16.9306 38.3311 16.1944 41.0892 14.4869ZM13.4747 34.4474L13.4747 31.625L11.3958 31.625L11.3958 34.4474L7.73578 34.4474L7.73578 29.8736L4.36734 29.8736L4.36734 34.4474L0.00046875 34.4474L0.00046875 35.5996L64.2108 35.5996L64.2108 34.4474L59.9705 34.4474L59.9705 29.8736L56.6428 29.8736L56.6428 34.4474L52.9416 34.4474L52.9416 31.625L50.9039 31.625L50.9039 34.4474L48.2011 34.4474L48.2011 21.4548L44.2088 20.2991L44.2088 34.4474L43.9589 34.4474L43.9589 18.2066L43.5427 18.2066L43.5427 18.0342L38.5528 18.0342L38.5528 16.5385L25.5769 16.5385L25.5769 18.0342L20.753 18.0342L20.753 18.2066L20.2116 18.2066L20.2116 34.4474L20.0456 34.4474L20.0456 20.5135L15.9281 21.369L15.9281 34.4474L13.4747 34.4474ZM11.5205 18.4624C11.5513 18.3989 11.513 18.3327 11.466 18.2513C11.3235 18.0049 11.1008 17.6198 12.4763 16.7528C13.756 17.5978 13.5849 18.008 13.4837 18.2507C13.4468 18.3392 13.4192 18.4055 13.4747 18.4624L11.5205 18.4624ZM52.9128 18.2512C52.8659 18.3326 52.8276 18.3989 52.8586 18.4624L50.9039 18.4624C50.9592 18.4057 50.929 18.3398 50.8886 18.2517C50.7775 18.0092 50.5895 17.599 51.9023 16.7528C53.2772 17.6196 53.055 18.0047 52.9128 18.2512ZM11.1867 18.8049L13.7245 18.8049L13.7245 18.5905L11.1867 18.5905L11.1867 18.8049ZM53.1905 18.8049L50.6545 18.8049L50.6545 18.5905L53.1905 18.5905L53.1905 18.8049ZM26.3672 34.4474L37.8037 34.4474L37.8037 18.9325L26.3672 18.9325L26.3672 34.4474ZM13.7245 19.1888L11.1867 19.1888L11.1867 18.9754L13.7245 18.9754L13.7245 19.1888ZM50.6545 19.2317L53.1905 19.2317L53.1905 18.9754L50.6545 18.9754L50.6545 19.2317ZM21.4181 19.0597L22.1672 19.0597L22.1672 20.2153L21.4181 20.2153L21.4181 19.0597ZM23.4558 19.0597L22.7072 19.0597L22.7072 20.2153L23.4558 20.2153L23.4558 19.0597ZM23.9963 19.0597L24.7453 19.0597L24.7453 20.2153L23.9963 20.2153L23.9963 19.0597ZM40.4236 19.0597L39.675 19.0597L39.675 20.2153L40.4236 20.2153L40.4236 19.0597ZM40.9645 19.0597L41.7131 19.0597L41.7131 20.2153L40.9645 20.2153L40.9645 19.0597ZM43.0017 19.0597L42.2119 19.0597L42.2119 20.2153L43.0017 20.2153L43.0017 19.0597ZM13.4325 20.4282L11.437 20.4282L11.437 19.316L13.4325 19.316L13.4325 20.4282ZM50.9456 20.4282L52.9416 20.4282L52.9416 19.316L50.9456 19.316L50.9456 20.4282ZM11.8111 20.1725L12.1856 20.1725L12.1856 19.5299L11.8111 19.5299L11.8111 20.1725ZM12.2686 20.1725L12.6009 20.1725L12.6009 19.5299L12.2686 19.5299L12.2686 20.1725ZM13.0584 20.1725L12.7256 20.1725L12.7256 19.5299L13.0584 19.5299L13.0584 20.1725ZM51.652 20.1725L51.3197 20.1725L51.3197 19.5299L51.652 19.5299L51.652 20.1725ZM51.7359 20.1725L52.0687 20.1725L52.0687 19.5299L51.7359 19.5299L51.7359 20.1725ZM52.193 20.1725L52.5258 20.1725L52.5258 19.5299L52.193 19.5299L52.193 20.1725ZM28.6542 28.677L35.5584 28.677L35.5584 33.2065L36.5142 33.2065L36.5142 20.2153L27.6567 20.2153L27.6567 33.2065L28.6542 33.2065L28.6542 28.677ZM50.6545 20.7693L53.1905 20.7693L53.1905 20.5564L50.6545 20.5564L50.6545 20.7693ZM13.7245 20.7693L11.1867 20.7693L11.1867 20.5988L13.7245 20.5988L13.7245 20.7693ZM11.1867 21.0256L13.7245 21.0256L13.7245 20.855L11.1867 20.855L11.1867 21.0256ZM52.9416 21.0684L53.1905 21.0684L53.1905 20.8555L50.6545 20.8555L50.6545 21.0684L50.9039 21.0684L50.9039 26.3687L52.9416 26.3687L52.9416 21.0684ZM13.4747 26.3687L11.3958 26.3687L11.3958 21.0684L13.4747 21.0684L13.4747 26.3687ZM7.73578 29.2738L4.36734 29.2738L4.36734 21.8816L7.73578 21.8816L7.73578 29.2738ZM59.9705 29.2738L56.6428 29.2738L56.6428 21.8816L59.9705 21.8816L59.9705 29.2738ZM33.1458 27.8225L33.1458 25.3855C33.1458 24.9582 32.1473 24.359 32.1061 24.359C32.0231 24.359 31.0252 24.9582 31.0252 25.3855L31.0252 27.8225L28.6542 27.8225L28.6542 25.3002C28.6542 23.8479 31.9397 21.882 32.1061 21.882C32.273 21.882 35.5584 23.8479 35.5584 25.3002L35.5584 27.8225L33.1458 27.8225ZM22.4166 22.7351L21.0023 22.7351L21.0023 22.3941L24.1631 22.3941L24.1631 22.7351L22.7072 22.7351C22.9987 22.8642 23.4141 23.2062 23.5387 23.3344C23.7891 23.5487 24.1631 23.9317 24.1631 24.3171L24.1631 27.7353L20.9606 27.7353L20.9606 24.3171C20.9606 23.9317 21.3347 23.5487 21.5845 23.3344C21.7097 23.2486 22.1672 22.8642 22.4166 22.7351ZM41.5472 22.7351L40.0495 22.7351L40.0495 22.3941L43.1691 22.3941L43.1691 22.7351L41.8378 22.7351C42.0872 22.8642 42.5452 23.2486 42.6694 23.3344C42.9192 23.5487 43.2937 23.9317 43.2937 24.3171L43.2937 27.7353L40.0912 27.7353L40.0912 24.3171C40.0912 23.9317 40.4236 23.5487 40.7142 23.3344C40.7981 23.2062 41.2556 22.8642 41.5472 22.7351ZM18.9225 27.8225L18.9225 24.702C18.9225 24.0608 17.8828 23.4196 17.8416 23.4625C17.7998 23.4625 16.8023 24.359 16.8023 24.9582L16.8023 28.0787L18.9225 27.8225ZM45.4139 27.8225L45.4139 24.702C45.4139 24.0608 46.4128 23.4196 46.4545 23.4625C46.4958 23.4625 47.535 24.359 47.535 24.9582L47.535 28.0787L45.4139 27.8225ZM22.1672 27.5643L22.9987 27.5643L22.9987 25.9404L22.1672 25.9404L22.1672 27.5643ZM42.0872 27.5643L41.2556 27.5643L41.2556 25.9404L42.0872 25.9404L42.0872 27.5643ZM11.3958 31.284L13.4747 31.284L13.4747 26.7112L11.3958 26.7112L11.3958 31.284ZM50.9039 31.284L52.9416 31.284L52.9416 26.7112L50.9039 26.7112L50.9039 31.284ZM21.0023 28.5479L22.208 28.5479C21.9581 28.677 21.6675 28.8899 21.5845 28.9747C21.3347 29.1886 20.9606 29.5744 20.9606 29.9583L20.9606 33.3775L24.1631 33.3775L24.1631 29.9583C24.1631 29.5744 23.8308 29.1886 23.5387 28.9747C23.4558 28.8899 23.2064 28.677 22.957 28.5479L24.1631 28.5479L24.1631 28.2069L21.0023 28.2069L21.0023 28.5479ZM40.133 28.5479L41.2969 28.5479C41.0475 28.677 40.7981 28.8899 40.6734 28.9747C40.4236 29.1886 40.0913 29.5744 40.0913 29.9583L40.0913 33.3775L43.2938 33.3775L43.2938 29.9583C43.2938 29.5744 42.9192 29.1886 42.6694 28.9747C42.5869 28.8899 42.2953 28.677 42.0455 28.5479L43.2938 28.5479L43.2938 28.2069L40.133 28.2069L40.133 28.5479ZM18.9225 30.0012L18.9225 33.1636L16.8023 33.2065L16.8023 30.2575C16.8023 29.7021 17.7998 28.8047 17.8416 28.8047C17.8828 28.8047 18.9225 29.4463 18.9225 30.0012ZM45.4139 30.0012L45.4139 33.1636L47.535 33.2065L47.535 30.2575C47.535 29.7021 46.4958 28.8047 46.4545 28.8047C46.4128 28.8047 45.4139 29.4463 45.4139 30.0012ZM33.1458 30.8124L33.1458 33.2065L31.0252 33.2065L31.0252 30.8124C31.0252 30.3423 32.0231 29.7454 32.1061 29.7454C32.1473 29.7454 33.1458 30.3423 33.1458 30.8124ZM22.9987 33.2065L22.1672 33.2065L22.1672 31.5817L22.9987 31.5817L22.9987 33.2065ZM41.2556 33.2065L42.0872 33.2065L42.0872 31.5817L41.2556 31.5817L41.2556 33.2065ZM64.2108 38.2914L0 38.2914L0 35.985L64.2108 35.985L64.2108 38.2914Z" fill-rule="evenodd"/>
	<defs>
		<clipPath id="clip_0">
			<rect y="0.30102539" width="375" height="236.69893" clip-rule="evenodd"/>
		</clipPath>
	</defs>
	<g clip-path="url(#clip_0)">
		<path fill="rgb(66,190,183)" stroke="none" transform="translate(192.635 146.995)" d="M8.235 0.385366C8.235 0.25675 8.27672 0.128616 8.27672 0L8.27672 0.385366L8.235 0.385366ZM8.85844 1.41044L7.65281 1.41044L7.65281 0.513018L8.85844 0.513018L8.85844 1.41044ZM8.11125 1.53954C7.65381 4.47913 6.32959 7.07793 5.41581 9.84549L5.40703 9.82972L5.40703 9.87211C5.40995 9.86324 5.41288 9.85436 5.41581 9.84549L5.73984 10.428L5.78109 10.5128L6.11344 9.82972L6.44578 10.428L6.48937 10.5128L6.52922 10.428L6.86344 9.82972L7.19578 10.5128L7.23656 10.428L7.56938 9.82972L7.90125 10.5128L7.94297 10.428L8.27672 9.82972L8.56781 10.428L8.60906 10.5128L8.65078 10.428L8.98359 9.82972L9.31547 10.5128L9.35719 10.428L9.69141 9.82972L10.0238 10.5128L10.065 10.428L10.3978 9.82972L10.6472 10.428L10.7297 10.5128L10.7714 10.428L11.063 9.82972C11.097 9.77655 10.6661 8.54597 10.1383 7.03884L10.1383 7.03878C9.39416 4.91378 8.45751 2.23902 8.36016 1.53954L8.11125 1.53954ZM8.36016 4.87247L8.77641 5.55601L8.60906 5.68318L8.27672 5.04299L7.90125 5.68318L7.73531 5.55601L8.27672 4.65907L8.36016 4.87247ZM7.44469 6.70922L7.86047 7.47851L7.69359 7.56425L7.32 6.88119L6.98719 7.56425L6.82125 7.47851L7.32 6.53918L7.44469 6.70922ZM9.69141 7.47851L9.27422 6.70922L9.19078 6.53918L8.65078 7.47851L8.77641 7.56425L9.19078 6.88119L9.52312 7.56425L9.69141 7.47851ZM4.36688 7.47851L4.36688 7.77909L4.49156 7.65144L4.61672 7.77909L4.61672 7.47851L4.36688 7.47851ZM11.895 7.77909L11.895 7.47851L12.1434 7.47851L12.1434 7.77909L12.0197 7.65144L11.895 7.77909ZM4.95047 8.29163L4.49156 7.82196L4.03453 8.29163L4.49156 8.76129L4.95047 8.29163ZM12.0197 7.82196L12.4762 8.29163L12.0197 8.76129L11.5622 8.29163L12.0197 7.82196ZM7.19578 9.23192L6.82125 8.46215L6.69703 8.29163L6.15562 9.23192L6.32109 9.31815L6.69703 8.63268L7.02891 9.31815L7.19578 9.23192ZM8.36016 8.46215L8.77641 9.23192L8.60906 9.31815L8.27672 8.63268L7.90125 9.31815L7.73531 9.23192L8.27672 8.29163L8.36016 8.46215ZM10.3561 9.23192L9.94078 8.46215L9.81609 8.29163L9.27422 9.23192L9.48187 9.31815L9.81609 8.63268L10.1897 9.31815L10.3561 9.23192ZM11.7698 10.1289L11.6044 10.4709L11.4375 10.8129L11.3972 10.8129L11.2711 10.4709L11.063 10.1289L10.8544 10.4709L10.7297 10.8129L10.5633 10.4709L10.3561 10.1289L10.1897 10.4709L10.0238 10.8129L9.85688 10.4709L9.69141 10.1289L9.48188 10.4709L9.31547 10.8129L9.15 10.4709L8.98359 10.1289L8.77641 10.4709L8.65078 10.8129L8.60906 10.8129L8.44312 10.4709L8.27672 10.1289L8.06766 10.4709L7.94297 10.8129L7.90125 10.8129L7.56938 10.1289L7.36172 10.4709L7.23656 10.8129L7.19578 10.8129L7.02891 10.4709L6.86344 10.1289L6.65484 10.4709L6.52922 10.8129L6.48938 10.8129L6.32109 10.4709L6.11344 10.1289L5.9475 10.4709L5.78109 10.8129L5.65594 10.4709L5.44875 10.1289L5.24156 10.4709L5.11641 10.8129L5.07516 10.8129L4.95047 10.4709L4.74094 10.1289L4.61672 10.3418L4.61672 8.84607L4.49156 8.93182L4.36688 8.84607L4.36688 14.1044L12.1434 14.1044L12.1434 8.84607L12.0197 8.93182L11.895 8.84607L11.895 10.3418L11.7698 10.1289ZM5.9475 13.5914L4.78266 13.5914L4.78266 11.4545L5.9475 11.4545L5.9475 13.5914ZM7.40297 13.5914L6.23859 13.5914L6.23859 11.4545L7.40297 11.4545L7.40297 13.5914ZM7.69406 13.5914L8.85844 13.5914L8.85844 11.4545L7.69406 11.4545L7.69406 13.5914ZM10.2722 13.5914L9.10781 13.5914L9.10781 11.4545L10.2722 11.4545L10.2722 13.5914ZM10.5638 13.5914L11.7281 13.5914L11.7281 11.4545L10.5638 11.4545L10.5638 13.5914ZM2.99437 19.4456L4.99172 14.3607L11.5205 14.3607L13.5169 19.4456L13.4752 19.488L13.4334 19.5737L13.0594 19.0183L12.7688 19.488L12.6848 19.5737L12.6009 19.488L12.3103 19.0183L11.9362 19.5737L11.895 19.488L11.5622 19.0183L11.2298 19.6166L11.145 19.488L10.8544 18.9769L10.5633 19.488L10.4803 19.6166L10.1072 19.0183L9.81609 19.488L9.73312 19.5737L9.64969 19.488L9.35719 19.0183L8.98359 19.5737L8.94187 19.488L8.60906 19.0183L8.31891 19.488L8.27672 19.6166L8.1525 19.488L7.90125 18.9769L7.61016 19.488L7.52812 19.6166L7.44469 19.488L7.15453 19.0183L6.86344 19.488L6.77953 19.5737L6.69703 19.488L6.40453 19.0183L6.11344 19.488L6.03047 19.5737L5.98828 19.488L5.65594 19.0183L5.32359 19.6166L5.19938 19.488L4.95047 18.9769L4.6575 19.488L4.575 19.6166L4.20047 19.0183L3.91031 19.488L3.82687 19.5737L3.74297 19.488L3.45281 19.0183L3.07781 19.5737L3.03609 19.488L2.99437 19.4456ZM6.90516 16.1121L6.52922 15.3419L6.40453 15.1714L5.86453 16.1121L6.03047 16.1979L6.40453 15.5553L6.73828 16.1979L6.90516 16.1121ZM8.36016 15.3419L8.77641 16.1121L8.60906 16.1979L8.27672 15.5553L7.90125 16.1979L7.73531 16.1121L8.27672 15.1714L8.36016 15.3419ZM10.8544 16.1121L10.3978 15.3419L10.3144 15.1714L9.77437 16.1121L9.94078 16.1979L10.3144 15.5553L10.6472 16.1979L10.8544 16.1121ZM1.57969 16.5389L1.57969 16.8381L1.70531 16.7104L1.82906 16.8381L1.82906 16.5389L1.57969 16.5389ZM14.6808 16.8381L14.6808 16.5389L14.8898 16.5389L14.8898 16.8381L14.8059 16.7104L14.6808 16.8381ZM1.70531 16.7957L2.205 17.2244L1.70531 17.7369L1.24828 17.2244L1.70531 16.7957ZM15.263 17.2244L14.8059 16.7957L14.3484 17.2244L14.8059 17.7369L15.263 17.2244ZM5.65594 17.8212L5.24156 17.0943L5.11641 16.9238L4.575 17.8212L4.74094 17.907L5.11641 17.2668L5.44875 17.907L5.65594 17.8212ZM7.32 17.0943L7.69359 17.8212L7.52813 17.907L7.19578 17.2668L6.82125 17.907L6.65484 17.8212L7.19578 16.9238L7.32 17.0943ZM9.77437 17.8212L9.39937 17.0943L9.27422 16.9238L8.73422 17.8212L8.89969 17.907L9.27422 17.2668L9.64969 17.907L9.77437 17.8212ZM11.4375 17.0943L11.895 17.8212L11.7281 17.907L11.355 17.2668L10.9791 17.907L10.8544 17.8212L11.355 16.9238L11.4375 17.0943ZM14.8898 23.1639L15.6366 23.1639L15.6366 21.0275L15.72 21.1547L15.8452 21.0275L15.8452 38.7625L0.666562 38.7625L0.666562 21.0275L0.791719 21.1547L0.87375 21.0275L0.87375 23.1639L1.57969 23.1639L1.57969 17.6941L1.70531 17.7789L1.82906 17.6941L1.82906 19.488L1.99781 19.2317L2.16328 19.5313L2.37141 19.8304L2.53688 19.5313L2.70375 19.2317L2.91188 19.5313L3.07781 19.8304L3.28547 19.5313L3.45281 19.2317L3.66141 19.5313L3.82687 19.8304L3.99328 19.5313L4.20047 19.2317L4.36687 19.5313L4.575 19.8304L4.74094 19.5313L4.95047 19.2317L5.11641 19.5313L5.32359 19.8304L5.49047 19.5313L5.65594 19.2317L5.86453 19.5313L6.03047 19.8304L6.23859 19.5313L6.40453 19.2317L6.61312 19.5313L6.77953 19.8304L6.94547 19.5313L7.15453 19.2317L7.32 19.5313L7.52812 19.8304L7.69359 19.5313L7.90125 19.2317L8.06766 19.5313L8.27672 19.8304L8.44312 19.5313L8.60906 19.2317L8.81766 19.5313L8.98359 19.8304L9.19078 19.5313L9.35719 19.2317L9.56437 19.5313L9.73312 19.8304L9.89859 19.5313L10.1072 19.2317L10.2722 19.5313L10.4803 19.8304L10.6472 19.5313L10.8544 19.2317L11.0208 19.5313L11.2298 19.8304L11.3972 19.5313L11.5622 19.2317L11.7698 19.5313L11.9362 19.8304L12.1434 19.5313L12.3103 19.2317L12.5184 19.5313L12.6848 19.8304L12.8517 19.5313L13.0594 19.2317L13.2262 19.5313L13.4334 19.8304L13.5998 19.5313L13.807 19.2317L13.9739 19.5313L14.1816 19.8304L14.3484 19.5313L14.5148 19.2317L14.6808 19.4456L14.6808 17.6941L14.8059 17.7789L14.8898 17.6941L14.8898 23.1639ZM0.666563 19.8304L0.666563 20.1715L0.791719 20.0438L0.87375 20.1296L0.87375 19.8304L0.666563 19.8304ZM15.6366 20.1296L15.6366 19.8304L15.8452 19.8304L15.8452 20.1715L15.72 20.0438L15.6366 20.1296ZM1.20609 20.5573L0.791719 20.1296L0.334219 20.5573L0.791719 21.0704L1.20609 20.5573ZM15.72 20.1296L16.1789 20.5573L15.72 21.0704L15.3047 20.5573L15.72 20.1296ZM3.70219 22.6942L2.20547 22.6942L2.20547 20.6002L3.70219 20.6002L3.70219 22.6942ZM4.28438 22.6942L5.78109 22.6942L5.78109 20.6002L4.28438 20.6002L4.28438 22.6942ZM7.90125 22.6942L6.36328 22.6942L6.36328 20.6002L7.90125 20.6002L7.90125 22.6942ZM8.44312 22.6942L9.9825 22.6942L9.9825 20.6002L8.44312 20.6002L8.44312 22.6942ZM12.0614 22.6942L10.522 22.6942L10.522 20.6002L12.0614 20.6002L12.0614 22.6942ZM12.6427 22.6942L14.0981 22.6942L14.0981 20.6002L12.6427 20.6002L12.6427 22.6942ZM1.28953 38.1657L1.08187 38.1657L1.08187 23.6774L1.28953 23.6774L1.28953 38.1657ZM1.49719 38.1657L1.70484 38.1657L1.70484 23.6774L1.49719 23.6774L1.49719 38.1657ZM1.91391 38.1657L2.08031 38.1657L2.08031 23.6774L1.91391 23.6774L1.91391 38.1657ZM3.16031 24.5309L2.37094 24.5309L2.37094 23.6774L3.16031 23.6774L3.16031 24.5309ZM3.36891 24.5309L4.15922 24.5309L4.15922 23.6774L3.36891 23.6774L3.36891 24.5309ZM5.15766 24.5309L4.36688 24.5309L4.36688 23.6774L5.15766 23.6774L5.15766 24.5309ZM5.36484 24.5309L6.11344 24.5309L6.11344 23.6774L5.36484 23.6774L5.36484 24.5309ZM7.11234 24.5309L6.32156 24.5309L6.32156 23.6774L7.11234 23.6774L7.11234 24.5309ZM7.32047 24.5309L8.11125 24.5309L8.11125 23.6774L7.32047 23.6774L7.32047 24.5309ZM9.10781 24.5309L8.31891 24.5309L8.31891 23.6774L9.10781 23.6774L9.10781 24.5309ZM9.31594 24.5309L10.1072 24.5309L10.1072 23.6774L9.31594 23.6774L9.31594 24.5309ZM11.1042 24.5309L10.3144 24.5309L10.3144 23.6774L11.1042 23.6774L11.1042 24.5309ZM11.3128 24.5309L12.1022 24.5309L12.1022 23.6774L11.3128 23.6774L11.3128 24.5309ZM13.1006 24.5309L12.3098 24.5309L12.3098 23.6774L13.1006 23.6774L13.1006 24.5309ZM13.3088 24.5309L14.0981 24.5309L14.0981 23.6774L13.3088 23.6774L13.3088 24.5309ZM14.6808 38.1657L14.4323 38.1657L14.4323 23.6774L14.6808 23.6774L14.6808 38.1657ZM14.8481 38.1657L15.0553 38.1657L15.0553 23.6774L14.8481 23.6774L14.8481 38.1657ZM15.263 38.1657L15.4711 38.1657L15.4711 23.6774L15.263 23.6774L15.263 38.1657ZM2.45438 36.9258L2.45438 24.9577L14.0564 24.9577L14.0564 36.9258L2.45438 36.9258ZM2.62078 30.9425L2.62078 25.1297L8.27672 25.1297C5.15766 25.1297 2.62078 27.7367 2.62078 30.9425ZM8.27672 36.7547L2.62078 36.7547L2.62078 30.9425C2.62078 34.1468 5.15766 36.7547 8.27672 36.7547ZM13.8909 30.9425L13.8909 25.1297L8.27672 25.1297C11.355 25.1297 13.8909 27.7367 13.8909 30.9425ZM13.8909 30.9425L13.8909 36.7547L8.27672 36.7547C11.355 36.7547 13.8909 34.1468 13.8909 30.9425ZM8.27672 36.4556C5.32359 36.4556 2.91188 33.9767 2.91188 30.9425C2.91188 27.9501 5.32359 25.4727 8.27672 25.4727C11.1881 25.4727 13.5998 27.9501 13.5998 30.9425C13.5998 33.9767 11.1881 36.4556 8.27672 36.4556ZM3.16031 26.1129C3.16031 26.3263 3.32719 26.5397 3.5775 26.5397C3.82687 26.5397 3.99328 26.3263 3.99328 26.1129C3.99328 25.8566 3.82687 25.6866 3.5775 25.6866C3.32719 25.6866 3.16031 25.8566 3.16031 26.1129ZM13.0181 26.5397C12.7688 26.5397 12.6009 26.3263 12.6009 26.1129C12.6009 25.8566 12.7688 25.6866 13.0181 25.6866C13.2262 25.6866 13.4334 25.8566 13.4334 26.1129C13.4334 26.3263 13.2262 26.5397 13.0181 26.5397ZM8.1525 26.4963L7.86047 26.4963L7.81922 25.9423L8.1525 25.9423L8.1525 26.4963ZM8.36016 26.4963C8.48531 26.4963 8.65078 26.4963 8.77641 26.5397L8.85844 25.9423L8.36016 25.9423L8.36016 26.4963ZM7.23656 26.6254C7.36172 26.5825 7.48641 26.5825 7.61016 26.5397L7.56938 25.9843C7.40297 25.9843 7.23656 26.0271 7.11234 26.07L7.23656 26.6254ZM8.98359 26.5397C9.06656 26.5825 9.19078 26.5825 9.27422 26.6254L9.39937 26.07C9.31547 26.0271 9.19078 26.0271 9.06656 25.9843L8.98359 26.5397ZM8.89969 26.5397L8.85844 26.5397L8.94187 26.0271L8.89969 26.5397ZM7.02891 26.6673C6.94547 26.7107 6.86344 26.7531 6.73828 26.7531L6.52922 26.2405C6.65484 26.1972 6.77953 26.1553 6.90516 26.1129L7.02891 26.6673ZM7.02891 26.1129L6.98719 26.1129L7.11234 26.6254L7.02891 26.1129ZM9.52313 26.1129L9.48188 26.1129L9.39937 26.6254L9.52313 26.1129ZM9.85688 26.7974C9.73313 26.7531 9.60656 26.7107 9.48188 26.6673L9.64969 26.1129C9.77438 26.1553 9.94078 26.2405 10.065 26.2834L9.85688 26.7974ZM6.19688 27.0108C6.32109 26.9679 6.44578 26.926 6.57234 26.8398L6.36281 26.3263C6.19688 26.3696 6.03047 26.4539 5.90625 26.5397L6.19688 27.0108ZM6.65484 26.7974L6.44578 26.3263L6.61312 26.8398L6.65484 26.7974ZM10.065 26.8831C10.148 26.926 10.2309 26.9679 10.3144 27.0536L10.6055 26.5397C10.4803 26.4539 10.3978 26.411 10.2722 26.3696L10.065 26.8831ZM6.23859 27.1394C6.36281 27.0536 6.44578 27.0108 6.57234 26.926L6.61312 26.926L6.73828 26.8831C6.86344 26.8398 6.94547 26.7974 7.07062 26.7531L7.11234 26.7531L7.19578 26.7107L7.27781 26.7107C7.40297 26.6673 7.52812 26.6673 7.65234 26.6254L7.86047 26.6254L7.86047 26.5825L8.1525 26.5825L8.1525 28.3788C7.7775 28.4207 7.40297 28.5065 7.11234 28.6775L6.23859 27.1394ZM8.73422 26.6254C8.60906 26.5825 8.48531 26.5825 8.36016 26.5825L8.36016 28.3788C8.73422 28.4207 9.06656 28.5065 9.39937 28.6775L10.2722 27.1394C10.1897 27.0965 10.1072 27.0108 10.0237 27.0108L9.9825 26.9679C9.94078 26.9679 9.89859 26.926 9.85687 26.926L9.81609 26.926L9.81609 26.8831C9.69141 26.8398 9.56437 26.7974 9.44109 26.7531L9.39937 26.7531L9.27422 26.7107L9.23297 26.7107C9.15 26.6673 9.06656 26.6673 8.94187 26.6254L8.73422 26.6254ZM5.98828 27.1394C5.90625 27.2237 5.82234 27.267 5.73984 27.3099L5.40703 26.8398C5.53219 26.7974 5.61516 26.7107 5.73984 26.6254L5.98828 27.1394ZM10.8544 27.3957C10.7297 27.3099 10.6472 27.2237 10.5216 27.1394L10.8127 26.6673C10.9378 26.7531 11.063 26.8398 11.1881 26.926L10.8544 27.3957ZM5.36484 26.9679L5.36484 26.926L5.65594 27.3528L5.65594 27.3957L5.36484 26.9679ZM5.36484 27.6091C5.44875 27.5662 5.49047 27.5228 5.57391 27.4376L5.24156 27.0108C5.11641 27.0965 5.03297 27.1394 4.95047 27.2237C4.86563 27.2237 4.78219 27.2237 4.74094 27.3099L4.61672 27.3528L4.61672 27.5662C4.575 27.651 4.53375 27.6938 4.44984 27.7367L4.90734 28.1206C4.95047 28.0787 4.95047 28.0358 4.99172 27.993L5.07516 28.0787C5.03297 28.1206 5.03297 28.163 4.99172 28.163L4.99172 28.2064C4.86563 28.334 4.74094 28.5065 4.6575 28.6775L6.15563 29.5739C6.19688 29.532 6.23859 29.4463 6.27938 29.4034L6.36281 29.4887C6.03047 29.8731 5.86453 30.3866 5.86453 30.9425C5.86453 31.627 6.11344 32.2238 6.57234 32.6935C7.02891 33.1212 7.61016 33.4218 8.27672 33.4218C8.89969 33.4218 9.48188 33.1212 9.94078 32.6935C10.3561 32.2238 10.6472 31.627 10.6472 30.9425C10.6472 30.3437 10.3978 29.7454 10.065 29.3601L10.065 29.1467C10.148 29.2758 10.2722 29.4463 10.3561 29.5739L11.8528 28.6775C11.8116 28.5493 11.7281 28.4636 11.6456 28.334L11.6044 28.2921L11.6044 28.2492C11.4788 28.1206 11.355 27.993 11.2711 27.8639C11.145 27.7796 11.063 27.6938 10.9791 27.6091L10.9378 27.5662C10.7714 27.4376 10.6472 27.3528 10.4803 27.2237L10.4391 27.2237L9.60656 28.8056C9.77437 28.8904 9.89859 29.019 10.0238 29.1467L9.85687 29.1467C9.44109 28.7632 8.85844 28.5065 8.27672 28.5065C7.69359 28.5065 7.19578 28.6775 6.82125 29.019L6.73828 28.9338C6.77953 28.8904 6.86344 28.8485 6.94547 28.8056L6.07172 27.2237L6.03047 27.2237C5.90625 27.3099 5.82234 27.3957 5.69812 27.48L5.65594 27.5228L5.61516 27.5228C5.57391 27.5662 5.49047 27.651 5.44875 27.6938L5.36484 27.6091ZM11.2711 27.0536L10.9378 27.4376L10.9791 27.4376L11.2711 27.0536ZM11.2298 27.7367C11.1881 27.651 11.1042 27.5662 11.0208 27.5228L11.355 27.0536C11.4375 27.1394 11.5622 27.2237 11.6456 27.3099L11.2298 27.7367ZM8.02781 31.4121C8.11125 31.4121 8.19422 31.4536 8.27672 31.4536L8.36016 31.4536C8.60906 31.627 8.77641 31.797 8.85844 32.0962C8.87413 32.0962 8.88386 32.1024 8.8922 32.1077C8.90579 32.1164 8.91574 32.1227 8.94187 32.0962L8.98359 32.0962C8.98359 32.0533 9.02484 32.0104 9.06656 32.0104C9.06656 31.969 9.10781 31.969 9.19078 31.969C9.19078 31.969 9.23297 31.9261 9.23297 31.8828C9.23297 31.8399 9.23297 31.797 9.27422 31.797C9.27422 31.7541 9.27422 31.7122 9.35719 31.7122C9.39937 31.7122 9.39937 31.6694 9.39937 31.627C9.39937 31.5827 9.35719 31.5827 9.35719 31.5827C9.10781 31.4964 8.85844 31.3264 8.73422 31.1125C8.73422 31.0701 8.77641 31.0268 8.77641 30.9425C8.77641 30.8562 8.73422 30.7705 8.6925 30.6857L9.19078 30.1732L9.23297 30.2161C9.27422 30.2594 9.39937 30.2594 9.48187 30.2161C9.56437 30.1303 9.56437 29.916 9.56437 29.7026L9.69141 29.5739L9.85687 29.5739L9.85687 29.3177L9.56437 29.3177L9.56437 29.532L9.48187 29.6168C9.27422 29.6168 9.06656 29.6597 8.98359 29.7454C8.89969 29.7869 8.89969 29.916 8.98359 29.9588C8.98359 30.0027 9.02484 30.0455 9.06656 30.0455L8.56781 30.5152C8.48531 30.4723 8.36016 30.4299 8.27672 30.4299C8.19422 30.4299 8.11125 30.4299 8.06766 30.4723L4.90734 27.4376C4.90734 27.3957 4.86562 27.3957 4.86562 27.4376L4.78219 27.4376L4.78219 27.5228L7.7775 30.8134L7.7775 30.9425C7.7775 31.0268 7.7775 31.1554 7.86047 31.1987L7.52812 31.4964C7.40297 31.4964 7.27781 31.5398 7.19578 31.627C7.11234 31.7122 7.11234 31.797 7.19578 31.8399C7.32 31.969 7.32 31.969 7.40297 32.0962C7.48641 32.139 7.56937 32.139 7.61016 32.0962C7.69359 32.0104 7.69359 31.8828 7.73531 31.7122L8.02781 31.4121ZM11.6456 27.4376L11.6869 27.4376L11.355 27.822L11.3133 27.7796L11.6456 27.4376ZM11.3972 27.8639C11.4787 27.993 11.5622 28.0787 11.6456 28.163L12.1022 27.8639L12.1022 27.822C12.0197 27.7367 11.895 27.6091 11.8116 27.48L11.3972 27.8639ZM4.86562 28.2064L4.82438 28.2064L4.44984 27.8639L4.86562 28.163L4.86562 28.2064ZM4.575 28.6346C4.61672 28.5065 4.69922 28.3788 4.78219 28.2921L4.36688 27.9501L4.32609 27.9501C4.24266 28.0358 4.15922 28.2064 4.07625 28.334L4.32609 28.4636L4.575 28.6346ZM11.7281 28.2921L12.1434 27.9501L11.7281 28.2492L11.7281 28.2921ZM11.9362 28.6346C11.895 28.5493 11.8528 28.4636 11.8116 28.3788L12.2273 28.0358C12.3103 28.1206 12.3933 28.2492 12.4345 28.334L11.9362 28.6346ZM4.44984 28.8056C4.40812 28.8904 4.36688 28.9766 4.32609 29.1043L3.78516 28.8485C3.82687 28.7632 3.91031 28.6346 3.95156 28.5493L4.44984 28.8056ZM12.0614 28.8056C12.1434 28.9337 12.1852 29.0624 12.2273 29.1895L12.7688 28.9766C12.6848 28.8485 12.6427 28.6775 12.5597 28.5493L12.5184 28.5493L12.0614 28.8056ZM4.07625 30.4299C4.03453 30.5571 4.03453 30.7291 4.03453 30.8562L5.78109 30.8562C5.78109 30.4723 5.90625 30.1303 6.07172 29.7869L4.53375 28.8904C4.49156 28.9766 4.44984 29.0624 4.40812 29.1467C4.40812 29.1895 4.36687 29.1895 4.36687 29.2329L4.36687 29.2758L4.32609 29.3601C4.28437 29.4463 4.24266 29.5739 4.20047 29.7026L4.20047 29.7454C4.15922 29.7869 4.15922 29.8297 4.15922 29.916C4.1175 30.0027 4.1175 30.1303 4.07625 30.2161L4.07625 30.4299ZM11.978 28.8904C12.0614 29.019 12.1022 29.1467 12.1434 29.2758L12.1852 29.3177C12.1852 29.3601 12.1852 29.4034 12.2273 29.4034L12.2273 29.4463C12.2691 29.5739 12.3103 29.7454 12.3525 29.916C12.4345 30.2161 12.4762 30.5152 12.4762 30.8562L10.7297 30.8562C10.7297 30.4723 10.6055 30.0874 10.4803 29.7869L11.978 28.8904ZM4.07625 29.7026C4.1175 29.5739 4.15922 29.4463 4.20047 29.3177L3.70219 29.0624C3.66141 29.2329 3.5775 29.3601 3.53578 29.532L3.5775 29.532L4.07625 29.7026ZM12.2691 29.2758L12.7266 29.0624L12.7266 29.1043L12.2691 29.2758ZM12.3103 29.4034C12.3525 29.4887 12.3933 29.5739 12.4345 29.7026L12.9352 29.532C12.9352 29.4034 12.893 29.3177 12.8517 29.1895L12.3103 29.4034ZM3.95156 30.2161C3.99328 30.0874 3.99328 30.0027 4.03453 29.916L3.49453 29.7869L3.49453 29.7454C3.45281 29.8731 3.45281 30.0027 3.41156 30.1303L3.95156 30.2161ZM12.5597 30.3023C12.5184 30.1732 12.5184 30.0455 12.4762 29.916L13.0181 29.7869L13.0181 29.7454C13.0594 29.916 13.1006 30.0874 13.1006 30.2594L12.5597 30.3023ZM3.45281 30.2594L3.45281 30.2161L3.95156 30.3023L3.45281 30.2594ZM12.5597 30.3866L12.5597 30.4299L13.0594 30.3866L13.0594 30.3437L12.5597 30.3866ZM3.91031 30.8134C3.91031 30.6857 3.91031 30.5571 3.95156 30.4299L3.41156 30.3437C3.36937 30.5152 3.36937 30.6433 3.36937 30.8134L3.91031 30.8134ZM12.6009 30.8134C12.6009 30.7291 12.6009 30.6433 12.5597 30.5571L13.1423 30.4723L13.1423 30.8134L12.6009 30.8134ZM3.91031 31.0701C3.91031 31.1554 3.91031 31.2835 3.95156 31.3693L3.36937 31.4121L3.36937 31.0701L3.91031 31.0701ZM4.53375 33.0355C4.44984 32.9069 4.40812 32.7792 4.36687 32.6092L4.32609 32.6092C4.28437 32.4801 4.24266 32.31 4.20047 32.1819C4.15922 32.0962 4.15922 32.0533 4.15922 31.969C4.07625 31.6694 4.03453 31.3693 4.03453 31.0701L5.78109 31.0701C5.78109 31.4536 5.90625 31.797 6.07172 32.139L4.53375 33.0355ZM12.4345 31.4536C12.4762 31.3264 12.4762 31.1987 12.4762 31.0701L10.7297 31.0701C10.6884 31.4536 10.6055 31.797 10.4391 32.139L11.978 33.0355C12.1434 32.6935 12.2691 32.3524 12.3525 31.969C12.3933 31.797 12.4345 31.627 12.4345 31.4536ZM12.6009 31.0701C12.6009 31.1987 12.6009 31.3264 12.5597 31.4536L13.1006 31.5398C13.1423 31.3693 13.1423 31.2406 13.1423 31.0701L12.6009 31.0701ZM4.03453 32.0104C3.99328 31.8828 3.99328 31.7122 3.95156 31.5827L3.41156 31.6694C3.41156 31.8399 3.45281 31.969 3.49453 32.139L4.03453 32.0104ZM12.5597 31.5827L13.0594 31.6694L13.0181 31.6694L12.5597 31.5827ZM12.5184 31.7122C12.5184 31.797 12.4762 31.9261 12.4762 32.0104L13.0181 32.139C13.0594 32.0104 13.0594 31.8828 13.1006 31.797L12.5184 31.7122ZM4.20047 32.4801C4.15922 32.3958 4.1175 32.31 4.07625 32.2238L3.5775 32.3524L3.53578 32.3524L3.66141 32.7368L3.66141 32.6935L4.20047 32.4801ZM12.2691 32.6092C12.3103 32.4801 12.3933 32.3524 12.3933 32.2238L12.9352 32.3524L12.9769 32.3524C12.893 32.523 12.8517 32.6935 12.8105 32.8221L12.2691 32.6092ZM5.69812 34.4459C5.82234 34.5317 5.9475 34.6169 6.03047 34.6593L6.94547 33.1212C6.77953 32.9931 6.65484 32.8654 6.52922 32.7368C6.36281 32.6092 6.27938 32.4801 6.15563 32.31L4.61672 33.2075L4.6575 33.2075C4.69922 33.2937 4.74094 33.3789 4.78219 33.4637L4.82438 33.5066L4.90734 33.6352C4.99172 33.7629 5.07516 33.8486 5.15766 33.9334L5.24156 33.9767L5.32359 34.062L5.36484 34.1049L5.32359 34.1049C5.40703 34.1897 5.49047 34.2325 5.53219 34.3183L5.57391 34.3183L5.57391 34.3602L5.69812 34.4026L5.73984 34.4459L5.69812 34.4459ZM11.8528 33.2075C11.8116 33.3361 11.7281 33.4637 11.6456 33.5928L11.5622 33.6771L11.5205 33.72C11.4375 33.8057 11.3972 33.892 11.355 33.9334L11.2711 33.9767L11.2298 34.062L11.145 34.1049L11.1881 34.1049C11.063 34.1897 10.9791 34.2759 10.8961 34.3602L10.8544 34.3602L10.8544 34.4026L10.8127 34.4459C10.6884 34.5317 10.6055 34.575 10.4803 34.6593L9.60656 33.0788C9.73312 32.9931 9.89859 32.8654 10.0238 32.7368C10.148 32.6092 10.2722 32.4801 10.3561 32.31L11.8528 33.2075ZM4.24266 32.6092L3.78516 32.8221L3.78516 32.7792L4.24266 32.6092ZM4.44984 33.0788C4.36688 32.9502 4.32609 32.8221 4.28438 32.6935L3.78516 32.9069L3.74297 32.9502C3.82687 33.0788 3.86859 33.2503 3.95156 33.3789L4.44984 33.0788ZM12.1852 32.8221C12.1434 32.9069 12.1022 32.9931 12.0614 33.0788L12.5184 33.3789L12.5597 33.3789C12.6009 33.2503 12.6427 33.1631 12.7266 33.0355L12.1852 32.8221ZM8.1525 35.3019C8.02781 35.3019 7.90125 35.3019 7.7775 35.259L7.56938 35.259C7.44469 35.2162 7.36172 35.2162 7.27781 35.1733C7.07062 35.13 6.86344 35.0457 6.65484 34.9599L6.61312 34.9599C6.48938 34.917 6.36281 34.8323 6.23859 34.7894L7.11234 33.2075C7.44469 33.3789 7.7775 33.4637 8.1525 33.5066L8.1525 35.3019ZM9.94078 34.9599C10.065 34.917 10.1897 34.8323 10.2722 34.7894L9.39937 33.2075C9.06656 33.3789 8.73422 33.4637 8.36016 33.5066L8.36016 35.3019C8.48531 35.3019 8.56781 35.3019 8.6925 35.259L8.77641 35.259C8.94187 35.259 9.06656 35.2162 9.23297 35.1733L9.27422 35.1733C9.31547 35.1733 9.39937 35.13 9.44109 35.13L9.48187 35.13C9.56437 35.088 9.64969 35.0457 9.73312 35.0457L9.81609 35.0028L9.85687 34.9599L9.94078 34.917L9.94078 34.9599ZM11.7281 33.5928C11.8116 33.5066 11.895 33.3789 11.9362 33.2503L12.4345 33.5495C12.3525 33.72 12.2691 33.8486 12.1852 33.9767L12.1434 33.9767L11.7281 33.5928ZM4.575 33.2937C4.61672 33.3789 4.6575 33.4637 4.74094 33.5066L4.24266 33.8486C4.20047 33.7629 4.1175 33.6771 4.07625 33.5495L4.575 33.2937ZM5.11641 34.0191C5.03297 33.892 4.95047 33.8057 4.86562 33.6771L4.40812 34.062C4.49156 34.1897 4.61672 34.3183 4.69922 34.4459L4.74094 34.4459L5.11641 34.0191ZM11.5622 33.8057C11.5205 33.8486 11.4788 33.9334 11.3972 34.0191L11.8116 34.4026C11.895 34.3183 11.978 34.2325 12.0197 34.1468L11.5622 33.8057ZM4.86563 34.4888L4.82438 34.4459L5.15766 34.1049L5.19938 34.1049L4.86563 34.4888ZM11.6456 34.4888L11.6869 34.4459L11.355 34.1049L11.3133 34.1049L11.6456 34.4888ZM5.28328 34.1897C5.36484 34.2325 5.40703 34.3183 5.49047 34.3602L5.15766 34.8323L5.11641 34.8323C5.03297 34.7451 4.95047 34.6593 4.86562 34.575L5.28328 34.1897ZM10.9378 34.4459C11.063 34.3602 11.145 34.2759 11.2298 34.1897L11.6456 34.575C11.5205 34.7022 11.3972 34.8323 11.2711 34.917L10.9378 34.4459ZM5.24156 34.8751L5.24156 34.8323L5.57391 34.4459L5.24156 34.8751ZM5.98828 34.7451C5.86453 34.6593 5.78109 34.6169 5.65594 34.5317L5.32359 34.9599C5.44875 35.088 5.57391 35.1733 5.69812 35.259L5.73984 35.259L5.98828 34.7451ZM10.5216 34.7451C10.6055 34.7022 10.6884 34.6593 10.7714 34.575L11.1042 35.0457C11.0208 35.13 10.8961 35.1733 10.8127 35.259L10.5216 34.7451ZM6.19688 34.8751C6.27938 34.917 6.36281 34.9599 6.44578 35.0028L6.23859 35.5153C6.11344 35.4724 5.98828 35.4291 5.90625 35.3448L6.19688 34.8751ZM10.3144 34.8751C10.2309 34.917 10.1072 35.0028 9.9825 35.0457L10.1897 35.5582L10.1897 35.6001C10.3144 35.5153 10.4803 35.4291 10.6055 35.3867L10.6055 35.3448L10.3144 34.8751ZM6.32109 35.5153L6.36281 35.5582L6.52922 35.0457L6.32109 35.5153ZM7.02891 35.2162C6.90516 35.1733 6.77953 35.13 6.65484 35.088L6.44578 35.643C6.57234 35.6858 6.73828 35.7282 6.90516 35.7716L7.02891 35.2162ZM9.85688 35.088L9.89859 35.088L10.065 35.5582L9.85688 35.088ZM9.77437 35.13C9.64969 35.1733 9.56437 35.2162 9.48188 35.2162L9.64969 35.7716C9.77437 35.7716 9.85688 35.7282 9.9825 35.6858L9.9825 35.643L9.77437 35.13ZM3.5775 36.1126C3.32719 36.1126 3.16031 35.9426 3.16031 35.643C3.16031 35.4291 3.32719 35.259 3.5775 35.259C3.82687 35.259 3.99328 35.4291 3.99328 35.643C3.99328 35.9426 3.82687 36.1126 3.5775 36.1126ZM7.11234 35.259L7.02891 35.7282L6.98719 35.7282L7.11234 35.259ZM9.39937 35.259L9.52313 35.7282L9.48188 35.7282L9.39937 35.259ZM12.6009 35.643C12.6009 35.9426 12.7688 36.1126 13.0181 36.1126C13.2262 36.1126 13.4334 35.9426 13.4334 35.643C13.4334 35.4291 13.2262 35.259 13.0181 35.259C12.7688 35.259 12.6009 35.4291 12.6009 35.643ZM7.52812 35.3448C7.44469 35.3448 7.32 35.3019 7.23656 35.3019L7.11234 35.8564C7.19578 35.8564 7.32 35.8992 7.44469 35.8992L7.52812 35.3448ZM9.27422 35.3019C9.15 35.3448 9.02484 35.3448 8.89969 35.3867L8.94188 35.9426C9.10781 35.8992 9.27422 35.8992 9.39937 35.8564L9.27422 35.3019ZM7.61016 35.3867L7.65234 35.3867L7.56938 35.8564L7.61016 35.3867ZM8.1525 35.4291C8.02781 35.4291 7.86047 35.3867 7.73531 35.3867L7.65234 35.9426C7.81922 35.985 7.98469 35.985 8.1525 35.985L8.1525 35.4291ZM8.36016 35.4291C8.44313 35.4291 8.56781 35.4291 8.65078 35.3867L8.73422 35.9426L8.73422 35.985L8.36016 35.985L8.36016 35.4291ZM3.16031 38.2509L2.37094 38.2509L2.37094 37.4383L3.16031 37.4383L3.16031 38.2509ZM3.36891 38.2509L4.15922 38.2509L4.15922 37.4383L3.36891 37.4383L3.36891 38.2509ZM5.15766 38.2509L4.36688 38.2509L4.36688 37.4383L5.15766 37.4383L5.15766 38.2509ZM5.36484 38.2509L6.11344 38.2509L6.11344 37.4383L5.36484 37.4383L5.36484 38.2509ZM7.11234 38.2509L6.32156 38.2509L6.32156 37.4383L7.11234 37.4383L7.11234 38.2509ZM7.32047 38.2509L8.11125 38.2509L8.11125 37.4383L7.32047 37.4383L7.32047 38.2509ZM9.10781 38.2509L8.31891 38.2509L8.31891 37.4383L9.10781 37.4383L9.10781 38.2509ZM9.31594 38.2509L10.1072 38.2509L10.1072 37.4383L9.31594 37.4383L9.31594 38.2509ZM11.1042 38.2509L10.3144 38.2509L10.3144 37.4383L11.1042 37.4383L11.1042 38.2509ZM11.3128 38.2509L12.1022 38.2509L12.1022 37.4383L11.3128 37.4383L11.3128 38.2509ZM13.1006 38.2509L12.3098 38.2509L12.3098 37.4383L13.1006 37.4383L13.1006 38.2509ZM13.3088 38.2509L14.0981 38.2509L14.0981 37.4383L13.3088 37.4383L13.3088 38.2509ZM15.097 59.5766L15.097 39.5761L1.41469 39.5761L1.41469 59.5766L15.097 59.5766ZM1.91391 48.9338L2.57859 48.9338L2.57859 39.9595L1.91391 39.9595L1.91391 48.9338ZM3.78516 48.9338L3.11906 48.9338L3.11906 39.9595L3.78516 39.9595L3.78516 48.9338ZM4.32609 48.9338L4.99172 48.9338L4.99172 39.9595L4.32609 39.9595L4.32609 48.9338ZM6.19688 39.9595L6.19688 48.9338L5.53219 48.9338L5.53219 39.9595L6.19688 39.9595ZM6.73828 48.9338L7.40297 48.9338L7.40297 39.9595L6.73828 39.9595L6.73828 48.9338ZM8.60953 39.9595L8.60953 48.9338L7.90125 48.9338L7.90125 39.9595L8.60953 39.9595ZM9.77437 48.9338L9.77437 39.9595L9.10781 39.9595L9.10781 48.9338L9.77437 48.9338ZM10.9791 48.9338L10.3144 48.9338L10.3144 39.9595L10.9791 39.9595L10.9791 48.9338ZM12.1852 48.9338L12.1852 39.9595L11.5205 39.9595L11.5205 48.9338L12.1852 48.9338ZM13.3917 48.9338L12.7266 48.9338L12.7266 39.9595L13.3917 39.9595L13.3917 48.9338ZM14.5988 48.9338L13.9327 48.9338L13.9327 39.9595L14.5988 39.9595L14.5988 48.9338ZM2.57859 59.1922L1.91391 59.1922L1.91391 49.4477L2.57859 49.4477L2.57859 59.1922ZM3.11906 59.1922L3.78516 59.1922L3.78516 49.4477L3.11906 49.4477L3.11906 59.1922ZM4.99172 59.1922L4.32609 59.1922L4.32609 49.4477L4.99172 49.4477L4.99172 59.1922ZM5.53219 59.1922L6.19688 59.1922L6.19688 49.4477L5.53219 49.4477L5.53219 59.1922ZM7.40297 59.1922L6.73828 59.1922L6.73828 49.4477L7.40297 49.4477L7.40297 59.1922ZM7.90125 59.1922L8.60953 59.1922L8.60953 49.4477L7.90125 49.4477L7.90125 59.1922ZM9.77437 59.1922L9.10781 59.1922L9.10781 49.4477L9.77437 49.4477L9.77437 59.1922ZM10.3144 59.1922L10.9791 59.1922L10.9791 49.4477L10.3144 49.4477L10.3144 59.1922ZM12.1852 59.1922L11.5205 59.1922L11.5205 49.4477L12.1852 49.4477L12.1852 59.1922ZM12.7266 59.1922L13.3917 59.1922L13.3917 49.4477L12.7266 49.4477L12.7266 59.1922ZM13.9327 59.1922L14.5988 59.1922L14.5988 49.4477L13.9327 49.4477L13.9327 59.1922ZM14.5148 70.1327L14.5148 79.3637L15.0553 79.3637L15.0553 60.2597L1.33125 60.2597L1.33125 79.3637L1.87219 79.3637L1.87219 70.1327L2.53688 70.1327L2.53688 79.3637L3.07781 79.3637L3.07781 70.1327L3.74297 70.1327L3.74297 79.3637L4.28438 79.3637L4.28438 70.1327L4.95047 70.1327L4.95047 79.3637L5.44875 79.3637L5.44875 70.1327L6.15563 70.1327L6.15563 79.3637L6.65484 79.3637L6.65484 70.1327L7.32 70.1327L7.32 79.3637L7.86047 79.3637L7.86047 70.1327L8.52656 70.1327L8.52656 79.3637L9.06656 79.3637L9.06656 70.1327L9.73312 70.1327L9.73312 79.3637L10.2722 79.3637L10.2722 70.1327L10.9378 70.1327L10.9378 79.3637L11.4788 79.3637L11.4788 70.1327L12.1434 70.1327L12.1434 79.3637L12.6427 79.3637L12.6427 70.1327L13.35 70.1327L13.35 79.3637L13.8492 79.3637L13.8492 70.1327L14.5148 70.1327ZM2.53688 69.6192L1.87219 69.6192L1.87219 60.6879L2.53688 60.6879L2.53688 69.6192ZM3.07781 69.6192L3.74344 69.6192L3.74344 60.6879L3.07781 60.6879L3.07781 69.6192ZM4.95047 69.6192L4.28438 69.6192L4.28438 60.6879L4.95047 60.6879L4.95047 69.6192ZM5.44875 69.6192L6.15562 69.6192L6.15562 60.6879L5.44875 60.6879L5.44875 69.6192ZM7.32 69.6192L6.65484 69.6192L6.65484 60.6879L7.32 60.6879L7.32 69.6192ZM7.86047 69.6192L8.52656 69.6192L8.52656 60.6879L7.86047 60.6879L7.86047 69.6192ZM9.73312 69.6192L9.06656 69.6192L9.06656 60.6879L9.73312 60.6879L9.73312 69.6192ZM10.2722 69.6192L10.9378 69.6192L10.9378 60.6879L10.2722 60.6879L10.2722 69.6192ZM12.1434 69.6192L11.4788 69.6192L11.4788 60.6879L12.1434 60.6879L12.1434 69.6192ZM12.6427 69.6192L13.35 69.6192L13.35 60.6879L12.6427 60.6879L12.6427 69.6192ZM13.8492 69.6192L14.5148 69.6192L14.5148 60.6879L13.8492 60.6879L13.8492 69.6192ZM0 90.0046L16.0955 90.0046L16.0955 80.1339L0 80.1339L0 90.0046Z" fill-rule="evenodd"/>
	</g>
	<defs>
		<clipPath id="clip_1">
			<rect y="0.30102539" width="375" height="236.69893" clip-rule="evenodd"/>
		</clipPath>
	</defs>
	<g clip-path="url(#clip_1)">
		<path fill="rgb(66,190,183)" stroke="none" transform="translate(307.792 159.176)" d="M22.5417 0L18.382 3.59065L26.9494 3.59065L22.5417 0ZM26.1178 8.50502L19.2563 8.50502L19.2563 3.71878L26.1178 3.71878L26.1178 8.50502ZM21.9183 5.55649L23.3316 5.55649L23.3316 4.14509L21.9183 4.14509L21.9183 5.55649ZM16.2614 12.5229L28.6959 12.5229L28.6959 8.80416L16.2614 8.80416L16.2614 12.5229ZM24.2466 9.91643L26.3667 9.91643L26.3667 9.44435L24.2466 9.44435L24.2466 9.91643ZM21.5428 10.428L19.4222 10.428L19.4222 9.95834L21.5428 9.95834L21.5428 10.428ZM23.04 11.4974L20.9198 11.4974L20.9198 11.0263L23.04 11.0263L23.04 11.4974ZM52.1109 26.1986L52.1109 27.1384L51.3211 26.7545L51.3211 22.8228L49.5731 21.9668L49.5731 25.9423L48.7833 25.5146L48.7833 21.5829L47.0794 20.7269L47.0794 24.7029L46.2459 24.2756L46.2459 20.343L44.5828 19.4894L44.5828 23.463L43.7517 23.0362L43.7517 19.1035L42.045 18.2924L42.045 22.1802L41.2561 21.7963L41.2561 17.8656L39.5091 17.0096L39.5091 20.9413L38.7192 20.5569L38.7192 16.6256L37.0134 15.7701L37.0134 19.7028L36.2241 19.3165L36.2241 15.3862L34.4775 14.5302L34.4775 18.4629L33.6867 18.0794L33.6867 14.1463L31.9819 13.2927L31.9819 17.2234L31.1508 16.839L31.1508 12.9064L29.4858 12.0528L29.4858 15.983L29.2781 15.8988L29.2781 29.1481L48.9502 38.8487L48.9502 32.6949L53.3583 32.6949L53.3583 26.1986L52.1109 26.1986ZM52.1109 26.1986L53.8158 24.7029L53.8158 24.1032L52.1109 23.2491L52.1109 26.1986ZM28.6964 18.8049L16.2619 18.8049L16.2619 13.1207L28.6964 13.1207L28.6964 18.8049ZM20.3381 14.9594L20.3381 17.5655L18.3403 17.5655L18.3403 14.9594C18.3403 14.4873 18.7575 14.1034 19.3392 14.1034C19.8787 14.1034 20.3381 14.4873 20.3381 14.9594ZM23.5406 17.5655L23.5406 14.9594C23.5406 14.4873 23.0812 14.1034 22.5417 14.1034C21.96 14.1034 21.5428 14.4873 21.5428 14.9594L21.5428 17.5655L23.5406 17.5655ZM26.7009 14.9594L26.7009 17.5655L24.7031 17.5655L24.7031 14.9594C24.7031 14.4873 25.2038 14.1034 25.702 14.1034C26.2838 14.1034 26.7009 14.4873 26.7009 14.9594ZM16.2619 29.916L28.6964 29.916L28.6964 19.7028L16.2619 19.7028L16.2619 29.916ZM52.4016 26.1129L58.2656 21.0275L64.5455 26.1129L52.4016 26.1129ZM25.5773 22.9933L23.4567 22.9933L23.4567 22.5651L25.5773 22.5651L25.5773 22.9933ZM20.8359 23.0791L22.9566 23.0791L22.9566 22.6523L20.8359 22.6523L20.8359 23.0791ZM24.4538 23.6764L22.3341 23.6764L22.3341 23.2067L24.4538 23.2067L24.4538 23.6764ZM23.2059 24.49L21.0858 24.49L21.0858 24.0184L23.2059 24.0184L23.2059 24.49ZM23.5819 24.49L25.702 24.49L25.702 24.0184L23.5819 24.0184L23.5819 24.49ZM63.2142 26.4554L63.2142 33.2503L66.9169 33.2503L66.9169 38.0371L49.4902 38.0371L49.4902 33.2503L53.6906 33.2503L53.6906 26.4554L63.2142 26.4554ZM59.348 28.7623L57.3919 28.7623L57.3919 26.7545L59.348 26.7545L59.348 28.7623ZM27.5733 27.5662L25.4527 27.5662L25.4527 27.0956L27.5733 27.0956L27.5733 27.5662ZM17.385 27.6524L19.5056 27.6524L19.5056 27.2242L17.385 27.2242L17.385 27.6524ZM3.45328 33.378L10.5637 27.2661L18.1748 33.378L3.45328 33.378ZM20.5453 28.2926L18.4242 28.2926L18.4242 27.8225L20.5453 27.8225L20.5453 28.2926ZM19.4644 28.8475L21.5433 28.8475L21.5433 28.3779L19.4644 28.3779L19.4644 28.8475ZM5.03297 41.4548L16.5938 41.4548L16.5938 33.72L5.03297 33.72L5.03297 41.4548ZM11.895 36.6266L9.525 36.6266L9.525 34.1906L11.895 34.1906L11.895 36.6266ZM63.5878 34.7879L60.6366 34.7879L60.6366 34.1911L63.5878 34.1911L63.5878 34.7879ZM53.8575 35.5153L56.8097 35.5153L56.8097 34.917L53.8575 34.917L53.8575 35.5153ZM55.9777 37.0115L58.9308 37.0115L58.9308 36.3703L55.9777 36.3703L55.9777 37.0115ZM49.4902 38.8911L66.9169 38.8911L66.9169 47.2675L49.4902 47.2675L49.4902 38.8911ZM21.5845 53.9782L22.1672 53.6791L22.1672 58.2519L23.1234 57.8246L23.1234 53.2518L25.1203 52.2686L25.1203 56.8415L26.0344 56.3723L26.0344 51.7994L28.0308 50.8158L28.0308 55.3886L28.9875 54.9185L28.9875 50.3456L30.9839 49.362L30.9839 53.9348L31.8989 53.4657L31.8989 48.8923L33.8948 47.9092L33.8948 52.482L34.852 52.0552L34.852 47.4395L36.8475 46.4559L36.8475 51.0287L37.7634 50.6019L37.7634 46.0291L39.7589 45.0035L39.7589 49.5754L40.7156 49.1491L40.7156 44.5757L42.6698 43.5935L42.6698 48.1664L43.6266 47.6953L43.6266 43.1224L45.623 42.1402L45.623 46.7131L46.537 46.2425L46.537 41.6696L48.5344 40.6864L48.5344 45.2603L48.9502 45.0897L48.9502 60.474L21.5845 73.9801L21.5845 53.9782ZM55.147 45.5165L55.147 41.9268C55.147 41.2419 54.5231 40.6864 53.7328 40.6864C52.9842 40.6864 52.3594 41.2419 52.3594 41.9268L52.3594 45.5165L55.147 45.5165ZM59.6386 41.9268L59.6386 45.5165L56.8514 45.5165L56.8514 41.9268C56.8514 41.2419 57.4748 40.6864 58.2239 40.6864C58.9725 40.6864 59.6386 41.2419 59.6386 41.9268ZM64.1302 45.5165L64.1302 41.9268C64.1302 41.2419 63.4641 40.6864 62.7159 40.6864C61.9252 40.6864 61.343 41.2419 61.343 41.9268L61.343 45.5165L64.1302 45.5165ZM21.045 42.054L21.045 47.8658L0 47.8658L0 42.054L21.045 42.054ZM17.0508 43.9351L13.4747 43.9351L13.4747 43.1643L17.0508 43.1643L17.0508 43.9351ZM5.24109 44.8311L8.81766 44.8311L8.81766 44.0632L5.24109 44.0632L5.24109 44.8311ZM7.77656 46.6278L11.3545 46.6278L11.3545 45.8147L7.77656 45.8147L7.77656 46.6278ZM0 58.9783L21.045 58.9783L21.045 48.6361L0 48.6361L0 58.9783ZM49.4902 49.0629L66.9169 49.0629L66.9169 62.7819L49.4902 62.7819L49.4902 49.0629ZM6.77953 56.9262L6.77953 52.5249C6.77953 51.7132 6.03047 51.0287 5.11641 51.0287C4.15922 51.0287 3.41109 51.7132 3.41109 52.5249L3.41109 56.9262L6.77953 56.9262ZM12.2273 56.9262L12.2273 52.5249C12.2273 51.7132 11.4792 51.0287 10.522 51.0287C9.6075 51.0287 8.85891 51.7132 8.85891 52.5249L8.85891 56.9262L12.2273 56.9262ZM17.6756 52.5249L17.6756 56.9262L14.3077 56.9262L14.3077 52.5249C14.3077 51.7132 15.0141 51.0287 15.9708 51.0287C16.8853 51.0287 17.6756 51.7132 17.6756 52.5249ZM59.5139 53.1232L62.4666 53.1232L62.4666 52.482L59.5139 52.482L59.5139 53.1232ZM58.8473 53.2518L55.8942 53.2518L55.8942 52.6092L58.8473 52.6092L58.8473 53.2518ZM57.9755 54.1058L60.9694 54.1058L60.9694 53.4228L57.9755 53.4228L57.9755 54.1058ZM56.1862 55.2167L59.1816 55.2167L59.1816 54.5765L56.1862 54.5765L56.1862 55.2167ZM62.6742 55.2167L59.7211 55.2167L59.7211 54.5765L62.6742 54.5765L62.6742 55.2167ZM62.3419 59.4913L65.2936 59.4913L65.2936 58.8921L62.3419 58.8921L62.3419 59.4913ZM54.0234 59.7057L51.0703 59.7057L51.0703 59.0631L54.0234 59.0631L54.0234 59.7057ZM21.045 77.8246L0 77.8246L0 59.7057L21.045 59.7057L21.045 77.8246ZM52.4845 60.5159L55.4377 60.5159L55.4377 59.8757L52.4845 59.8757L52.4845 60.5159ZM56.8514 61.329L53.8983 61.329L53.8983 60.6879L56.8514 60.6879L56.8514 61.329ZM15.6797 66.1158L12.1027 66.1158L12.1027 65.3455L15.6797 65.3455L15.6797 66.1158ZM7.73531 66.2873L11.3133 66.2873L11.3133 65.517L7.73531 65.517L7.73531 66.2873ZM13.807 67.2685L10.2309 67.2685L10.2309 66.5002L13.807 66.5002L13.807 67.2685ZM11.6456 68.637L8.11078 68.637L8.11078 67.8677L11.6456 67.8677L11.6456 68.637ZM12.3103 68.637L15.8883 68.637L15.8883 67.8677L12.3103 67.8677L12.3103 68.637ZM15.4711 73.8515L19.0486 73.8515L19.0486 73.0808L15.4711 73.0808L15.4711 73.8515ZM1.87266 74.0644L5.44875 74.0644L5.44875 73.2518L1.87266 73.2518L1.87266 74.0644ZM7.15406 75.0471L3.5775 75.0471L3.5775 74.2783L7.15406 74.2783L7.15406 75.0471ZM5.28281 76.0308L8.85891 76.0308L8.85891 75.261L5.28281 75.261L5.28281 76.0308Z" fill-rule="evenodd"/>
	</g>
	<defs>
		<clipPath id="clip_2">
			<rect y="0.30102539" width="375" height="236.69893" clip-rule="evenodd"/>
		</clipPath>
	</defs>
	<g clip-path="url(#clip_2)">
		<path fill="rgb(66,190,183)" stroke="none" transform="translate(91.4102 153.235)" d="M24.8278 1.28182L41.7131 3.16241L41.8378 1.88107L24.953 0L24.8278 1.28182ZM39.5091 10.8977L40.2989 3.54777L26.1173 1.96585L25.3275 9.31574L39.5091 10.8977ZM29.6105 8.2054L29.8608 5.5984C29.9438 4.87199 29.4445 4.23084 28.7789 4.14461C28.1133 4.05983 27.4903 4.6162 27.4069 5.34213L27.157 7.94962L29.6105 8.2054ZM33.8114 8.71842L34.1025 6.11046C34.1442 5.34213 33.6872 4.70195 33.0211 4.65907C32.3142 4.52901 31.6903 5.08587 31.6486 5.81132L31.358 8.4188L33.8114 8.71842ZM38.303 6.58205L38.0119 9.18809L35.5584 8.88895L35.8486 6.28291C35.933 5.55553 36.5559 5.04299 37.2211 5.12826C37.8872 5.17113 38.3864 5.81132 38.303 6.58205ZM44.1253 11.838L20.6278 9.23096L20.5031 10.6843L43.9589 13.3341L44.1253 11.838ZM42.503 20.3001L43.1691 13.89L21.0853 11.4112L20.4202 17.8217L42.503 20.3001ZM23.3719 12.9507L22.9158 17.1801L21.4598 17.0091L21.9169 12.7782C21.9591 12.4362 22.2914 12.18 22.7072 12.2219C23.1234 12.2652 23.4141 12.5653 23.3719 12.9507ZM24.9108 17.3945L25.4105 13.1636C25.4105 12.8216 25.1198 12.4781 24.7448 12.4781C24.3295 12.3934 23.9963 12.6516 23.9133 12.9921L23.498 17.2234L24.9108 17.3945ZM27.4069 13.3765L26.9494 17.6078L25.4934 17.4807L25.9514 13.2484C25.9927 12.8645 26.3255 12.6516 26.7417 12.6935C27.157 12.7368 27.4486 13.0345 27.4069 13.3765ZM28.9875 17.8646L29.4445 13.6338C29.4445 13.2484 29.1534 12.9507 28.7789 12.9073C28.3631 12.8645 28.0303 13.1207 27.9886 13.4618L27.5316 17.6936L28.9875 17.8646ZM31.4409 13.8467L30.9834 18.0775L29.5275 17.9075L29.985 13.6752C30.0272 13.3341 30.3591 13.0774 30.7753 13.1636C31.1911 13.1636 31.4822 13.5047 31.4409 13.8467ZM33.0211 18.2914L33.4781 14.0601C33.4781 13.7176 33.1875 13.4199 32.8134 13.3341C32.3977 13.3341 32.0653 13.5475 32.0236 13.9319L31.5656 18.1637L33.0211 18.2914ZM35.4745 14.3178L35.0588 18.5477L33.562 18.3767L34.0603 14.1449C34.0603 13.8038 34.4353 13.5475 34.8094 13.5909C35.2261 13.6338 35.5584 13.9319 35.4745 14.3178ZM37.0552 18.7611L37.5127 14.5312C37.5548 14.1901 37.2633 13.8467 36.8475 13.8467C36.4313 13.7609 36.0989 14.0172 36.0567 14.3602L35.5992 18.591L37.0552 18.7611ZM39.5091 14.7441L39.0938 18.9764L37.6378 18.8468L38.0948 14.6174C38.0948 14.232 38.4694 14.0172 38.8434 14.0172C39.2597 14.1029 39.592 14.403 39.5091 14.7441ZM41.0888 19.2331L41.5472 15.0008C41.5884 14.6174 41.2969 14.3178 40.9228 14.2749C40.5066 14.232 40.133 14.4883 40.0913 14.7875L39.6338 19.0612L41.0888 19.2331ZM19.6716 18.3767L43.1273 21.027L43.0022 22.5237L19.5042 19.8733L19.6716 18.3767ZM42.2123 23.0776L41.5472 29.4463L19.4634 26.9674L20.1286 20.6002L42.2123 23.0776ZM22.3744 22.224L21.9169 26.4539L20.5031 26.2829L20.9184 22.0521C20.9602 21.7101 21.3352 21.4538 21.7092 21.4972C22.125 21.54 22.4161 21.8392 22.3744 22.224ZM23.955 26.6668L24.413 22.4374C24.4538 22.094 24.1627 21.7529 23.7469 21.7529C23.3311 21.6672 22.9987 21.9235 22.957 22.2669L22.4991 26.4973L23.955 26.6668ZM26.4084 22.6504L25.9514 26.8817L24.5377 26.7102L24.953 22.5237C25.0369 22.1393 25.3692 21.9235 25.785 21.9235C26.1595 22.0092 26.4497 22.3093 26.4084 22.6504ZM27.9886 27.1394L28.4461 22.9071C28.4883 22.5237 28.1972 22.224 27.7809 22.1812C27.3656 22.1393 27.0323 22.3946 26.9911 22.7366L26.5327 26.9674L27.9886 27.1394ZM30.4847 23.1205L29.985 27.3528L28.5713 27.1823L28.9875 22.9495C29.0705 22.6084 29.4028 22.3527 29.8191 22.4374C30.1931 22.4374 30.4847 22.7795 30.4847 23.1205ZM32.0236 27.5657L32.4806 23.3339C32.5219 22.9929 32.2312 22.6937 31.8145 22.6085C31.3992 22.6085 31.0664 22.8228 31.0247 23.2067L30.5677 27.3957L32.0236 27.5657ZM34.5187 23.5902L34.0603 27.8225L32.6053 27.6519L33.0628 23.3768C33.1045 23.0776 33.4369 22.8228 33.8531 22.8647C34.2272 22.9071 34.5187 23.2067 34.5187 23.5902ZM36.0989 28.0358L36.5142 23.7631C36.5559 23.463 36.2653 23.1205 35.8486 23.1205C35.4745 23.0357 35.1009 23.292 35.1009 23.633L34.6017 27.8653L36.0989 28.0358ZM38.5523 24.0194L38.0948 28.2488L36.6389 28.0787L37.0969 23.8908C37.1381 23.5059 37.4714 23.292 37.8872 23.292C38.2617 23.3768 38.5941 23.6759 38.5523 24.0194ZM40.133 28.4626L40.5483 24.2752C40.6317 23.8908 40.2989 23.5902 39.8836 23.5473C39.5091 23.5059 39.1345 23.7188 39.1345 24.0622L38.677 28.335L40.133 28.4626ZM42.1706 30.2156L18.7144 27.5657L18.5484 29.0624L42.0042 31.6684L42.1706 30.2156ZM40.5483 38.6353L41.2556 32.2667L19.1719 29.7883L18.465 36.1555L40.5483 38.6353ZM21.4181 31.4964L20.9602 35.6858L19.4634 35.5582L19.9209 31.3259C19.9627 30.942 20.3363 30.7291 20.7525 30.7719C21.1692 30.8134 21.4598 31.113 21.4181 31.4964ZM22.957 35.9421L23.4141 31.7113C23.4558 31.3693 23.1647 31.0268 22.7494 30.9849C22.3744 30.942 22.0003 31.1987 21.9591 31.5398L21.5428 35.7716L22.957 35.9421ZM25.4522 31.9256L24.9947 36.1555L23.5392 35.985L23.9963 31.7556C23.9963 31.4121 24.3708 31.1554 24.7866 31.2411C25.2028 31.283 25.4934 31.5822 25.4522 31.9256ZM26.9911 36.3689L27.4486 32.1819C27.4903 31.797 27.1988 31.4964 26.8247 31.455C26.4084 31.4121 26.0344 31.625 25.9927 32.0114L25.5769 36.2413L26.9911 36.3689ZM29.4858 32.3958L29.0287 36.6261L27.5733 36.4547L28.0303 32.2248C28.0716 31.8823 28.4053 31.625 28.8206 31.6684C29.2369 31.7113 29.5275 32.0533 29.4858 32.3958ZM31.0247 36.8395L31.5239 32.6087C31.5239 32.2667 31.2323 31.9256 30.8587 31.8823C30.443 31.8399 30.1097 32.0966 30.0272 32.4382L29.6105 36.6695L31.0247 36.8395ZM33.5198 32.8221L33.0628 37.0539L31.6069 36.9253L32.0653 32.6949C32.1066 32.3096 32.4389 32.0966 32.8552 32.139C33.2705 32.1819 33.562 32.4801 33.5198 32.8221ZM35.1009 37.3097L35.5584 33.0788C35.5584 32.6949 35.2669 32.3958 34.8923 32.3524C34.477 32.3096 34.1442 32.5658 34.1025 32.9078L33.645 37.1392L35.1009 37.3097ZM37.5548 33.2918L37.1381 37.5236L35.6414 37.3526L36.0989 33.1212C36.1406 32.7792 36.5142 32.523 36.8887 32.5658C37.3045 32.6087 37.5956 32.9497 37.5548 33.2918ZM39.1345 37.7374L39.592 33.5066C39.6338 33.1646 39.3009 32.865 38.9264 32.8221C38.5106 32.7792 38.1778 32.9926 38.1366 33.3361L37.6795 37.6088L39.1345 37.7374ZM17.7169 36.7124L41.2134 39.3613L41.0058 40.857L17.5505 38.2081L17.7169 36.7124ZM40.2577 41.4552L39.592 47.8239L17.5092 45.3446L18.1744 38.9764L40.2577 41.4552ZM20.4202 40.7284L19.9627 44.9611L18.5067 44.8315L18.9642 40.6012C19.0059 40.2158 19.3805 40.0029 19.755 40.0029C20.1286 40.0882 20.4619 40.3873 20.4202 40.7284ZM22.0003 45.2169L22.4161 40.9851C22.4991 40.6012 22.1672 40.302 21.7922 40.2587C21.3769 40.2158 21.0023 40.4721 20.9602 40.7717L20.5031 45.0454L22.0003 45.2169ZM24.4538 41.198L23.9963 45.4298L22.582 45.2588L22.9988 41.0275C23.0395 40.6855 23.4141 40.4292 23.7886 40.515C24.2039 40.515 24.4955 40.857 24.4538 41.198ZM26.0344 45.6437L26.4919 41.4138C26.5327 41.0708 26.2425 40.7717 25.8267 40.6855C25.4105 40.6855 25.0369 40.8989 25.0369 41.2842L24.5784 45.5151L26.0344 45.6437ZM28.4883 41.6696L28.0303 45.9L26.617 45.7285L27.0323 41.4552C27.0741 41.1551 27.4486 40.8989 27.8227 40.9422C28.2389 40.9851 28.53 41.2842 28.4883 41.6696ZM30.068 46.1143L30.5264 41.8825C30.5677 41.5415 30.2761 41.198 29.8608 41.1551C29.4445 41.1137 29.1122 41.3709 29.0705 41.712L28.613 45.9419L30.068 46.1143ZM32.5636 42.0974L32.0653 46.3277L30.6511 46.2006L31.0664 41.9688C31.1494 41.5844 31.4822 41.371 31.898 41.371C32.273 41.4552 32.5636 41.7549 32.5636 42.0974ZM34.1025 46.5845L34.56 42.3522C34.6017 41.9688 34.3097 41.6696 33.8944 41.6277C33.4781 41.5843 33.1458 41.8406 33.1045 42.1388L32.6466 46.4135L34.1025 46.5845ZM36.5977 42.567L36.0989 46.7974L34.6847 46.6269L35.1422 42.3951C35.1839 42.054 35.5163 41.7977 35.933 41.8406C36.3066 41.8825 36.5977 42.2245 36.5977 42.567ZM38.1778 47.0113L38.5941 42.7799C38.6353 42.4384 38.3447 42.1388 37.9284 42.054C37.5127 42.054 37.1798 42.2679 37.1381 42.6085L36.6811 46.8407L38.1778 47.0113ZM40.2159 48.5503L16.7602 45.9L16.5942 47.3952L40.0495 50.046L40.2159 48.5503ZM38.5941 57.012L39.3009 50.6005L17.2172 48.123L16.5525 54.5336L38.5941 57.012ZM19.4217 50.0036L19.0059 54.234L17.5092 54.0625L17.9662 49.875C18.008 49.4906 18.3408 49.2772 18.7561 49.2772C19.1719 49.363 19.4634 49.6611 19.4217 50.0036ZM21.0023 54.4907L21.4598 50.2594C21.5016 49.875 21.1692 49.5768 20.7942 49.534C20.4202 49.4906 20.0456 49.7469 20.0039 50.0879L19.5464 54.3202L21.0023 54.4907ZM23.4558 50.4733L23.0395 54.7036L21.5428 54.5336L22.0003 50.3013C22.042 49.9603 22.4161 49.7045 22.8323 49.7469C23.2059 49.7897 23.498 50.1308 23.4558 50.4733ZM25.0369 54.9175L25.4934 50.6867C25.5352 50.3447 25.2445 50.046 24.8278 49.9603C24.4538 49.9603 24.0792 50.1742 24.038 50.5581L23.5809 54.747L25.0369 54.9175ZM27.5316 50.9439L27.0741 55.1309L25.6181 55.0028L26.0344 50.7291C26.0766 50.3871 26.4497 50.1742 26.8664 50.217C27.2817 50.2594 27.5733 50.5581 27.5316 50.9439ZM29.0705 55.3872L29.5275 51.1144C29.5692 50.8139 29.2781 50.4733 28.8623 50.4299C28.4883 50.3871 28.1133 50.6438 28.0716 50.9868L27.6563 55.2167L29.0705 55.3872ZM31.5656 51.3707L31.1077 55.6006L29.6522 55.4301L30.1097 51.2007C30.1519 50.8572 30.4847 50.6438 30.9 50.6438C31.3162 50.7291 31.6069 51.0297 31.5656 51.3707ZM33.1045 55.8164L33.562 51.627C33.6033 51.2435 33.3122 50.9439 32.9381 50.9011C32.5219 50.8572 32.1483 51.0716 32.1066 51.4136L31.6903 55.6873L33.1045 55.8164ZM35.5992 51.7975L35.1422 56.0727L33.6872 55.9007L34.1442 51.6703C34.1855 51.3278 34.5187 51.0716 34.9341 51.1144C35.3498 51.1573 35.6414 51.4998 35.5992 51.7975ZM37.1381 56.2861L37.6378 52.0538C37.6378 51.7127 37.3458 51.4136 36.9722 51.3278C36.5559 51.2859 36.2236 51.5412 36.1819 51.8837L35.7244 56.1146L37.1381 56.2861ZM39.2175 57.7394L15.7627 55.089L15.5953 56.5423L39.0938 59.1922L39.2175 57.7394ZM36.8888 73.2956L38.303 59.79L16.2197 57.3121L14.5561 73.2084C14.9719 73.0808 15.4294 72.9522 15.8456 72.8674L17.1342 60.9437C17.2172 59.9186 18.2573 59.2355 19.3805 59.3627C20.5031 59.4909 21.3769 60.4302 21.2522 61.3714L20.1286 72.0557C20.5031 72.0124 20.8777 71.9709 21.2522 71.9281L22.3327 61.4991C22.4573 60.5169 23.4558 59.8324 24.6206 59.9605C25.7428 60.0891 26.5744 60.9866 26.4919 61.9688L25.4522 71.7147L25.5769 71.7147C25.868 71.7147 26.2003 71.7147 26.5327 71.7575L27.5733 62.0988C27.6563 61.1157 28.6959 60.4302 29.8191 60.5598C30.9417 60.6884 31.7733 61.5853 31.6903 62.5685L30.6923 72.0557C31.0664 72.0986 31.3992 72.1414 31.7733 72.1843L32.7713 62.6961C32.8552 61.6696 33.8531 60.9866 35.017 61.1157C36.1819 61.2857 37.0134 62.1417 36.9305 63.1229L35.8486 72.9955C36.2236 73.1241 36.5559 73.2084 36.8888 73.2956ZM25.5769 72.3977C37.0969 72.3977 47.0367 77.0987 51.0698 83.7651L0 83.7651C4.1175 77.0987 14.0152 72.3977 25.5769 72.3977Z" fill-rule="evenodd"/>
	</g>
	<defs>
		<clipPath id="clip_3">
			<rect y="0.30102539" width="375" height="236.69893" clip-rule="evenodd"/>
		</clipPath>
	</defs>
	<g clip-path="url(#clip_3)">
		<path fill="rgb(66,190,183)" stroke="none" transform="translate(261.089 215.974)" d="M0 19.7018L15.9295 19.5308L21.3769 19.6156C21.4598 19.9581 21.4598 20.7283 21.4598 20.7283L33.6042 20.8555C33.6042 20.8555 39.3014 21.1547 39.2606 20.9413L51.2367 20.8555C50.8209 18.7625 50.4891 18.8054 49.8642 18.6344L45.997 18.4624C45.9558 18.2052 45.6647 17.4797 45.5822 17.223C45.457 17.0096 45.4153 16.8386 45.3323 16.6666L45.2911 16.5389L45.165 16.3684L45.1219 16.3017L45.0816 16.2393C44.7905 15.3 44.2927 14.4454 43.6261 13.7624L43.5844 12.693L45.4153 12.6501C45.4153 12.6501 44.9156 7.17937 41.4642 7.05171C39.4683 6.83735 37.8881 8.71842 36.9722 10.2136C35.6414 9.06043 34.3106 7.86387 32.9803 6.66635L26.2842 13.0769C26.3667 12.9921 26.4914 12.864 26.5763 12.7792L15.9708 0L5.44875 12.9921L4.69969 13.89L4.20047 14.5307L3.41203 15.472L2.91187 16.1121L2.12203 17.0529L0 19.7018ZM41.9003 17.2444L38.2205 17.2658C39.4474 17.2658 40.6738 17.2551 41.9003 17.2444Z" fill-rule="evenodd"/>
	</g>
	<defs>
		<clipPath id="clip_4">
			<rect y="0.30102539" width="375" height="236.69893" clip-rule="evenodd"/>
		</clipPath>
	</defs>
	<g clip-path="url(#clip_4)">
		<path fill="rgb(66,190,183)" stroke="none" transform="translate(250.901 189.433)" d="M49.1142 18.2081L49.1142 16.9253L50.7788 16.9253L50.7788 15.985L42.7509 15.985L42.7509 12.2662L44.6241 12.2662L44.6241 10.8986C47.3259 10.5137 50.0302 10.0027 52.6505 9.40293L52.6505 6.28291C53.6888 6.06999 54.7289 5.85563 55.7278 5.59985L55.7278 3.03427C56.9325 2.82136 58.0978 2.56413 59.2627 2.3093L59.2627 0C39.757 3.24767 20.0039 3.46251 0 0L0 2.3093C1.16438 2.56413 2.36953 2.82136 3.53391 3.03427L3.53391 5.59985C4.57406 5.85563 5.61328 6.06999 6.61172 6.24004L6.61172 9.40293C9.31547 9.9593 12.0192 10.429 14.6381 10.8129L14.6381 12.2662L16.5511 12.2662L16.5511 15.985L8.48344 15.985L8.48344 16.9253L10.1878 16.9253L10.1878 18.2081L16.5511 18.2081L16.5511 25.0878L13.807 25.0878L15.6783 25.7709L15.6783 47.5667L19.9209 47.5667L19.9209 25.728L21.8334 25.0878L19.0467 25.0878L19.0467 18.2081L40.215 18.2081L40.215 25.0878L37.4292 25.0878L39.3834 25.7709L39.3834 47.5667L43.5839 47.5667L43.5839 25.728L45.4969 25.0878L42.7509 25.0878L42.7509 18.2081L49.1142 18.2081ZM20.9592 11.5403L20.9592 12.2662L19.0467 12.2662L19.0467 15.985L27.7392 15.985L27.7392 11.8823C25.493 11.8394 23.2477 11.7122 20.9592 11.5403ZM40.215 12.2662L38.303 12.2662L38.303 11.5831C36.0975 11.796 33.8109 11.8823 31.5647 11.9251L31.5647 15.985L40.215 15.985L40.215 12.2662Z" fill-rule="evenodd"/>
	</g>
	<defs>
		<clipPath id="clip_5">
			<rect y="0.30102539" width="375" height="236.69893" clip-rule="evenodd"/>
		</clipPath>
	</defs>
	<g clip-path="url(#clip_5)">
		<path fill="rgb(66,190,183)" stroke="none" transform="translate(32.7034 0.300781)" d="M171.429 15.0487C171.875 15.1913 172.136 15.2748 172.378 15.2373C172.811 15.1704 173.184 14.7171 174.447 13.5245C175.386 12.647 175.547 12.2874 175.813 12.174C175.978 12.1037 176.184 12.1282 176.641 12.1826C176.882 12.2114 177.194 12.2486 177.608 12.2846C178.702 12.3711 180.096 12.3372 181.426 12.3048C182.723 12.2732 183.96 12.243 184.801 12.3274C184.824 13.0359 184.109 15.0026 183.388 16.9864C182.761 18.7131 182.129 20.4528 181.974 21.3874L183.304 21.3874C183.381 21.3874 183.449 21.3882 183.509 21.3889C183.734 21.3916 183.856 21.3931 183.954 21.3464C184.1 21.2768 184.196 21.1004 184.51 20.6619C185.717 18.8661 189.543 13.182 190.416 12.2422C190.706 12.2349 191.078 12.2313 191.502 12.2272C193.569 12.2073 196.867 12.1755 197.903 11.6434C198.485 11.3019 199.4 10.6178 198.858 9.93382C197.711 8.57638 194.878 8.74215 192.473 8.88288C192.001 8.9105 191.546 8.93715 191.123 8.95114C190.084 8.95114 190.333 8.90875 189.667 8.05372C188.961 7.11391 184.053 0.232718 183.553 0.0188401C183.396 -0.0132011 182.55 0.00319523 182.038 0.0131109C181.873 0.0163135 181.743 0.0188401 181.682 0.0188401C181.849 0.788127 182.141 1.5579 182.431 2.32718L184.053 6.81429C184.344 7.49831 184.635 8.39525 184.843 9.07975C184.043 9.05096 183.242 9.06041 182.428 9.07001C182.017 9.07487 181.603 9.07975 181.184 9.07975C178.938 9.07975 177.739 9.24474 177 9.34638C176.489 9.4167 176.198 9.45669 175.934 9.39076C175.533 9.29078 175.193 8.94725 174.238 8.09659C173.996 7.87832 173.785 7.67066 173.592 7.48177C172.691 6.59766 172.209 6.12478 171.077 6.89955C172.742 9.84856 172.825 12.1993 171.203 14.9768C171.283 15.0021 171.359 15.0261 171.429 15.0487ZM170.661 11.6434C171.369 11.5153 171.162 10.5326 170.537 10.6178L169.496 10.746C168.79 10.8741 169.039 11.9006 169.665 11.7715L170.661 11.6434ZM165.422 11.3443C164.714 11.4729 164.923 12.4979 165.588 12.3703L166.587 12.2422C167.294 12.114 167.086 11.0456 166.421 11.1737L165.422 11.3443ZM161.512 13.0967C160.847 13.2248 160.681 12.1993 161.346 12.0712L162.344 11.9006C163.051 11.7715 163.217 12.7981 162.553 12.9257L161.512 13.0967ZM157.271 12.9257C156.563 13.1396 156.895 14.1647 157.521 13.9941L158.517 13.7379C159.142 13.6526 159.018 12.5832 158.31 12.7128L157.271 12.9257ZM153.527 14.9768C152.863 15.1483 152.613 14.1223 153.278 13.9517L154.276 13.695C154.9 13.5245 155.191 14.55 154.526 14.721L153.527 14.9768ZM149.286 15.1059C148.661 15.2764 148.869 16.302 149.577 16.1315L150.534 15.8323C151.199 15.6608 150.949 14.6353 150.283 14.8058L149.286 15.1059ZM145.667 17.4138C145.043 17.6272 144.67 16.6435 145.335 16.4301C145.667 16.302 146.001 16.1739 146.333 16.0886C146.916 15.8323 147.289 16.815 146.625 17.0713C146.292 17.1994 146.001 17.2847 145.667 17.4138ZM141.426 17.883C140.802 18.1397 141.176 19.1229 141.8 18.8661L142.756 18.4822C143.422 18.225 143.006 17.2423 142.424 17.499L141.426 17.883ZM138.015 20.4476C137.35 20.7043 137.018 19.7212 137.6 19.4644L138.556 19.0376C139.222 18.7804 139.554 19.8059 138.931 20.0203L138.015 20.4476ZM133.815 21.2169C133.191 21.5589 133.69 22.4992 134.273 22.2005C134.564 22.0285 134.896 21.9004 135.188 21.7299C135.811 21.4302 135.354 20.4904 134.771 20.7896C134.439 20.9177 134.147 21.0887 133.815 21.2169ZM130.613 24.0806C129.947 24.4221 129.532 23.4394 130.114 23.1403L131.028 22.6273C131.653 22.3282 132.11 23.3113 131.528 23.61L130.613 24.0806ZM126.496 25.1914C125.872 25.5763 126.454 26.4737 126.994 26.1312L127.909 25.6192C128.533 25.2338 127.95 24.3364 127.41 24.6789L126.496 25.1914ZM123.501 28.3114C122.919 28.6963 122.419 27.7555 122.961 27.414L123.834 26.8576C124.417 26.4737 124.957 27.414 124.374 27.7555L123.501 28.3114ZM119.509 29.8071C118.926 30.2349 119.592 31.0471 120.09 30.6617C120.382 30.4483 120.673 30.2778 120.964 30.0634C121.546 29.6361 120.881 28.8245 120.382 29.2084C120.09 29.3794 119.8 29.5937 119.509 29.8071ZM116.805 33.1406C116.223 33.5683 115.641 32.7138 116.182 32.3289L116.972 31.6872C117.554 31.2605 118.136 32.115 117.596 32.4994L116.805 33.1406ZM112.937 34.9787C112.397 35.4484 113.104 36.2177 113.562 35.7899L114.352 35.1069C114.893 34.722 114.31 33.8246 113.728 34.2947L112.937 34.9787ZM110.484 38.5256C109.985 38.9957 109.277 38.2269 109.777 37.7563L110.567 37.0299C111.066 36.5602 111.773 37.3714 111.233 37.842L110.484 38.5256ZM254.918 37.3285C255.627 37.3714 255.585 38.3974 254.918 38.3974L253.88 38.3974C253.173 38.3974 253.255 37.3285 253.88 37.3285L254.918 37.3285ZM250.802 38.4832C251.551 38.4403 251.426 37.3714 250.761 37.4138L249.762 37.4576C249.056 37.5005 249.139 38.5684 249.804 38.5256L250.802 38.4832ZM259.037 38.5256C259.744 38.5256 259.703 37.4576 259.078 37.4576L258.038 37.4138C257.332 37.4138 257.332 38.4403 257.997 38.4832L259.037 38.5256ZM263.196 37.7134C263.902 37.7991 263.777 38.8671 263.113 38.7818L262.114 38.6966C261.366 38.6108 261.533 37.5857 262.156 37.6286L263.196 37.7134ZM246.644 37.671C247.351 37.5857 247.393 38.6542 246.727 38.6966L245.686 38.7818C245.021 38.8247 244.938 37.7991 245.603 37.7563L246.644 37.671ZM242.652 39.1243C243.275 39.0386 243.234 37.9701 242.526 38.0549C242.193 38.0978 241.819 38.1407 241.487 38.184C240.862 38.2269 240.904 39.2948 241.612 39.2096C241.944 39.1672 242.277 39.1243 242.652 39.1243ZM267.187 39.2096C267.896 39.2948 267.979 38.2693 267.312 38.184L266.315 38.0549C265.607 37.9702 265.523 39.0386 266.19 39.0815L267.187 39.2096ZM238.41 38.6108C239.033 38.4832 239.282 39.5087 238.576 39.6369L237.535 39.8083C236.912 39.9365 236.705 38.91 237.369 38.7818L238.41 38.6108ZM271.43 38.8247C272.138 38.9528 271.887 39.9794 271.264 39.8507C270.931 39.8083 270.599 39.7221 270.224 39.6792C269.518 39.5511 269.808 38.5256 270.39 38.6108C270.765 38.6966 271.097 38.739 271.43 38.8247ZM217.563 48.8721C217.839 48.7881 218.065 48.5421 218.529 48.099C215.909 46.3042 214.995 44.1668 215.287 40.7482C213.968 40.5394 213.721 41.1787 213.272 42.344C213.169 42.6119 213.055 42.9075 212.915 43.227C211.627 46.3042 212.624 44.466 207.052 47.2016C205.929 47.7575 204.847 48.2271 203.766 48.7826C203.641 48.0566 203.516 47.1587 203.516 46.3894L203.101 41.6456C203.059 40.8339 202.976 39.9794 202.851 39.2096C202.602 39.3377 201.313 39.8931 201.147 40.0213C200.773 40.4485 199.193 48.8254 198.941 49.9791C198.897 50.2072 198.873 50.3846 198.854 50.5269C198.785 51.0513 198.779 51.0966 198.027 51.4319C195.657 52.5009 191.997 53.655 191.457 55.749C191.247 56.604 192.329 56.775 192.995 56.8174C194.122 56.8854 196.939 55.5419 198.816 54.6473C199.294 54.4194 199.71 54.2207 200.023 54.0818C201.188 54.5948 207.052 58.014 208.882 59.0829C209.331 59.3595 209.489 59.4869 209.65 59.4917C209.788 59.4958 209.929 59.4108 210.254 59.2534C210.712 59.0395 211.044 58.8685 211.461 58.6551C210.337 56.9884 205.68 52.9281 205.138 51.6887C206.594 50.7913 209.713 49.6376 211.627 48.4829C212.658 47.881 212.922 47.632 213.193 47.6235C213.481 47.6145 213.776 47.8744 214.995 48.27C216.62 48.7579 217.148 48.9989 217.563 48.8721ZM234.499 40.3628C235.166 40.2351 234.999 39.2096 234.333 39.3377L233.295 39.5087C232.67 39.6369 232.836 40.7053 233.502 40.5767L234.499 40.3628ZM275.299 40.6629C275.963 40.791 276.129 39.7221 275.506 39.594L274.466 39.3806C273.801 39.2525 273.633 40.278 274.3 40.4057L275.299 40.6629ZM106.783 40.6629C106.284 41.0897 106.949 41.9018 107.49 41.4322L108.238 40.7053C108.696 40.2351 108.03 39.423 107.49 39.9365L106.783 40.6629ZM230.258 40.1923C230.965 40.0213 231.131 41.0897 230.507 41.2178L229.509 41.4322C228.885 41.6032 228.554 40.62 229.26 40.4057L230.258 40.1923ZM279.539 40.5767C280.247 40.791 279.873 41.7737 279.29 41.6032L278.293 41.3464C277.668 41.2178 277.793 40.1499 278.543 40.3209L279.539 40.5767ZM226.515 42.2005C227.181 41.9876 226.889 41.0044 226.265 41.1754L225.225 41.4322C224.56 41.6456 224.851 42.6287 225.518 42.4577L226.515 42.2005ZM283.241 42.7135C283.906 42.9274 284.156 41.9018 283.532 41.7313L282.533 41.4322C281.869 41.2178 281.578 42.2439 282.243 42.4149L283.241 42.7135ZM222.564 43.3123C223.188 43.1418 222.938 42.1152 222.272 42.2872L221.275 42.5859C220.65 42.7564 220.86 43.8253 221.565 43.6114L222.564 43.3123ZM287.483 43.0136C288.066 43.1842 287.858 44.2526 287.15 44.0387L286.153 43.6967C285.57 43.4828 285.777 42.4577 286.485 42.6711L287.483 43.0136ZM104.62 44.4236C104.163 44.9366 103.373 44.2097 103.872 43.6967L104.579 42.9274C105.036 42.4149 105.784 43.1418 105.327 43.6538L104.62 44.4236ZM63.4894 44.0387C64.1546 44.0387 64.1963 42.9708 63.4894 42.9708L62.4497 42.9708C61.8253 42.9708 61.7428 44.0387 62.4497 44.0387L63.4894 44.0387ZM59.3311 43.056C59.9963 43.0136 60.121 44.0387 59.3719 44.1244L58.3744 44.1668C57.7088 44.2097 57.6253 43.1418 58.3327 43.0989L59.3311 43.056ZM67.6486 43.0989C68.2721 43.0989 68.3142 44.1668 67.6069 44.1244L66.5672 44.0821C65.9021 44.0821 65.9021 43.0136 66.608 43.056L67.6486 43.0989ZM71.6822 44.4236C72.3483 44.466 72.473 43.4404 71.7656 43.3552L70.726 43.2699C70.1025 43.1842 69.9361 44.2526 70.6847 44.3378L71.6822 44.4236ZM55.2966 44.3378C55.9622 44.2954 55.8788 43.227 55.2136 43.2699L54.1735 43.3552C53.5083 43.3975 53.5917 44.466 54.2574 44.4236L55.2966 44.3378ZM217.656 44.8937C216.949 45.0643 216.7 44.0821 217.323 43.8682L218.28 43.5686C219.029 43.3552 219.195 44.3802 218.613 44.5522L217.656 44.8937ZM51.0961 43.6967C51.803 43.6114 51.8442 44.6803 51.2213 44.7227C50.8467 44.7656 50.5144 44.808 50.1816 44.8509C49.4742 44.9366 49.4325 43.8682 50.0564 43.8253C50.3892 43.782 50.7638 43.7396 51.0961 43.6967ZM75.8827 43.8253C76.5483 43.8682 76.4649 44.9366 75.7575 44.8509L74.76 44.7227C74.0949 44.6803 74.1774 43.6114 74.8847 43.6967L75.8827 43.8253ZM290.977 45.492C291.6 45.7483 292.015 44.7656 291.351 44.466L290.393 44.1244C289.771 43.8682 289.396 44.8509 290.02 45.1071L290.977 45.492ZM47.145 45.2781C47.8519 45.1495 47.603 44.1244 46.9791 44.2526L45.9394 44.3802C45.2742 44.5522 45.4819 45.5778 46.1053 45.4496L47.145 45.2781ZM79.8342 45.492C80.4572 45.6206 80.7071 44.5946 80.0002 44.4236C79.6669 44.3802 79.2928 44.2954 78.96 44.2526C78.3371 44.1244 78.0872 45.1495 78.7941 45.3205C79.1269 45.3634 79.501 45.4067 79.8342 45.492ZM27.1003 53.7403C26.6363 54.1828 26.4099 54.4288 26.1348 54.5105C25.8142 54.6058 25.4273 54.478 24.5207 54.1787C24.2518 54.0899 23.9372 53.986 23.565 53.8684C22.944 53.6781 22.5627 53.5171 22.3 53.4062C22.0475 53.2996 21.9045 53.2393 21.7636 53.2437C21.4917 53.2521 21.2273 53.5018 20.1966 54.1252C18.2831 55.236 15.1636 56.4325 13.7086 57.3309C14.2491 58.5694 18.9071 62.6297 20.0297 64.2964C19.6139 64.5098 19.2816 64.6384 18.8241 64.8523C18.7628 64.8856 18.708 64.9161 18.6586 64.9435C18.4426 65.0636 18.3288 65.1268 18.2153 65.1263C18.0553 65.1256 17.8959 64.998 17.4516 64.7242C15.6211 63.6548 9.75752 60.1932 8.59315 59.7231C8.28036 59.8622 7.86268 60.0613 7.38382 60.2896C5.50739 61.1842 2.69139 62.5267 1.56471 62.4592C0.899552 62.4163 -0.182323 62.2024 0.0262705 61.3474C0.566739 59.2534 4.22627 58.0993 6.59674 57.0308C7.35284 56.6934 7.35519 56.676 7.4257 56.1552C7.44437 56.0173 7.46781 55.8441 7.51127 55.6204C7.76205 54.4243 9.34174 46.0903 9.71627 45.6625C9.84049 45.5349 11.1713 44.9366 11.4206 44.8509C11.5463 45.6206 11.6297 46.4328 11.671 47.2445L12.0858 52.0312C12.0858 52.7576 12.211 53.6979 12.3366 54.3814C13.4175 53.8684 14.4985 53.3554 15.6211 52.8429C21.1946 50.1068 20.1549 51.9454 21.4852 48.8683C21.6317 48.5337 21.7479 48.2254 21.8526 47.9477C22.2828 46.8064 22.5176 46.1833 23.8556 46.3894C23.565 49.8081 24.4796 51.9454 27.1003 53.7403ZM42.9038 44.9366C43.5689 44.808 43.7353 45.8764 43.0697 46.0041L42.0717 46.176C41.4056 46.3042 41.2397 45.2781 41.8641 45.1495L42.9038 44.9366ZM84.076 45.2353C84.6994 45.3634 84.5335 46.3894 83.8678 46.2618L82.8277 46.0474C82.1625 45.9193 82.3706 44.8937 83.0363 45.0219L84.076 45.2353ZM295.177 46.0903C295.801 46.3466 295.469 47.3297 294.803 47.0735L293.846 46.6457C293.222 46.4328 293.596 45.4067 294.263 45.6625L295.177 46.0903ZM39.0774 46.8162C39.7013 46.731 39.5353 45.6625 38.828 45.7912L37.8296 46.0474C37.1222 46.2189 37.4555 47.2445 38.0794 47.0735L39.0774 46.8162ZM101.085 46.8162C100.628 47.3297 101.334 48.0566 101.834 47.5431L102.5 46.731C102.956 46.2618 102.249 45.492 101.751 46.0474L101.085 46.8162ZM87.8602 47.2445C88.4424 47.415 88.8164 46.4328 88.1096 46.2189L87.1121 45.9617C86.363 45.7912 86.2383 46.8591 86.8622 46.9872L87.8602 47.2445ZM34.7939 46.8162C35.4586 46.6033 35.7506 47.6284 35.0845 47.8427L34.0871 48.099C33.4219 48.27 33.1299 47.2445 33.795 47.0735L34.7939 46.8162ZM92.1019 47.3297C92.7263 47.5431 92.4352 48.5687 91.8113 48.3548L90.8133 48.0566C90.1477 47.8856 90.4383 46.8591 91.1044 47.0306L92.1019 47.3297ZM298.503 48.8254C299.128 49.1246 299.585 48.1843 298.962 47.8856L298.046 47.415C297.464 47.1158 296.966 48.0566 297.589 48.3548L298.503 48.8254ZM31.0927 48.9536C31.7578 48.7826 31.508 47.7141 30.8011 47.9285L29.8444 48.2271C29.2205 48.3982 29.4296 49.4242 30.1364 49.2527L31.0927 48.9536ZM95.7202 49.6376C96.4275 49.851 96.6352 48.8254 96.0525 48.6549L95.0546 48.3124C94.3481 48.099 94.14 49.1246 94.7227 49.2951L95.7202 49.6376ZM99.0474 50.877C98.6733 51.0904 98.2158 50.7484 98.2575 50.3216C98.2158 50.0649 98.4235 49.7233 98.715 49.6805L99.0474 49.2527C99.4631 48.7402 100.295 49.3813 99.8372 49.9362L99.7542 50.0649L99.9202 50.1068C100.586 50.364 100.17 51.3472 99.5466 51.0904L99.0474 50.877ZM26.2266 50.535C25.5197 50.7055 25.2699 49.7233 25.8942 49.5095L26.8505 49.167C27.5574 48.9964 27.765 50.022 27.1833 50.1935L26.2266 50.535ZM302.663 49.7652C303.287 50.1068 302.828 51.0056 302.206 50.7055L301.29 50.2363C300.709 49.9362 301.124 48.9536 301.748 49.2951L302.663 49.7652ZM305.823 52.7147C306.448 53.0567 306.863 52.116 306.323 51.8173L305.407 51.2614C304.784 50.9628 304.326 51.9026 304.909 52.2017L305.823 52.7147ZM103.747 51.7311C104.37 51.9883 104.038 52.971 103.373 52.7147L102.416 52.287C101.793 52.0312 102.166 51.048 102.79 51.3043L103.747 51.7311ZM95.8449 53.4411C95.4296 53.9966 96.2194 54.6377 96.6352 54.0818L97.2591 53.2273C97.6744 52.7147 96.8846 52.0312 96.4692 52.5866L95.8449 53.4411ZM107.074 54.4667C107.697 54.7658 108.155 53.826 107.531 53.484L106.616 53.0567C106.034 52.7576 105.536 53.655 106.158 53.9966L107.074 54.4667ZM309.899 53.9537C310.481 54.3814 309.899 55.236 309.358 54.8516L308.485 54.3391C307.862 53.9108 308.485 53.0567 308.984 53.3983L309.899 53.9537ZM111.233 55.407C111.815 55.7057 111.398 56.6469 110.775 56.3473L109.86 55.8347C109.236 55.5351 109.694 54.5948 110.318 54.894L111.233 55.407ZM312.81 57.1166C313.392 57.5015 313.932 56.604 313.392 56.2187L312.52 55.6633C311.937 55.2789 311.396 56.1768 311.937 56.5602L312.81 57.1166ZM94.223 57.5015C93.8077 58.0564 93.0164 57.4157 93.3914 56.8603L93.9736 56.0058C94.3894 55.4499 95.2205 56.091 94.8056 56.6469L94.223 57.5015ZM114.352 58.356C115.018 58.6975 115.433 57.7577 114.893 57.4157L113.977 56.9027C113.354 56.5602 112.897 57.5015 113.479 57.843L114.352 58.356ZM316.802 58.6123C317.344 58.9972 316.802 59.8946 316.22 59.5097L315.388 58.9119C314.806 58.527 315.346 57.6296 315.972 58.014L316.802 58.6123ZM118.427 59.5954C119.051 59.9803 118.469 60.8349 117.929 60.4924L117.014 59.9375C116.431 59.5526 117.014 58.6975 117.554 59.0395L118.427 59.5954ZM91.0622 60.4071C90.6877 61.0054 91.6031 61.5184 91.9355 60.963L92.4764 60.1085C92.8922 59.4673 91.9772 58.9548 91.6449 59.5097L91.0622 60.4071ZM319.547 61.9462C320.046 62.3734 320.712 61.5618 320.171 61.1335L319.34 60.4924C318.799 60.0656 318.133 60.8777 318.716 61.3474L319.547 61.9462ZM121.38 62.7578C121.962 63.1427 122.503 62.2453 121.962 61.8599L121.089 61.3045C120.507 60.9201 119.925 61.7752 120.507 62.16L121.38 62.7578ZM89.7314 64.5527C89.3578 65.151 88.4841 64.596 88.8586 63.9973L89.3991 63.1003C89.7314 62.5016 90.646 63.0575 90.2724 63.6548L89.7314 64.5527ZM323.458 63.6986C323.956 64.1254 323.333 64.9804 322.791 64.5527L322.002 63.8691C321.46 63.4414 322.085 62.6297 322.625 63.0575L323.458 63.6986ZM125.372 64.254C125.914 64.596 125.372 65.5363 124.79 65.1081L123.917 64.5098C123.376 64.1683 123.917 63.2285 124.5 63.6548L125.372 64.254ZM325.661 66.9039C326.201 67.3312 326.826 66.4762 326.284 66.0913L325.869 65.7069C325.287 65.2367 324.704 66.1337 325.204 66.519L325.661 66.9039ZM128.118 67.587C128.617 68.0147 129.282 67.203 128.741 66.7324L127.909 66.0913C127.369 65.7069 126.704 66.519 127.286 66.9463L128.118 67.587ZM86.7371 67.6727C86.4047 68.2281 87.278 68.8269 87.6525 68.1857L88.1513 67.2454C88.4841 66.6895 87.6525 66.0913 87.278 66.7324L86.7371 67.6727ZM132.027 69.3394C132.525 69.7667 131.903 70.5788 131.362 70.1521L130.571 69.5109C130.031 69.0827 130.654 68.2281 131.196 68.6559L132.027 69.3394ZM85.6561 71.8611C85.3655 72.4589 84.4083 72.0322 84.7411 71.391L85.2394 70.4507C85.5314 69.8524 86.446 70.2802 86.1553 70.9642L85.6561 71.8611ZM134.231 72.5013C134.771 72.9725 135.354 72.1174 134.854 71.6906L134.439 71.3481C133.856 70.8775 133.274 71.733 133.774 72.1603L134.231 72.5013ZM82.8694 75.1522C82.5371 75.7933 83.4516 76.263 83.7849 75.6218L84.2419 74.6815C84.5335 74.0828 83.6175 73.5707 83.3269 74.2119L82.8694 75.1522ZM82.2047 78.9986C81.871 79.6821 80.9564 79.1691 81.2475 78.5708L81.4978 78.015C81.8302 77.3743 82.7447 77.8868 82.4124 78.4851L82.2047 78.9986Z" fill-rule="evenodd"/>
	</g>

</svg>