<?xml version="1.0" encoding="utf-8"?>
<!-- Generator: Adobe Illustrator 23.0.3, SVG Export Plug-In . SVG Version: 6.00 Build 0)  -->
<svg version="1.1" id="Layer_1" xmlns="http://www.w3.org/2000/svg" xmlns:xlink="http://www.w3.org/1999/xlink" x="0px" y="0px"
	 viewBox="0 0 27 27" style="enable-background:new 0 0 27 27;" xml:space="preserve">
<style type="text/css">
	.st0{fill-rule:evenodd;clip-rule:evenodd;fill:#FFFFFF;}
</style>
<title>Atoms/Icon/edit</title>
<desc>Created with Sketch.</desc>
<g>
	<path id="Combined-Shape" class="st0" d="M24.3,15.6c0.3,0,0.6,0.3,0.6,0.6v5.6c0,1.7-1.4,3.2-3.1,3.2H4.1C2.4,25,1,23.6,1,21.8
		V5.4c0-1.7,1.4-3.2,3.1-3.2h5.6c0.3,0,0.6,0.3,0.6,0.6s-0.3,0.6-0.6,0.6H4.1c-1,0-1.9,0.8-1.9,1.9v16.5c0,1,0.8,1.9,1.9,1.9h17.6
		c1,0,1.9-0.8,1.9-1.9v-5.6C23.7,15.9,23.9,15.6,24.3,15.6z M10.8,12.3L20,3l3,3l-9.2,9.2L10.8,12.3z M9.3,16.7l0.9-3.3l2.4,2.4
		L9.3,16.7z M23.8,1.5l0.7,0.7c0.6,0.6,0.6,1.6,0,2.2l-0.7,0.7l-3-3l0.7-0.7C22.2,0.9,23.2,0.9,23.8,1.5z"/>
</g>
</svg>
