<?xml version="1.0" encoding="utf-8"?>
<!-- Generator: Adobe Illustrator 24.1.1, SVG Export Plug-In . SVG Version: 6.00 Build 0)  -->
<svg version="1.1" id="Layer_1" xmlns="http://www.w3.org/2000/svg" xmlns:xlink="http://www.w3.org/1999/xlink" x="0px" y="0px"
	 viewBox="0 0 113.7 118.8" style="enable-background:new 0 0 113.7 118.8;" xml:space="preserve">
<style type="text/css">
	.st0{fill-rule:evenodd;clip-rule:evenodd;fill:#FFFFFF;}
</style>
<g>
	<g>
		<path class="st0" d="M77.6,39.2V24.9c0-1-0.7-1.7-1.6-1.7h-6.5c-0.9,0-1.6,0.7-1.6,1.7v5.4c-2.6-2.4-5.1-4.7-7.6-7
			c-1-0.9-1.4-0.9-2.4,0c-8.3,7.3-16.5,14.5-24.8,21.9c-0.6,0.4-1.1,1-1.7,1.6h4.1v2.7c0,7.6,0.1,15,0,22.5c0,1.1,0.3,1.4,1.4,1.4
			c4.4-0.2,8.7-0.2,13.1,0h29.2c1.1,0.2,1.6-0.1,1.6-1V46.9h5.4C83.3,44.2,80.5,41.6,77.6,39.2z M55.4,62.1h-7.7
			c-0.1,0-0.3,0.1-0.4-0.1c-0.1-0.2-0.1-0.4,0-0.5c0-0.1,0.2-0.1,0.3-0.1h1.1c1.2-0.2,1.8-0.8,2-2c0.1-0.7,0.1-1.4,0.1-2.2V40.1
			c0-0.7-0.1-1.4-0.3-2s-0.6-0.9-1.1-1.1c-0.5-0.2-1.1-0.2-1.7-0.2c-0.4,0-0.5-0.2-0.4-0.6c0-0.1,0.1-0.1,0.2-0.1h11.7
			c0.7,0,1.4,0,2.2,0.1c0.5,0.1,1.1,0.2,1.6,0.3c1.1,0.3,2.2,0.7,3.1,1.5c1.7,1.4,2.4,3.2,2.2,5.3c-0.1,0.9-0.3,1.7-1,2.4
			c-0.6,0.5-1.2,0.7-2,0.5c-0.6-0.1-1.2-0.4-1.7-0.8c-0.2-0.1-0.2-0.2-0.1-0.4c1.2-1.4,1.3-2.9,0.6-4.5c-0.4-1.1-1.2-1.9-2.2-2.4
			c-0.6-0.3-1.2-0.5-1.9-0.7c-1-0.2-2-0.3-3-0.3c-0.7,0-1.4,0.1-2.1,0.3c-0.2,0.1-0.3,0.2-0.3,0.4v4.6c0.1,2,0.1,3.9,0.1,5.8v9.6
			c0,0.6,0,1.1,0.1,1.6c0.1,0.8,0.4,1.6,0.8,2.3C55.8,62,55.8,62.1,55.4,62.1z M71.9,55.2c0,0.4,0,0.4-0.4,0.4c-0.5,0-0.5,0-0.6-0.5
			c-0.2-0.7-0.3-1.5-0.6-2.2c-0.5-1.4-1.4-2.5-2.7-3.3c-1.6-0.9-3.4-1.2-5.2-0.8c-1.3,0.3-2.4,0.9-3,2.2c-0.4,0.7-0.5,1.5-0.2,2.3
			c0.1,0.4,0.5,1.3,0.6,1.4c0.2,0.2,0.1,0.1,0.3,0.4c0.3,0.4,1.1,1,1.8,1.4c1.5,0.9,3,1.8,4.6,2.7c1,0.6,1.9,1.1,2.8,1.8
			c1,0.7,1.8,1.6,2.2,2.8c0.5,1.4,0.5,2.8-0.2,4.1C70.9,69,70,69.5,69,69.8C68.4,70,67.8,70,67.1,70c-0.1,0-0.2,0-0.2-0.1
			c0-0.1,0.1-0.1,0.1-0.2c0.8-0.6,1.3-1.3,1.5-2.3s-0.1-1.8-0.8-2.6C66.9,64,66,63.3,65,62.7c-1.4-0.9-2.9-1.6-4.3-2.4
			c-1.1-0.6-2.2-1.3-3.1-2.2c-0.8-0.9-1.3-1.9-1.6-3.1c-0.2-1.2-0.2-2.4,0.2-3.6c0.4-1.3,1.3-2.4,2.4-3.2c1-0.7,2.1-1.2,3.3-1.4
			c1.1-0.2,2.3-0.1,3.4,0.1c1.3,0.3,2.6,0.7,3.8,1c0.3,0.1,0.5,0.1,0.8,0.1c0.4,0,0.7-0.2,0.8-0.6c0-0.1,0.1-0.2,0.1-0.3
			c0.1-0.1,0-0.3,0.2-0.4c0.2-0.1,0.4-0.1,0.7,0c0.2,0,0.1,0.2,0.1,0.3v2.9c0.1,0.6,0.1,1,0.1,1.3V55.2z"/>
	</g>
</g>
<path class="st0" d="M24.8,12.5C5.4,25.7-4.5,50.2,2,74.2c8.1,30.3,39.3,48.3,69.6,40.2c24.8-6.6,41.3-28.7,42.1-53
	c-3.4,20-18.1,37.2-39,42.8c-28.6,7.7-58-9.3-65.7-37.9C3.6,46.1,10.4,25.6,24.8,12.5L24.8,12.5z"/>
<path class="st0" d="M88.3,90.9c16.4-11.2,24.7-31.8,19.3-52C100.7,13.3,74.4-1.9,48.9,5c-21,5.6-34.9,24.2-35.6,44.7
	c2.9-16.9,15.3-31.4,32.9-36.1c24.1-6.5,49,7.9,55.4,32C106.2,62.6,100.5,79.9,88.3,90.9L88.3,90.9z"/>
<g>
	<path class="st0" d="M92.8,76.6c-0.5-1.4-2.7-2.2-5.3-1.9c-0.6,0-1.4,0.2-2,0.4c-3.1,0.9-18.8,6.3-18.9,6.4l-0.3,0.1l0.2,0.2
		c1.8,1.5,2.6,3.1,2.2,4.4c-0.5,1.9-3.1,3.1-7.4,3.4c-3.7,0.3-8.4,0-13.9-1.1c0.5,0,1.3,0,1.9,0.1c4-0.1,7.8-0.1,10.6-0.2
		c4.5-0.4,6.7-1.4,7.1-3.2c0.1-1.1-0.5-2-2.1-2.7c-1.7-1-5.3-1.4-8.7-2c-2.3-0.3-4.5-0.6-6.1-1.1c-5.5-1.4-11-2.8-17.5-2.3
		c-1.1,0.1-2.1,0.2-3.1,0.4c-5,0.8-9.9,2-15,3.5l-0.6,0.1L21.5,92c1.4-0.3,2.7-0.6,4.1-0.7c1.8-0.1,3.5-0.1,5.1,0.1
		c2.1,0.4,7.3,1.5,12.3,2.4c5.2,1.2,10.1,2.1,12,2.3c1.2,0.2,2.1,0.2,3.2,0.1c2.5-0.2,5.2-1.6,7.7-2.8c0.7-0.5,1.6-0.8,2.2-1.3
		l22.5-12.2C93.2,78.6,93.2,77.3,92.8,76.6L92.8,76.6z"/>
</g>
</svg>
