<?xml version="1.0" encoding="utf-8"?>
<!-- Generator: Adobe Illustrator 23.0.3, SVG Export Plug-In . SVG Version: 6.00 Build 0)  -->
<svg version="1.1" id="Layer_1" xmlns="http://www.w3.org/2000/svg" xmlns:xlink="http://www.w3.org/1999/xlink" x="0px" y="0px"
	 viewBox="0 0 27 27" style="enable-background:new 0 0 27 27;" xml:space="preserve">
<style type="text/css">
	.st0{fill-rule:evenodd;clip-rule:evenodd;fill:#FFFFFF;}
</style>
<title>Atoms/Icon/question</title>
<desc>Created with Sketch.</desc>
<g>
	<g id="Combined-Shape">
		<path class="st0" d="M13.6,20.7c1.2,0,2.2,1,2.2,2.2v0.6c0,1.2-0.9,2.2-2.2,2.2c-1.2,0-2.2-1-2.2-2.2v-0.6
			C11.4,21.7,12.4,20.7,13.6,20.7z M14.6,23.4v-0.6c0-0.6-0.4-1-1-1c-0.5,0-1,0.5-1,1v0.6c0,0.5,0.4,1,1,1
			C14.2,24.4,14.6,24,14.6,23.4z M20.9,9.3c0,3.2-2.1,6-5.2,7v1.6c0,1.2-0.9,2.2-2.2,2.2c-1.2,0-2.2-1-2.2-2.2v-3.3c0,0,0,0,0-0.1
			c0,0,0,0,0-0.1c0-1.2,1-2.2,2.2-2.2c1.7,0,3.1-1.3,3.1-3c0-1.7-1.3-3-3.1-3c-1.1,0-2,0.6-2.6,1.5c-0.4,0.7-1.1,1.1-1.9,1.1
			c-0.4,0-0.8-0.1-1.1-0.3l0,0C7,7.9,6.7,6.7,7.3,5.6C8.6,3.4,11,2,13.6,2C17.6,2,20.9,5.3,20.9,9.3z M15,15.3
			c2.8-0.7,4.7-3.1,4.7-5.9c0-3.4-2.8-6.1-6.2-6.1c-2.2,0-4.2,1.2-5.3,3C8,6.7,8.2,7.3,8.6,7.6C8.8,7.6,9,7.7,9.2,7.7
			c0.4,0,0.7-0.2,0.9-0.5c0.7-1.3,2.1-2.1,3.6-2.1c1.1,0,2.2,0.4,3,1.2c0.8,0.8,1.2,1.8,1.2,3c0,2.3-1.9,4.2-4.2,4.2
			c-0.5,0-0.9,0.4-1,0.9c0,0.1,0,0.1,0,0.2s0,0.1,0,0.2v3.2c0,0.5,0.4,1,1,1c0.6,0,1-0.4,1-1v-2.1C14.6,15.6,14.8,15.3,15,15.3z"/>
	</g>
</g>
</svg>
