<?xml version="1.0" encoding="utf-8" ?>
<svg xmlns="http://www.w3.org/2000/svg" xmlns:xlink="http://www.w3.org/1999/xlink" width="27" height="27">
	<rect fill="rgb(255,255,255)" stroke="none" width="27" height="27"/>
	<path fill="rgb(161,188,207)" stroke="none" transform="translate(3.04407 2)" d="M9.10293 18.4422L8.72635 18.4422C8.51836 18.4422 8.34977 18.6107 8.34977 18.8187C8.34977 19.0267 8.51836 19.1953 8.72635 19.1953L9.10293 19.1953C9.31093 19.1953 9.47951 19.0267 9.47951 18.8187C9.47951 18.6107 9.31088 18.4422 9.10293 18.4422Z"/>
	<path fill="rgb(0,0,0)" stroke="none" transform="translate(5.36841 14.4166)" d="M15.0637 0.37658C15.0637 0.168585 15.2323 0 15.4403 0C15.6483 0 15.8169 0.168585 15.817 0.37658L15.817 9.03828C15.817 9.66226 15.3111 10.1681 14.6872 10.1681L1.12978 10.1681C0.505799 10.1681 0 9.66222 0 9.03828L0 0.37658C0 0.168585 0.168585 0 0.37658 0C0.584575 0 0.75316 0.168585 0.75316 0.37658L0.75316 9.03828C0.75316 9.24627 0.921746 9.41486 1.12974 9.41486L4.89568 9.41486L4.89568 3.76593C4.89568 3.14195 5.40152 2.63615 6.02546 2.63615L9.7914 2.63615C10.4153 2.63615 10.9212 3.14199 10.9212 3.76593L10.9212 9.41486L14.6871 9.41486C14.8951 9.41486 15.0637 9.24627 15.0637 9.03828L15.0637 0.37658ZM5.64884 9.41486L10.1679 9.41486L10.1679 3.76593C10.1679 3.55794 9.99935 3.38935 9.79135 3.38935L6.02542 3.38935C5.81742 3.38935 5.64884 3.55794 5.64884 3.76593L5.64884 9.41486Z" fill-rule="evenodd"/>
	<path fill="rgb(0,0,0)" stroke="none" transform="translate(3.04407 2)" d="M11.0352 0.330197L20.1383 9.70101C20.4646 10.0374 20.5571 10.5369 20.3729 10.9679C20.2017 11.39 19.7909 11.6654 19.3354 11.6634L19.2066 11.6634C18.9378 11.6608 18.6789 11.5616 18.4771 11.384C18.4521 11.3674 18.4285 11.3486 18.4067 11.3279L10.2327 2.90951L2.06477 11.3234C2.04151 11.3455 2.01631 11.3654 1.98944 11.3829C1.78753 11.5612 1.52817 11.6608 1.25883 11.6634L1.13005 11.6634C0.674958 11.665 0.26466 11.3896 0.093648 10.9679C-0.090604 10.5369 0.00189715 10.0374 0.328255 9.70101L9.43017 0.330197C9.87463 -0.110066 10.5908 -0.110066 11.0352 0.330197ZM19.3354 10.9102C19.4872 10.9091 19.6233 10.816 19.6792 10.6749C19.7461 10.5226 19.7141 10.345 19.5982 10.2256L10.4941 0.855194C10.4246 0.785245 10.3301 0.745879 10.2316 0.745879C10.133 0.745879 10.0385 0.785245 9.96907 0.855194L0.866403 10.2257L0.867198 10.2257C0.751351 10.345 0.719355 10.5226 0.786215 10.6749C0.842219 10.8161 0.97819 10.9092 1.13005 10.9103L1.25808 10.9103C1.35768 10.9103 1.45296 10.8695 1.52168 10.7973C1.52433 10.7943 1.52808 10.7932 1.53148 10.7905C1.53487 10.7879 1.53637 10.7841 1.53977 10.7815L9.96382 2.10546L9.96832 2.10246L9.97132 2.09796C9.98946 2.08348 10.009 2.07086 10.0297 2.06031C10.0492 2.04478 10.0703 2.03127 10.0926 2.02002C10.1158 2.01256 10.1396 2.00753 10.1638 2.00497C10.209 1.98842 10.2586 1.98842 10.3039 2.00497C10.328 2.00749 10.3519 2.01256 10.375 2.02002C10.3973 2.03123 10.4184 2.04473 10.4379 2.06031C10.4586 2.07086 10.4782 2.08348 10.4963 2.09796L10.4982 2.10361L10.5027 2.10661L18.925 10.7815C18.9284 10.7841 18.931 10.7882 18.9336 10.7909C18.9362 10.7935 18.9404 10.7943 18.943 10.7973C19.0117 10.8694 19.107 10.9103 19.2066 10.9102L19.3354 10.9102Z" fill-rule="evenodd"/>
	<path fill="rgb(0,0,0)" stroke="none" transform="translate(10.6406 10.2741)" d="M5.27234 3.76593C5.27234 4.38988 4.7665 4.89572 4.14256 4.89572L1.12978 4.89572C0.505799 4.89572 0 4.38988 0 3.76593L0 1.12978C0 0.505799 0.505844 0 1.12978 0L4.14256 0C4.7665 0 5.27234 0.505799 5.27234 1.12978L5.27234 3.76593ZM0.753205 1.12978L0.753205 3.76593C0.753205 3.97389 0.92179 4.14252 1.12978 4.14252L4.14256 4.14252C4.35051 4.14252 4.51914 3.97393 4.51914 3.76593L4.51914 1.12978C4.51914 0.921834 4.35055 0.753205 4.14256 0.753205L1.12978 0.753205C0.92179 0.753205 0.753205 0.92179 0.753205 1.12978Z" fill-rule="evenodd"/>

</svg>