<?xml version="1.0" encoding="UTF-8"?>
<svg width="160px" height="160px" viewBox="0 0 160 160" version="1.1" xmlns="http://www.w3.org/2000/svg" xmlns:xlink="http://www.w3.org/1999/xlink">
    <!-- Generator: Sketch 55.1 (78136) - https://sketchapp.com -->
    <title>Atoms/Icon-large/Touch ID</title>
    <desc>Created with Sketch.</desc>
    <defs>
        <linearGradient x1="100%" y1="109.183468%" x2="15.5493952%" y2="6.24500451e-15%" id="linearGradient-1">
            <stop stop-color="#67C2AC" offset="0%"></stop>
            <stop stop-color="#4F6C8D" offset="100%"></stop>
        </linearGradient>
    </defs>
    <g id="Atoms/Icon-large/Touch-ID" stroke="none" stroke-width="1" fill="none" fill-rule="evenodd" stroke-linecap="round">
        <path d="M160,80 C160,40.5698786 131.473925,7.80237906 93.9334165,1.20914446 M78.9374738,0.00691170389 C47.9707372,0.409997679 21.2477819,18.4075331 8.30787965,44.4602461 M3.07953927,57.9422746 C1.07402836,64.9489665 0,72.3490568 0,80 C0,89.2805473 1.58027613,98.1920014 4.48642068,106.479955 M145.128733,66.3066978 C138.815515,36.1272636 112.054775,13.4608031 80,13.4608031 C71.1281137,13.4608031 62.6617671,15.1971246 54.922239,18.3484889 M41.5610863,25.6802749 C24.557897,37.7343191 8.56596587,63.309338 14.9904398,94.2256214 M14.362175,125.102646 C15.5744887,119.695262 16.2141491,114.071471 16.2141491,108.298279 C16.2141491,103.378649 15.7496528,98.5675087 14.862124,93.9063208 M131.834133,68.5222322 C128.636504,54.0163333 119.504927,41.7372599 107.1147,34.3603105 M93.8882618,28.7570526 C89.4614685,27.5601637 84.8053058,26.9216061 80,26.9216061 C50.6856125,26.9216061 26.9216061,50.6856125 26.9216061,80 C26.9216061,80 26.6156788,82.2944551 28.1453155,92.08413 M111.314247,54.9496745 C103.966912,45.876732 92.7372985,40.0764818 80.1529637,40.0764818 C58.0193339,40.0764818 40.0764818,58.0193339 40.0764818,80.1529637 C40.0764818,80.1529637 40.3824092,87.4952199 41.6061185,91.7782027 M106.410675,75.6115818 C104.316845,62.9153837 93.2893353,53.2313576 80,53.2313576 C76.846118,53.2313576 73.8196284,53.7767892 71.0097124,54.7784713 M59.6013814,62.6654887 C55.6286117,67.3359246 53.2313576,73.3880079 53.2313576,80 C53.2313576,80 53.5372849,87.4952204 55.0669216,91.7782032 M92.7430483,77.2682077 C91.5490506,71.4078341 86.3659828,66.998088 80.1529637,66.998088 C73.0566854,66.998088 67.3040153,72.7507581 67.3040153,79.8470363 C67.3040153,79.8470363 67.3040153,82.2944551 67.91587,85.3537285 M149.71516,118.58204 C149.840885,115.679699 149.904398,112.761225 149.904398,109.827916 C149.904398,108.483654 149.891059,107.142507 149.864507,105.804601 M149.014539,90.892129 C148.226424,82.5491701 146.922852,74.3562656 145.136012,66.3456042 M134.075261,139.085903 C135.633606,129.461536 136.443595,119.586354 136.443595,109.521989 C136.443595,95.4381482 134.857429,81.7247766 131.853993,68.5507675 M117.505715,150.034276 C121.274514,136.459865 123.288719,122.155403 123.288719,107.380497 C123.288719,94.0118488 121.639687,81.0283527 118.533935,68.6223216 M100.966512,157.028632 C106.50868,141.200088 109.521989,124.183299 109.521989,106.462715 C109.521989,95.9334323 108.458127,85.6526276 106.432031,75.7219282 M86.0169304,159.403639 C90.6567998,147.965093 93.803517,135.761399 95.2152625,123.034376 M96.0611855,107.686424 C96.0611855,97.2187891 94.8929184,87.0240171 92.6796587,77.2253831 M71.8235562,159.338365 C71.8235562,159.338365 74.2901341,153.185219 75.3587649,150.029293 M79.171166,136.522264 C81.41533,126.659207 82.6003824,116.393426 82.6003824,105.85086 C82.6003824,97.0664339 81.777625,88.4741727 80.2049666,80.1469333 M58.1383241,156.37897 C65.3950835,140.739091 69.4455067,123.309098 69.4455067,104.933078 C69.4455067,98.2468678 68.9092687,91.6859023 67.8774532,85.2908425 M45.583174,151.73996 C52.3135755,138.585084 56.290631,123.190829 56.290631,107.380497 C56.290631,102.029222 55.8326464,96.7849148 54.9537354,91.6846336 M42.4439524,115.241256 C42.6993238,112.451291 42.8298279,109.625207 42.8298279,106.768642 C42.8298279,101.509863 42.387539,96.3543863 41.5381304,91.3373808 M34.4262652,145.187053 C36.6668488,140.332668 38.4959491,135.249345 39.8688398,129.98181 M24.0099198,136.320675 C27.6619116,127.393513 29.6749522,117.62209 29.6749522,107.380497 C29.6749522,102.101881 29.1401937,96.9481638 28.121896,91.9705657" id="Touch-ID" stroke="url(#linearGradient-1)" stroke-width="11.8546845"></path>
    </g>
</svg>