<?xml version="1.0" encoding="utf-8" ?>
<svg xmlns="http://www.w3.org/2000/svg" xmlns:xlink="http://www.w3.org/1999/xlink" width="264" height="220">
	<path fill="rgb(0,189,187)" fill-opacity="0.11372549" stroke="none" transform="translate(0.260071 0.261108)" d="M153.165 29.142C136.265 28.5534 120.169 23.0887 104.799 17.1087C89.4294 11.1287 74.2057 4.50254 57.7103 1.33464C47.1007 -0.703172 34.9661 -0.990924 26.4193 4.70658C18.1912 10.2 15.5329 19.6566 14.1046 28.4409C13.0287 35.0488 12.3968 42.0046 15.3423 48.1886C17.3896 52.484 21.0192 56.094 23.5313 60.2088C32.2712 74.5232 26.0929 92.1755 16.6245 106.152C12.1853 112.711 7.02802 118.971 3.59941 125.945C0.170806 132.919 -1.41424 140.921 1.58612 148.041C4.55775 155.104 11.6421 160.399 19.3167 164.127C34.9034 171.7 53.2633 173.866 71.1792 175.093C110.826 177.811 150.682 176.634 190.434 175.456C205.146 175.02 219.92 174.577 234.392 172.299C242.429 171.033 250.725 169.026 256.562 164.176C263.967 158.021 265.803 147.599 260.839 139.88C252.514 126.933 229.503 123.718 223.678 109.825C220.476 102.176 223.764 93.6588 228.42 86.5644C238.405 71.3501 255.141 58.001 256.021 40.6103C256.627 28.6659 248.581 16.7033 236.141 11.0502C223.103 5.12774 205.02 5.87067 195.405 15.6778C185.496 25.7753 168.089 29.66 153.165 29.142Z"/>
	<path fill="rgb(98,119,144)" fill-opacity="0.086274512" stroke="none" transform="translate(47.1387 193.807)" d="M79.375 21.5134C123.213 21.5134 158.75 16.6975 158.75 10.7567C158.75 4.81595 123.213 0 79.375 0C35.5374 0 0 4.81595 0 10.7567C0 16.6975 35.5374 21.5134 79.375 21.5134Z"/>
	<path fill="rgb(58,55,104)" stroke="none" transform="translate(168.114 76.0767)" d="M0.599049 0L1.71453 0Q1.77607 0 1.83521 0.011145Q1.89434 0.02229 1.94916 0.0442171Q2.00398 0.0661442 2.05269 0.0981396Q2.1014 0.130135 2.14243 0.171157Q2.18345 0.212179 2.21544 0.260892Q2.24744 0.309604 2.26937 0.364422Q2.29129 0.41924 2.30244 0.478378Q2.31358 0.537516 2.31358 0.599049L2.31358 18.5025Q2.31358 18.564 2.30244 18.6232Q2.29129 18.6823 2.26937 18.7371Q2.24744 18.7919 2.21544 18.8407Q2.18345 18.8894 2.14243 18.9304Q2.1014 18.9714 2.05269 19.0034Q2.00398 19.0354 1.94916 19.0573Q1.89434 19.0793 1.83521 19.0904Q1.77607 19.1015 1.71453 19.1015L0.599049 19.1015Q0.537516 19.1015 0.478378 19.0904Q0.41924 19.0793 0.364422 19.0573Q0.309604 19.0354 0.260891 19.0034Q0.212179 18.9714 0.171157 18.9304Q0.130135 18.8894 0.0981396 18.8407Q0.0661442 18.7919 0.0442171 18.7371Q0.02229 18.6823 0.011145 18.6232Q0 18.564 0 18.5025L0 0.599049Q0 0.537516 0.011145 0.478378Q0.02229 0.41924 0.0442171 0.364422Q0.0661442 0.309604 0.0981396 0.260891Q0.130135 0.212179 0.171157 0.171157Q0.212179 0.130135 0.260892 0.0981396Q0.309604 0.0661442 0.364422 0.0442171Q0.41924 0.02229 0.478378 0.011145Q0.537516 0 0.599049 0Z"/>
	<path fill="rgb(58,55,104)" stroke="none" transform="translate(91.2302 61.1108)" d="M0.599049 0L0.698757 0Q0.76029 0 0.819428 0.011145Q0.878566 0.02229 0.933384 0.0442171Q0.988202 0.0661442 1.03691 0.0981396Q1.08563 0.130135 1.12665 0.171157Q1.16767 0.212179 1.19967 0.260892Q1.23166 0.309604 1.25359 0.364422Q1.27552 0.41924 1.28666 0.478378Q1.29781 0.537516 1.29781 0.599049L1.29781 5.68965Q1.29781 5.75118 1.28666 5.81032Q1.27552 5.86946 1.25359 5.92428Q1.23166 5.9791 1.19967 6.02781Q1.16767 6.07652 1.12665 6.11754Q1.08563 6.15857 1.03691 6.19056Q0.988202 6.22256 0.933384 6.24448Q0.878566 6.26641 0.819428 6.27756Q0.76029 6.2887 0.698757 6.2887L0.599049 6.2887Q0.537516 6.2887 0.478378 6.27756Q0.41924 6.26641 0.364422 6.24448Q0.309604 6.22256 0.260891 6.19056Q0.212179 6.15857 0.171157 6.11754Q0.130135 6.07652 0.0981396 6.02781Q0.0661442 5.9791 0.0442171 5.92428Q0.02229 5.86946 0.011145 5.81032Q0 5.75118 0 5.68965L0 0.599049Q0 0.537516 0.011145 0.478378Q0.02229 0.41924 0.0442171 0.364422Q0.0661442 0.309604 0.0981396 0.260891Q0.130135 0.212179 0.171157 0.171157Q0.212179 0.130135 0.260892 0.0981396Q0.309604 0.0661442 0.364422 0.0442171Q0.41924 0.02229 0.478378 0.011145Q0.537516 0 0.599049 0Z"/>
	<path fill="rgb(58,55,104)" stroke="none" transform="translate(91.1832 72.6262)" d="M0.599049 0L0.863262 0Q0.924795 0 0.983933 0.011145Q1.04307 0.02229 1.09789 0.0442171Q1.15271 0.0661442 1.20142 0.0981396Q1.25013 0.130135 1.29115 0.171157Q1.33218 0.212179 1.36417 0.260892Q1.39617 0.309604 1.41809 0.364422Q1.44002 0.41924 1.45117 0.478378Q1.46231 0.537516 1.46231 0.599049L1.46231 10.346Q1.46231 10.4076 1.45117 10.4667Q1.44002 10.5258 1.41809 10.5806Q1.39617 10.6355 1.36417 10.6842Q1.33218 10.7329 1.29115 10.7739Q1.25013 10.8149 1.20142 10.8469Q1.15271 10.8789 1.09789 10.9009Q1.04307 10.9228 0.983933 10.9339Q0.924795 10.9451 0.863262 10.9451L0.599049 10.9451Q0.537516 10.9451 0.478378 10.9339Q0.41924 10.9228 0.364422 10.9009Q0.309604 10.8789 0.260891 10.8469Q0.212179 10.8149 0.171157 10.7739Q0.130135 10.7329 0.0981396 10.6842Q0.0661442 10.6355 0.0442171 10.5806Q0.02229 10.5258 0.011145 10.4667Q0 10.4076 0 10.346L0 0.599049Q0 0.537516 0.011145 0.478378Q0.02229 0.41924 0.0442171 0.364422Q0.0661442 0.309604 0.0981396 0.260891Q0.130135 0.212179 0.171157 0.171157Q0.212179 0.130135 0.260892 0.0981396Q0.309604 0.0661442 0.364422 0.0442171Q0.41924 0.02229 0.478378 0.011145Q0.537516 0 0.599049 0Z"/>
	<path fill="rgb(58,55,104)" stroke="none" transform="translate(91.2067 87.4009)" d="M0.599049 0L0.792759 0Q0.854292 0 0.91343 0.011145Q0.972568 0.02229 1.02739 0.0442171Q1.0822 0.0661442 1.13092 0.0981396Q1.17963 0.130135 1.22065 0.171157Q1.26167 0.212179 1.29367 0.260892Q1.32566 0.309604 1.34759 0.364422Q1.36952 0.41924 1.38066 0.478378Q1.39181 0.537516 1.39181 0.599049L1.39181 10.4402Q1.39181 10.5017 1.38066 10.5609Q1.36952 10.62 1.34759 10.6748Q1.32566 10.7296 1.29367 10.7783Q1.26167 10.8271 1.22065 10.8681Q1.17963 10.9091 1.13092 10.9411Q1.0822 10.9731 1.02739 10.995Q0.972568 11.0169 0.91343 11.0281Q0.854292 11.0392 0.792759 11.0392L0.599049 11.0392Q0.537516 11.0392 0.478378 11.0281Q0.41924 11.0169 0.364422 10.995Q0.309604 10.9731 0.260891 10.9411Q0.212179 10.9091 0.171157 10.8681Q0.130135 10.8271 0.0981396 10.7783Q0.0661442 10.7296 0.0442171 10.6748Q0.02229 10.62 0.011145 10.5609Q0 10.5017 0 10.4402L0 0.599049Q0 0.537516 0.011145 0.478378Q0.02229 0.41924 0.0442171 0.364422Q0.0661442 0.309604 0.0981396 0.260891Q0.130135 0.212179 0.171157 0.171157Q0.212179 0.130135 0.260892 0.0981396Q0.309604 0.0661442 0.364422 0.0442171Q0.41924 0.02229 0.478378 0.011145Q0.537516 0 0.599049 0Z"/>
	<path fill="rgb(58,55,104)" stroke="none" transform="translate(91.9639 40.3298)" d="M10.1995 0L67.1987 0Q67.4599 0 67.7194 0.0118901Q67.9789 0.0237802 68.2362 0.0475361Q68.4934 0.0712921 68.7478 0.106865Q69.0022 0.142439 69.2533 0.189757Q69.5043 0.237075 69.7516 0.296041Q69.9988 0.355008 70.2417 0.425502Q70.4846 0.495996 70.7227 0.577875Q70.9608 0.659754 71.1935 0.752849Q71.4262 0.845945 71.6532 0.950068Q71.8801 1.05419 72.1008 1.16913Q72.3215 1.28407 72.5354 1.40958Q72.7494 1.5351 72.9562 1.67094Q73.163 1.80679 73.3623 1.95268Q73.5616 2.09856 73.7528 2.2542Q73.9441 2.40984 74.127 2.57491Q74.3099 2.73998 74.4841 2.91415Q74.6582 3.08832 74.8233 3.27122Q74.9884 3.45413 75.144 3.6454Q75.2997 3.83667 75.4456 4.03592Q75.5914 4.23517 75.7273 4.44199Q75.8631 4.64881 75.9886 4.86278Q76.1142 5.07675 76.2291 5.29742Q76.344 5.5181 76.4482 5.74505Q76.5523 5.97199 76.6454 6.20472Q76.7385 6.43746 76.8204 6.67553Q76.9022 6.91359 76.9727 7.15649Q77.0432 7.39939 77.1022 7.64663Q77.1612 7.89388 77.2085 8.14496Q77.2558 8.39604 77.2914 8.65045Q77.3269 8.90486 77.3507 9.16207Q77.3744 9.41928 77.3863 9.67878Q77.3982 9.93828 77.3982 10.1995L77.3982 147.382Q77.3982 147.643 77.3863 147.902Q77.3744 148.162 77.3507 148.419Q77.3269 148.676 77.2914 148.931Q77.2558 149.185 77.2085 149.436Q77.1612 149.687 77.1022 149.935Q77.0432 150.182 76.9727 150.425Q76.9022 150.668 76.8204 150.906Q76.7385 151.144 76.6454 151.376Q76.5523 151.609 76.4482 151.836Q76.344 152.063 76.2291 152.284Q76.1142 152.504 75.9886 152.718Q75.8631 152.932 75.7273 153.139Q75.5914 153.346 75.4455 153.545Q75.2997 153.745 75.144 153.936Q74.9884 154.127 74.8233 154.31Q74.6582 154.493 74.4841 154.667Q74.3099 154.841 74.127 155.006Q73.9441 155.171 73.7528 155.327Q73.5616 155.483 73.3623 155.629Q73.163 155.774 72.9562 155.91Q72.7494 156.046 72.5354 156.172Q72.3215 156.297 72.1008 156.412Q71.8801 156.527 71.6532 156.631Q71.4262 156.735 71.1935 156.828Q70.9608 156.921 70.7227 157.003Q70.4846 157.085 70.2417 157.156Q69.9988 157.226 69.7516 157.285Q69.5043 157.344 69.2533 157.391Q69.0022 157.439 68.7478 157.474Q68.4934 157.51 68.2362 157.534Q67.9789 157.557 67.7194 157.569Q67.4599 157.581 67.1987 157.581L10.1995 157.581Q9.93828 157.581 9.67878 157.569Q9.41928 157.557 9.16207 157.534Q8.90486 157.51 8.65045 157.474Q8.39604 157.439 8.14496 157.391Q7.89388 157.344 7.64664 157.285Q7.39939 157.226 7.15649 157.156Q6.91359 157.085 6.67553 157.003Q6.43746 156.921 6.20472 156.828Q5.97199 156.735 5.74505 156.631Q5.51811 156.527 5.29743 156.412Q5.07675 156.297 4.86278 156.172Q4.64881 156.046 4.44199 155.91Q4.23517 155.774 4.03592 155.629Q3.83667 155.483 3.6454 155.327Q3.45413 155.171 3.27122 155.006Q3.08832 154.841 2.91415 154.667Q2.73998 154.493 2.57491 154.31Q2.40984 154.127 2.2542 153.936Q2.09856 153.745 1.95268 153.545Q1.80679 153.346 1.67094 153.139Q1.5351 152.932 1.40958 152.718Q1.28407 152.504 1.16913 152.284Q1.05419 152.063 0.950068 151.836Q0.845945 151.609 0.752849 151.377Q0.659754 151.144 0.577875 150.906Q0.495996 150.668 0.425502 150.425Q0.355008 150.182 0.296041 149.935Q0.237075 149.687 0.189757 149.436Q0.142439 149.185 0.106865 148.931Q0.0712921 148.676 0.0475361 148.419Q0.0237802 148.162 0.0118901 147.902Q0 147.643 0 147.382L0 10.1995Q0 9.93828 0.0118901 9.67878Q0.0237802 9.41928 0.0475361 9.16207Q0.0712921 8.90486 0.106865 8.65045Q0.142439 8.39604 0.189757 8.14496Q0.237075 7.89388 0.296041 7.64664Q0.355008 7.39939 0.425502 7.15649Q0.495996 6.91359 0.577875 6.67553Q0.659754 6.43746 0.752849 6.20472Q0.845945 5.97199 0.950068 5.74505Q1.05419 5.51811 1.16913 5.29743Q1.28407 5.07675 1.40958 4.86278Q1.5351 4.64881 1.67094 4.44199Q1.80679 4.23517 1.95268 4.03592Q2.09856 3.83667 2.2542 3.6454Q2.40984 3.45413 2.57491 3.27122Q2.73998 3.08832 2.91415 2.91415Q3.08832 2.73998 3.27122 2.57491Q3.45413 2.40984 3.6454 2.2542Q3.83667 2.09856 4.03592 1.95268Q4.23517 1.80679 4.44199 1.67094Q4.64881 1.5351 4.86278 1.40958Q5.07675 1.28407 5.29742 1.16913Q5.5181 1.05419 5.74505 0.950068Q5.97199 0.845945 6.20472 0.752849Q6.43746 0.659754 6.67553 0.577875Q6.91359 0.495996 7.15649 0.425502Q7.39939 0.355008 7.64663 0.296041Q7.89388 0.237075 8.14496 0.189757Q8.39604 0.142439 8.65045 0.106865Q8.90486 0.0712921 9.16207 0.0475361Q9.41928 0.0237802 9.67878 0.0118901Q9.93828 0 10.1995 0Z"/>
	<path fill="rgb(0,189,187)" stroke="none" transform="translate(97 44)" d="M61.6992 0L52.8209 0L52.8209 1.06992C52.8209 2.41493 52.2874 3.70482 51.3377 4.65565C50.3881 5.60647 49.1003 6.14029 47.7576 6.1396L19.5219 6.1396C18.1793 6.14029 16.8914 5.60647 15.9418 4.65565C14.9922 3.70482 14.4586 2.41493 14.4586 1.06992L14.4586 0L6.14694 0C2.75208 0 0 2.75699 0 6.15791L0 143.225C-1.48434e-14 144.858 0.647623 146.424 1.8004 147.579C2.95317 148.734 4.51667 149.383 6.14694 149.383L61.6992 149.383C65.0941 149.383 67.8462 146.626 67.8462 143.225L67.8462 6.16837C67.849 4.53338 67.2026 2.9644 66.0495 1.80731C64.8964 0.650211 63.3313 -2.36044e-06 61.6992 0Z"/>
	<path fill="rgb(230,232,236)" stroke="none" transform="translate(123.197 45.0359)" d="M1 0L9.80807 0Q9.91079 0 10.0095 0.0186045Q10.1082 0.037209 10.1997 0.0738122Q10.2912 0.110415 10.3726 0.163826Q10.4539 0.217236 10.5224 0.285714Q10.5908 0.354193 10.6442 0.43551Q10.6977 0.516827 10.7343 0.608335Q10.7709 0.699843 10.7895 0.798563Q10.8081 0.897283 10.8081 1L10.8081 1.19738Q10.8081 1.3001 10.7895 1.39882Q10.7709 1.49754 10.7343 1.58905Q10.6977 1.68056 10.6442 1.76187Q10.5908 1.84319 10.5224 1.91167Q10.4539 1.98015 10.3726 2.03356Q10.2912 2.08697 10.1997 2.12357Q10.1082 2.16018 10.0095 2.17878Q9.91079 2.19738 9.80807 2.19738L1 2.19738Q0.897283 2.19738 0.798563 2.17878Q0.699843 2.16018 0.608335 2.12357Q0.516827 2.08697 0.43551 2.03356Q0.354193 1.98015 0.285714 1.91167Q0.217236 1.84319 0.163826 1.76187Q0.110415 1.68056 0.0738122 1.58905Q0.037209 1.49754 0.0186045 1.39882Q0 1.3001 0 1.19738L0 1Q0 0.897283 0.0186045 0.798563Q0.037209 0.699843 0.0738122 0.608335Q0.110415 0.516827 0.163826 0.43551Q0.217236 0.354193 0.285714 0.285714Q0.354193 0.217236 0.43551 0.163826Q0.516827 0.110415 0.608335 0.0738122Q0.699843 0.037209 0.798563 0.0186045Q0.897283 0 1 0Z"/>
	<path fill="rgb(230,232,236)" stroke="none" transform="translate(135.64 44.8868)" d="M1.24557 2.4956C1.93349 2.4956 2.49115 1.93694 2.49115 1.2478C2.49115 0.558659 1.93349 0 1.24557 0C0.557663 0 0 0.558659 0 1.2478C0 1.93694 0.557663 2.4956 1.24557 2.4956Z"/>
	<path fill="rgb(0,132,177)" stroke="none" transform="translate(176.55 33.3899)" d="M19.6087 0.0286793C19.6087 0.0286793 -2.37824 -1.30022 0.212148 14.1338C0.212148 14.1338 -0.310107 16.8622 2.16538 18.0995C2.16538 18.0995 2.20455 16.9564 4.42153 17.3462C5.21081 17.4772 6.01264 17.5159 6.81084 17.4613C7.88761 17.3904 8.91221 16.9708 9.73025 16.2658L9.73025 16.2658C9.73025 16.2658 15.9111 13.7074 18.3135 3.58896C18.3135 3.58896 20.0918 1.38112 20.0213 0.813459L16.3107 2.40133C16.3107 2.40133 17.5797 5.08266 16.5718 7.31144C16.5718 7.31144 16.4517 2.49812 15.7388 2.60276C15.5952 2.62369 13.8117 3.53141 13.8117 3.53141C13.8117 3.53141 15.9921 8.20086 14.347 11.5963C14.347 11.5963 14.9711 5.84128 13.1301 3.86887L10.5189 5.39657C10.5189 5.39657 13.0675 10.2204 11.3388 14.1573C11.3388 14.1573 11.7827 8.11976 9.96788 5.76804L7.60206 7.6175C7.60206 7.6175 9.9966 12.3707 8.5369 15.6353C8.5369 15.6353 8.34627 8.60894 7.09025 8.07791C7.09025 8.07791 5.01951 9.90906 4.70354 10.6572C4.70354 10.6572 6.34342 14.1102 5.32503 15.9309C5.32503 15.9309 4.70093 11.2484 4.18912 11.2223C4.18912 11.2223 2.12621 14.3248 1.91209 16.4541C1.91209 16.4541 2.00087 13.2915 3.69037 10.9293C3.69037 10.9293 1.69535 11.272 0.530723 12.5668C0.530723 12.5668 0.85191 10.3747 4.19957 10.1811C4.19957 10.1811 5.90473 7.82678 6.35909 7.68552C6.35909 7.68552 3.03233 7.40561 1.01381 8.30288C1.01381 8.30288 2.78948 6.23367 6.97013 7.17541L9.30722 5.26316C9.30722 5.26316 4.9255 4.66411 3.06627 5.32594C3.06627 5.32594 5.20491 3.49479 9.93654 4.82892L12.4799 3.30644C12.4799 3.30644 8.74319 2.50074 6.51838 2.78326C6.51838 2.78326 8.86853 1.51453 13.2267 2.89051L15.0546 2.07172C15.0546 2.07172 12.318 1.53284 11.5164 1.44652C10.7147 1.36019 10.6729 1.14045 10.6729 1.14045C12.4067 0.850829 14.1867 1.04916 15.8145 1.71334C15.8145 1.71334 19.674 0.271961 19.6087 0.0286793Z"/>
	<path fill="rgb(0,132,177)" stroke="none" transform="translate(164.748 26.5415)" d="M8.85766 0.0128757C8.85766 0.0128757 -1.06518 -0.586173 0.0942264 6.38791C0.0942264 6.38791 -0.138177 7.62001 0.976837 8.17982C0.976837 8.17982 0.995116 7.65663 1.99785 7.83713C2.35401 7.89718 2.71602 7.91474 3.0763 7.88945C3.56338 7.85719 4.02653 7.66609 4.395 7.34534L4.395 7.34534C4.395 7.34534 7.18906 6.18909 8.27535 1.61644C8.27535 1.61644 9.07701 0.619772 9.04567 0.363411L7.36924 1.08018C7.36924 1.08018 7.94111 2.29135 7.49197 3.29849C7.49197 3.29849 7.43713 1.12465 7.11594 1.17435C7.05066 1.17435 6.24378 1.59552 6.24378 1.59552C6.24378 1.59552 7.23084 3.70657 6.48663 5.23951C6.48663 5.23951 6.76864 2.63927 5.93565 1.74724L4.75535 2.44831C4.75535 2.44831 5.90692 4.62738 5.12615 6.40622C5.12615 6.40622 5.32722 3.6778 4.50728 2.61573L3.43927 3.45283C3.43927 3.45283 4.52034 5.60051 3.8623 7.0759C3.8623 7.0759 3.77351 3.90015 3.20687 3.65949C3.20687 3.65949 2.27203 4.48612 2.12841 4.82619C2.12841 4.82619 2.87001 6.39575 2.41043 7.20931C2.41043 7.20931 2.12841 5.09302 1.88817 5.08255C1.88817 5.08255 0.955947 6.48469 0.85933 7.43689C0.905983 6.54907 1.18322 5.68884 1.6636 4.94129C1.12565 5.04337 0.629186 5.30069 0.235235 5.6816C0.235235 5.6816 0.381467 4.69016 1.89339 4.60384C1.89339 4.60384 2.67678 3.53915 2.87001 3.47376C2.87001 3.47376 1.36592 3.34819 0.454582 3.75366C0.454582 3.75366 1.25624 2.81977 3.14419 3.24355L4.1887 2.3803C4.1887 2.3803 2.20675 2.1187 1.36853 2.40907C1.36853 2.40907 2.3347 1.58244 4.47333 2.1841L5.62229 1.49611C5.62229 1.49611 3.9328 1.1325 2.92746 1.26329C2.92746 1.26329 3.99025 0.690402 5.95915 1.31038L6.7817 0.941532C6.7817 0.941532 5.54396 0.69825 5.18099 0.659011C4.81802 0.619772 4.79974 0.520367 4.79974 0.520367C5.58364 0.38973 6.38836 0.48031 7.12378 0.78196C7.12378 0.78196 8.889 0.122745 8.85766 0.0128757Z"/>
	<path fill="rgb(241,247,251)" stroke="none" transform="translate(218.888 201.372)" d="M7.03217 2.38049C10.9159 2.38049 14.0643 1.8476 14.0643 1.19025C14.0643 0.532892 10.9159 0 7.03217 0C3.14841 0 0 0.532892 0 1.19025C0 1.8476 3.14841 2.38049 7.03217 2.38049Z"/>
	<path fill="rgb(241,247,251)" stroke="none" transform="translate(17.0151 211.14)" d="M7.03217 2.38049C10.9159 2.38049 14.0643 1.8476 14.0643 1.19025C14.0643 0.532892 10.9159 0 7.03217 0C3.14841 0 0 0.532892 0 1.19025C0 1.8476 3.14841 2.38049 7.03217 2.38049Z"/>
	<path fill="rgb(241,247,251)" stroke="none" transform="translate(44.2167 217.525)" d="M7.03217 2.38049C10.9159 2.38049 14.0643 1.8476 14.0643 1.19025C14.0643 0.532892 10.9159 0 7.03217 0C3.14841 0 0 0.532892 0 1.19025C0 1.8476 3.14841 2.38049 7.03217 2.38049Z"/>
	<defs>
		<linearGradient id="gradient_0" gradientUnits="userSpaceOnUse" x1="0.14387673" y1="0.017557791" x2="0.14387673" y2="0">
			<stop offset="0" stop-color="rgb(128,128,128)" stop-opacity="0.25098041"/>
			<stop offset="0.53999329" stop-color="rgb(128,128,128)" stop-opacity="0.12156863"/>
			<stop offset="1" stop-color="rgb(128,128,128)" stop-opacity="0.10196079"/>
		</linearGradient>
	</defs>
	<path fill="url(#gradient_0)" stroke="none" transform="translate(73.9592 116.592)" d="M0 0C0.0765132 0.07387 0.19244 0.0887599 0.285138 0.0366235C0.188831 0.0380775 0.0928127 0.0257447 0 1.487e-14L0 0Z"/>
	<defs>
		<linearGradient id="gradient_1" gradientUnits="userSpaceOnUse" x1="38.973988" y1="103.74512" x2="38.973988" y2="-0.00018403717">
			<stop offset="0" stop-color="rgb(128,128,128)" stop-opacity="0.25098041"/>
			<stop offset="0.53999329" stop-color="rgb(128,128,128)" stop-opacity="0.12156863"/>
			<stop offset="1" stop-color="rgb(128,128,128)" stop-opacity="0.10196079"/>
		</linearGradient>
	</defs>
	<path fill="url(#gradient_1)" stroke="none" transform="translate(31.0787 48.9313)" d="M74.1714 15.6039C73.6204 15.4417 72.837 15.1775 71.8891 14.8452C72.8728 13.5582 73.5917 12.0885 74.0043 10.5211L73.9233 10.5525C73.9494 10.4557 73.9781 10.3615 74.0043 10.2647C72.192 11.0129 70.184 9.74155 68.907 8.11706C67.6301 6.49256 66.7606 4.47045 65.3635 2.97152C64.7802 2.37781 64.1525 1.8295 63.486 1.33133C63.0735 1.00695 62.6269 0.669495 62.123 0.653799C61.6432 0.639936 61.2241 0.914523 60.8001 1.19233C60.5041 1.3863 60.2056 1.58184 59.8825 1.68186C59.3642 1.80051 58.8239 1.78066 58.3157 1.62431C56.2868 1.15083 54.3309 0.279721 52.2706 0.0547506C51.1632 -0.0848419 50.0386 0.0434324 48.9908 0.428829C47.9463 0.831683 47.4763 1.62954 46.6407 2.25998C45.7346 2.94536 43.9302 2.92966 42.8622 3.04476C41.5674 3.19375 40.2636 3.24882 38.9609 3.20957C38.2119 3.14173 37.4572 3.16986 36.7152 3.29328C35.1641 3.63858 33.9186 4.889 32.7565 6.09233C32.4379 6.3671 32.2095 6.73178 32.1011 7.1387C32.0868 7.25335 32.0868 7.36935 32.1011 7.484C32.0891 7.79679 32.1425 8.10865 32.2578 8.39958C32.6089 9.48113 33.1099 10.5079 33.7462 11.4498C34.2215 12.1404 34.7724 12.7891 35.0519 13.6053C35.1801 14.0072 35.2479 14.426 35.2529 14.8479C35.2383 15.2961 35.192 15.7428 35.1145 16.1846C34.9093 17.4027 34.5722 18.5947 34.1092 19.7396C33.8637 20.3465 33.5869 20.9508 33.5216 21.6153C33.5139 21.7477 33.5139 21.8805 33.5216 22.0129C33.4783 23.1454 34.0824 24.1035 34.697 25.0784C35.194 25.8667 35.6978 26.6659 35.8718 27.577C35.9027 27.7455 35.9219 27.9159 35.9292 28.0871C35.8848 29.3584 35.172 30.601 34.1222 31.0928C34.2136 31.1294 34.3076 31.1608 34.4016 31.1948C34.3114 31.2522 34.2182 31.3046 34.1222 31.3518C34.3129 31.425 34.5087 31.4878 34.7072 31.5454C33.5065 32.5991 32.4982 33.8543 31.7277 35.2547C28.2129 41.9332 4.25708 55.0338 4.25708 55.0338C4.25708 55.0338 4.39286 55.1097 4.61221 55.2405C4.52343 55.2954 4.42942 55.3582 4.32497 55.4288C2.25162 56.831 -2.6158 60.9223 1.7842 66.0809C1.7842 66.0809 5.21803 60.5744 7.62301 58.2331C7.73269 58.1285 7.83714 58.0317 7.93898 57.9401C8.04765 58.1071 8.08173 58.3119 8.03298 58.5052L23.7868 49.5142C23.7868 49.5142 29.3854 45.5328 30.9469 44.6329C31.4849 44.3242 32.8558 43.4662 34.4957 43.0869L34.3129 43.1679C34.9014 43.0031 35.5088 42.9152 36.1199 42.9064C38.9087 42.9508 41.9273 45.0253 42.9249 53.2419C44.2592 64.2445 43.6403 66.2274 43.2121 66.4995C43.159 66.4954 43.1065 66.4858 43.0554 66.4707C43.0681 66.4827 43.0821 66.4932 43.0972 66.5021C43.0387 66.4983 42.9809 66.4878 42.9249 66.4707C42.986 66.529 43.0733 66.5508 43.1546 66.5282C43.2134 66.5454 43.2766 66.5379 43.3296 66.5073L43.5411 66.5073C43.5411 66.6067 43.5254 66.7113 43.5176 66.8134C43.4967 66.8134 43.3923 66.8735 43.5176 66.8814C43.4863 67.5014 43.4889 68.1893 43.5176 68.8826C42.131 68.9611 40.747 69.0448 39.5328 69.1206L39.6425 68.5373L39.6921 68.2757C40.7549 68.1893 41.7654 67.8728 41.883 66.9939C42.1441 65.0685 39.5328 64.0405 37.3263 63.9123C35.1197 63.7841 21.8336 64.684 21.8336 64.684C21.8336 64.684 19.8412 67.2999 26.1578 68.1135C26.3459 68.2129 26.5417 68.3228 26.7402 68.4379C29.213 69.8714 32.5711 72.5083 34.1771 73.8084L34.4016 73.9889L33.6809 74.5722C37.5978 75.4721 41.3633 90.6288 43.4445 97.5637C45.5257 104.499 50.085 104.242 53.8609 103.217C57.3992 102.251 57.8509 91.8165 57.8927 90.5059L57.8927 90.3725L64.1833 98.249L64.6611 98.8481C64.8465 98.9449 65.0267 99.0364 65.2043 99.1228C69.9698 101.427 75.2342 97.0117 73.7353 91.9891C72.2234 86.9142 69.8732 79.4143 68.3064 76.2438C67.0008 73.5886 65.3009 69.1808 64.272 66.4131C64.4054 66.3582 64.5353 66.2953 64.6611 66.2248C64.6611 66.2248 64.6376 66.1018 64.5958 65.8743L64.6611 65.8402C64.6611 65.8402 63.1466 57.8486 63.063 52.1746L63.063 51.6907C64.2015 51.4291 64.9222 51.3244 64.9222 51.3244L64.9431 51.0785L64.81 51.1073L65.4419 43.7461C65.4419 43.7461 67.7659 38.7261 65.9876 36.6333C65.4462 36.019 65.0847 35.2667 64.9431 34.4595C64.6454 32.5342 64.9431 29.3297 69.0872 26.664C75.4666 22.5544 77.9421 19.2138 77.9421 19.2138C77.9421 19.2138 78.0778 16.7601 74.1714 15.6039ZM61.5015 20.7102L61.5015 17.3094C62.0591 17.2823 62.6226 17.2988 63.1869 17.3153C63.8196 17.3338 64.4535 17.3523 65.0815 17.3094C65.6659 17.2682 66.2448 17.1701 66.8102 17.0165L67.0974 17.2179C65.3591 18.5747 63.4835 19.7452 61.5015 20.7102ZM44.8154 75.0405C44.3532 74.6978 43.8832 74.3551 43.4158 74.0255C44.1907 75.2806 44.8463 76.6057 45.3742 77.9834C45.3559 77.9023 45.1027 76.7173 44.8154 75.0405Z" fill-rule="evenodd"/>
	<path fill="rgb(255,189,198)" stroke="none" transform="translate(69.8124 120.809)" d="M14.9078 0L14.6258 1.53294L14.409 2.70487L14.0147 4.84994L10.1918 7.53127C10.1918 7.53127 9.84712 7.23567 9.27786 6.77003C7.7111 5.47776 4.41828 2.84613 2.00024 1.43353C1.3783 1.03642 0.705406 0.725768 0 0.510107L14.9078 0Z"/>
	<path fill="rgb(0,0,0)" fill-opacity="0.098039217" stroke="none" transform="translate(69.8124 120.809)" d="M14.9078 0L14.6258 1.53294C13.7827 1.5788 12.9371 1.53496 12.1033 1.40214L3.18315 1.53032C2.76273 1.50417 2.36843 1.47277 2.00024 1.43353C1.3783 1.03642 0.705406 0.725771 0 0.510108L14.9078 0Z"/>
	<path fill="rgb(71,68,99)" stroke="none" transform="translate(66.7194 117.731)" d="M15.1964 4.21898C15.1964 4.21898 19.6538 4.98545 19.915 3.07844C20.1761 1.17142 17.6197 0.140747 15.4549 0.0125666C13.2902 -0.115614 0.291227 0.779035 0.291227 0.779035C0.291227 0.779035 -2.00147 3.84229 6.27888 4.35501L15.1964 4.21898Z"/>
	<path fill="rgb(0,0,0)" fill-opacity="0.098039217" stroke="none" transform="translate(69.8124 120.809)" d="M14.9078 0L14.6258 1.53294L14.409 2.70487L14.0147 4.84994L10.1918 7.53127C10.1918 7.53127 9.84712 7.23567 9.27786 6.77003C7.7111 5.47776 4.41828 2.84613 2.00024 1.43353C1.3783 1.03642 0.705406 0.725768 0 0.510107L14.9078 0Z"/>
	<path fill="rgb(0,0,0)" fill-opacity="0.098039217" stroke="none" transform="translate(69.8124 120.809)" d="M14.9078 0L14.6258 1.53294C13.7827 1.5788 12.9371 1.53496 12.1033 1.40214L3.18315 1.53032C2.76273 1.50417 2.36843 1.47277 2.00024 1.43353C1.3783 1.03642 0.705406 0.725771 0 0.510108L14.9078 0Z"/>
	<path fill="rgb(0,0,0)" fill-opacity="0.098039217" stroke="none" transform="translate(66.7167 117.718)" d="M15.199 4.22683C15.199 4.22683 19.6591 4.99068 19.915 3.07582C20.1709 1.16096 17.6197 0.140747 15.4549 0.0125666C13.2902 -0.115614 0.291227 0.779035 0.291227 0.779035C0.291227 0.779035 -2.00147 3.84229 6.27888 4.3524L15.199 4.22683Z"/>
	<path fill="rgb(71,68,99)" stroke="none" transform="translate(68.3449 59.0208)" d="M0 0L23.3187 0L23.3187 27.7001L0 27.7001L0 0Z"/>
	<path fill="rgb(0,0,0)" fill-opacity="0.098039217" stroke="none" transform="translate(68.3449 59.1462)" d="M0 0L23.3187 0L23.3187 27.7001L0 27.7001L0 0Z"/>
	<path fill="rgb(255,189,198)" stroke="none" transform="translate(32.1342 104.138)" d="M8.8811 2.30202C8.49725 2.39881 8.00633 2.77027 7.46057 3.30916C5.11042 5.63995 1.74449 11.1099 1.74449 11.1099C-2.5589 5.97479 2.20407 1.91748 4.23303 0.523187C4.72656 0.185731 5.0582 0 5.0582 0L8.8811 2.30202Z"/>
	<path fill="rgb(255,189,198)" stroke="none" transform="translate(72.1052 67.7632)" d="M12.3592 0C12.3592 0 13.5055 8.04138 17.4564 9.95624C21.4072 11.8711 12.3592 15.4497 12.3592 15.4497L0 10.8509C0 10.8509 7.00866 8.55148 5.60641 1.78668L12.3592 0Z"/>
	<path fill="rgb(255,189,198)" stroke="none" transform="translate(56.2939 116.142)" d="M14.9182 0L14.6388 1.52771L14.4116 2.70487L14.0173 4.84994L10.1944 7.52866C10.1944 7.52866 9.84973 7.23567 9.28047 6.77004C7.71371 5.47776 4.42089 2.84614 2.00024 1.43353C1.3786 1.03587 0.705626 0.72519 0 0.510107L14.9182 0Z"/>
	<path fill="rgb(0,0,0)" fill-opacity="0.098039217" stroke="none" transform="translate(56.3043 116.142)" d="M14.9078 0L14.6284 1.52771C13.7853 1.57357 12.9397 1.52972 12.1059 1.39691L3.18576 1.52509C2.76534 1.49893 2.36843 1.46754 2.00024 1.4283C1.3786 1.03064 0.705626 0.719959 0 0.504876L14.9078 0Z"/>
	<path fill="rgb(71,68,99)" stroke="none" transform="translate(53.2106 113.064)" d="M15.1996 4.22683C15.1996 4.22683 19.6597 4.99068 19.913 3.07844C20.1663 1.16619 17.6203 0.140747 15.4529 0.0125666C13.2856 -0.115614 0.291867 0.779035 0.291867 0.779035C0.291867 0.779035 -2.00344 3.84229 6.27952 4.35501L15.1996 4.22683Z"/>
	<path fill="rgb(0,0,0)" fill-opacity="0.098039217" stroke="none" transform="translate(65.5743 118.758)" d="M5.13116 0.0889417L4.73685 2.23401L0.913947 4.91272C0.913947 4.91272 0.569258 4.61974 0 4.1541L5.05543 0L5.13116 0.0889417Z"/>
	<path fill="rgb(59,74,107)" stroke="none" transform="translate(65.1069 113.087)" d="M30.847 34.9829C30.672 34.8965 30.4971 34.8076 30.3247 34.7213L29.8547 34.1275L23.6895 26.2954C23.6895 26.2954 23.6895 26.3424 23.6895 26.4314C23.6477 27.7394 23.2038 38.1037 19.7412 39.0611C16.0463 40.0813 11.5888 40.3377 9.55727 33.4447C7.5257 26.5517 3.81246 11.4892 0 10.5945L5.67169 5.93555C5.67169 5.93555 9.42671 10.3356 10.9569 14.5472C10.8995 14.2856 8.30647 2.14768 10.4347 0L29.04 0C29.04 0 31.9124 8.19572 33.8813 12.2556C35.4141 15.4078 37.7147 22.8606 39.1953 27.9042C40.6628 32.8849 35.5107 37.2823 30.847 34.9829Z"/>
	<path fill="rgb(0,0,0)" fill-opacity="0.098039217" stroke="none" transform="translate(74.6726 97.5037)" d="M20.7512 17.8721C17.8788 19.575 5.26897 18.8818 1.16665 18.6045L0.049027 18.5234C-0.0710917 18.5234 0.0673059 18.4554 0.0673059 18.4554L0.182202 17.2965L3.24001 9.51153L19.6127 0C19.2811 1.0019 19.1714 2.53484 19.1975 4.29013C19.2732 9.93008 20.7512 17.8721 20.7512 17.8721Z"/>
	<path fill="rgb(242,241,242)" stroke="none" transform="translate(74.5363 97.127)" d="M20.8876 17.8642C18.0152 19.5672 5.40534 18.874 1.30303 18.5967L0.185401 18.5182L0 18.5025L0.20368 18.4502L1.21163 18.1886L3.37638 9.50892L19.7491 0C19.4174 1.0019 19.3078 2.53484 19.3339 4.29013C19.4096 9.92485 20.8876 17.8642 20.8876 17.8642Z"/>
	<path fill="rgb(0,0,0)" fill-opacity="0.098039217" stroke="none" transform="translate(74.7112 97.127)" d="M19.1485 4.2849C15.8191 5.05398 8.49187 7.31153 5.67691 12.7605C3.79941 16.3888 2.21958 17.9453 1.11763 18.5967L0 18.5182C0.00730816 18.4959 0.01341 18.4732 0.0182789 18.4502L1.02623 18.1886L3.19098 9.50892L19.5637 0C19.2347 0.996671 19.1224 2.52961 19.1485 4.2849Z"/>
	<path fill="rgb(0,0,0)" fill-opacity="0.098039217" stroke="none" transform="translate(36.3672 104.143)" d="M0.825163 0L4.64807 2.29679C4.26421 2.39358 3.77329 2.76504 3.22754 3.30392C2.90896 2.37265 0.908724 1.07253 0 0.517955C0.493531 0.185731 0.825163 0 0.825163 0Z"/>
	<path fill="rgb(0,0,0)" fill-opacity="0.098039217" stroke="none" transform="translate(73.7686 115.758)" d="M0.261597 0.0366235C0.175509 0.0814442 0.0704695 0.0667387 0 0C0.0849469 0.0248976 0.173079 0.0372361 0.261597 0.0366235L0.261597 0.0366235Z"/>
	<path fill="rgb(255,90,95)" stroke="none" transform="translate(36.2889 57.6865)" d="M46.3919 19.5227C46.3919 19.5227 42.9503 19.9046 40.5296 17.3515C40.5296 17.3515 30.3456 20.2892 26.8961 26.9258C23.4466 33.5624 0 46.5845 0 46.5845C0 46.5845 4.07881 48.8813 3.69496 50.0297L19.1145 41.0937C19.1145 41.0937 24.5982 37.1384 26.1206 36.2438C27.643 35.3491 36.0617 29.8609 37.8452 44.7952C39.6287 59.7296 37.8452 57.9429 37.8452 57.9429C37.8452 57.9429 40.3938 58.8376 44.0888 51.6882C47.7837 44.5389 59.2498 42.8804 59.2498 42.8804L59.887 35.3517C59.887 35.3517 62.1614 30.3605 60.4093 28.2887C59.8784 27.6753 59.5253 26.9281 59.3882 26.1279C59.0984 24.2157 59.3882 21.0295 63.4462 18.3822C69.6897 14.2961 72.1104 10.9791 72.1104 10.9791C72.1104 10.9791 72.2383 8.55149 68.4154 7.40309C64.5925 6.2547 49.0476 0 49.0476 0L48.5253 2.17122L60.7905 10.843C60.7905 10.843 54.6749 15.8133 49.8231 15.693C49.8231 15.693 50.724 19.3945 46.3919 19.5227Z"/>
	<path fill="rgb(0,0,0)" fill-opacity="0.098039217" stroke="none" transform="translate(77.4296 68.145)" d="M7.61187 3.11819C7.3105 2.09498 7.075 1.05344 6.90683 0L0.154065 1.78668C0.451777 3.07809 0.398576 4.42583 0 5.68965C2.82263 6.44436 5.82188 5.43115 7.61187 3.11819L7.61187 3.11819Z"/>
	<path fill="rgb(255,189,198)" stroke="none" transform="translate(72.1705 59.1489)" d="M7.26196 14.5498C11.2726 14.5498 14.5239 11.2927 14.5239 7.27491C14.5239 3.25709 11.2726 0 7.26196 0C3.25129 0 0 3.25709 0 7.27491C0 11.2927 3.25129 14.5498 7.26196 14.5498Z"/>
	<path fill="rgb(0,0,0)" fill-opacity="0.098039217" stroke="none" transform="translate(63.5293 49.8184)" d="M19.7652 0.0596695C21.7811 0.287256 23.6951 1.15575 25.6797 1.62923C26.1755 1.78458 26.7035 1.80535 27.2099 1.6894C27.9803 1.44873 28.607 0.643023 29.406 0.666566C29.8969 0.666566 30.333 1.0171 30.7378 1.33886C31.3875 1.83577 31.9985 2.38146 32.5657 2.9712C33.934 4.45967 34.7826 6.46347 36.0308 8.08274C37.279 9.702 39.2479 10.9603 41.021 10.2173C39.8146 14.926 35.8637 18.5125 31.589 18.8054C29.8839 18.9205 28.1369 18.5648 26.4866 19.067C26.0753 19.2346 25.6415 19.3404 25.1992 19.381C24.2487 19.381 23.4836 18.5072 22.8909 17.6571C21.5017 15.6585 20.4023 13.3878 18.8382 11.5645C18.3159 10.9629 17.7127 10.39 16.9816 10.2801C16.2504 10.1703 15.5793 10.5182 14.9291 10.8556C13.8559 11.4128 12.7591 11.9909 11.9261 12.9484C11.0931 13.9058 10.5683 15.3289 10.913 16.6107C11.0984 17.3065 11.5214 17.9343 11.5292 18.6616C11.5449 19.8204 10.5213 20.6706 10.3202 21.8007C10.2748 22.2753 10.2583 22.7523 10.2706 23.229C10.1818 24.7776 9.17123 26.0464 8.11628 27.0195C7.7037 27.3988 7.24933 27.8043 7.12921 28.3902C7.04827 28.7879 7.12921 29.2116 7.07699 29.6145C6.92292 30.619 5.92281 31.1291 5.03758 31.2625C4.00328 31.4134 2.94755 31.2879 1.97717 30.8989C3.21491 30.3103 3.97741 28.644 3.69017 27.1477C3.29586 25.0758 1.21729 23.59 1.39485 21.4789C1.49293 20.8321 1.68655 20.2035 1.96933 19.6138C2.42258 18.4754 2.75177 17.2914 2.95117 16.0823C3.10785 15.1458 3.18358 14.1543 2.89111 13.2649C2.62999 12.4513 2.08423 11.8078 1.62203 11.1225C0.994905 10.1892 0.500134 9.17323 0.151886 8.10366C0.0246365 7.78788 -0.0237666 7.44576 0.0108776 7.10699C0.112538 6.70097 0.335787 6.33583 0.65064 6.06062C1.78655 4.86514 3.00079 3.61996 4.52316 3.27988C5.24935 3.1569 5.98829 3.12789 6.72186 3.19356C7.99754 3.23501 9.27454 3.1808 10.5422 3.03137C11.5867 2.90842 13.3519 2.92673 14.2371 2.24659C15.0623 1.61092 15.5271 0.81829 16.5429 0.415436C17.5721 0.0360776 18.6782 -0.0860412 19.7652 0.0596695L19.7652 0.0596695Z"/>
	<path fill="rgb(0,0,0)" fill-opacity="0.098039217" stroke="none" transform="translate(87.3315 125.013)" d="M0 0C0 0 4.20416 8.29774 2.92985 10.8483"/>
	<path fill="rgb(0,0,0)" fill-opacity="0.098039217" stroke="none" transform="translate(88.7459 137.662)" d="M6.20793 9.54219L0.0505427 1.72054C0.0505427 1.72054 0.0505427 1.76763 0.0505427 1.85657C0.0505427 1.85657 -0.304591 -0.675653 0.867872 0.174526C3.43737 2.03707 7.54751 5.08987 7.6363 5.61567C7.72508 6.14147 6.8033 8.24207 6.20793 9.54219Z"/>
	<path fill="rgb(0,0,0)" stroke="none" transform="translate(85.0884 73.2776)" d="M1.15941 0.102021C1.15941 0.102021 1.68166 2.25755 0 3.33532C2.58516 2.89322 2.70006 0.876338 2.61128 0C2.13129 0.0770402 1.64542 0.111182 1.15941 0.102021L1.15941 0.102021Z"/>
	<path fill="rgb(0,0,0)" stroke="none" transform="translate(36.4273 75.2473)" d="M1.40226 28.5111C1.40226 28.5111 24.8463 15.4916 28.2984 8.85493C30.7661 4.09132 36.7145 1.23472 39.8742 0C37.571 0.78478 29.8103 3.7434 26.8961 9.36504C23.4571 16.0017 0 29.0238 0 29.0238L1.40226 28.5111Z"/>
	<path fill="rgb(0,0,0)" stroke="none" transform="translate(84.9709 57.6761)" d="M5.84142 14.6885C9.83145 13.4459 13.6439 10.3434 13.6439 10.3434L1.40226 1.6585L1.68166 0.470868L0.509199 0L0 2.17122L12.2338 10.8509C10.2732 12.3951 8.1253 13.6846 5.84142 14.6885L5.84142 14.6885Z"/>
	<path fill="rgb(0,0,0)" stroke="none" transform="translate(90.8829 100.321)" d="M1.48434e-14 1.45969C1.56259 0.925484 3.16598 0.519547 4.7943 0.245898L4.81519 0C3.1749 0.361237 1.56502 0.849261 0 1.45969L1.48434e-14 1.45969Z"/>
	<path fill="rgb(0,0,0)" stroke="none" transform="translate(65.7258 91.7)" d="M10.3302 23.4535L10.2179 23.4535C10.1319 23.4975 10.0275 23.4829 9.95679 23.4169C10.0416 23.4417 10.1296 23.454 10.2179 23.4535C10.6357 23.2103 11.2624 21.3032 9.95679 10.2692C8.55193 -1.50246 3.02386 -0.584272 0 0.770781C3.09175 -0.0820128 7.34552 0.65568 8.55454 10.7793C9.87323 21.8133 9.24392 23.7204 8.81567 23.9636C9.35902 23.9433 9.88494 23.7662 10.3302 23.4535L10.3302 23.4535Z"/>
	<path fill="rgb(0,0,0)" stroke="none" transform="translate(74.2804 115.629)" d="M0.261593 0.036623C0.173086 0.0370871 0.0849769 0.0247519 0 0C0.0708232 0.0659971 0.175369 0.0806335 0.261593 0.036623L0.261593 0.036623Z"/>
	<path fill="rgb(59,74,107)" stroke="none" transform="translate(63.5297 49.5665)" d="M19.7648 0.0551352C21.7807 0.285337 23.6948 1.15121 25.6794 1.6247C26.1754 1.77918 26.7034 1.79904 27.2096 1.68225C27.9799 1.4442 28.6066 0.635872 29.4057 0.659416C29.8966 0.675111 30.3327 1.00995 30.7374 1.33171C31.3865 1.82938 31.9975 2.37501 32.5653 2.96405C33.9336 4.45252 34.7823 6.45632 36.0305 8.07559C37.2786 9.69485 39.2476 10.9531 41.0206 10.2102C39.8142 14.9189 35.8633 18.5053 31.5887 18.7983C29.8835 18.916 28.1366 18.5602 26.4862 19.0599C26.0753 19.2287 25.6413 19.3345 25.1989 19.3738C24.2484 19.3738 23.4833 18.5001 22.8905 17.6499C21.5013 15.6513 20.402 13.3833 18.8378 11.56C18.3156 10.9557 17.7124 10.3828 16.9812 10.273C16.25 10.1631 15.5789 10.5136 14.9287 10.8511C13.8555 11.4083 12.7588 11.9838 11.9258 12.9438C11.0928 13.9039 10.5679 15.3217 10.9126 16.6061C11.098 17.302 11.521 17.9298 11.5289 18.657C11.5445 19.8185 10.5209 20.6661 10.3198 21.7962C10.2744 22.2708 10.2579 22.7478 10.2702 23.2245C10.1814 24.7731 9.17088 26.0392 8.11592 27.0149C7.70334 27.3916 7.24898 27.7997 7.12886 28.3831C7.04791 28.7833 7.12886 29.2045 7.07663 29.61C6.92257 30.6145 5.92245 31.1246 5.03723 31.2554C4.00296 31.4088 2.94658 31.2832 1.97681 30.8918C3.21456 30.3058 3.97705 28.6368 3.68981 27.1431C3.29551 25.0713 1.21693 23.5828 1.3945 21.4744C1.4922 20.8275 1.68583 20.1988 1.96898 19.6092C2.42191 18.4699 2.75108 17.285 2.95082 16.0751C3.1075 15.1412 3.18322 14.1498 2.89076 13.2578C2.62963 12.4468 2.08388 11.8007 1.62168 11.1153C0.995057 10.1827 0.500313 9.16766 0.151531 8.09913C0.0249742 7.78225 -0.0233973 7.43945 0.0105221 7.09984C0.115216 6.69881 0.338172 6.33871 0.650285 6.06655C1.78619 4.87107 3.00043 3.6285 4.52281 3.28581C5.24923 3.16498 5.98802 3.13686 6.7215 3.2021C7.99718 3.24223 9.27408 3.18802 10.5418 3.03992C11.5863 2.91697 13.3515 2.93266 14.2368 2.25514C15.0619 1.62208 15.5267 0.826836 16.5425 0.423982C17.5711 0.0420548 18.6767 -0.084505 19.7648 0.0551352L19.7648 0.0551352Z"/>
	<path fill="rgb(255,255,255)" stroke="none" transform="translate(115 107)" d="M13.1326 23.5142L31.5303 5.00936C31.831 4.70771 32 4.29809 32 3.87091C32 3.44372 31.831 3.0341 31.5303 2.73245L29.2665 0.472193C28.9672 0.169917 28.5605 5.68434e-14 28.1363 5.68434e-14C27.7122 5.68434e-14 27.3055 0.169917 27.0061 0.472193L12.0007 15.565L4.99444 8.50128C4.36833 7.87498 3.35684 7.87498 2.73072 8.50128L0.467005 10.7915C-0.155668 11.4213 -0.155668 12.4386 0.467005 13.0684L10.8689 23.5275C11.1688 23.83 11.576 24 12.0007 24C12.4254 24 12.8327 23.83 13.1326 23.5275L13.1326 23.5142Z"/>

</svg>