<?xml version="1.0" encoding="utf-8"?>
<!-- Generator: Adobe Illustrator 23.0.3, SVG Export Plug-In . SVG Version: 6.00 Build 0)  -->
<svg version="1.1" id="Layer_1" xmlns="http://www.w3.org/2000/svg" xmlns:xlink="http://www.w3.org/1999/xlink" x="0px" y="0px"
	 viewBox="0 0 27 27" style="enable-background:new 0 0 27 27;" xml:space="preserve">
<style type="text/css">
	.st0{fill-rule:evenodd;clip-rule:evenodd;fill:#FFFFFF;}
</style>
<title>Atoms/Icon/filter</title>
<desc>Created with Sketch.</desc>
<g>
	<g id="Shape">
		<path class="st0" d="M0.5,0C0.2,0.1,0,0.3,0,0.6v1.8c0,0.2,0.1,0.3,0.2,0.4l9.7,9.8v10.3c0,0.2,0.1,0.4,0.3,0.5l6.1,3.5
			c0.2,0.1,0.4,0.1,0.6,0c0.2-0.1,0.3-0.3,0.3-0.5V12.6l9.6-9.7l0,0l0.1-0.1c0,0,0.1-0.1,0.1-0.1l0,0C27,2.6,27,2.5,27,2.4V2.3
			c0,0,0-0.1,0-0.1V0.6C27,0.3,26.7,0,26.4,0H0.5z M1.2,1.2h24.6v1l-9.5,9.6h-5.6L1.2,2.1V1.2z M11.1,12.9H16v12.5l-4.9-2.8V12.9z"
			/>
	</g>
</g>
</svg>
