<?xml version="1.0" encoding="utf-8"?>
<!-- Generator: Adobe Illustrator 23.0.3, SVG Export Plug-In . SVG Version: 6.00 Build 0)  -->
<svg version="1.1" id="Layer_1" xmlns="http://www.w3.org/2000/svg" xmlns:xlink="http://www.w3.org/1999/xlink" x="0px" y="0px"
	 viewBox="0 0 27 27" style="enable-background:new 0 0 27 27;" xml:space="preserve">
<style type="text/css">
	.st0{fill-rule:evenodd;clip-rule:evenodd;fill:#FFFFFF;}
</style>
<title>Atoms/Icon/logout</title>
<desc>Created with Sketch.</desc>
<g>
	<g id="Combined-Shape">
		<path class="st0" d="M2.9,14.2l4,4.6c0.2,0.3,0.2,0.7-0.1,0.9c-0.1,0.1-0.3,0.2-0.4,0.2c-0.2,0-0.4-0.1-0.5-0.2l-4.6-5.3
			c-0.4-0.5-0.4-1.2,0-1.7l4.6-5.3C6.2,7.1,6.6,7,6.9,7.3c0.3,0.2,0.3,0.7,0.1,0.9l-4,4.6H17c0.4,0,0.7,0.3,0.7,0.7
			c0,0.4-0.3,0.7-0.7,0.7H2.9z M22.7,1c1.5,0,2.8,1.2,2.8,2.8v19.5c0,1.5-1.3,2.8-2.8,2.8H12.2c-1.5,0-2.8-1.2-2.8-2.8V20
			c0-0.4,0.3-0.7,0.7-0.7c0.4,0,0.7,0.3,0.7,0.7v3.3c0,0.8,0.7,1.4,1.5,1.4h10.5c0.8,0,1.5-0.6,1.5-1.4V3.8c0-0.8-0.7-1.4-1.5-1.4
			H12.2c-0.8,0-1.5,0.6-1.5,1.4v3.3c0,0.4-0.3,0.7-0.7,0.7c-0.4,0-0.7-0.3-0.7-0.7V3.8c0-1.5,1.3-2.8,2.8-2.8H22.7z"/>
	</g>
</g>
</svg>
