<?xml version="1.0" encoding="utf-8"?>
<!-- Generator: Adobe Illustrator 23.0.3, SVG Export Plug-In . SVG Version: 6.00 Build 0)  -->
<svg version="1.1" id="Layer_1" xmlns="http://www.w3.org/2000/svg" xmlns:xlink="http://www.w3.org/1999/xlink" x="0px" y="0px"
	 viewBox="0 0 27 27" style="enable-background:new 0 0 27 27;" xml:space="preserve">
<style type="text/css">
	.st0{fill-rule:evenodd;clip-rule:evenodd;fill:#FFFFFF;}
</style>
<title>Atoms/Icon/traveller</title>
<desc>Created with Sketch.</desc>
<g>
	<g id="traveller">
		<path class="st0" d="M19.2,12.5c2.3-2.9,1.9-7.1-0.8-9.6s-6.9-2.5-9.7,0s-3.1,6.7-0.8,9.6C3.6,14.6,1,18.9,1,23.6
			C1,24.9,6.6,26,13.5,26S26,24.9,26,23.6C26,18.9,23.4,14.6,19.2,12.5z M13.5,2.2c3.3,0,6,2.7,6,5.9s-2.7,5.9-6,5.9s-6-2.7-6-5.9
			C7.6,4.9,10.2,2.2,13.5,2.2z M13.5,24.8c-6.6,0-10.4-0.9-11.3-1.5c0.1-4.3,2.6-8.1,6.5-9.9c2.7,2.5,6.9,2.5,9.6,0
			c3.9,1.8,6.4,5.7,6.5,9.9C23.9,23.9,20.1,24.8,13.5,24.8L13.5,24.8z"/>
	</g>
</g>
</svg>
