<?xml version="1.0" encoding="utf-8" ?>
<svg xmlns="http://www.w3.org/2000/svg" xmlns:xlink="http://www.w3.org/1999/xlink" width="27" height="27">
	<rect fill="rgb(255,255,255)" stroke="none" width="27" height="27"/>
	<path fill="rgb(161,188,207)" stroke="none" transform="translate(2 6.03693)" d="M20.7615 2.2877L20.7615 6.02674C21.8685 6.14973 22.9262 6.8877 23 8.58503L23 11.4631C23 11.9551 22.6064 12.3487 22.1144 12.3487L21.8193 12.3487L21.8193 14.661C21.8193 15.1529 21.4257 15.5465 20.9337 15.5465L20.0973 15.5465C19.6053 15.5465 19.2118 15.1529 19.2118 14.661L19.2118 12.3487L3.78824 12.3487L3.78824 14.661C3.78824 15.1529 3.39465 15.5465 2.90267 15.5465L2.06631 15.5465C1.57433 15.5465 1.18075 15.1529 1.18075 14.661L1.18075 12.3733L0.885562 12.3733C0.393583 12.3733 0 11.9797 0 11.4877L0 8.58503C0 6.8877 1.05775 6.14973 2.16471 6.02674L2.16471 2.2877C2.16471 0.590374 3.34545 0 4.45241 0L18.4738 0C19.5807 0 20.7615 0.614973 20.7615 2.2877ZM3.05027 2.2877L3.00107 2.2877L3.00107 6.00214L3.81283 6.00214L3.81283 3.88663C3.81283 3.39465 4.20642 3.00107 4.6984 3.00107L10.1102 3.00107C10.6021 3.00107 10.9957 3.39465 10.9957 3.88663L10.9957 6.00214L12.0289 6.00214L12.0289 3.88663C12.0289 3.39465 12.4225 3.00107 12.9144 3.00107L18.3262 3.00107C18.8182 3.00107 19.2118 3.39465 19.2118 3.88663L19.2118 6.00214L19.8759 6.00214L19.8759 2.2877C19.8759 1.13155 19.1134 0.885562 18.4738 0.885562L4.45241 0.885562C3.81283 0.885562 3.05027 1.13155 3.05027 2.2877ZM10.1594 6.00214L10.1594 3.88663L4.74759 3.88663L4.74759 6.00214L10.1594 6.00214ZM18.3262 3.88663L18.3262 6.00214L12.9144 6.00214L12.9144 3.88663L18.3262 3.88663ZM0.860963 9.2984L22.0406 9.2984L22.0406 8.58503C22.0406 7.10909 20.9829 6.8877 20.3433 6.8877L2.55829 6.8877C1.94332 6.8877 0.860963 7.10909 0.860963 8.58503L0.860963 9.2984ZM22.0406 11.4877L0.860963 11.4877L0.860963 10.184L22.0406 10.184L22.0406 11.4877ZM2.87807 14.661L2.04171 14.661L2.04171 12.3487L2.87807 12.3487L2.87807 14.661ZM20.0481 14.661L20.8845 14.661L20.8845 12.3487L20.0481 12.3487L20.0481 14.661Z" fill-rule="evenodd"/>

</svg>