<?xml version="1.0" encoding="utf-8" ?>
<svg xmlns="http://www.w3.org/2000/svg" xmlns:xlink="http://www.w3.org/1999/xlink" width="10" height="28">
	<path fill="rgb(161,188,207)" stroke="none" transform="matrix(0.92 0 0 0.92 0.840088 1.87988)" d="M7.7 2.8C7.7 4.354 6.454 5.6 4.9 5.6C3.346 5.6 2.1 4.354 2.1 2.8C2.1 1.246 3.346 0 4.9 0C6.454 0 7.7 1.246 7.7 2.8ZM2.1 17.5L2.1 28L7.7 28L7.7 17.5L9.8 17.5L9.8 9.8C9.8 8.26 8.54 7 7 7L2.8 7C1.26 7 0 8.26 0 9.8L0 17.5L2.1 17.5Z" fill-rule="evenodd"/>

</svg>