<?xml version="1.0" encoding="utf-8" ?>
<svg xmlns="http://www.w3.org/2000/svg" xmlns:xlink="http://www.w3.org/1999/xlink" width="9" height="19">
	<path fill="rgb(161,188,207)" stroke="none" transform="matrix(0.95 0 0 0.95 0.399902 1.1499)" d="M6.6 2.4C6.6 3.732 5.532 4.8 4.2 4.8C2.868 4.8 1.8 3.732 1.8 2.4C1.8 1.068 2.868 0 4.2 0C5.532 0 6.6 1.068 6.6 2.4ZM1.8 12.5L1.8 19L6.6 19L6.6 12.5L8.4 12.5L8.4 7.73333C8.4 6.78 7.32 6 6 6L2.4 6C1.08 6 0 6.78 0 7.73333L0 12.5L1.8 12.5Z" fill-rule="evenodd"/>

</svg>