<?xml version="1.0" encoding="utf-8"?>
<!-- Generator: Adobe Illustrator 24.0.2, SVG Export Plug-In . SVG Version: 6.00 Build 0)  -->
<svg version="1.1" id="Layer_1" xmlns="http://www.w3.org/2000/svg" xmlns:xlink="http://www.w3.org/1999/xlink" x="0px" y="0px"
	 viewBox="0 0 27 27" style="enable-background:new 0 0 27 27;" xml:space="preserve">
<style type="text/css">
	.st0{fill-rule:evenodd;clip-rule:evenodd;}
</style>
<title>Atoms/Icon/inbox</title>
<desc>Created with Sketch.</desc>
<g id="Atoms_x2F_Icon_x2F_inbox">
	<path id="Fill-1" class="st0" d="M25,20H2v-8.8h6.3c0.8,2.1,2.9,3.6,5.2,3.6s4.4-1.4,5.2-3.6H25V20z M5.4,5h16.2l3.2,5.3H18
		l-0.1,0.4c-0.5,1.9-2.3,3.2-4.4,3.2c-2,0-3.8-1.3-4.4-3.2L9,10.3H2.2L5.4,5z M26,10.3c0,0-0.5-0.8-1-1.7l-1.8-2.9
		c-0.6-0.9-1.9-1.7-3-1.7H6.8c-1.1,0-2.5,0.8-3,1.7L2.1,8.6C1.5,9.5,1,10.3,1,10.3h0c0,0,0,0.9,0,2V19c0,1.1,0.9,2,2,2h21
		c1.1,0,2-0.9,2-2v-6.7C26,11.2,26,10.3,26,10.3L26,10.3z"/>
</g>
</svg>
