<?xml version="1.0" encoding="utf-8"?>
<!-- Generator: Adobe Illustrator 23.0.2, SVG Export Plug-In . SVG Version: 6.00 Build 0)  -->
<svg version="1.1" id="Capa_1" xmlns="http://www.w3.org/2000/svg" xmlns:xlink="http://www.w3.org/1999/xlink" x="0px" y="0px"
	 viewBox="0 0 512.5 512.5" style="enable-background:new 0 0 512.5 512.5;" xml:space="preserve">
<style type="text/css">
	.st0{fill:#00A2AA;}
	.st1{fill:#F3F3F3;}
	.st2{fill-rule:evenodd;clip-rule:evenodd;fill:#00AFB1;}
	.st3{fill-rule:evenodd;clip-rule:evenodd;fill:#F5F9F9;}
	.st4{fill-rule:evenodd;clip-rule:evenodd;fill:#7D8082;}
</style>
<g>
	
		<image style="overflow:visible;opacity:0.75;" width="428" height="511" xlink:href="8022399B.png"  transform="matrix(1 0 0 1 41.9921 6.5251)">
	</image>
	<g>
		<path class="st0" d="M395.9,76.2c-77.3-77.3-202.1-77.3-278.4,0c-77.3,77.3-77.3,201.1,0,278.4l138.7,139.7l138.7-138.7
			C472.2,278.3,472.2,153.5,395.9,76.2z"/>
	</g>
</g>
<path class="st1" d="M256.2,84.1c-72.3,0-131.8,58.5-131.8,131.8c0,72.3,58.5,131.8,131.8,131.8c72.3,0,131.8-58.5,131.8-131.8
	S328.5,84.1,256.2,84.1z"/>
<g>
	<g>
		<path class="st2" d="M274.3,241.6c8.1,0,16.1,0,24.2,0c2.1,0.4,3-0.2,3-1.9v-9.5c0-11.5,0-23.1,0-35l0,0l0,0V195v-3.6h10.2
			c-5.5-5.1-10.8-10-16.3-14.6v-27.1c0-1.9-1.3-3.2-3-3.2h-12.3c-1.7,0-3,1.3-3,3.2V160c-4.9-4.5-9.7-8.9-14.4-13.2
			c-1.9-1.7-2.6-1.7-4.5,0c-15.7,13.8-31.2,27.4-46.9,41.4c-1.1,0.8-2.1,1.9-3.2,3h7.8v3.2c0,0.6,0,1.1,0,1.9
			c0,14.4,0.2,28.4,0,42.6c0,2.1,0.6,2.6,2.6,2.6c8.3-0.4,16.5-0.4,24.8,0"/>
	</g>
	<g>
		<path class="st3" d="M252.1,193.9c0,6.1,0,12.1,0,18.2c0,1.1,0,2.1,0.2,3c0.2,1.5,0.8,3,1.5,4.4c0.4,0.6,0.4,0.8-0.4,0.8
			c-4.9,0-9.7,0-14.6,0c-0.2,0-0.6,0.2-0.8-0.2c-0.2-0.4-0.2-0.8,0-0.9c0-0.2,0.4-0.2,0.6-0.2c0.8,0,1.3,0,2.1,0
			c2.3-0.4,3.4-1.5,3.8-3.8c0.2-1.3,0.2-2.6,0.2-4.2c0-6.8,0-13.6,0-20.4c0-4,0-7.9,0-11.9c0-1.3-0.2-2.6-0.6-3.8
			c-0.4-1.1-1.1-1.7-2.1-2.1c-0.9-0.4-2.1-0.4-3.2-0.4c-0.8,0-0.9-0.4-0.8-1.1c0-0.2,0.2-0.2,0.4-0.2s0.6,0,0.8,0
			c7.2,0,14.2,0,21.4,0c1.3,0,2.6,0,4.2,0.2c0.9,0.2,2.1,0.4,3,0.6c2.1,0.6,4.2,1.3,5.9,2.8c3.2,2.6,4.5,6.1,4.2,10
			c-0.2,1.7-0.6,3.2-1.9,4.5c-1.1,0.9-2.3,1.3-3.8,0.9c-1.1-0.2-2.3-0.8-3.2-1.5c-0.4-0.2-0.4-0.4-0.2-0.8c2.3-2.6,2.5-5.5,1.1-8.5
			c-0.8-2.1-2.3-3.6-4.2-4.5c-1.1-0.6-2.3-0.9-3.6-1.3c-1.9-0.4-3.8-0.6-5.7-0.6c-1.3,0-2.6,0.2-4,0.6c-0.4,0.2-0.6,0.4-0.6,0.8
			c0,2.8,0,5.7,0,8.7C252.1,186.7,252.1,190.3,252.1,193.9z"/>
		<path class="st3" d="M284.7,199.5c0,2.5,0,4.9,0,7.6c0,0.8,0,0.8-0.8,0.8c-0.9,0-0.9,0-1.1-0.9c-0.4-1.3-0.6-2.8-1.1-4.2
			c-0.9-2.6-2.6-4.7-5.1-6.2c-3-1.7-6.4-2.3-9.8-1.5c-2.5,0.6-4.5,1.7-5.7,4.2c-0.8,1.3-0.9,2.8-0.4,4.4c0.2,0.8,0.9,2.5,1.1,2.6
			c0.4,0.4,0.2,0.2,0.6,0.8c0.6,0.8,2.1,1.9,3.4,2.6c2.8,1.7,5.7,3.4,8.7,5.1c1.9,1.1,3.6,2.1,5.3,3.4c1.9,1.3,3.4,3,4.2,5.3
			c0.9,2.6,0.9,5.3-0.4,7.8c-0.8,2.1-2.5,3-4.4,3.6c-1.1,0.4-2.3,0.4-3.6,0.4c-0.2,0-0.4,0-0.4-0.2c0-0.2,0.2-0.2,0.2-0.4
			c1.5-1.1,2.5-2.5,2.8-4.4c0.4-1.9-0.2-3.4-1.5-4.9c-1.5-1.5-3.2-2.8-5.1-4c-2.6-1.7-5.5-3-8.1-4.5c-2.1-1.1-4.2-2.5-5.9-4.2
			c-1.5-1.7-2.5-3.6-3-5.9c-0.4-2.3-0.4-4.5,0.4-6.8c0.8-2.5,2.5-4.5,4.5-6.1c1.9-1.3,4-2.3,6.2-2.6c2.1-0.4,4.4-0.2,6.4,0.2
			c2.5,0.6,4.9,1.3,7.2,1.9c0.6,0.2,0.9,0.2,1.5,0.2c0.8,0,1.3-0.4,1.5-1.1c0-0.2,0.2-0.4,0.2-0.6c0.2-0.2,0-0.6,0.4-0.8
			c0.4-0.2,0.8-0.2,1.3,0c0.4,0,0.2,0.4,0.2,0.6c0,1.9,0,3.8,0,5.5C284.7,198.2,284.7,199,284.7,199.5z"/>
	</g>
</g>
<path class="st4" d="M195.5,126.3c-36.7,25-55.4,71.3-43.1,116.7c15.3,57.3,74.4,91.4,131.7,76.1c46.9-12.5,78.1-54.3,79.7-100.3
	c-6.4,37.8-34.2,70.4-73.8,81c-54.1,14.6-109.7-17.6-124.3-71.7C155.4,189.9,168.3,151.1,195.5,126.3L195.5,126.3z"/>
<path class="st2" d="M315.7,274.7c31-21.2,46.7-60.2,36.5-98.4c-13.1-48.4-62.8-77.2-111.1-64.1c-39.7,10.6-66,45.8-67.4,84.6
	c5.5-32,29-59.4,62.3-68.3c45.6-12.3,92.7,14.9,104.8,60.6C349.6,221.1,338.8,253.9,315.7,274.7L315.7,274.7z"/>
<g>
	<path class="st4" d="M324.2,247.6c-0.9-2.6-5.1-4.2-10-3.6c-1.1,0-2.6,0.4-3.8,0.8c-5.9,1.7-35.6,11.9-35.8,12.1l-0.6,0.2l0.4,0.4
		c3.4,2.8,4.9,5.9,4.2,8.3c-0.9,3.6-5.9,5.9-14,6.4c-7,0.6-15.9,0-26.3-2.1c0.9,0,2.5,0,3.6,0.2c7.6-0.2,14.8-0.2,20.1-0.4
		c8.5-0.8,12.7-2.6,13.4-6.1c0.2-2.1-0.9-3.8-4-5.1c-3.2-1.9-10-2.6-16.5-3.8c-4.4-0.6-8.5-1.1-11.5-2.1
		c-10.4-2.6-20.8-5.3-33.1-4.4c-2.1,0.2-4,0.4-5.9,0.8c-9.5,1.5-18.7,3.8-28.4,6.6l-1.1,0.2l14.4,20.6c2.6-0.6,5.1-1.1,7.8-1.3
		c3.4-0.2,6.6-0.2,9.7,0.2c4,0.8,13.8,2.8,23.3,4.5c9.8,2.3,19.1,4,22.7,4.4c2.3,0.4,4,0.4,6.1,0.2c4.7-0.4,9.8-3,14.6-5.3
		c1.3-0.9,3-1.5,4.2-2.5l42.6-23.1C325,251.4,325,248.9,324.2,247.6L324.2,247.6z"/>
</g>
</svg>
