<?xml version="1.0" encoding="utf-8" ?>
<svg xmlns="http://www.w3.org/2000/svg" xmlns:xlink="http://www.w3.org/1999/xlink" width="27" height="27">
	<defs>
		<clipPath id="clip_0">
			<rect x="-15" y="-2705" width="375" height="3498" clip-rule="evenodd"/>
		</clipPath>
	</defs>
	<g clip-path="url(#clip_0)">
		<path fill="rgb(2,189,188)" stroke="none" transform="translate(4 12.1111)" d="M5.87388 13.0739L1.35184 13.0739C1.10268 13.0739 0.901228 12.8927 0.901228 12.6687L0.901228 0.405132C0.901228 0.181118 0.699777 0 0.450614 0C0.201451 0 0 0.181118 0 0.405132L0 12.6687C0 13.3408 0.609654 13.8889 1.35714 13.8889L17.6429 13.8889C18.3903 13.8889 19 13.3408 19 12.6687L19 0.405132C19 0.181118 18.7985 0 18.5494 0C18.3002 0 18.0988 0.181118 18.0988 0.405132L18.0988 12.6687C18.0988 12.8927 17.8973 13.0739 17.6482 13.0739L13.1261 13.0739"/>
	</g>
	<defs>
		<clipPath id="clip_1">
			<rect x="-15" y="-2705" width="375" height="3498" clip-rule="evenodd"/>
		</clipPath>
	</defs>
	<g clip-path="url(#clip_1)">
		<path fill="rgb(255,255,255)" stroke="none" transform="translate(1 1)" d="M24.599 10.7804L13.4784 0.367848C12.9339 -0.122616 12.0607 -0.122616 11.5162 0.367848L0.400979 10.7804C0.00208018 11.1532 -0.111121 11.7074 0.115281 12.188C0.325511 12.6589 0.82683 12.963 1.38205 12.963L1.53838 12.963C1.8672 12.9581 2.18524 12.8502 2.4332 12.6491C2.46555 12.6294 2.49789 12.6098 2.52484 12.5853L12.5027 3.23216L22.4859 12.5902C22.5129 12.6147 22.5398 12.6344 22.5722 12.654C22.8201 12.8502 23.1328 12.963 23.4616 12.963L23.6179 12.963C24.1732 12.963 24.6745 12.6589 24.8847 12.188C25.1111 11.7123 24.9979 11.1532 24.599 10.7804Z"/>
	</g>
	<defs>
		<clipPath id="clip_2">
			<rect x="-15" y="-2705" width="375" height="3498" clip-rule="evenodd"/>
		</clipPath>
	</defs>
	<g clip-path="url(#clip_2)">
		<path fill="none" stroke="rgb(2,189,188)" stroke-width="1" stroke-miterlimit="4" transform="translate(1 1)" d="M24.599 10.7804L13.4784 0.367848C12.9339 -0.122616 12.0607 -0.122616 11.5162 0.367848L0.400979 10.7804C0.00208018 11.1532 -0.111121 11.7074 0.115281 12.188C0.325511 12.6589 0.82683 12.963 1.38205 12.963L1.53838 12.963C1.8672 12.9581 2.18524 12.8502 2.4332 12.6491C2.46555 12.6294 2.49789 12.6098 2.52484 12.5853L12.5027 3.23216L22.4859 12.5902C22.5129 12.6147 22.5398 12.6344 22.5722 12.654C22.8201 12.8502 23.1328 12.963 23.4616 12.963L23.6179 12.963C24.1732 12.963 24.6745 12.6589 24.8847 12.188C25.1111 11.7123 24.9979 11.1532 24.599 10.7804Z"/>
	</g>

</svg>