<?xml version="1.0" encoding="utf-8" ?>
<svg xmlns="http://www.w3.org/2000/svg" xmlns:xlink="http://www.w3.org/1999/xlink" width="8" height="14">
	<path fill="rgb(161,188,207)" stroke="none" transform="matrix(0.99 0 0 0.99 0.47998 0.379883)" d="M5.55789 2.02105C5.55789 3.14274 4.65853 4.04211 3.53684 4.04211C2.41516 4.04211 1.51579 3.14274 1.51579 2.02105C1.51579 0.899368 2.41516 0 3.53684 0C4.65853 0 5.55789 0.899368 5.55789 2.02105ZM1.51579 9.05263L1.51579 13.0526L5.55789 13.0526L5.55789 9.05263L7.07368 9.05263L7.07368 6.1193C7.07368 5.53263 6.16421 5.05263 5.05263 5.05263L2.02105 5.05263C0.909474 5.05263 0 5.53263 0 6.1193L0 9.05263L1.51579 9.05263Z" fill-rule="evenodd"/>

</svg>